<?xml version="1.0" encoding="utf-8"?>
<svg viewBox="139 45.23 300.305 398.27" xmlns="http://www.w3.org/2000/svg">
  <defs>
    <style type="text/css">
	.st0{fill:#0A0B0D;}
</style>
  </defs>
  <g>
    <path class="st0" d="M434.5,404.3c-4.2-3.9-9.4-7.2-15.1-9.6c-3.9-1.6-8-2.3-12-3.1c-1.5-0.3-2.8-0.5-4.2-0.8 c2.6-7.2,5.5-14.3,6.9-21.8c3.9-21.3,6.8-42.9,10.1-64.3c4.3-27.9,7.7-55.7,0.8-83.7c-1.9-7.9-0.2-15.1,4.3-22.3 c4-6.5,7.3-14.1,8.3-21.6c1.6-12.3,1.6-24.9-2.6-36.9c-1.4-4-3.2-8.1-5.7-11.6c-10.9-15.4-22-30.5-33.1-45.7 c-17-23.2-40.6-35.2-68.8-37c-19.3-1.2-38.8-0.5-58.3-0.1c-5.4,0.1-11.2,0.9-15.9,3.3c-17,8.6-30.7,20.5-37.3,39.2 c-5.2,14.7-10.7,29.3-12.5,45.1c-0.9,7.9-4.8,10.6-12.9,11.4c-5.2,0.5-10.3,1.4-15.3,2.6c-17.3,3.9-26.7,13.4-29.1,31.3 c-1.5,11.1-1.3,22.5-1.6,33.8c-0.6,24-1.5,48.1-1.5,72.1c0,10.9,1.4,22,3.5,32.7c3.2,16.7,13.9,26.9,30.5,30.8 c4.8,1.1,9.7,1.6,14.6,2.3c7.2,1,9.7,3.4,10.3,10.5c0.9,10.5,1.6,21,2.4,31.6l-8.8,2.8c-6.2,2-12.5,4-18.7,5.9 c-6,1.9-9.4,6.5-9.6,12.7c-0.1,6.2,3,10.9,8.8,13.2c1.2,0.5,2.4,1,3.5,1.5c3.5,1.5,7.2,3.1,11.2,3.8c4.4,0.8,8.8,1.6,13.2,2.5 c14.5,2.8,29.6,5.6,44.6,6.7c25,1.8,50.4,1.8,75,1.9h6.9c0.4,0,0.8,0,1.2,0c23.3,0,48.4-2.8,79-8.9c10.8-2.1,19.1-5.4,25.9-10.2 c4.2-3,6.5-6.4,6.8-10.1C439.4,410.8,437.9,407.4,434.5,404.3z M167.4,182.2c3-11.8,12-16.8,23.9-14.1c3.6,0.8,5.8,2.4,5.4,6.4 c-0.7,6.3-1.5,12.6-2.2,18.9c-9.7,1.1-19.4,2.2-29.1,3.3l0,0C166,191.9,166.2,186.9,167.4,182.2z M164.1,200.6 c0,0.1-0.1,0.3-0.1,0.4C164,200.8,164,200.7,164.1,200.6z M305.8,360.7c0.1-3,0.1-6.1,3.9-6.5c4-0.3,5.4,2.5,5.9,6 c1.1,7.2,2.1,14.4,3.2,21.6h-14.1C305.1,374.8,305.5,367.7,305.8,360.7z M404.6,137.3c6,5.1,9.7,11.5,9,19.7 c-7.5,7.1-16.6,10.1-26.7,10.6c-16.2,0.9-32.3,2.4-48.5,2.8c-22,0.6-33.8-8.4-40.4-29.4c-1.5-4.7-3.2-9.2-4.8-13.9 c1.4-0.9,2.7-2.5,4.1-2.7c17.2-2.6,34.3-6,51.5-7.3C370.1,115.5,388.6,123.7,404.6,137.3z M235.7,95.4 c3.7-14.2,21.3-28.6,36.6-28.6c15.9-0.1,31.9,0.1,47.7,1.8c19.8,2.2,35.5,12.7,48.8,29.1c-3.1,0.8-5.2,1.8-7.3,1.8 c-6.4,0.1-12.7,0.2-19.1-0.2c-18.7-1-37,1.4-55,6.1c-15.3,4-21.7,11.3-23.8,27.1c-2.6,19.2-1.9,38.1,5.6,56.3 c6.3,15.5,17.2,25.7,33.2,30.7c15.5,4.9,31.4,5.7,47.2,2.8c12.5-2.2,24.8-5.6,37.3-8.4c3-0.7,6.1-1,10.4-1.7 c0.1,4.8,0.3,8.7,0.4,12.5l0,0c-0.5,1.3-1.2,2.6-1.4,4c-1.6,15.3-5.2,30.1-10.2,44.7c-4.1,11.7-11.6,19.5-23.7,23.4 c-17.8,5.8-35.8,6-54,3.4c-10.9-1.5-21.6-4.3-32.4-5.5c-5.1-0.6-8.8-2.4-11.8-6.2c-9.8-12.4-17.6-25.8-21.1-41.4 c-5-22-8.7-44.1-10.8-66.6c-2.3-24.9-2.6-49.6,2.9-74.1C236.1,102.9,235.6,99.1,235.7,95.4c-1.3,2.7-2.9,5.3-4.4,7.9 C232.8,100.6,234.4,98,235.7,95.4z M427,416.7c-5.7,4-12.8,6.8-22.2,8.7c-30.5,6-55.4,8.7-78.3,8.7h-6.9 c-24.4-0.1-49.7-0.2-74.3-1.9c-14.5-1-29.3-3.8-43.5-6.6c-4.4-0.8-8.9-1.7-13.3-2.5c-2.9-0.5-5.9-1.8-9.1-3.2 c-1.3-0.6-2.5-1.1-3.8-1.6c-2.1-0.8-2.9-2-2.9-4.3c0-2.2,0.8-3.2,3-3.9c6.2-2,12.5-4,18.7-5.9l4.5-1.4c0.4,0.6,0.8,1.1,1,1.6 c3,7.6,8,13.1,14.8,16.4c28,13.5,53.6,12.5,76.1-3.2c7.8-5.4,12.2-11.9,13.5-19.8c0.1-0.7,0.2-1.4,0.3-2.1c0.3-2.8,0.6-3.8,1.2-4.3 h11.9c0.3,0.3,0.5,0.5,0.8,0.8c1.3,1.3,2.6,2.6,3.4,3.8c6.7,11.5,16.5,17,29.2,16.4c8-0.4,15.7-0.4,23,0c9.8,0.5,17.9-2.7,24.7-9.6 c0.7-0.7,1.9-1.3,3.1-2c0.2-0.1,0.4-0.2,0.7-0.4c1.1,0.2,2.3,0.4,3.3,0.6c3.6,0.7,7.1,1.3,10.1,2.5c4.6,1.9,8.9,4.6,12.2,7.7 c1.4,1.3,1.8,2.2,1.8,2.5C429.8,414.1,429.1,415.1,427,416.7z"/>
    <path class="st0" d="M330.2,137.9c0.6,4.6,4.4,7.9,10.6,8.5c10.3,1,20.7,1.6,31,2.4c0-0.1,0-0.2,0-0.2c5.2,0,10.4-0.1,15.6,0 c3.8,0.1,7.6-1,8.2-4.8c0.4-2.6-0.9-6.7-2.9-8.3c-4.2-3.3-9.1-6-14.2-7.7c-5.1-1.8-10.7-2.9-16.1-3.1c-8-0.3-16.1-0.3-24,1.1 C332.2,126.7,329.4,132.1,330.2,137.9z"/>
  </g>
</svg>