M48
; DRILL file {KiCad 6.0.6-3a73a75311~116~ubuntu22.04.1} date Fri 02 Sep 2022 05:16:27 PM PDT
; FORMAT={-:-/ absolute / metric / decimal}
; #@! TF.CreationDate,2022-09-02T17:16:27-07:00
; #@! TF.GenerationSoftware,Kicad,Pcbnew,6.0.6-3a73a75311~116~ubuntu22.04.1
; #@! TF.FileFunction,Plated,1,4,PTH
FMAT,2
METRIC
; #@! TA.AperFunction,Plated,PTH,ViaDrill
T1C0.400
; #@! TA.AperFunction,Plated,PTH,ComponentDrill
T2C1.000
; #@! TA.AperFunction,Plated,PTH,ComponentDrill
T3C1.270
; #@! TA.AperFunction,Plated,PTH,ComponentDrill
T4C1.700
; #@! TA.AperFunction,Plated,PTH,ComponentDrill
T5C1.780
; #@! TA.AperFunction,Plated,PTH,ComponentDrill
T6C2.540
; #@! TA.AperFunction,Plated,PTH,ComponentDrill
T7C5.700
%
G90
G05
T1
X62.23Y-67.31
X62.23Y-76.2
X75.565Y-102.235
X76.835Y-74.93
X78.04Y-96.52
X78.74Y-73.025
X78.74Y-97.79
X80.01Y-100.33
X88.265Y-102.87
X88.265Y-104.14
X88.265Y-105.41
T2
X64.66Y-60.98
X64.66Y-63.48
X193.04Y-80.05
X193.04Y-82.55
X193.04Y-89.575
X193.04Y-92.075
X193.04Y-99.1
X193.04Y-101.6
X193.04Y-108.625
X193.04Y-111.125
T3
X92.6Y-80.965
X92.6Y-83.965
X110.6Y-80.965
X110.6Y-83.965
X118.0Y-80.965
X118.0Y-83.965
X136.0Y-80.965
X136.0Y-83.965
X143.4Y-80.965
X143.4Y-83.965
X161.4Y-80.965
X161.4Y-83.965
X168.805Y-80.965
X168.805Y-83.965
X186.805Y-80.965
X186.805Y-83.965
T4
X95.25Y-135.105
X95.25Y-139.065
X95.25Y-143.025
X107.95Y-135.105
X107.95Y-139.065
X107.95Y-143.025
X120.65Y-135.105
X120.65Y-139.065
X120.65Y-143.025
X133.35Y-135.105
X133.35Y-139.065
X133.35Y-143.025
X146.155Y-135.105
X146.155Y-139.065
X146.155Y-143.025
X158.75Y-135.105
X158.75Y-139.065
X158.75Y-143.025
X171.45Y-135.105
X171.45Y-139.065
X171.45Y-143.025
X184.255Y-135.105
X184.255Y-139.065
X184.255Y-143.025
T5
X71.325Y-106.8
X71.325Y-116.72
X74.725Y-106.8
X74.725Y-116.72
X95.455Y-56.0
X95.455Y-65.92
X98.855Y-56.0
X98.855Y-65.92
X104.345Y-56.0
X104.345Y-65.92
X107.745Y-56.0
X107.745Y-65.92
X120.855Y-56.0
X120.855Y-65.92
X124.255Y-56.0
X124.255Y-65.92
X129.745Y-56.0
X129.745Y-65.92
X133.145Y-56.0
X133.145Y-65.92
X146.255Y-56.0
X146.255Y-65.92
X149.655Y-56.0
X149.655Y-65.92
X155.145Y-56.0
X155.145Y-65.92
X158.545Y-56.0
X158.545Y-65.92
X171.655Y-56.0
X171.655Y-65.92
X175.055Y-56.0
X175.055Y-65.92
X180.545Y-56.0
X180.545Y-65.92
X183.945Y-56.0
X183.945Y-65.92
T6
X92.6Y-72.965
X92.6Y-116.965
X92.6Y-122.965
X92.6Y-128.965
X98.6Y-72.965
X104.6Y-72.965
X110.6Y-72.965
X110.6Y-116.965
X110.6Y-122.965
X110.6Y-128.965
X118.0Y-72.965
X118.0Y-116.965
X118.0Y-122.965
X118.0Y-128.965
X124.0Y-72.965
X130.0Y-72.965
X136.0Y-72.965
X136.0Y-116.965
X136.0Y-122.965
X136.0Y-128.965
X143.4Y-72.965
X143.4Y-116.965
X143.4Y-122.965
X143.4Y-128.965
X149.4Y-72.965
X155.4Y-72.965
X161.4Y-72.965
X161.4Y-116.965
X161.4Y-122.965
X161.4Y-128.965
X168.805Y-72.965
X168.805Y-116.965
X168.805Y-122.965
X168.805Y-128.965
X174.805Y-72.965
X180.805Y-72.965
X186.805Y-72.965
X186.805Y-116.965
X186.805Y-122.965
X186.805Y-128.965
T7
X74.295Y-127.85
X74.295Y-138.85
T0
M30
