G04 #@! TF.GenerationSoftware,KiCad,Pcbnew,6.0.6-3a73a75311~116~ubuntu22.04.1*
G04 #@! TF.CreationDate,2022-09-02T17:28:33-07:00*
G04 #@! TF.ProjectId,thrusterV3,74687275-7374-4657-9256-332e6b696361,rev?*
G04 #@! TF.SameCoordinates,Original*
G04 #@! TF.FileFunction,Soldermask,Bot*
G04 #@! TF.FilePolarity,Negative*
%FSLAX46Y46*%
G04 Gerber Fmt 4.6, Leading zero omitted, Abs format (unit mm)*
G04 Created by KiCad (PCBNEW 6.0.6-3a73a75311~116~ubuntu22.04.1) date 2022-09-02 17:28:33*
%MOMM*%
%LPD*%
G01*
G04 APERTURE LIST*
G04 Aperture macros list*
%AMRoundRect*
0 Rectangle with rounded corners*
0 $1 Rounding radius*
0 $2 $3 $4 $5 $6 $7 $8 $9 X,Y pos of 4 corners*
0 Add a 4 corners polygon primitive as box body*
4,1,4,$2,$3,$4,$5,$6,$7,$8,$9,$2,$3,0*
0 Add four circle primitives for the rounded corners*
1,1,$1+$1,$2,$3*
1,1,$1+$1,$4,$5*
1,1,$1+$1,$6,$7*
1,1,$1+$1,$8,$9*
0 Add four rect primitives between the rounded corners*
20,1,$1+$1,$2,$3,$4,$5,0*
20,1,$1+$1,$4,$5,$6,$7,0*
20,1,$1+$1,$6,$7,$8,$9,0*
20,1,$1+$1,$8,$9,$2,$3,0*%
G04 Aperture macros list end*
%ADD10RoundRect,0.250000X1.800000X-1.330000X1.800000X1.330000X-1.800000X1.330000X-1.800000X-1.330000X0*%
%ADD11O,4.100000X3.160000*%
%ADD12C,5.080000*%
%ADD13C,2.070000*%
%ADD14RoundRect,0.250000X-0.750000X0.600000X-0.750000X-0.600000X0.750000X-0.600000X0.750000X0.600000X0*%
%ADD15O,2.000000X1.700000*%
%ADD16C,2.780000*%
%ADD17RoundRect,0.250000X0.750000X-0.600000X0.750000X0.600000X-0.750000X0.600000X-0.750000X-0.600000X0*%
%ADD18C,3.200000*%
%ADD19C,9.900000*%
%ADD20R,1.200000X2.200000*%
%ADD21R,5.800000X6.400000*%
G04 APERTURE END LIST*
D10*
X184255000Y-143025000D03*
D11*
X184255000Y-139065000D03*
X184255000Y-135105000D03*
D12*
X110600000Y-72965000D03*
X104600000Y-72965000D03*
X110600000Y-116965000D03*
X110600000Y-122965000D03*
X110600000Y-128965000D03*
D13*
X110600000Y-83965000D03*
X110600000Y-80965000D03*
D14*
X64660000Y-60980000D03*
D15*
X64660000Y-63480000D03*
D16*
X171655000Y-56000000D03*
X175055000Y-56000000D03*
X175055000Y-65920000D03*
X171655000Y-65920000D03*
D10*
X107950000Y-143025000D03*
D11*
X107950000Y-139065000D03*
X107950000Y-135105000D03*
D10*
X171450000Y-143025000D03*
D11*
X171450000Y-139065000D03*
X171450000Y-135105000D03*
D17*
X193040000Y-82550000D03*
D15*
X193040000Y-80050000D03*
D10*
X95250000Y-143025000D03*
D11*
X95250000Y-139065000D03*
X95250000Y-135105000D03*
D10*
X120650000Y-143025000D03*
D11*
X120650000Y-139065000D03*
X120650000Y-135105000D03*
D18*
X63500000Y-142875000D03*
D16*
X183945000Y-56000000D03*
X180545000Y-56000000D03*
X180545000Y-65920000D03*
X183945000Y-65920000D03*
D17*
X193040000Y-92075000D03*
D15*
X193040000Y-89575000D03*
D16*
X104345000Y-56000000D03*
X107745000Y-56000000D03*
X104345000Y-65920000D03*
X107745000Y-65920000D03*
X74725000Y-116720000D03*
X71325000Y-116720000D03*
X71325000Y-106800000D03*
X74725000Y-106800000D03*
D17*
X193040000Y-101600000D03*
D15*
X193040000Y-99100000D03*
D16*
X95455000Y-56000000D03*
X98855000Y-56000000D03*
X98855000Y-65920000D03*
X95455000Y-65920000D03*
X124255000Y-56000000D03*
X120855000Y-56000000D03*
X124255000Y-65920000D03*
X120855000Y-65920000D03*
X155145000Y-56000000D03*
X158545000Y-56000000D03*
X158545000Y-65920000D03*
X155145000Y-65920000D03*
X133145000Y-56000000D03*
X129745000Y-56000000D03*
X133145000Y-65920000D03*
X129745000Y-65920000D03*
D18*
X193675000Y-142875000D03*
X63500000Y-53975000D03*
D19*
X74295000Y-127850000D03*
X74295000Y-138850000D03*
D17*
X193040000Y-111125000D03*
D15*
X193040000Y-108625000D03*
D10*
X146155000Y-143025000D03*
D11*
X146155000Y-139065000D03*
X146155000Y-135105000D03*
D12*
X186805000Y-72965000D03*
X180805000Y-72965000D03*
X186805000Y-116965000D03*
X186805000Y-122965000D03*
X186805000Y-128965000D03*
D13*
X186805000Y-83965000D03*
X186805000Y-80965000D03*
D16*
X149655000Y-56000000D03*
X146255000Y-56000000D03*
X146255000Y-65920000D03*
X149655000Y-65920000D03*
D10*
X133350000Y-143025000D03*
D11*
X133350000Y-139065000D03*
X133350000Y-135105000D03*
D12*
X161400000Y-72965000D03*
X155400000Y-72965000D03*
X161400000Y-116965000D03*
X161400000Y-122965000D03*
X161400000Y-128965000D03*
D13*
X161400000Y-83965000D03*
X161400000Y-80965000D03*
D10*
X158750000Y-143025000D03*
D11*
X158750000Y-139065000D03*
X158750000Y-135105000D03*
D18*
X193675000Y-53975000D03*
D12*
X136000000Y-72965000D03*
X130000000Y-72965000D03*
X136000000Y-116965000D03*
X136000000Y-122965000D03*
X136000000Y-128965000D03*
D13*
X136000000Y-83965000D03*
X136000000Y-80965000D03*
D20*
X71495000Y-75320000D03*
D21*
X69215000Y-69020000D03*
D20*
X66935000Y-75320000D03*
D12*
X118000000Y-72965000D03*
X124000000Y-72965000D03*
X118000000Y-116965000D03*
X118000000Y-122965000D03*
X118000000Y-128965000D03*
D13*
X118000000Y-83965000D03*
X118000000Y-80965000D03*
D20*
X86735000Y-75320000D03*
D21*
X84455000Y-69020000D03*
D20*
X82175000Y-75320000D03*
D12*
X143400000Y-72965000D03*
X149400000Y-72965000D03*
X143400000Y-116965000D03*
X143400000Y-122965000D03*
X143400000Y-128965000D03*
D13*
X143400000Y-83965000D03*
X143400000Y-80965000D03*
D12*
X168805000Y-72965000D03*
X174805000Y-72965000D03*
X168805000Y-116965000D03*
X168805000Y-122965000D03*
X168805000Y-128965000D03*
D13*
X168805000Y-83965000D03*
X168805000Y-80965000D03*
D12*
X92600000Y-72965000D03*
X98600000Y-72965000D03*
X92600000Y-116965000D03*
X92600000Y-122965000D03*
X92600000Y-128965000D03*
D13*
X92600000Y-83965000D03*
X92600000Y-80965000D03*
D20*
X79115000Y-75320000D03*
D21*
X76835000Y-69020000D03*
D20*
X74555000Y-75320000D03*
G36*
X70427121Y-73680002D02*
G01*
X70473614Y-73733658D01*
X70485000Y-73786000D01*
X70485000Y-76816885D01*
X70489475Y-76832124D01*
X70490865Y-76833329D01*
X70498548Y-76835000D01*
X72371885Y-76835000D01*
X72387124Y-76830525D01*
X72388329Y-76829135D01*
X72390000Y-76821452D01*
X72390000Y-73786000D01*
X72410002Y-73717879D01*
X72463658Y-73671386D01*
X72516000Y-73660000D01*
X77979000Y-73660000D01*
X78047121Y-73680002D01*
X78093614Y-73733658D01*
X78105000Y-73786000D01*
X78105000Y-76816885D01*
X78109475Y-76832124D01*
X78110865Y-76833329D01*
X78118548Y-76835000D01*
X79991885Y-76835000D01*
X80007124Y-76830525D01*
X80008329Y-76829135D01*
X80010000Y-76821452D01*
X80010000Y-73786000D01*
X80030002Y-73717879D01*
X80083658Y-73671386D01*
X80136000Y-73660000D01*
X83059000Y-73660000D01*
X83127121Y-73680002D01*
X83173614Y-73733658D01*
X83185000Y-73786000D01*
X83185000Y-78687810D01*
X83164998Y-78755931D01*
X83148095Y-78776905D01*
X81951905Y-79973095D01*
X81889593Y-80007121D01*
X81862810Y-80010000D01*
X80028115Y-80010000D01*
X80002470Y-80017530D01*
X76847812Y-83172188D01*
X76835000Y-83195650D01*
X76835000Y-108459000D01*
X76814998Y-108527121D01*
X76761342Y-108573614D01*
X76709000Y-108585000D01*
X69341000Y-108585000D01*
X69272879Y-108564998D01*
X69226386Y-108511342D01*
X69215000Y-108459000D01*
X69215000Y-83203115D01*
X69207470Y-83177470D01*
X66076905Y-80046905D01*
X66042879Y-79984593D01*
X66040000Y-79957810D01*
X66040000Y-73786000D01*
X66060002Y-73717879D01*
X66113658Y-73671386D01*
X66166000Y-73660000D01*
X70359000Y-73660000D01*
X70427121Y-73680002D01*
G37*
G36*
X76819120Y-114320002D02*
G01*
X76867307Y-114377538D01*
X80000308Y-121896739D01*
X80010000Y-121945201D01*
X80010000Y-130503810D01*
X79989998Y-130571931D01*
X79973095Y-130592905D01*
X77506905Y-133059095D01*
X77444593Y-133093121D01*
X77417810Y-133096000D01*
X71172190Y-133096000D01*
X71104069Y-133075998D01*
X71083095Y-133059095D01*
X68616905Y-130592905D01*
X68582879Y-130530593D01*
X68580000Y-130503810D01*
X68580000Y-121925244D01*
X68580435Y-121914780D01*
X69205372Y-114415536D01*
X69230962Y-114349312D01*
X69288294Y-114307435D01*
X69330937Y-114300000D01*
X76750999Y-114300000D01*
X76819120Y-114320002D01*
G37*
G36*
X186632121Y-52725002D02*
G01*
X186678614Y-52778658D01*
X186690000Y-52831000D01*
X186690000Y-60199000D01*
X186669998Y-60267121D01*
X186616342Y-60313614D01*
X186564000Y-60325000D01*
X90823115Y-60325000D01*
X90797470Y-60332530D01*
X87642812Y-63487188D01*
X87630000Y-63510650D01*
X87630000Y-72264000D01*
X87609998Y-72332121D01*
X87556342Y-72378614D01*
X87504000Y-72390000D01*
X66166000Y-72390000D01*
X66097879Y-72369998D01*
X66051386Y-72316342D01*
X66040000Y-72264000D01*
X66040000Y-57837190D01*
X66060002Y-57769069D01*
X66076905Y-57748095D01*
X71083095Y-52741905D01*
X71145407Y-52707879D01*
X71172190Y-52705000D01*
X186564000Y-52705000D01*
X186632121Y-52725002D01*
G37*
M02*
