%FSLAX45Y45*%
G04 Gerber Fmt 4.5, Leading zero omitted, Abs format (unit mm)*
G04 Created by KiCad (PCBNEW 6.0.6-3a73a75311~116~ubuntu22.04.1) date 2022-09-02 17:16:28*
%MOMM*%
%LPD*%
G01*
G04 APERTURE LIST*
%TA.AperFunction,Profile*%
%ADD10C,0.100000*%
%TD*%
%ADD11C,0.200000*%
%ADD12C,0.040000*%
%ADD13C,0.100000*%
%ADD14C,0.127000*%
%ADD15C,0.170000*%
%ADD16C,0.178000*%
%ADD17C,0.254000*%
%ADD18C,0.570000*%
G04 APERTURE END LIST*
D10*
X19367500Y-14605000D02*
G75*
G03*
X19685000Y-14287500I0J317500D01*
G01*
X6032500Y-14287500D02*
X6032500Y-5397500D01*
X6350000Y-5080000D02*
G75*
G03*
X6032500Y-5397500I0J-317500D01*
G01*
X19367500Y-14605000D02*
X6350000Y-14605000D01*
X19685000Y-5397500D02*
G75*
G03*
X19367500Y-5080000I-317500J0D01*
G01*
X6350000Y-5080000D02*
X19367500Y-5080000D01*
X19685000Y-5397500D02*
X19685000Y-14287500D01*
X6032500Y-14287500D02*
G75*
G03*
X6350000Y-14605000I317500J0D01*
G01*
D11*
D12*
X6203000Y-6711000D02*
X6243000Y-6751000D01*
X6243000Y-6711000D02*
X6203000Y-6751000D01*
X6203000Y-7600000D02*
X6243000Y-7640000D01*
X6243000Y-7600000D02*
X6203000Y-7640000D01*
X7536500Y-10203500D02*
X7576500Y-10243500D01*
X7576500Y-10203500D02*
X7536500Y-10243500D01*
X7663500Y-7473000D02*
X7703500Y-7513000D01*
X7703500Y-7473000D02*
X7663500Y-7513000D01*
X7784050Y-9632000D02*
X7824050Y-9672000D01*
X7824050Y-9632000D02*
X7784050Y-9672000D01*
X7854000Y-7282500D02*
X7894000Y-7322500D01*
X7894000Y-7282500D02*
X7854000Y-7322500D01*
X7854000Y-9759000D02*
X7894000Y-9799000D01*
X7894000Y-9759000D02*
X7854000Y-9799000D01*
X7981000Y-10013000D02*
X8021000Y-10053000D01*
X8021000Y-10013000D02*
X7981000Y-10053000D01*
X8806500Y-10267000D02*
X8846500Y-10307000D01*
X8846500Y-10267000D02*
X8806500Y-10307000D01*
X8806500Y-10394000D02*
X8846500Y-10434000D01*
X8846500Y-10394000D02*
X8806500Y-10434000D01*
X8806500Y-10521000D02*
X8846500Y-10561000D01*
X8846500Y-10521000D02*
X8806500Y-10561000D01*
D13*
X6516000Y-6098000D02*
G75*
G03*
X6516000Y-6098000I-50000J0D01*
G01*
X6516000Y-6348000D02*
G75*
G03*
X6516000Y-6348000I-50000J0D01*
G01*
X19354000Y-8005000D02*
G75*
G03*
X19354000Y-8005000I-50000J0D01*
G01*
X19354000Y-8255000D02*
G75*
G03*
X19354000Y-8255000I-50000J0D01*
G01*
X19354000Y-8957500D02*
G75*
G03*
X19354000Y-8957500I-50000J0D01*
G01*
X19354000Y-9207500D02*
G75*
G03*
X19354000Y-9207500I-50000J0D01*
G01*
X19354000Y-9910000D02*
G75*
G03*
X19354000Y-9910000I-50000J0D01*
G01*
X19354000Y-10160000D02*
G75*
G03*
X19354000Y-10160000I-50000J0D01*
G01*
X19354000Y-10862500D02*
G75*
G03*
X19354000Y-10862500I-50000J0D01*
G01*
X19354000Y-11112500D02*
G75*
G03*
X19354000Y-11112500I-50000J0D01*
G01*
D14*
X9260000Y-8033000D02*
X9260000Y-8160000D01*
X9196500Y-8096500D02*
X9323500Y-8096500D01*
X9260000Y-8333000D02*
X9260000Y-8460000D01*
X9196500Y-8396500D02*
X9323500Y-8396500D01*
X11060000Y-8033000D02*
X11060000Y-8160000D01*
X10996500Y-8096500D02*
X11123500Y-8096500D01*
X11060000Y-8333000D02*
X11060000Y-8460000D01*
X10996500Y-8396500D02*
X11123500Y-8396500D01*
X11800000Y-8033000D02*
X11800000Y-8160000D01*
X11736500Y-8096500D02*
X11863500Y-8096500D01*
X11800000Y-8333000D02*
X11800000Y-8460000D01*
X11736500Y-8396500D02*
X11863500Y-8396500D01*
X13600000Y-8033000D02*
X13600000Y-8160000D01*
X13536500Y-8096500D02*
X13663500Y-8096500D01*
X13600000Y-8333000D02*
X13600000Y-8460000D01*
X13536500Y-8396500D02*
X13663500Y-8396500D01*
X14340000Y-8033000D02*
X14340000Y-8160000D01*
X14276500Y-8096500D02*
X14403500Y-8096500D01*
X14340000Y-8333000D02*
X14340000Y-8460000D01*
X14276500Y-8396500D02*
X14403500Y-8396500D01*
X16140000Y-8033000D02*
X16140000Y-8160000D01*
X16076500Y-8096500D02*
X16203500Y-8096500D01*
X16140000Y-8333000D02*
X16140000Y-8460000D01*
X16076500Y-8396500D02*
X16203500Y-8396500D01*
X16880500Y-8033000D02*
X16880500Y-8160000D01*
X16817000Y-8096500D02*
X16944000Y-8096500D01*
X16880500Y-8333000D02*
X16880500Y-8460000D01*
X16817000Y-8396500D02*
X16944000Y-8396500D01*
X18680500Y-8033000D02*
X18680500Y-8160000D01*
X18617000Y-8096500D02*
X18744000Y-8096500D01*
X18680500Y-8333000D02*
X18680500Y-8460000D01*
X18617000Y-8396500D02*
X18744000Y-8396500D01*
D15*
X9585105Y-13570605D02*
X9585105Y-13450395D01*
X9464895Y-13450395D01*
X9464895Y-13570605D01*
X9585105Y-13570605D01*
X9585105Y-13966605D02*
X9585105Y-13846395D01*
X9464895Y-13846395D01*
X9464895Y-13966605D01*
X9585105Y-13966605D01*
X9585105Y-14362605D02*
X9585105Y-14242395D01*
X9464895Y-14242395D01*
X9464895Y-14362605D01*
X9585105Y-14362605D01*
X10855105Y-13570605D02*
X10855105Y-13450395D01*
X10734895Y-13450395D01*
X10734895Y-13570605D01*
X10855105Y-13570605D01*
X10855105Y-13966605D02*
X10855105Y-13846395D01*
X10734895Y-13846395D01*
X10734895Y-13966605D01*
X10855105Y-13966605D01*
X10855105Y-14362605D02*
X10855105Y-14242395D01*
X10734895Y-14242395D01*
X10734895Y-14362605D01*
X10855105Y-14362605D01*
X12125105Y-13570605D02*
X12125105Y-13450395D01*
X12004895Y-13450395D01*
X12004895Y-13570605D01*
X12125105Y-13570605D01*
X12125105Y-13966605D02*
X12125105Y-13846395D01*
X12004895Y-13846395D01*
X12004895Y-13966605D01*
X12125105Y-13966605D01*
X12125105Y-14362605D02*
X12125105Y-14242395D01*
X12004895Y-14242395D01*
X12004895Y-14362605D01*
X12125105Y-14362605D01*
X13395105Y-13570605D02*
X13395105Y-13450395D01*
X13274895Y-13450395D01*
X13274895Y-13570605D01*
X13395105Y-13570605D01*
X13395105Y-13966605D02*
X13395105Y-13846395D01*
X13274895Y-13846395D01*
X13274895Y-13966605D01*
X13395105Y-13966605D01*
X13395105Y-14362605D02*
X13395105Y-14242395D01*
X13274895Y-14242395D01*
X13274895Y-14362605D01*
X13395105Y-14362605D01*
X14675605Y-13570605D02*
X14675605Y-13450395D01*
X14555395Y-13450395D01*
X14555395Y-13570605D01*
X14675605Y-13570605D01*
X14675605Y-13966605D02*
X14675605Y-13846395D01*
X14555395Y-13846395D01*
X14555395Y-13966605D01*
X14675605Y-13966605D01*
X14675605Y-14362605D02*
X14675605Y-14242395D01*
X14555395Y-14242395D01*
X14555395Y-14362605D01*
X14675605Y-14362605D01*
X15935105Y-13570605D02*
X15935105Y-13450395D01*
X15814895Y-13450395D01*
X15814895Y-13570605D01*
X15935105Y-13570605D01*
X15935105Y-13966605D02*
X15935105Y-13846395D01*
X15814895Y-13846395D01*
X15814895Y-13966605D01*
X15935105Y-13966605D01*
X15935105Y-14362605D02*
X15935105Y-14242395D01*
X15814895Y-14242395D01*
X15814895Y-14362605D01*
X15935105Y-14362605D01*
X17205105Y-13570605D02*
X17205105Y-13450395D01*
X17084895Y-13450395D01*
X17084895Y-13570605D01*
X17205105Y-13570605D01*
X17205105Y-13966605D02*
X17205105Y-13846395D01*
X17084895Y-13846395D01*
X17084895Y-13966605D01*
X17205105Y-13966605D01*
X17205105Y-14362605D02*
X17205105Y-14242395D01*
X17084895Y-14242395D01*
X17084895Y-14362605D01*
X17205105Y-14362605D01*
X18485605Y-13570605D02*
X18485605Y-13450395D01*
X18365395Y-13450395D01*
X18365395Y-13570605D01*
X18485605Y-13570605D01*
X18485605Y-13966605D02*
X18485605Y-13846395D01*
X18365395Y-13846395D01*
X18365395Y-13966605D01*
X18485605Y-13966605D01*
X18485605Y-14362605D02*
X18485605Y-14242395D01*
X18365395Y-14242395D01*
X18365395Y-14362605D01*
X18485605Y-14362605D01*
D16*
X7132500Y-10769000D02*
X7221500Y-10680000D01*
X7132500Y-10591000D01*
X7043500Y-10680000D01*
X7132500Y-10769000D01*
X7132500Y-11761000D02*
X7221500Y-11672000D01*
X7132500Y-11583000D01*
X7043500Y-11672000D01*
X7132500Y-11761000D01*
X7472500Y-10769000D02*
X7561500Y-10680000D01*
X7472500Y-10591000D01*
X7383500Y-10680000D01*
X7472500Y-10769000D01*
X7472500Y-11761000D02*
X7561500Y-11672000D01*
X7472500Y-11583000D01*
X7383500Y-11672000D01*
X7472500Y-11761000D01*
X9545500Y-5689000D02*
X9634500Y-5600000D01*
X9545500Y-5511000D01*
X9456500Y-5600000D01*
X9545500Y-5689000D01*
X9545500Y-6681000D02*
X9634500Y-6592000D01*
X9545500Y-6503000D01*
X9456500Y-6592000D01*
X9545500Y-6681000D01*
X9885500Y-5689000D02*
X9974500Y-5600000D01*
X9885500Y-5511000D01*
X9796500Y-5600000D01*
X9885500Y-5689000D01*
X9885500Y-6681000D02*
X9974500Y-6592000D01*
X9885500Y-6503000D01*
X9796500Y-6592000D01*
X9885500Y-6681000D01*
X10434500Y-5689000D02*
X10523500Y-5600000D01*
X10434500Y-5511000D01*
X10345500Y-5600000D01*
X10434500Y-5689000D01*
X10434500Y-6681000D02*
X10523500Y-6592000D01*
X10434500Y-6503000D01*
X10345500Y-6592000D01*
X10434500Y-6681000D01*
X10774500Y-5689000D02*
X10863500Y-5600000D01*
X10774500Y-5511000D01*
X10685500Y-5600000D01*
X10774500Y-5689000D01*
X10774500Y-6681000D02*
X10863500Y-6592000D01*
X10774500Y-6503000D01*
X10685500Y-6592000D01*
X10774500Y-6681000D01*
X12085500Y-5689000D02*
X12174500Y-5600000D01*
X12085500Y-5511000D01*
X11996500Y-5600000D01*
X12085500Y-5689000D01*
X12085500Y-6681000D02*
X12174500Y-6592000D01*
X12085500Y-6503000D01*
X11996500Y-6592000D01*
X12085500Y-6681000D01*
X12425500Y-5689000D02*
X12514500Y-5600000D01*
X12425500Y-5511000D01*
X12336500Y-5600000D01*
X12425500Y-5689000D01*
X12425500Y-6681000D02*
X12514500Y-6592000D01*
X12425500Y-6503000D01*
X12336500Y-6592000D01*
X12425500Y-6681000D01*
X12974500Y-5689000D02*
X13063500Y-5600000D01*
X12974500Y-5511000D01*
X12885500Y-5600000D01*
X12974500Y-5689000D01*
X12974500Y-6681000D02*
X13063500Y-6592000D01*
X12974500Y-6503000D01*
X12885500Y-6592000D01*
X12974500Y-6681000D01*
X13314500Y-5689000D02*
X13403500Y-5600000D01*
X13314500Y-5511000D01*
X13225500Y-5600000D01*
X13314500Y-5689000D01*
X13314500Y-6681000D02*
X13403500Y-6592000D01*
X13314500Y-6503000D01*
X13225500Y-6592000D01*
X13314500Y-6681000D01*
X14625500Y-5689000D02*
X14714500Y-5600000D01*
X14625500Y-5511000D01*
X14536500Y-5600000D01*
X14625500Y-5689000D01*
X14625500Y-6681000D02*
X14714500Y-6592000D01*
X14625500Y-6503000D01*
X14536500Y-6592000D01*
X14625500Y-6681000D01*
X14965500Y-5689000D02*
X15054500Y-5600000D01*
X14965500Y-5511000D01*
X14876500Y-5600000D01*
X14965500Y-5689000D01*
X14965500Y-6681000D02*
X15054500Y-6592000D01*
X14965500Y-6503000D01*
X14876500Y-6592000D01*
X14965500Y-6681000D01*
X15514500Y-5689000D02*
X15603500Y-5600000D01*
X15514500Y-5511000D01*
X15425500Y-5600000D01*
X15514500Y-5689000D01*
X15514500Y-6681000D02*
X15603500Y-6592000D01*
X15514500Y-6503000D01*
X15425500Y-6592000D01*
X15514500Y-6681000D01*
X15854500Y-5689000D02*
X15943500Y-5600000D01*
X15854500Y-5511000D01*
X15765500Y-5600000D01*
X15854500Y-5689000D01*
X15854500Y-6681000D02*
X15943500Y-6592000D01*
X15854500Y-6503000D01*
X15765500Y-6592000D01*
X15854500Y-6681000D01*
X17165500Y-5689000D02*
X17254500Y-5600000D01*
X17165500Y-5511000D01*
X17076500Y-5600000D01*
X17165500Y-5689000D01*
X17165500Y-6681000D02*
X17254500Y-6592000D01*
X17165500Y-6503000D01*
X17076500Y-6592000D01*
X17165500Y-6681000D01*
X17505500Y-5689000D02*
X17594500Y-5600000D01*
X17505500Y-5511000D01*
X17416500Y-5600000D01*
X17505500Y-5689000D01*
X17505500Y-6681000D02*
X17594500Y-6592000D01*
X17505500Y-6503000D01*
X17416500Y-6592000D01*
X17505500Y-6681000D01*
X18054500Y-5689000D02*
X18143500Y-5600000D01*
X18054500Y-5511000D01*
X17965500Y-5600000D01*
X18054500Y-5689000D01*
X18054500Y-6681000D02*
X18143500Y-6592000D01*
X18054500Y-6503000D01*
X17965500Y-6592000D01*
X18054500Y-6681000D01*
X18394500Y-5689000D02*
X18483500Y-5600000D01*
X18394500Y-5511000D01*
X18305500Y-5600000D01*
X18394500Y-5689000D01*
X18394500Y-6681000D02*
X18483500Y-6592000D01*
X18394500Y-6503000D01*
X18305500Y-6592000D01*
X18394500Y-6681000D01*
D17*
X9133000Y-7169500D02*
X9387000Y-7423500D01*
X9387000Y-7169500D02*
X9133000Y-7423500D01*
X9387000Y-7296500D02*
G75*
G03*
X9387000Y-7296500I-127000J0D01*
G01*
X9133000Y-11569500D02*
X9387000Y-11823500D01*
X9387000Y-11569500D02*
X9133000Y-11823500D01*
X9387000Y-11696500D02*
G75*
G03*
X9387000Y-11696500I-127000J0D01*
G01*
X9133000Y-12169500D02*
X9387000Y-12423500D01*
X9387000Y-12169500D02*
X9133000Y-12423500D01*
X9387000Y-12296500D02*
G75*
G03*
X9387000Y-12296500I-127000J0D01*
G01*
X9133000Y-12769500D02*
X9387000Y-13023500D01*
X9387000Y-12769500D02*
X9133000Y-13023500D01*
X9387000Y-12896500D02*
G75*
G03*
X9387000Y-12896500I-127000J0D01*
G01*
X9733000Y-7169500D02*
X9987000Y-7423500D01*
X9987000Y-7169500D02*
X9733000Y-7423500D01*
X9987000Y-7296500D02*
G75*
G03*
X9987000Y-7296500I-127000J0D01*
G01*
X10333000Y-7169500D02*
X10587000Y-7423500D01*
X10587000Y-7169500D02*
X10333000Y-7423500D01*
X10587000Y-7296500D02*
G75*
G03*
X10587000Y-7296500I-127000J0D01*
G01*
X10933000Y-7169500D02*
X11187000Y-7423500D01*
X11187000Y-7169500D02*
X10933000Y-7423500D01*
X11187000Y-7296500D02*
G75*
G03*
X11187000Y-7296500I-127000J0D01*
G01*
X10933000Y-11569500D02*
X11187000Y-11823500D01*
X11187000Y-11569500D02*
X10933000Y-11823500D01*
X11187000Y-11696500D02*
G75*
G03*
X11187000Y-11696500I-127000J0D01*
G01*
X10933000Y-12169500D02*
X11187000Y-12423500D01*
X11187000Y-12169500D02*
X10933000Y-12423500D01*
X11187000Y-12296500D02*
G75*
G03*
X11187000Y-12296500I-127000J0D01*
G01*
X10933000Y-12769500D02*
X11187000Y-13023500D01*
X11187000Y-12769500D02*
X10933000Y-13023500D01*
X11187000Y-12896500D02*
G75*
G03*
X11187000Y-12896500I-127000J0D01*
G01*
X11673000Y-7169500D02*
X11927000Y-7423500D01*
X11927000Y-7169500D02*
X11673000Y-7423500D01*
X11927000Y-7296500D02*
G75*
G03*
X11927000Y-7296500I-127000J0D01*
G01*
X11673000Y-11569500D02*
X11927000Y-11823500D01*
X11927000Y-11569500D02*
X11673000Y-11823500D01*
X11927000Y-11696500D02*
G75*
G03*
X11927000Y-11696500I-127000J0D01*
G01*
X11673000Y-12169500D02*
X11927000Y-12423500D01*
X11927000Y-12169500D02*
X11673000Y-12423500D01*
X11927000Y-12296500D02*
G75*
G03*
X11927000Y-12296500I-127000J0D01*
G01*
X11673000Y-12769500D02*
X11927000Y-13023500D01*
X11927000Y-12769500D02*
X11673000Y-13023500D01*
X11927000Y-12896500D02*
G75*
G03*
X11927000Y-12896500I-127000J0D01*
G01*
X12273000Y-7169500D02*
X12527000Y-7423500D01*
X12527000Y-7169500D02*
X12273000Y-7423500D01*
X12527000Y-7296500D02*
G75*
G03*
X12527000Y-7296500I-127000J0D01*
G01*
X12873000Y-7169500D02*
X13127000Y-7423500D01*
X13127000Y-7169500D02*
X12873000Y-7423500D01*
X13127000Y-7296500D02*
G75*
G03*
X13127000Y-7296500I-127000J0D01*
G01*
X13473000Y-7169500D02*
X13727000Y-7423500D01*
X13727000Y-7169500D02*
X13473000Y-7423500D01*
X13727000Y-7296500D02*
G75*
G03*
X13727000Y-7296500I-127000J0D01*
G01*
X13473000Y-11569500D02*
X13727000Y-11823500D01*
X13727000Y-11569500D02*
X13473000Y-11823500D01*
X13727000Y-11696500D02*
G75*
G03*
X13727000Y-11696500I-127000J0D01*
G01*
X13473000Y-12169500D02*
X13727000Y-12423500D01*
X13727000Y-12169500D02*
X13473000Y-12423500D01*
X13727000Y-12296500D02*
G75*
G03*
X13727000Y-12296500I-127000J0D01*
G01*
X13473000Y-12769500D02*
X13727000Y-13023500D01*
X13727000Y-12769500D02*
X13473000Y-13023500D01*
X13727000Y-12896500D02*
G75*
G03*
X13727000Y-12896500I-127000J0D01*
G01*
X14213000Y-7169500D02*
X14467000Y-7423500D01*
X14467000Y-7169500D02*
X14213000Y-7423500D01*
X14467000Y-7296500D02*
G75*
G03*
X14467000Y-7296500I-127000J0D01*
G01*
X14213000Y-11569500D02*
X14467000Y-11823500D01*
X14467000Y-11569500D02*
X14213000Y-11823500D01*
X14467000Y-11696500D02*
G75*
G03*
X14467000Y-11696500I-127000J0D01*
G01*
X14213000Y-12169500D02*
X14467000Y-12423500D01*
X14467000Y-12169500D02*
X14213000Y-12423500D01*
X14467000Y-12296500D02*
G75*
G03*
X14467000Y-12296500I-127000J0D01*
G01*
X14213000Y-12769500D02*
X14467000Y-13023500D01*
X14467000Y-12769500D02*
X14213000Y-13023500D01*
X14467000Y-12896500D02*
G75*
G03*
X14467000Y-12896500I-127000J0D01*
G01*
X14813000Y-7169500D02*
X15067000Y-7423500D01*
X15067000Y-7169500D02*
X14813000Y-7423500D01*
X15067000Y-7296500D02*
G75*
G03*
X15067000Y-7296500I-127000J0D01*
G01*
X15413000Y-7169500D02*
X15667000Y-7423500D01*
X15667000Y-7169500D02*
X15413000Y-7423500D01*
X15667000Y-7296500D02*
G75*
G03*
X15667000Y-7296500I-127000J0D01*
G01*
X16013000Y-7169500D02*
X16267000Y-7423500D01*
X16267000Y-7169500D02*
X16013000Y-7423500D01*
X16267000Y-7296500D02*
G75*
G03*
X16267000Y-7296500I-127000J0D01*
G01*
X16013000Y-11569500D02*
X16267000Y-11823500D01*
X16267000Y-11569500D02*
X16013000Y-11823500D01*
X16267000Y-11696500D02*
G75*
G03*
X16267000Y-11696500I-127000J0D01*
G01*
X16013000Y-12169500D02*
X16267000Y-12423500D01*
X16267000Y-12169500D02*
X16013000Y-12423500D01*
X16267000Y-12296500D02*
G75*
G03*
X16267000Y-12296500I-127000J0D01*
G01*
X16013000Y-12769500D02*
X16267000Y-13023500D01*
X16267000Y-12769500D02*
X16013000Y-13023500D01*
X16267000Y-12896500D02*
G75*
G03*
X16267000Y-12896500I-127000J0D01*
G01*
X16753500Y-7169500D02*
X17007500Y-7423500D01*
X17007500Y-7169500D02*
X16753500Y-7423500D01*
X17007500Y-7296500D02*
G75*
G03*
X17007500Y-7296500I-127000J0D01*
G01*
X16753500Y-11569500D02*
X17007500Y-11823500D01*
X17007500Y-11569500D02*
X16753500Y-11823500D01*
X17007500Y-11696500D02*
G75*
G03*
X17007500Y-11696500I-127000J0D01*
G01*
X16753500Y-12169500D02*
X17007500Y-12423500D01*
X17007500Y-12169500D02*
X16753500Y-12423500D01*
X17007500Y-12296500D02*
G75*
G03*
X17007500Y-12296500I-127000J0D01*
G01*
X16753500Y-12769500D02*
X17007500Y-13023500D01*
X17007500Y-12769500D02*
X16753500Y-13023500D01*
X17007500Y-12896500D02*
G75*
G03*
X17007500Y-12896500I-127000J0D01*
G01*
X17353500Y-7169500D02*
X17607500Y-7423500D01*
X17607500Y-7169500D02*
X17353500Y-7423500D01*
X17607500Y-7296500D02*
G75*
G03*
X17607500Y-7296500I-127000J0D01*
G01*
X17953500Y-7169500D02*
X18207500Y-7423500D01*
X18207500Y-7169500D02*
X17953500Y-7423500D01*
X18207500Y-7296500D02*
G75*
G03*
X18207500Y-7296500I-127000J0D01*
G01*
X18553500Y-7169500D02*
X18807500Y-7423500D01*
X18807500Y-7169500D02*
X18553500Y-7423500D01*
X18807500Y-7296500D02*
G75*
G03*
X18807500Y-7296500I-127000J0D01*
G01*
X18553500Y-11569500D02*
X18807500Y-11823500D01*
X18807500Y-11569500D02*
X18553500Y-11823500D01*
X18807500Y-11696500D02*
G75*
G03*
X18807500Y-11696500I-127000J0D01*
G01*
X18553500Y-12169500D02*
X18807500Y-12423500D01*
X18807500Y-12169500D02*
X18553500Y-12423500D01*
X18807500Y-12296500D02*
G75*
G03*
X18807500Y-12296500I-127000J0D01*
G01*
X18553500Y-12769500D02*
X18807500Y-13023500D01*
X18807500Y-12769500D02*
X18553500Y-13023500D01*
X18807500Y-12896500D02*
G75*
G03*
X18807500Y-12896500I-127000J0D01*
G01*
D18*
X7144500Y-12500000D02*
X7714500Y-13070000D01*
X7714500Y-12500000D02*
X7144500Y-13070000D01*
X7429500Y-12500000D02*
X7429500Y-13070000D01*
X7144500Y-12785000D02*
X7714500Y-12785000D01*
X7144500Y-13600000D02*
X7714500Y-14170000D01*
X7714500Y-13600000D02*
X7144500Y-14170000D01*
X7429500Y-13600000D02*
X7429500Y-14170000D01*
X7144500Y-13885000D02*
X7714500Y-13885000D01*
D11*
X6285119Y-14920476D02*
X6285119Y-14720476D01*
X6332738Y-14720476D01*
X6361309Y-14730000D01*
X6380357Y-14749048D01*
X6389881Y-14768095D01*
X6399405Y-14806190D01*
X6399405Y-14834762D01*
X6389881Y-14872857D01*
X6380357Y-14891905D01*
X6361309Y-14910952D01*
X6332738Y-14920476D01*
X6285119Y-14920476D01*
X6485119Y-14920476D02*
X6485119Y-14787143D01*
X6485119Y-14825238D02*
X6494643Y-14806190D01*
X6504167Y-14796667D01*
X6523214Y-14787143D01*
X6542262Y-14787143D01*
X6608928Y-14920476D02*
X6608928Y-14787143D01*
X6608928Y-14720476D02*
X6599405Y-14730000D01*
X6608928Y-14739524D01*
X6618452Y-14730000D01*
X6608928Y-14720476D01*
X6608928Y-14739524D01*
X6732738Y-14920476D02*
X6713690Y-14910952D01*
X6704167Y-14891905D01*
X6704167Y-14720476D01*
X6837500Y-14920476D02*
X6818452Y-14910952D01*
X6808928Y-14891905D01*
X6808928Y-14720476D01*
X7066071Y-14920476D02*
X7066071Y-14720476D01*
X7132738Y-14863333D01*
X7199405Y-14720476D01*
X7199405Y-14920476D01*
X7380357Y-14920476D02*
X7380357Y-14815714D01*
X7370833Y-14796667D01*
X7351786Y-14787143D01*
X7313690Y-14787143D01*
X7294643Y-14796667D01*
X7380357Y-14910952D02*
X7361309Y-14920476D01*
X7313690Y-14920476D01*
X7294643Y-14910952D01*
X7285119Y-14891905D01*
X7285119Y-14872857D01*
X7294643Y-14853809D01*
X7313690Y-14844286D01*
X7361309Y-14844286D01*
X7380357Y-14834762D01*
X7475595Y-14787143D02*
X7475595Y-14987143D01*
X7475595Y-14796667D02*
X7494643Y-14787143D01*
X7532738Y-14787143D01*
X7551786Y-14796667D01*
X7561309Y-14806190D01*
X7570833Y-14825238D01*
X7570833Y-14882381D01*
X7561309Y-14901428D01*
X7551786Y-14910952D01*
X7532738Y-14920476D01*
X7494643Y-14920476D01*
X7475595Y-14910952D01*
X7656548Y-14901428D02*
X7666071Y-14910952D01*
X7656548Y-14920476D01*
X7647024Y-14910952D01*
X7656548Y-14901428D01*
X7656548Y-14920476D01*
X7656548Y-14796667D02*
X7666071Y-14806190D01*
X7656548Y-14815714D01*
X7647024Y-14806190D01*
X7656548Y-14796667D01*
X7656548Y-14815714D01*
D12*
X5987500Y-15230000D02*
X6027500Y-15270000D01*
X6027500Y-15230000D02*
X5987500Y-15270000D01*
D11*
X6323214Y-15140476D02*
X6342262Y-15140476D01*
X6361309Y-15150000D01*
X6370833Y-15159524D01*
X6380357Y-15178571D01*
X6389881Y-15216667D01*
X6389881Y-15264286D01*
X6380357Y-15302381D01*
X6370833Y-15321428D01*
X6361309Y-15330952D01*
X6342262Y-15340476D01*
X6323214Y-15340476D01*
X6304167Y-15330952D01*
X6294643Y-15321428D01*
X6285119Y-15302381D01*
X6275595Y-15264286D01*
X6275595Y-15216667D01*
X6285119Y-15178571D01*
X6294643Y-15159524D01*
X6304167Y-15150000D01*
X6323214Y-15140476D01*
X6475595Y-15321428D02*
X6485119Y-15330952D01*
X6475595Y-15340476D01*
X6466071Y-15330952D01*
X6475595Y-15321428D01*
X6475595Y-15340476D01*
X6656548Y-15207143D02*
X6656548Y-15340476D01*
X6608928Y-15130952D02*
X6561309Y-15273809D01*
X6685119Y-15273809D01*
X6799405Y-15140476D02*
X6818452Y-15140476D01*
X6837500Y-15150000D01*
X6847024Y-15159524D01*
X6856548Y-15178571D01*
X6866071Y-15216667D01*
X6866071Y-15264286D01*
X6856548Y-15302381D01*
X6847024Y-15321428D01*
X6837500Y-15330952D01*
X6818452Y-15340476D01*
X6799405Y-15340476D01*
X6780357Y-15330952D01*
X6770833Y-15321428D01*
X6761309Y-15302381D01*
X6751786Y-15264286D01*
X6751786Y-15216667D01*
X6761309Y-15178571D01*
X6770833Y-15159524D01*
X6780357Y-15150000D01*
X6799405Y-15140476D01*
X6989881Y-15140476D02*
X7008928Y-15140476D01*
X7027976Y-15150000D01*
X7037500Y-15159524D01*
X7047024Y-15178571D01*
X7056548Y-15216667D01*
X7056548Y-15264286D01*
X7047024Y-15302381D01*
X7037500Y-15321428D01*
X7027976Y-15330952D01*
X7008928Y-15340476D01*
X6989881Y-15340476D01*
X6970833Y-15330952D01*
X6961309Y-15321428D01*
X6951786Y-15302381D01*
X6942262Y-15264286D01*
X6942262Y-15216667D01*
X6951786Y-15178571D01*
X6961309Y-15159524D01*
X6970833Y-15150000D01*
X6989881Y-15140476D01*
X7142262Y-15340476D02*
X7142262Y-15207143D01*
X7142262Y-15226190D02*
X7151786Y-15216667D01*
X7170833Y-15207143D01*
X7199405Y-15207143D01*
X7218452Y-15216667D01*
X7227976Y-15235714D01*
X7227976Y-15340476D01*
X7227976Y-15235714D02*
X7237500Y-15216667D01*
X7256548Y-15207143D01*
X7285119Y-15207143D01*
X7304167Y-15216667D01*
X7313690Y-15235714D01*
X7313690Y-15340476D01*
X7408928Y-15340476D02*
X7408928Y-15207143D01*
X7408928Y-15226190D02*
X7418452Y-15216667D01*
X7437500Y-15207143D01*
X7466071Y-15207143D01*
X7485119Y-15216667D01*
X7494643Y-15235714D01*
X7494643Y-15340476D01*
X7494643Y-15235714D02*
X7504167Y-15216667D01*
X7523214Y-15207143D01*
X7551786Y-15207143D01*
X7570833Y-15216667D01*
X7580357Y-15235714D01*
X7580357Y-15340476D01*
X7970833Y-15130952D02*
X7799405Y-15388095D01*
X8227976Y-15140476D02*
X8247024Y-15140476D01*
X8266071Y-15150000D01*
X8275595Y-15159524D01*
X8285119Y-15178571D01*
X8294643Y-15216667D01*
X8294643Y-15264286D01*
X8285119Y-15302381D01*
X8275595Y-15321428D01*
X8266071Y-15330952D01*
X8247024Y-15340476D01*
X8227976Y-15340476D01*
X8208928Y-15330952D01*
X8199405Y-15321428D01*
X8189881Y-15302381D01*
X8180357Y-15264286D01*
X8180357Y-15216667D01*
X8189881Y-15178571D01*
X8199405Y-15159524D01*
X8208928Y-15150000D01*
X8227976Y-15140476D01*
X8380357Y-15321428D02*
X8389881Y-15330952D01*
X8380357Y-15340476D01*
X8370833Y-15330952D01*
X8380357Y-15321428D01*
X8380357Y-15340476D01*
X8513690Y-15140476D02*
X8532738Y-15140476D01*
X8551786Y-15150000D01*
X8561310Y-15159524D01*
X8570833Y-15178571D01*
X8580357Y-15216667D01*
X8580357Y-15264286D01*
X8570833Y-15302381D01*
X8561310Y-15321428D01*
X8551786Y-15330952D01*
X8532738Y-15340476D01*
X8513690Y-15340476D01*
X8494643Y-15330952D01*
X8485119Y-15321428D01*
X8475595Y-15302381D01*
X8466071Y-15264286D01*
X8466071Y-15216667D01*
X8475595Y-15178571D01*
X8485119Y-15159524D01*
X8494643Y-15150000D01*
X8513690Y-15140476D01*
X8770833Y-15340476D02*
X8656548Y-15340476D01*
X8713690Y-15340476D02*
X8713690Y-15140476D01*
X8694643Y-15169048D01*
X8675595Y-15188095D01*
X8656548Y-15197619D01*
X8951786Y-15140476D02*
X8856548Y-15140476D01*
X8847024Y-15235714D01*
X8856548Y-15226190D01*
X8875595Y-15216667D01*
X8923214Y-15216667D01*
X8942262Y-15226190D01*
X8951786Y-15235714D01*
X8961310Y-15254762D01*
X8961310Y-15302381D01*
X8951786Y-15321428D01*
X8942262Y-15330952D01*
X8923214Y-15340476D01*
X8875595Y-15340476D01*
X8856548Y-15330952D01*
X8847024Y-15321428D01*
X9027976Y-15140476D02*
X9161310Y-15140476D01*
X9075595Y-15340476D01*
X9227976Y-15140476D02*
X9227976Y-15178571D01*
X9304167Y-15140476D02*
X9304167Y-15178571D01*
X9599405Y-15416667D02*
X9589881Y-15407143D01*
X9570833Y-15378571D01*
X9561310Y-15359524D01*
X9551786Y-15330952D01*
X9542262Y-15283333D01*
X9542262Y-15245238D01*
X9551786Y-15197619D01*
X9561310Y-15169048D01*
X9570833Y-15150000D01*
X9589881Y-15121428D01*
X9599405Y-15111905D01*
X9780357Y-15340476D02*
X9666071Y-15340476D01*
X9723214Y-15340476D02*
X9723214Y-15140476D01*
X9704167Y-15169048D01*
X9685119Y-15188095D01*
X9666071Y-15197619D01*
X9970833Y-15340476D02*
X9856548Y-15340476D01*
X9913690Y-15340476D02*
X9913690Y-15140476D01*
X9894643Y-15169048D01*
X9875595Y-15188095D01*
X9856548Y-15197619D01*
X10208929Y-15340476D02*
X10208929Y-15140476D01*
X10294643Y-15340476D02*
X10294643Y-15235714D01*
X10285119Y-15216667D01*
X10266071Y-15207143D01*
X10237500Y-15207143D01*
X10218452Y-15216667D01*
X10208929Y-15226190D01*
X10418452Y-15340476D02*
X10399405Y-15330952D01*
X10389881Y-15321428D01*
X10380357Y-15302381D01*
X10380357Y-15245238D01*
X10389881Y-15226190D01*
X10399405Y-15216667D01*
X10418452Y-15207143D01*
X10447024Y-15207143D01*
X10466071Y-15216667D01*
X10475595Y-15226190D01*
X10485119Y-15245238D01*
X10485119Y-15302381D01*
X10475595Y-15321428D01*
X10466071Y-15330952D01*
X10447024Y-15340476D01*
X10418452Y-15340476D01*
X10599405Y-15340476D02*
X10580357Y-15330952D01*
X10570833Y-15311905D01*
X10570833Y-15140476D01*
X10751786Y-15330952D02*
X10732738Y-15340476D01*
X10694643Y-15340476D01*
X10675595Y-15330952D01*
X10666071Y-15311905D01*
X10666071Y-15235714D01*
X10675595Y-15216667D01*
X10694643Y-15207143D01*
X10732738Y-15207143D01*
X10751786Y-15216667D01*
X10761310Y-15235714D01*
X10761310Y-15254762D01*
X10666071Y-15273809D01*
X10837500Y-15330952D02*
X10856548Y-15340476D01*
X10894643Y-15340476D01*
X10913690Y-15330952D01*
X10923214Y-15311905D01*
X10923214Y-15302381D01*
X10913690Y-15283333D01*
X10894643Y-15273809D01*
X10866071Y-15273809D01*
X10847024Y-15264286D01*
X10837500Y-15245238D01*
X10837500Y-15235714D01*
X10847024Y-15216667D01*
X10866071Y-15207143D01*
X10894643Y-15207143D01*
X10913690Y-15216667D01*
X10989881Y-15416667D02*
X10999405Y-15407143D01*
X11018452Y-15378571D01*
X11027976Y-15359524D01*
X11037500Y-15330952D01*
X11047024Y-15283333D01*
X11047024Y-15245238D01*
X11037500Y-15197619D01*
X11027976Y-15169048D01*
X11018452Y-15150000D01*
X10999405Y-15121428D01*
X10989881Y-15111905D01*
D13*
X6027500Y-15514000D02*
G75*
G03*
X6027500Y-15514000I-50000J0D01*
G01*
D11*
X6389881Y-15604476D02*
X6275595Y-15604476D01*
X6332738Y-15604476D02*
X6332738Y-15404476D01*
X6313690Y-15433048D01*
X6294643Y-15452095D01*
X6275595Y-15461619D01*
X6475595Y-15585428D02*
X6485119Y-15594952D01*
X6475595Y-15604476D01*
X6466071Y-15594952D01*
X6475595Y-15585428D01*
X6475595Y-15604476D01*
X6608928Y-15404476D02*
X6627976Y-15404476D01*
X6647024Y-15414000D01*
X6656548Y-15423524D01*
X6666071Y-15442571D01*
X6675595Y-15480667D01*
X6675595Y-15528286D01*
X6666071Y-15566381D01*
X6656548Y-15585428D01*
X6647024Y-15594952D01*
X6627976Y-15604476D01*
X6608928Y-15604476D01*
X6589881Y-15594952D01*
X6580357Y-15585428D01*
X6570833Y-15566381D01*
X6561309Y-15528286D01*
X6561309Y-15480667D01*
X6570833Y-15442571D01*
X6580357Y-15423524D01*
X6589881Y-15414000D01*
X6608928Y-15404476D01*
X6799405Y-15404476D02*
X6818452Y-15404476D01*
X6837500Y-15414000D01*
X6847024Y-15423524D01*
X6856548Y-15442571D01*
X6866071Y-15480667D01*
X6866071Y-15528286D01*
X6856548Y-15566381D01*
X6847024Y-15585428D01*
X6837500Y-15594952D01*
X6818452Y-15604476D01*
X6799405Y-15604476D01*
X6780357Y-15594952D01*
X6770833Y-15585428D01*
X6761309Y-15566381D01*
X6751786Y-15528286D01*
X6751786Y-15480667D01*
X6761309Y-15442571D01*
X6770833Y-15423524D01*
X6780357Y-15414000D01*
X6799405Y-15404476D01*
X6989881Y-15404476D02*
X7008928Y-15404476D01*
X7027976Y-15414000D01*
X7037500Y-15423524D01*
X7047024Y-15442571D01*
X7056548Y-15480667D01*
X7056548Y-15528286D01*
X7047024Y-15566381D01*
X7037500Y-15585428D01*
X7027976Y-15594952D01*
X7008928Y-15604476D01*
X6989881Y-15604476D01*
X6970833Y-15594952D01*
X6961309Y-15585428D01*
X6951786Y-15566381D01*
X6942262Y-15528286D01*
X6942262Y-15480667D01*
X6951786Y-15442571D01*
X6961309Y-15423524D01*
X6970833Y-15414000D01*
X6989881Y-15404476D01*
X7142262Y-15604476D02*
X7142262Y-15471143D01*
X7142262Y-15490190D02*
X7151786Y-15480667D01*
X7170833Y-15471143D01*
X7199405Y-15471143D01*
X7218452Y-15480667D01*
X7227976Y-15499714D01*
X7227976Y-15604476D01*
X7227976Y-15499714D02*
X7237500Y-15480667D01*
X7256548Y-15471143D01*
X7285119Y-15471143D01*
X7304167Y-15480667D01*
X7313690Y-15499714D01*
X7313690Y-15604476D01*
X7408928Y-15604476D02*
X7408928Y-15471143D01*
X7408928Y-15490190D02*
X7418452Y-15480667D01*
X7437500Y-15471143D01*
X7466071Y-15471143D01*
X7485119Y-15480667D01*
X7494643Y-15499714D01*
X7494643Y-15604476D01*
X7494643Y-15499714D02*
X7504167Y-15480667D01*
X7523214Y-15471143D01*
X7551786Y-15471143D01*
X7570833Y-15480667D01*
X7580357Y-15499714D01*
X7580357Y-15604476D01*
X7970833Y-15394952D02*
X7799405Y-15652095D01*
X8227976Y-15404476D02*
X8247024Y-15404476D01*
X8266071Y-15414000D01*
X8275595Y-15423524D01*
X8285119Y-15442571D01*
X8294643Y-15480667D01*
X8294643Y-15528286D01*
X8285119Y-15566381D01*
X8275595Y-15585428D01*
X8266071Y-15594952D01*
X8247024Y-15604476D01*
X8227976Y-15604476D01*
X8208928Y-15594952D01*
X8199405Y-15585428D01*
X8189881Y-15566381D01*
X8180357Y-15528286D01*
X8180357Y-15480667D01*
X8189881Y-15442571D01*
X8199405Y-15423524D01*
X8208928Y-15414000D01*
X8227976Y-15404476D01*
X8380357Y-15585428D02*
X8389881Y-15594952D01*
X8380357Y-15604476D01*
X8370833Y-15594952D01*
X8380357Y-15585428D01*
X8380357Y-15604476D01*
X8513690Y-15404476D02*
X8532738Y-15404476D01*
X8551786Y-15414000D01*
X8561310Y-15423524D01*
X8570833Y-15442571D01*
X8580357Y-15480667D01*
X8580357Y-15528286D01*
X8570833Y-15566381D01*
X8561310Y-15585428D01*
X8551786Y-15594952D01*
X8532738Y-15604476D01*
X8513690Y-15604476D01*
X8494643Y-15594952D01*
X8485119Y-15585428D01*
X8475595Y-15566381D01*
X8466071Y-15528286D01*
X8466071Y-15480667D01*
X8475595Y-15442571D01*
X8485119Y-15423524D01*
X8494643Y-15414000D01*
X8513690Y-15404476D01*
X8647024Y-15404476D02*
X8770833Y-15404476D01*
X8704167Y-15480667D01*
X8732738Y-15480667D01*
X8751786Y-15490190D01*
X8761310Y-15499714D01*
X8770833Y-15518762D01*
X8770833Y-15566381D01*
X8761310Y-15585428D01*
X8751786Y-15594952D01*
X8732738Y-15604476D01*
X8675595Y-15604476D01*
X8656548Y-15594952D01*
X8647024Y-15585428D01*
X8866071Y-15604476D02*
X8904167Y-15604476D01*
X8923214Y-15594952D01*
X8932738Y-15585428D01*
X8951786Y-15556857D01*
X8961310Y-15518762D01*
X8961310Y-15442571D01*
X8951786Y-15423524D01*
X8942262Y-15414000D01*
X8923214Y-15404476D01*
X8885119Y-15404476D01*
X8866071Y-15414000D01*
X8856548Y-15423524D01*
X8847024Y-15442571D01*
X8847024Y-15490190D01*
X8856548Y-15509238D01*
X8866071Y-15518762D01*
X8885119Y-15528286D01*
X8923214Y-15528286D01*
X8942262Y-15518762D01*
X8951786Y-15509238D01*
X8961310Y-15490190D01*
X9132738Y-15471143D02*
X9132738Y-15604476D01*
X9085119Y-15394952D02*
X9037500Y-15537809D01*
X9161310Y-15537809D01*
X9227976Y-15404476D02*
X9227976Y-15442571D01*
X9304167Y-15404476D02*
X9304167Y-15442571D01*
X9599405Y-15680667D02*
X9589881Y-15671143D01*
X9570833Y-15642571D01*
X9561310Y-15623524D01*
X9551786Y-15594952D01*
X9542262Y-15547333D01*
X9542262Y-15509238D01*
X9551786Y-15461619D01*
X9561310Y-15433048D01*
X9570833Y-15414000D01*
X9589881Y-15385428D01*
X9599405Y-15375905D01*
X9780357Y-15604476D02*
X9666071Y-15604476D01*
X9723214Y-15604476D02*
X9723214Y-15404476D01*
X9704167Y-15433048D01*
X9685119Y-15452095D01*
X9666071Y-15461619D01*
X9904167Y-15404476D02*
X9923214Y-15404476D01*
X9942262Y-15414000D01*
X9951786Y-15423524D01*
X9961310Y-15442571D01*
X9970833Y-15480667D01*
X9970833Y-15528286D01*
X9961310Y-15566381D01*
X9951786Y-15585428D01*
X9942262Y-15594952D01*
X9923214Y-15604476D01*
X9904167Y-15604476D01*
X9885119Y-15594952D01*
X9875595Y-15585428D01*
X9866071Y-15566381D01*
X9856548Y-15528286D01*
X9856548Y-15480667D01*
X9866071Y-15442571D01*
X9875595Y-15423524D01*
X9885119Y-15414000D01*
X9904167Y-15404476D01*
X10208929Y-15604476D02*
X10208929Y-15404476D01*
X10294643Y-15604476D02*
X10294643Y-15499714D01*
X10285119Y-15480667D01*
X10266071Y-15471143D01*
X10237500Y-15471143D01*
X10218452Y-15480667D01*
X10208929Y-15490190D01*
X10418452Y-15604476D02*
X10399405Y-15594952D01*
X10389881Y-15585428D01*
X10380357Y-15566381D01*
X10380357Y-15509238D01*
X10389881Y-15490190D01*
X10399405Y-15480667D01*
X10418452Y-15471143D01*
X10447024Y-15471143D01*
X10466071Y-15480667D01*
X10475595Y-15490190D01*
X10485119Y-15509238D01*
X10485119Y-15566381D01*
X10475595Y-15585428D01*
X10466071Y-15594952D01*
X10447024Y-15604476D01*
X10418452Y-15604476D01*
X10599405Y-15604476D02*
X10580357Y-15594952D01*
X10570833Y-15575905D01*
X10570833Y-15404476D01*
X10751786Y-15594952D02*
X10732738Y-15604476D01*
X10694643Y-15604476D01*
X10675595Y-15594952D01*
X10666071Y-15575905D01*
X10666071Y-15499714D01*
X10675595Y-15480667D01*
X10694643Y-15471143D01*
X10732738Y-15471143D01*
X10751786Y-15480667D01*
X10761310Y-15499714D01*
X10761310Y-15518762D01*
X10666071Y-15537809D01*
X10837500Y-15594952D02*
X10856548Y-15604476D01*
X10894643Y-15604476D01*
X10913690Y-15594952D01*
X10923214Y-15575905D01*
X10923214Y-15566381D01*
X10913690Y-15547333D01*
X10894643Y-15537809D01*
X10866071Y-15537809D01*
X10847024Y-15528286D01*
X10837500Y-15509238D01*
X10837500Y-15499714D01*
X10847024Y-15480667D01*
X10866071Y-15471143D01*
X10894643Y-15471143D01*
X10913690Y-15480667D01*
X10989881Y-15680667D02*
X10999405Y-15671143D01*
X11018452Y-15642571D01*
X11027976Y-15623524D01*
X11037500Y-15594952D01*
X11047024Y-15547333D01*
X11047024Y-15509238D01*
X11037500Y-15461619D01*
X11027976Y-15433048D01*
X11018452Y-15414000D01*
X10999405Y-15385428D01*
X10989881Y-15375905D01*
D14*
X5964000Y-15714500D02*
X5964000Y-15841500D01*
X5900500Y-15778000D02*
X6027500Y-15778000D01*
D11*
X6389881Y-15868476D02*
X6275595Y-15868476D01*
X6332738Y-15868476D02*
X6332738Y-15668476D01*
X6313690Y-15697048D01*
X6294643Y-15716095D01*
X6275595Y-15725619D01*
X6475595Y-15849428D02*
X6485119Y-15858952D01*
X6475595Y-15868476D01*
X6466071Y-15858952D01*
X6475595Y-15849428D01*
X6475595Y-15868476D01*
X6561309Y-15687524D02*
X6570833Y-15678000D01*
X6589881Y-15668476D01*
X6637500Y-15668476D01*
X6656548Y-15678000D01*
X6666071Y-15687524D01*
X6675595Y-15706571D01*
X6675595Y-15725619D01*
X6666071Y-15754190D01*
X6551786Y-15868476D01*
X6675595Y-15868476D01*
X6742262Y-15668476D02*
X6875595Y-15668476D01*
X6789881Y-15868476D01*
X6989881Y-15668476D02*
X7008928Y-15668476D01*
X7027976Y-15678000D01*
X7037500Y-15687524D01*
X7047024Y-15706571D01*
X7056548Y-15744667D01*
X7056548Y-15792286D01*
X7047024Y-15830381D01*
X7037500Y-15849428D01*
X7027976Y-15858952D01*
X7008928Y-15868476D01*
X6989881Y-15868476D01*
X6970833Y-15858952D01*
X6961309Y-15849428D01*
X6951786Y-15830381D01*
X6942262Y-15792286D01*
X6942262Y-15744667D01*
X6951786Y-15706571D01*
X6961309Y-15687524D01*
X6970833Y-15678000D01*
X6989881Y-15668476D01*
X7142262Y-15868476D02*
X7142262Y-15735143D01*
X7142262Y-15754190D02*
X7151786Y-15744667D01*
X7170833Y-15735143D01*
X7199405Y-15735143D01*
X7218452Y-15744667D01*
X7227976Y-15763714D01*
X7227976Y-15868476D01*
X7227976Y-15763714D02*
X7237500Y-15744667D01*
X7256548Y-15735143D01*
X7285119Y-15735143D01*
X7304167Y-15744667D01*
X7313690Y-15763714D01*
X7313690Y-15868476D01*
X7408928Y-15868476D02*
X7408928Y-15735143D01*
X7408928Y-15754190D02*
X7418452Y-15744667D01*
X7437500Y-15735143D01*
X7466071Y-15735143D01*
X7485119Y-15744667D01*
X7494643Y-15763714D01*
X7494643Y-15868476D01*
X7494643Y-15763714D02*
X7504167Y-15744667D01*
X7523214Y-15735143D01*
X7551786Y-15735143D01*
X7570833Y-15744667D01*
X7580357Y-15763714D01*
X7580357Y-15868476D01*
X7970833Y-15658952D02*
X7799405Y-15916095D01*
X8227976Y-15668476D02*
X8247024Y-15668476D01*
X8266071Y-15678000D01*
X8275595Y-15687524D01*
X8285119Y-15706571D01*
X8294643Y-15744667D01*
X8294643Y-15792286D01*
X8285119Y-15830381D01*
X8275595Y-15849428D01*
X8266071Y-15858952D01*
X8247024Y-15868476D01*
X8227976Y-15868476D01*
X8208928Y-15858952D01*
X8199405Y-15849428D01*
X8189881Y-15830381D01*
X8180357Y-15792286D01*
X8180357Y-15744667D01*
X8189881Y-15706571D01*
X8199405Y-15687524D01*
X8208928Y-15678000D01*
X8227976Y-15668476D01*
X8380357Y-15849428D02*
X8389881Y-15858952D01*
X8380357Y-15868476D01*
X8370833Y-15858952D01*
X8380357Y-15849428D01*
X8380357Y-15868476D01*
X8513690Y-15668476D02*
X8532738Y-15668476D01*
X8551786Y-15678000D01*
X8561310Y-15687524D01*
X8570833Y-15706571D01*
X8580357Y-15744667D01*
X8580357Y-15792286D01*
X8570833Y-15830381D01*
X8561310Y-15849428D01*
X8551786Y-15858952D01*
X8532738Y-15868476D01*
X8513690Y-15868476D01*
X8494643Y-15858952D01*
X8485119Y-15849428D01*
X8475595Y-15830381D01*
X8466071Y-15792286D01*
X8466071Y-15744667D01*
X8475595Y-15706571D01*
X8485119Y-15687524D01*
X8494643Y-15678000D01*
X8513690Y-15668476D01*
X8761310Y-15668476D02*
X8666071Y-15668476D01*
X8656548Y-15763714D01*
X8666071Y-15754190D01*
X8685119Y-15744667D01*
X8732738Y-15744667D01*
X8751786Y-15754190D01*
X8761310Y-15763714D01*
X8770833Y-15782762D01*
X8770833Y-15830381D01*
X8761310Y-15849428D01*
X8751786Y-15858952D01*
X8732738Y-15868476D01*
X8685119Y-15868476D01*
X8666071Y-15858952D01*
X8656548Y-15849428D01*
X8894643Y-15668476D02*
X8913690Y-15668476D01*
X8932738Y-15678000D01*
X8942262Y-15687524D01*
X8951786Y-15706571D01*
X8961310Y-15744667D01*
X8961310Y-15792286D01*
X8951786Y-15830381D01*
X8942262Y-15849428D01*
X8932738Y-15858952D01*
X8913690Y-15868476D01*
X8894643Y-15868476D01*
X8875595Y-15858952D01*
X8866071Y-15849428D01*
X8856548Y-15830381D01*
X8847024Y-15792286D01*
X8847024Y-15744667D01*
X8856548Y-15706571D01*
X8866071Y-15687524D01*
X8875595Y-15678000D01*
X8894643Y-15668476D01*
X9085119Y-15668476D02*
X9104167Y-15668476D01*
X9123214Y-15678000D01*
X9132738Y-15687524D01*
X9142262Y-15706571D01*
X9151786Y-15744667D01*
X9151786Y-15792286D01*
X9142262Y-15830381D01*
X9132738Y-15849428D01*
X9123214Y-15858952D01*
X9104167Y-15868476D01*
X9085119Y-15868476D01*
X9066071Y-15858952D01*
X9056548Y-15849428D01*
X9047024Y-15830381D01*
X9037500Y-15792286D01*
X9037500Y-15744667D01*
X9047024Y-15706571D01*
X9056548Y-15687524D01*
X9066071Y-15678000D01*
X9085119Y-15668476D01*
X9227976Y-15668476D02*
X9227976Y-15706571D01*
X9304167Y-15668476D02*
X9304167Y-15706571D01*
X9599405Y-15944667D02*
X9589881Y-15935143D01*
X9570833Y-15906571D01*
X9561310Y-15887524D01*
X9551786Y-15858952D01*
X9542262Y-15811333D01*
X9542262Y-15773238D01*
X9551786Y-15725619D01*
X9561310Y-15697048D01*
X9570833Y-15678000D01*
X9589881Y-15649428D01*
X9599405Y-15639905D01*
X9780357Y-15868476D02*
X9666071Y-15868476D01*
X9723214Y-15868476D02*
X9723214Y-15668476D01*
X9704167Y-15697048D01*
X9685119Y-15716095D01*
X9666071Y-15725619D01*
X9951786Y-15668476D02*
X9913690Y-15668476D01*
X9894643Y-15678000D01*
X9885119Y-15687524D01*
X9866071Y-15716095D01*
X9856548Y-15754190D01*
X9856548Y-15830381D01*
X9866071Y-15849428D01*
X9875595Y-15858952D01*
X9894643Y-15868476D01*
X9932738Y-15868476D01*
X9951786Y-15858952D01*
X9961310Y-15849428D01*
X9970833Y-15830381D01*
X9970833Y-15782762D01*
X9961310Y-15763714D01*
X9951786Y-15754190D01*
X9932738Y-15744667D01*
X9894643Y-15744667D01*
X9875595Y-15754190D01*
X9866071Y-15763714D01*
X9856548Y-15782762D01*
X10208929Y-15868476D02*
X10208929Y-15668476D01*
X10294643Y-15868476D02*
X10294643Y-15763714D01*
X10285119Y-15744667D01*
X10266071Y-15735143D01*
X10237500Y-15735143D01*
X10218452Y-15744667D01*
X10208929Y-15754190D01*
X10418452Y-15868476D02*
X10399405Y-15858952D01*
X10389881Y-15849428D01*
X10380357Y-15830381D01*
X10380357Y-15773238D01*
X10389881Y-15754190D01*
X10399405Y-15744667D01*
X10418452Y-15735143D01*
X10447024Y-15735143D01*
X10466071Y-15744667D01*
X10475595Y-15754190D01*
X10485119Y-15773238D01*
X10485119Y-15830381D01*
X10475595Y-15849428D01*
X10466071Y-15858952D01*
X10447024Y-15868476D01*
X10418452Y-15868476D01*
X10599405Y-15868476D02*
X10580357Y-15858952D01*
X10570833Y-15839905D01*
X10570833Y-15668476D01*
X10751786Y-15858952D02*
X10732738Y-15868476D01*
X10694643Y-15868476D01*
X10675595Y-15858952D01*
X10666071Y-15839905D01*
X10666071Y-15763714D01*
X10675595Y-15744667D01*
X10694643Y-15735143D01*
X10732738Y-15735143D01*
X10751786Y-15744667D01*
X10761310Y-15763714D01*
X10761310Y-15782762D01*
X10666071Y-15801809D01*
X10837500Y-15858952D02*
X10856548Y-15868476D01*
X10894643Y-15868476D01*
X10913690Y-15858952D01*
X10923214Y-15839905D01*
X10923214Y-15830381D01*
X10913690Y-15811333D01*
X10894643Y-15801809D01*
X10866071Y-15801809D01*
X10847024Y-15792286D01*
X10837500Y-15773238D01*
X10837500Y-15763714D01*
X10847024Y-15744667D01*
X10866071Y-15735143D01*
X10894643Y-15735143D01*
X10913690Y-15744667D01*
X10989881Y-15944667D02*
X10999405Y-15935143D01*
X11018452Y-15906571D01*
X11027976Y-15887524D01*
X11037500Y-15858952D01*
X11047024Y-15811333D01*
X11047024Y-15773238D01*
X11037500Y-15725619D01*
X11027976Y-15697048D01*
X11018452Y-15678000D01*
X10999405Y-15649428D01*
X10989881Y-15639905D01*
D15*
X6002605Y-16102105D02*
X6002605Y-15981895D01*
X5882395Y-15981895D01*
X5882395Y-16102105D01*
X6002605Y-16102105D01*
D11*
X6389881Y-16132476D02*
X6275595Y-16132476D01*
X6332738Y-16132476D02*
X6332738Y-15932476D01*
X6313690Y-15961048D01*
X6294643Y-15980095D01*
X6275595Y-15989619D01*
X6475595Y-16113428D02*
X6485119Y-16122952D01*
X6475595Y-16132476D01*
X6466071Y-16122952D01*
X6475595Y-16113428D01*
X6475595Y-16132476D01*
X6551786Y-15932476D02*
X6685119Y-15932476D01*
X6599405Y-16132476D01*
X6799405Y-15932476D02*
X6818452Y-15932476D01*
X6837500Y-15942000D01*
X6847024Y-15951524D01*
X6856548Y-15970571D01*
X6866071Y-16008667D01*
X6866071Y-16056286D01*
X6856548Y-16094381D01*
X6847024Y-16113428D01*
X6837500Y-16122952D01*
X6818452Y-16132476D01*
X6799405Y-16132476D01*
X6780357Y-16122952D01*
X6770833Y-16113428D01*
X6761309Y-16094381D01*
X6751786Y-16056286D01*
X6751786Y-16008667D01*
X6761309Y-15970571D01*
X6770833Y-15951524D01*
X6780357Y-15942000D01*
X6799405Y-15932476D01*
X6989881Y-15932476D02*
X7008928Y-15932476D01*
X7027976Y-15942000D01*
X7037500Y-15951524D01*
X7047024Y-15970571D01*
X7056548Y-16008667D01*
X7056548Y-16056286D01*
X7047024Y-16094381D01*
X7037500Y-16113428D01*
X7027976Y-16122952D01*
X7008928Y-16132476D01*
X6989881Y-16132476D01*
X6970833Y-16122952D01*
X6961309Y-16113428D01*
X6951786Y-16094381D01*
X6942262Y-16056286D01*
X6942262Y-16008667D01*
X6951786Y-15970571D01*
X6961309Y-15951524D01*
X6970833Y-15942000D01*
X6989881Y-15932476D01*
X7142262Y-16132476D02*
X7142262Y-15999143D01*
X7142262Y-16018190D02*
X7151786Y-16008667D01*
X7170833Y-15999143D01*
X7199405Y-15999143D01*
X7218452Y-16008667D01*
X7227976Y-16027714D01*
X7227976Y-16132476D01*
X7227976Y-16027714D02*
X7237500Y-16008667D01*
X7256548Y-15999143D01*
X7285119Y-15999143D01*
X7304167Y-16008667D01*
X7313690Y-16027714D01*
X7313690Y-16132476D01*
X7408928Y-16132476D02*
X7408928Y-15999143D01*
X7408928Y-16018190D02*
X7418452Y-16008667D01*
X7437500Y-15999143D01*
X7466071Y-15999143D01*
X7485119Y-16008667D01*
X7494643Y-16027714D01*
X7494643Y-16132476D01*
X7494643Y-16027714D02*
X7504167Y-16008667D01*
X7523214Y-15999143D01*
X7551786Y-15999143D01*
X7570833Y-16008667D01*
X7580357Y-16027714D01*
X7580357Y-16132476D01*
X7970833Y-15922952D02*
X7799405Y-16180095D01*
X8227976Y-15932476D02*
X8247024Y-15932476D01*
X8266071Y-15942000D01*
X8275595Y-15951524D01*
X8285119Y-15970571D01*
X8294643Y-16008667D01*
X8294643Y-16056286D01*
X8285119Y-16094381D01*
X8275595Y-16113428D01*
X8266071Y-16122952D01*
X8247024Y-16132476D01*
X8227976Y-16132476D01*
X8208928Y-16122952D01*
X8199405Y-16113428D01*
X8189881Y-16094381D01*
X8180357Y-16056286D01*
X8180357Y-16008667D01*
X8189881Y-15970571D01*
X8199405Y-15951524D01*
X8208928Y-15942000D01*
X8227976Y-15932476D01*
X8380357Y-16113428D02*
X8389881Y-16122952D01*
X8380357Y-16132476D01*
X8370833Y-16122952D01*
X8380357Y-16113428D01*
X8380357Y-16132476D01*
X8513690Y-15932476D02*
X8532738Y-15932476D01*
X8551786Y-15942000D01*
X8561310Y-15951524D01*
X8570833Y-15970571D01*
X8580357Y-16008667D01*
X8580357Y-16056286D01*
X8570833Y-16094381D01*
X8561310Y-16113428D01*
X8551786Y-16122952D01*
X8532738Y-16132476D01*
X8513690Y-16132476D01*
X8494643Y-16122952D01*
X8485119Y-16113428D01*
X8475595Y-16094381D01*
X8466071Y-16056286D01*
X8466071Y-16008667D01*
X8475595Y-15970571D01*
X8485119Y-15951524D01*
X8494643Y-15942000D01*
X8513690Y-15932476D01*
X8751786Y-15932476D02*
X8713690Y-15932476D01*
X8694643Y-15942000D01*
X8685119Y-15951524D01*
X8666071Y-15980095D01*
X8656548Y-16018190D01*
X8656548Y-16094381D01*
X8666071Y-16113428D01*
X8675595Y-16122952D01*
X8694643Y-16132476D01*
X8732738Y-16132476D01*
X8751786Y-16122952D01*
X8761310Y-16113428D01*
X8770833Y-16094381D01*
X8770833Y-16046762D01*
X8761310Y-16027714D01*
X8751786Y-16018190D01*
X8732738Y-16008667D01*
X8694643Y-16008667D01*
X8675595Y-16018190D01*
X8666071Y-16027714D01*
X8656548Y-16046762D01*
X8942262Y-15932476D02*
X8904167Y-15932476D01*
X8885119Y-15942000D01*
X8875595Y-15951524D01*
X8856548Y-15980095D01*
X8847024Y-16018190D01*
X8847024Y-16094381D01*
X8856548Y-16113428D01*
X8866071Y-16122952D01*
X8885119Y-16132476D01*
X8923214Y-16132476D01*
X8942262Y-16122952D01*
X8951786Y-16113428D01*
X8961310Y-16094381D01*
X8961310Y-16046762D01*
X8951786Y-16027714D01*
X8942262Y-16018190D01*
X8923214Y-16008667D01*
X8885119Y-16008667D01*
X8866071Y-16018190D01*
X8856548Y-16027714D01*
X8847024Y-16046762D01*
X9056548Y-16132476D02*
X9094643Y-16132476D01*
X9113690Y-16122952D01*
X9123214Y-16113428D01*
X9142262Y-16084857D01*
X9151786Y-16046762D01*
X9151786Y-15970571D01*
X9142262Y-15951524D01*
X9132738Y-15942000D01*
X9113690Y-15932476D01*
X9075595Y-15932476D01*
X9056548Y-15942000D01*
X9047024Y-15951524D01*
X9037500Y-15970571D01*
X9037500Y-16018190D01*
X9047024Y-16037238D01*
X9056548Y-16046762D01*
X9075595Y-16056286D01*
X9113690Y-16056286D01*
X9132738Y-16046762D01*
X9142262Y-16037238D01*
X9151786Y-16018190D01*
X9227976Y-15932476D02*
X9227976Y-15970571D01*
X9304167Y-15932476D02*
X9304167Y-15970571D01*
X9599405Y-16208667D02*
X9589881Y-16199143D01*
X9570833Y-16170571D01*
X9561310Y-16151524D01*
X9551786Y-16122952D01*
X9542262Y-16075333D01*
X9542262Y-16037238D01*
X9551786Y-15989619D01*
X9561310Y-15961048D01*
X9570833Y-15942000D01*
X9589881Y-15913428D01*
X9599405Y-15903905D01*
X9666071Y-15951524D02*
X9675595Y-15942000D01*
X9694643Y-15932476D01*
X9742262Y-15932476D01*
X9761310Y-15942000D01*
X9770833Y-15951524D01*
X9780357Y-15970571D01*
X9780357Y-15989619D01*
X9770833Y-16018190D01*
X9656548Y-16132476D01*
X9780357Y-16132476D01*
X9951786Y-15999143D02*
X9951786Y-16132476D01*
X9904167Y-15922952D02*
X9856548Y-16065809D01*
X9980357Y-16065809D01*
X10208929Y-16132476D02*
X10208929Y-15932476D01*
X10294643Y-16132476D02*
X10294643Y-16027714D01*
X10285119Y-16008667D01*
X10266071Y-15999143D01*
X10237500Y-15999143D01*
X10218452Y-16008667D01*
X10208929Y-16018190D01*
X10418452Y-16132476D02*
X10399405Y-16122952D01*
X10389881Y-16113428D01*
X10380357Y-16094381D01*
X10380357Y-16037238D01*
X10389881Y-16018190D01*
X10399405Y-16008667D01*
X10418452Y-15999143D01*
X10447024Y-15999143D01*
X10466071Y-16008667D01*
X10475595Y-16018190D01*
X10485119Y-16037238D01*
X10485119Y-16094381D01*
X10475595Y-16113428D01*
X10466071Y-16122952D01*
X10447024Y-16132476D01*
X10418452Y-16132476D01*
X10599405Y-16132476D02*
X10580357Y-16122952D01*
X10570833Y-16103905D01*
X10570833Y-15932476D01*
X10751786Y-16122952D02*
X10732738Y-16132476D01*
X10694643Y-16132476D01*
X10675595Y-16122952D01*
X10666071Y-16103905D01*
X10666071Y-16027714D01*
X10675595Y-16008667D01*
X10694643Y-15999143D01*
X10732738Y-15999143D01*
X10751786Y-16008667D01*
X10761310Y-16027714D01*
X10761310Y-16046762D01*
X10666071Y-16065809D01*
X10837500Y-16122952D02*
X10856548Y-16132476D01*
X10894643Y-16132476D01*
X10913690Y-16122952D01*
X10923214Y-16103905D01*
X10923214Y-16094381D01*
X10913690Y-16075333D01*
X10894643Y-16065809D01*
X10866071Y-16065809D01*
X10847024Y-16056286D01*
X10837500Y-16037238D01*
X10837500Y-16027714D01*
X10847024Y-16008667D01*
X10866071Y-15999143D01*
X10894643Y-15999143D01*
X10913690Y-16008667D01*
X10989881Y-16208667D02*
X10999405Y-16199143D01*
X11018452Y-16170571D01*
X11027976Y-16151524D01*
X11037500Y-16122952D01*
X11047024Y-16075333D01*
X11047024Y-16037238D01*
X11037500Y-15989619D01*
X11027976Y-15961048D01*
X11018452Y-15942000D01*
X10999405Y-15913428D01*
X10989881Y-15903905D01*
D16*
X5938500Y-16421000D02*
X6027500Y-16332000D01*
X5938500Y-16243000D01*
X5849500Y-16332000D01*
X5938500Y-16421000D01*
D11*
X6389881Y-16422476D02*
X6275595Y-16422476D01*
X6332738Y-16422476D02*
X6332738Y-16222476D01*
X6313690Y-16251048D01*
X6294643Y-16270095D01*
X6275595Y-16279619D01*
X6475595Y-16403428D02*
X6485119Y-16412952D01*
X6475595Y-16422476D01*
X6466071Y-16412952D01*
X6475595Y-16403428D01*
X6475595Y-16422476D01*
X6551786Y-16222476D02*
X6685119Y-16222476D01*
X6599405Y-16422476D01*
X6789881Y-16308190D02*
X6770833Y-16298667D01*
X6761309Y-16289143D01*
X6751786Y-16270095D01*
X6751786Y-16260571D01*
X6761309Y-16241524D01*
X6770833Y-16232000D01*
X6789881Y-16222476D01*
X6827976Y-16222476D01*
X6847024Y-16232000D01*
X6856548Y-16241524D01*
X6866071Y-16260571D01*
X6866071Y-16270095D01*
X6856548Y-16289143D01*
X6847024Y-16298667D01*
X6827976Y-16308190D01*
X6789881Y-16308190D01*
X6770833Y-16317714D01*
X6761309Y-16327238D01*
X6751786Y-16346286D01*
X6751786Y-16384381D01*
X6761309Y-16403428D01*
X6770833Y-16412952D01*
X6789881Y-16422476D01*
X6827976Y-16422476D01*
X6847024Y-16412952D01*
X6856548Y-16403428D01*
X6866071Y-16384381D01*
X6866071Y-16346286D01*
X6856548Y-16327238D01*
X6847024Y-16317714D01*
X6827976Y-16308190D01*
X6989881Y-16222476D02*
X7008928Y-16222476D01*
X7027976Y-16232000D01*
X7037500Y-16241524D01*
X7047024Y-16260571D01*
X7056548Y-16298667D01*
X7056548Y-16346286D01*
X7047024Y-16384381D01*
X7037500Y-16403428D01*
X7027976Y-16412952D01*
X7008928Y-16422476D01*
X6989881Y-16422476D01*
X6970833Y-16412952D01*
X6961309Y-16403428D01*
X6951786Y-16384381D01*
X6942262Y-16346286D01*
X6942262Y-16298667D01*
X6951786Y-16260571D01*
X6961309Y-16241524D01*
X6970833Y-16232000D01*
X6989881Y-16222476D01*
X7142262Y-16422476D02*
X7142262Y-16289143D01*
X7142262Y-16308190D02*
X7151786Y-16298667D01*
X7170833Y-16289143D01*
X7199405Y-16289143D01*
X7218452Y-16298667D01*
X7227976Y-16317714D01*
X7227976Y-16422476D01*
X7227976Y-16317714D02*
X7237500Y-16298667D01*
X7256548Y-16289143D01*
X7285119Y-16289143D01*
X7304167Y-16298667D01*
X7313690Y-16317714D01*
X7313690Y-16422476D01*
X7408928Y-16422476D02*
X7408928Y-16289143D01*
X7408928Y-16308190D02*
X7418452Y-16298667D01*
X7437500Y-16289143D01*
X7466071Y-16289143D01*
X7485119Y-16298667D01*
X7494643Y-16317714D01*
X7494643Y-16422476D01*
X7494643Y-16317714D02*
X7504167Y-16298667D01*
X7523214Y-16289143D01*
X7551786Y-16289143D01*
X7570833Y-16298667D01*
X7580357Y-16317714D01*
X7580357Y-16422476D01*
X7970833Y-16212952D02*
X7799405Y-16470095D01*
X8227976Y-16222476D02*
X8247024Y-16222476D01*
X8266071Y-16232000D01*
X8275595Y-16241524D01*
X8285119Y-16260571D01*
X8294643Y-16298667D01*
X8294643Y-16346286D01*
X8285119Y-16384381D01*
X8275595Y-16403428D01*
X8266071Y-16412952D01*
X8247024Y-16422476D01*
X8227976Y-16422476D01*
X8208928Y-16412952D01*
X8199405Y-16403428D01*
X8189881Y-16384381D01*
X8180357Y-16346286D01*
X8180357Y-16298667D01*
X8189881Y-16260571D01*
X8199405Y-16241524D01*
X8208928Y-16232000D01*
X8227976Y-16222476D01*
X8380357Y-16403428D02*
X8389881Y-16412952D01*
X8380357Y-16422476D01*
X8370833Y-16412952D01*
X8380357Y-16403428D01*
X8380357Y-16422476D01*
X8513690Y-16222476D02*
X8532738Y-16222476D01*
X8551786Y-16232000D01*
X8561310Y-16241524D01*
X8570833Y-16260571D01*
X8580357Y-16298667D01*
X8580357Y-16346286D01*
X8570833Y-16384381D01*
X8561310Y-16403428D01*
X8551786Y-16412952D01*
X8532738Y-16422476D01*
X8513690Y-16422476D01*
X8494643Y-16412952D01*
X8485119Y-16403428D01*
X8475595Y-16384381D01*
X8466071Y-16346286D01*
X8466071Y-16298667D01*
X8475595Y-16260571D01*
X8485119Y-16241524D01*
X8494643Y-16232000D01*
X8513690Y-16222476D01*
X8647024Y-16222476D02*
X8780357Y-16222476D01*
X8694643Y-16422476D01*
X8894643Y-16222476D02*
X8913690Y-16222476D01*
X8932738Y-16232000D01*
X8942262Y-16241524D01*
X8951786Y-16260571D01*
X8961310Y-16298667D01*
X8961310Y-16346286D01*
X8951786Y-16384381D01*
X8942262Y-16403428D01*
X8932738Y-16412952D01*
X8913690Y-16422476D01*
X8894643Y-16422476D01*
X8875595Y-16412952D01*
X8866071Y-16403428D01*
X8856548Y-16384381D01*
X8847024Y-16346286D01*
X8847024Y-16298667D01*
X8856548Y-16260571D01*
X8866071Y-16241524D01*
X8875595Y-16232000D01*
X8894643Y-16222476D01*
X9151786Y-16422476D02*
X9037500Y-16422476D01*
X9094643Y-16422476D02*
X9094643Y-16222476D01*
X9075595Y-16251048D01*
X9056548Y-16270095D01*
X9037500Y-16279619D01*
X9227976Y-16222476D02*
X9227976Y-16260571D01*
X9304167Y-16222476D02*
X9304167Y-16260571D01*
X9599405Y-16498667D02*
X9589881Y-16489143D01*
X9570833Y-16460571D01*
X9561310Y-16441524D01*
X9551786Y-16412952D01*
X9542262Y-16365333D01*
X9542262Y-16327238D01*
X9551786Y-16279619D01*
X9561310Y-16251048D01*
X9570833Y-16232000D01*
X9589881Y-16203428D01*
X9599405Y-16193905D01*
X9656548Y-16222476D02*
X9780357Y-16222476D01*
X9713690Y-16298667D01*
X9742262Y-16298667D01*
X9761310Y-16308190D01*
X9770833Y-16317714D01*
X9780357Y-16336762D01*
X9780357Y-16384381D01*
X9770833Y-16403428D01*
X9761310Y-16412952D01*
X9742262Y-16422476D01*
X9685119Y-16422476D01*
X9666071Y-16412952D01*
X9656548Y-16403428D01*
X9951786Y-16222476D02*
X9913690Y-16222476D01*
X9894643Y-16232000D01*
X9885119Y-16241524D01*
X9866071Y-16270095D01*
X9856548Y-16308190D01*
X9856548Y-16384381D01*
X9866071Y-16403428D01*
X9875595Y-16412952D01*
X9894643Y-16422476D01*
X9932738Y-16422476D01*
X9951786Y-16412952D01*
X9961310Y-16403428D01*
X9970833Y-16384381D01*
X9970833Y-16336762D01*
X9961310Y-16317714D01*
X9951786Y-16308190D01*
X9932738Y-16298667D01*
X9894643Y-16298667D01*
X9875595Y-16308190D01*
X9866071Y-16317714D01*
X9856548Y-16336762D01*
X10208929Y-16422476D02*
X10208929Y-16222476D01*
X10294643Y-16422476D02*
X10294643Y-16317714D01*
X10285119Y-16298667D01*
X10266071Y-16289143D01*
X10237500Y-16289143D01*
X10218452Y-16298667D01*
X10208929Y-16308190D01*
X10418452Y-16422476D02*
X10399405Y-16412952D01*
X10389881Y-16403428D01*
X10380357Y-16384381D01*
X10380357Y-16327238D01*
X10389881Y-16308190D01*
X10399405Y-16298667D01*
X10418452Y-16289143D01*
X10447024Y-16289143D01*
X10466071Y-16298667D01*
X10475595Y-16308190D01*
X10485119Y-16327238D01*
X10485119Y-16384381D01*
X10475595Y-16403428D01*
X10466071Y-16412952D01*
X10447024Y-16422476D01*
X10418452Y-16422476D01*
X10599405Y-16422476D02*
X10580357Y-16412952D01*
X10570833Y-16393905D01*
X10570833Y-16222476D01*
X10751786Y-16412952D02*
X10732738Y-16422476D01*
X10694643Y-16422476D01*
X10675595Y-16412952D01*
X10666071Y-16393905D01*
X10666071Y-16317714D01*
X10675595Y-16298667D01*
X10694643Y-16289143D01*
X10732738Y-16289143D01*
X10751786Y-16298667D01*
X10761310Y-16317714D01*
X10761310Y-16336762D01*
X10666071Y-16355809D01*
X10837500Y-16412952D02*
X10856548Y-16422476D01*
X10894643Y-16422476D01*
X10913690Y-16412952D01*
X10923214Y-16393905D01*
X10923214Y-16384381D01*
X10913690Y-16365333D01*
X10894643Y-16355809D01*
X10866071Y-16355809D01*
X10847024Y-16346286D01*
X10837500Y-16327238D01*
X10837500Y-16317714D01*
X10847024Y-16298667D01*
X10866071Y-16289143D01*
X10894643Y-16289143D01*
X10913690Y-16298667D01*
X10989881Y-16498667D02*
X10999405Y-16489143D01*
X11018452Y-16460571D01*
X11027976Y-16441524D01*
X11037500Y-16412952D01*
X11047024Y-16365333D01*
X11047024Y-16327238D01*
X11037500Y-16279619D01*
X11027976Y-16251048D01*
X11018452Y-16232000D01*
X10999405Y-16203428D01*
X10989881Y-16193905D01*
X5827500Y-16530000D02*
X6027500Y-16730000D01*
X6027500Y-16530000D02*
X5827500Y-16730000D01*
X6027500Y-16630000D02*
G75*
G03*
X6027500Y-16630000I-100000J0D01*
G01*
X6275595Y-16539524D02*
X6285119Y-16530000D01*
X6304167Y-16520476D01*
X6351786Y-16520476D01*
X6370833Y-16530000D01*
X6380357Y-16539524D01*
X6389881Y-16558571D01*
X6389881Y-16577619D01*
X6380357Y-16606190D01*
X6266071Y-16720476D01*
X6389881Y-16720476D01*
X6475595Y-16701428D02*
X6485119Y-16710952D01*
X6475595Y-16720476D01*
X6466071Y-16710952D01*
X6475595Y-16701428D01*
X6475595Y-16720476D01*
X6666071Y-16520476D02*
X6570833Y-16520476D01*
X6561309Y-16615714D01*
X6570833Y-16606190D01*
X6589881Y-16596667D01*
X6637500Y-16596667D01*
X6656548Y-16606190D01*
X6666071Y-16615714D01*
X6675595Y-16634762D01*
X6675595Y-16682381D01*
X6666071Y-16701428D01*
X6656548Y-16710952D01*
X6637500Y-16720476D01*
X6589881Y-16720476D01*
X6570833Y-16710952D01*
X6561309Y-16701428D01*
X6847024Y-16587143D02*
X6847024Y-16720476D01*
X6799405Y-16510952D02*
X6751786Y-16653809D01*
X6875595Y-16653809D01*
X6989881Y-16520476D02*
X7008928Y-16520476D01*
X7027976Y-16530000D01*
X7037500Y-16539524D01*
X7047024Y-16558571D01*
X7056548Y-16596667D01*
X7056548Y-16644286D01*
X7047024Y-16682381D01*
X7037500Y-16701428D01*
X7027976Y-16710952D01*
X7008928Y-16720476D01*
X6989881Y-16720476D01*
X6970833Y-16710952D01*
X6961309Y-16701428D01*
X6951786Y-16682381D01*
X6942262Y-16644286D01*
X6942262Y-16596667D01*
X6951786Y-16558571D01*
X6961309Y-16539524D01*
X6970833Y-16530000D01*
X6989881Y-16520476D01*
X7142262Y-16720476D02*
X7142262Y-16587143D01*
X7142262Y-16606190D02*
X7151786Y-16596667D01*
X7170833Y-16587143D01*
X7199405Y-16587143D01*
X7218452Y-16596667D01*
X7227976Y-16615714D01*
X7227976Y-16720476D01*
X7227976Y-16615714D02*
X7237500Y-16596667D01*
X7256548Y-16587143D01*
X7285119Y-16587143D01*
X7304167Y-16596667D01*
X7313690Y-16615714D01*
X7313690Y-16720476D01*
X7408928Y-16720476D02*
X7408928Y-16587143D01*
X7408928Y-16606190D02*
X7418452Y-16596667D01*
X7437500Y-16587143D01*
X7466071Y-16587143D01*
X7485119Y-16596667D01*
X7494643Y-16615714D01*
X7494643Y-16720476D01*
X7494643Y-16615714D02*
X7504167Y-16596667D01*
X7523214Y-16587143D01*
X7551786Y-16587143D01*
X7570833Y-16596667D01*
X7580357Y-16615714D01*
X7580357Y-16720476D01*
X7970833Y-16510952D02*
X7799405Y-16768095D01*
X8227976Y-16520476D02*
X8247024Y-16520476D01*
X8266071Y-16530000D01*
X8275595Y-16539524D01*
X8285119Y-16558571D01*
X8294643Y-16596667D01*
X8294643Y-16644286D01*
X8285119Y-16682381D01*
X8275595Y-16701428D01*
X8266071Y-16710952D01*
X8247024Y-16720476D01*
X8227976Y-16720476D01*
X8208928Y-16710952D01*
X8199405Y-16701428D01*
X8189881Y-16682381D01*
X8180357Y-16644286D01*
X8180357Y-16596667D01*
X8189881Y-16558571D01*
X8199405Y-16539524D01*
X8208928Y-16530000D01*
X8227976Y-16520476D01*
X8380357Y-16701428D02*
X8389881Y-16710952D01*
X8380357Y-16720476D01*
X8370833Y-16710952D01*
X8380357Y-16701428D01*
X8380357Y-16720476D01*
X8580357Y-16720476D02*
X8466071Y-16720476D01*
X8523214Y-16720476D02*
X8523214Y-16520476D01*
X8504167Y-16549048D01*
X8485119Y-16568095D01*
X8466071Y-16577619D01*
X8704167Y-16520476D02*
X8723214Y-16520476D01*
X8742262Y-16530000D01*
X8751786Y-16539524D01*
X8761310Y-16558571D01*
X8770833Y-16596667D01*
X8770833Y-16644286D01*
X8761310Y-16682381D01*
X8751786Y-16701428D01*
X8742262Y-16710952D01*
X8723214Y-16720476D01*
X8704167Y-16720476D01*
X8685119Y-16710952D01*
X8675595Y-16701428D01*
X8666071Y-16682381D01*
X8656548Y-16644286D01*
X8656548Y-16596667D01*
X8666071Y-16558571D01*
X8675595Y-16539524D01*
X8685119Y-16530000D01*
X8704167Y-16520476D01*
X8894643Y-16520476D02*
X8913690Y-16520476D01*
X8932738Y-16530000D01*
X8942262Y-16539524D01*
X8951786Y-16558571D01*
X8961310Y-16596667D01*
X8961310Y-16644286D01*
X8951786Y-16682381D01*
X8942262Y-16701428D01*
X8932738Y-16710952D01*
X8913690Y-16720476D01*
X8894643Y-16720476D01*
X8875595Y-16710952D01*
X8866071Y-16701428D01*
X8856548Y-16682381D01*
X8847024Y-16644286D01*
X8847024Y-16596667D01*
X8856548Y-16558571D01*
X8866071Y-16539524D01*
X8875595Y-16530000D01*
X8894643Y-16520476D01*
X9085119Y-16520476D02*
X9104167Y-16520476D01*
X9123214Y-16530000D01*
X9132738Y-16539524D01*
X9142262Y-16558571D01*
X9151786Y-16596667D01*
X9151786Y-16644286D01*
X9142262Y-16682381D01*
X9132738Y-16701428D01*
X9123214Y-16710952D01*
X9104167Y-16720476D01*
X9085119Y-16720476D01*
X9066071Y-16710952D01*
X9056548Y-16701428D01*
X9047024Y-16682381D01*
X9037500Y-16644286D01*
X9037500Y-16596667D01*
X9047024Y-16558571D01*
X9056548Y-16539524D01*
X9066071Y-16530000D01*
X9085119Y-16520476D01*
X9227976Y-16520476D02*
X9227976Y-16558571D01*
X9304167Y-16520476D02*
X9304167Y-16558571D01*
X9599405Y-16796667D02*
X9589881Y-16787143D01*
X9570833Y-16758571D01*
X9561310Y-16739524D01*
X9551786Y-16710952D01*
X9542262Y-16663333D01*
X9542262Y-16625238D01*
X9551786Y-16577619D01*
X9561310Y-16549048D01*
X9570833Y-16530000D01*
X9589881Y-16501428D01*
X9599405Y-16491905D01*
X9761310Y-16587143D02*
X9761310Y-16720476D01*
X9713690Y-16510952D02*
X9666071Y-16653809D01*
X9789881Y-16653809D01*
X9904167Y-16520476D02*
X9923214Y-16520476D01*
X9942262Y-16530000D01*
X9951786Y-16539524D01*
X9961310Y-16558571D01*
X9970833Y-16596667D01*
X9970833Y-16644286D01*
X9961310Y-16682381D01*
X9951786Y-16701428D01*
X9942262Y-16710952D01*
X9923214Y-16720476D01*
X9904167Y-16720476D01*
X9885119Y-16710952D01*
X9875595Y-16701428D01*
X9866071Y-16682381D01*
X9856548Y-16644286D01*
X9856548Y-16596667D01*
X9866071Y-16558571D01*
X9875595Y-16539524D01*
X9885119Y-16530000D01*
X9904167Y-16520476D01*
X10208929Y-16720476D02*
X10208929Y-16520476D01*
X10294643Y-16720476D02*
X10294643Y-16615714D01*
X10285119Y-16596667D01*
X10266071Y-16587143D01*
X10237500Y-16587143D01*
X10218452Y-16596667D01*
X10208929Y-16606190D01*
X10418452Y-16720476D02*
X10399405Y-16710952D01*
X10389881Y-16701428D01*
X10380357Y-16682381D01*
X10380357Y-16625238D01*
X10389881Y-16606190D01*
X10399405Y-16596667D01*
X10418452Y-16587143D01*
X10447024Y-16587143D01*
X10466071Y-16596667D01*
X10475595Y-16606190D01*
X10485119Y-16625238D01*
X10485119Y-16682381D01*
X10475595Y-16701428D01*
X10466071Y-16710952D01*
X10447024Y-16720476D01*
X10418452Y-16720476D01*
X10599405Y-16720476D02*
X10580357Y-16710952D01*
X10570833Y-16691905D01*
X10570833Y-16520476D01*
X10751786Y-16710952D02*
X10732738Y-16720476D01*
X10694643Y-16720476D01*
X10675595Y-16710952D01*
X10666071Y-16691905D01*
X10666071Y-16615714D01*
X10675595Y-16596667D01*
X10694643Y-16587143D01*
X10732738Y-16587143D01*
X10751786Y-16596667D01*
X10761310Y-16615714D01*
X10761310Y-16634762D01*
X10666071Y-16653809D01*
X10837500Y-16710952D02*
X10856548Y-16720476D01*
X10894643Y-16720476D01*
X10913690Y-16710952D01*
X10923214Y-16691905D01*
X10923214Y-16682381D01*
X10913690Y-16663333D01*
X10894643Y-16653809D01*
X10866071Y-16653809D01*
X10847024Y-16644286D01*
X10837500Y-16625238D01*
X10837500Y-16615714D01*
X10847024Y-16596667D01*
X10866071Y-16587143D01*
X10894643Y-16587143D01*
X10913690Y-16596667D01*
X10989881Y-16796667D02*
X10999405Y-16787143D01*
X11018452Y-16758571D01*
X11027976Y-16739524D01*
X11037500Y-16710952D01*
X11047024Y-16663333D01*
X11047024Y-16625238D01*
X11037500Y-16577619D01*
X11027976Y-16549048D01*
X11018452Y-16530000D01*
X10999405Y-16501428D01*
X10989881Y-16491905D01*
X5827500Y-16850000D02*
X6027500Y-17050000D01*
X6027500Y-16850000D02*
X5827500Y-17050000D01*
X5927500Y-16850000D02*
X5927500Y-17050000D01*
X5827500Y-16950000D02*
X6027500Y-16950000D01*
X6380357Y-16840476D02*
X6285119Y-16840476D01*
X6275595Y-16935714D01*
X6285119Y-16926190D01*
X6304167Y-16916667D01*
X6351786Y-16916667D01*
X6370833Y-16926190D01*
X6380357Y-16935714D01*
X6389881Y-16954762D01*
X6389881Y-17002381D01*
X6380357Y-17021429D01*
X6370833Y-17030952D01*
X6351786Y-17040476D01*
X6304167Y-17040476D01*
X6285119Y-17030952D01*
X6275595Y-17021429D01*
X6475595Y-17021429D02*
X6485119Y-17030952D01*
X6475595Y-17040476D01*
X6466071Y-17030952D01*
X6475595Y-17021429D01*
X6475595Y-17040476D01*
X6551786Y-16840476D02*
X6685119Y-16840476D01*
X6599405Y-17040476D01*
X6799405Y-16840476D02*
X6818452Y-16840476D01*
X6837500Y-16850000D01*
X6847024Y-16859524D01*
X6856548Y-16878571D01*
X6866071Y-16916667D01*
X6866071Y-16964286D01*
X6856548Y-17002381D01*
X6847024Y-17021429D01*
X6837500Y-17030952D01*
X6818452Y-17040476D01*
X6799405Y-17040476D01*
X6780357Y-17030952D01*
X6770833Y-17021429D01*
X6761309Y-17002381D01*
X6751786Y-16964286D01*
X6751786Y-16916667D01*
X6761309Y-16878571D01*
X6770833Y-16859524D01*
X6780357Y-16850000D01*
X6799405Y-16840476D01*
X6989881Y-16840476D02*
X7008928Y-16840476D01*
X7027976Y-16850000D01*
X7037500Y-16859524D01*
X7047024Y-16878571D01*
X7056548Y-16916667D01*
X7056548Y-16964286D01*
X7047024Y-17002381D01*
X7037500Y-17021429D01*
X7027976Y-17030952D01*
X7008928Y-17040476D01*
X6989881Y-17040476D01*
X6970833Y-17030952D01*
X6961309Y-17021429D01*
X6951786Y-17002381D01*
X6942262Y-16964286D01*
X6942262Y-16916667D01*
X6951786Y-16878571D01*
X6961309Y-16859524D01*
X6970833Y-16850000D01*
X6989881Y-16840476D01*
X7142262Y-17040476D02*
X7142262Y-16907143D01*
X7142262Y-16926190D02*
X7151786Y-16916667D01*
X7170833Y-16907143D01*
X7199405Y-16907143D01*
X7218452Y-16916667D01*
X7227976Y-16935714D01*
X7227976Y-17040476D01*
X7227976Y-16935714D02*
X7237500Y-16916667D01*
X7256548Y-16907143D01*
X7285119Y-16907143D01*
X7304167Y-16916667D01*
X7313690Y-16935714D01*
X7313690Y-17040476D01*
X7408928Y-17040476D02*
X7408928Y-16907143D01*
X7408928Y-16926190D02*
X7418452Y-16916667D01*
X7437500Y-16907143D01*
X7466071Y-16907143D01*
X7485119Y-16916667D01*
X7494643Y-16935714D01*
X7494643Y-17040476D01*
X7494643Y-16935714D02*
X7504167Y-16916667D01*
X7523214Y-16907143D01*
X7551786Y-16907143D01*
X7570833Y-16916667D01*
X7580357Y-16935714D01*
X7580357Y-17040476D01*
X7970833Y-16830952D02*
X7799405Y-17088095D01*
X8227976Y-16840476D02*
X8247024Y-16840476D01*
X8266071Y-16850000D01*
X8275595Y-16859524D01*
X8285119Y-16878571D01*
X8294643Y-16916667D01*
X8294643Y-16964286D01*
X8285119Y-17002381D01*
X8275595Y-17021429D01*
X8266071Y-17030952D01*
X8247024Y-17040476D01*
X8227976Y-17040476D01*
X8208928Y-17030952D01*
X8199405Y-17021429D01*
X8189881Y-17002381D01*
X8180357Y-16964286D01*
X8180357Y-16916667D01*
X8189881Y-16878571D01*
X8199405Y-16859524D01*
X8208928Y-16850000D01*
X8227976Y-16840476D01*
X8380357Y-17021429D02*
X8389881Y-17030952D01*
X8380357Y-17040476D01*
X8370833Y-17030952D01*
X8380357Y-17021429D01*
X8380357Y-17040476D01*
X8466071Y-16859524D02*
X8475595Y-16850000D01*
X8494643Y-16840476D01*
X8542262Y-16840476D01*
X8561310Y-16850000D01*
X8570833Y-16859524D01*
X8580357Y-16878571D01*
X8580357Y-16897619D01*
X8570833Y-16926190D01*
X8456548Y-17040476D01*
X8580357Y-17040476D01*
X8656548Y-16859524D02*
X8666071Y-16850000D01*
X8685119Y-16840476D01*
X8732738Y-16840476D01*
X8751786Y-16850000D01*
X8761310Y-16859524D01*
X8770833Y-16878571D01*
X8770833Y-16897619D01*
X8761310Y-16926190D01*
X8647024Y-17040476D01*
X8770833Y-17040476D01*
X8942262Y-16907143D02*
X8942262Y-17040476D01*
X8894643Y-16830952D02*
X8847024Y-16973810D01*
X8970833Y-16973810D01*
X9132738Y-16907143D02*
X9132738Y-17040476D01*
X9085119Y-16830952D02*
X9037500Y-16973810D01*
X9161310Y-16973810D01*
X9227976Y-16840476D02*
X9227976Y-16878571D01*
X9304167Y-16840476D02*
X9304167Y-16878571D01*
X9599405Y-17116667D02*
X9589881Y-17107143D01*
X9570833Y-17078571D01*
X9561310Y-17059524D01*
X9551786Y-17030952D01*
X9542262Y-16983333D01*
X9542262Y-16945238D01*
X9551786Y-16897619D01*
X9561310Y-16869048D01*
X9570833Y-16850000D01*
X9589881Y-16821429D01*
X9599405Y-16811905D01*
X9666071Y-16859524D02*
X9675595Y-16850000D01*
X9694643Y-16840476D01*
X9742262Y-16840476D01*
X9761310Y-16850000D01*
X9770833Y-16859524D01*
X9780357Y-16878571D01*
X9780357Y-16897619D01*
X9770833Y-16926190D01*
X9656548Y-17040476D01*
X9780357Y-17040476D01*
X10018452Y-17040476D02*
X10018452Y-16840476D01*
X10104167Y-17040476D02*
X10104167Y-16935714D01*
X10094643Y-16916667D01*
X10075595Y-16907143D01*
X10047024Y-16907143D01*
X10027976Y-16916667D01*
X10018452Y-16926190D01*
X10227976Y-17040476D02*
X10208929Y-17030952D01*
X10199405Y-17021429D01*
X10189881Y-17002381D01*
X10189881Y-16945238D01*
X10199405Y-16926190D01*
X10208929Y-16916667D01*
X10227976Y-16907143D01*
X10256548Y-16907143D01*
X10275595Y-16916667D01*
X10285119Y-16926190D01*
X10294643Y-16945238D01*
X10294643Y-17002381D01*
X10285119Y-17021429D01*
X10275595Y-17030952D01*
X10256548Y-17040476D01*
X10227976Y-17040476D01*
X10408929Y-17040476D02*
X10389881Y-17030952D01*
X10380357Y-17011905D01*
X10380357Y-16840476D01*
X10561310Y-17030952D02*
X10542262Y-17040476D01*
X10504167Y-17040476D01*
X10485119Y-17030952D01*
X10475595Y-17011905D01*
X10475595Y-16935714D01*
X10485119Y-16916667D01*
X10504167Y-16907143D01*
X10542262Y-16907143D01*
X10561310Y-16916667D01*
X10570833Y-16935714D01*
X10570833Y-16954762D01*
X10475595Y-16973810D01*
X10647024Y-17030952D02*
X10666071Y-17040476D01*
X10704167Y-17040476D01*
X10723214Y-17030952D01*
X10732738Y-17011905D01*
X10732738Y-17002381D01*
X10723214Y-16983333D01*
X10704167Y-16973810D01*
X10675595Y-16973810D01*
X10656548Y-16964286D01*
X10647024Y-16945238D01*
X10647024Y-16935714D01*
X10656548Y-16916667D01*
X10675595Y-16907143D01*
X10704167Y-16907143D01*
X10723214Y-16916667D01*
X10799405Y-17116667D02*
X10808929Y-17107143D01*
X10827976Y-17078571D01*
X10837500Y-17059524D01*
X10847024Y-17030952D01*
X10856548Y-16983333D01*
X10856548Y-16945238D01*
X10847024Y-16897619D01*
X10837500Y-16869048D01*
X10827976Y-16850000D01*
X10808929Y-16821429D01*
X10799405Y-16811905D01*
M02*
