G04 #@! TF.GenerationSoftware,KiCad,Pcbnew,6.0.6-3a73a75311~116~ubuntu22.04.1*
G04 #@! TF.CreationDate,2022-09-02T17:28:33-07:00*
G04 #@! TF.ProjectId,thrusterV3,74687275-7374-4657-9256-332e6b696361,rev?*
G04 #@! TF.SameCoordinates,Original*
G04 #@! TF.FileFunction,Soldermask,Top*
G04 #@! TF.FilePolarity,Negative*
%FSLAX46Y46*%
G04 Gerber Fmt 4.6, Leading zero omitted, Abs format (unit mm)*
G04 Created by KiCad (PCBNEW 6.0.6-3a73a75311~116~ubuntu22.04.1) date 2022-09-02 17:28:33*
%MOMM*%
%LPD*%
G01*
G04 APERTURE LIST*
G04 Aperture macros list*
%AMRoundRect*
0 Rectangle with rounded corners*
0 $1 Rounding radius*
0 $2 $3 $4 $5 $6 $7 $8 $9 X,Y pos of 4 corners*
0 Add a 4 corners polygon primitive as box body*
4,1,4,$2,$3,$4,$5,$6,$7,$8,$9,$2,$3,0*
0 Add four circle primitives for the rounded corners*
1,1,$1+$1,$2,$3*
1,1,$1+$1,$4,$5*
1,1,$1+$1,$6,$7*
1,1,$1+$1,$8,$9*
0 Add four rect primitives between the rounded corners*
20,1,$1+$1,$2,$3,$4,$5,0*
20,1,$1+$1,$4,$5,$6,$7,0*
20,1,$1+$1,$6,$7,$8,$9,0*
20,1,$1+$1,$8,$9,$2,$3,0*%
G04 Aperture macros list end*
%ADD10RoundRect,0.100000X0.637500X0.100000X-0.637500X0.100000X-0.637500X-0.100000X0.637500X-0.100000X0*%
%ADD11RoundRect,0.250000X1.800000X-1.330000X1.800000X1.330000X-1.800000X1.330000X-1.800000X-1.330000X0*%
%ADD12O,4.100000X3.160000*%
%ADD13C,5.080000*%
%ADD14C,2.070000*%
%ADD15RoundRect,0.250000X-0.750000X0.600000X-0.750000X-0.600000X0.750000X-0.600000X0.750000X0.600000X0*%
%ADD16O,2.000000X1.700000*%
%ADD17C,2.780000*%
%ADD18RoundRect,0.237500X-0.237500X0.250000X-0.237500X-0.250000X0.237500X-0.250000X0.237500X0.250000X0*%
%ADD19RoundRect,0.237500X0.250000X0.237500X-0.250000X0.237500X-0.250000X-0.237500X0.250000X-0.237500X0*%
%ADD20RoundRect,0.250000X0.750000X-0.600000X0.750000X0.600000X-0.750000X0.600000X-0.750000X-0.600000X0*%
%ADD21RoundRect,0.237500X-0.250000X-0.237500X0.250000X-0.237500X0.250000X0.237500X-0.250000X0.237500X0*%
%ADD22RoundRect,0.237500X-0.300000X-0.237500X0.300000X-0.237500X0.300000X0.237500X-0.300000X0.237500X0*%
%ADD23C,3.200000*%
%ADD24RoundRect,0.150000X0.700000X-0.150000X0.700000X0.150000X-0.700000X0.150000X-0.700000X-0.150000X0*%
%ADD25RoundRect,0.250000X1.150000X-0.250000X1.150000X0.250000X-1.150000X0.250000X-1.150000X-0.250000X0*%
%ADD26RoundRect,0.237500X0.287500X0.237500X-0.287500X0.237500X-0.287500X-0.237500X0.287500X-0.237500X0*%
%ADD27C,9.900000*%
%ADD28RoundRect,0.237500X0.237500X-0.250000X0.237500X0.250000X-0.237500X0.250000X-0.237500X-0.250000X0*%
%ADD29RoundRect,0.237500X-0.237500X0.287500X-0.237500X-0.287500X0.237500X-0.287500X0.237500X0.287500X0*%
%ADD30RoundRect,0.237500X-0.237500X0.300000X-0.237500X-0.300000X0.237500X-0.300000X0.237500X0.300000X0*%
%ADD31R,1.100000X0.250000*%
G04 APERTURE END LIST*
D10*
X87317500Y-93125000D03*
X87317500Y-92475000D03*
X87317500Y-91825000D03*
X87317500Y-91175000D03*
X87317500Y-90525000D03*
X87317500Y-89875000D03*
X87317500Y-89225000D03*
X87317500Y-88575000D03*
X87317500Y-87925000D03*
X87317500Y-87275000D03*
X87317500Y-86625000D03*
X87317500Y-85975000D03*
X87317500Y-85325000D03*
X87317500Y-84675000D03*
X81592500Y-84675000D03*
X81592500Y-85325000D03*
X81592500Y-85975000D03*
X81592500Y-86625000D03*
X81592500Y-87275000D03*
X81592500Y-87925000D03*
X81592500Y-88575000D03*
X81592500Y-89225000D03*
X81592500Y-89875000D03*
X81592500Y-90525000D03*
X81592500Y-91175000D03*
X81592500Y-91825000D03*
X81592500Y-92475000D03*
X81592500Y-93125000D03*
D11*
X184255000Y-143025000D03*
D12*
X184255000Y-139065000D03*
X184255000Y-135105000D03*
D13*
X110600000Y-72965000D03*
X104600000Y-72965000D03*
X110600000Y-116965000D03*
X110600000Y-122965000D03*
X110600000Y-128965000D03*
D14*
X110600000Y-83965000D03*
X110600000Y-80965000D03*
D15*
X64660000Y-60980000D03*
D16*
X64660000Y-63480000D03*
D17*
X171655000Y-56000000D03*
X175055000Y-56000000D03*
X175055000Y-65920000D03*
X171655000Y-65920000D03*
D18*
X137795000Y-59650000D03*
X137795000Y-61475000D03*
D11*
X107950000Y-143025000D03*
D12*
X107950000Y-139065000D03*
X107950000Y-135105000D03*
D11*
X171450000Y-143025000D03*
D12*
X171450000Y-139065000D03*
X171450000Y-135105000D03*
D18*
X163195000Y-59650000D03*
X163195000Y-61475000D03*
X90805000Y-59650000D03*
X90805000Y-61475000D03*
D19*
X85367500Y-100330000D03*
X83542500Y-100330000D03*
D18*
X76835000Y-69572500D03*
X76835000Y-71397500D03*
D20*
X193040000Y-82550000D03*
D16*
X193040000Y-80050000D03*
D11*
X95250000Y-143025000D03*
D12*
X95250000Y-139065000D03*
X95250000Y-135105000D03*
D21*
X66397500Y-74295000D03*
X68222500Y-74295000D03*
D11*
X120650000Y-143025000D03*
D12*
X120650000Y-139065000D03*
X120650000Y-135105000D03*
D22*
X81687500Y-95250000D03*
X83412500Y-95250000D03*
D23*
X63500000Y-142875000D03*
D17*
X183945000Y-56000000D03*
X180545000Y-56000000D03*
X180545000Y-65920000D03*
X183945000Y-65920000D03*
D20*
X193040000Y-92075000D03*
D16*
X193040000Y-89575000D03*
D17*
X104345000Y-56000000D03*
X107745000Y-56000000D03*
X104345000Y-65920000D03*
X107745000Y-65920000D03*
X74725000Y-116720000D03*
X71325000Y-116720000D03*
X71325000Y-106800000D03*
X74725000Y-106800000D03*
D20*
X193040000Y-101600000D03*
D16*
X193040000Y-99100000D03*
D17*
X95455000Y-56000000D03*
X98855000Y-56000000D03*
X98855000Y-65920000D03*
X95455000Y-65920000D03*
X124255000Y-56000000D03*
X120855000Y-56000000D03*
X124255000Y-65920000D03*
X120855000Y-65920000D03*
X155145000Y-56000000D03*
X158545000Y-56000000D03*
X158545000Y-65920000D03*
X155145000Y-65920000D03*
D18*
X79375000Y-102315000D03*
X79375000Y-104140000D03*
D24*
X66085000Y-100300000D03*
X66085000Y-99050000D03*
X66085000Y-97800000D03*
X66085000Y-96550000D03*
D25*
X62735000Y-94700000D03*
X62735000Y-102150000D03*
D17*
X133145000Y-56000000D03*
X129745000Y-56000000D03*
X133145000Y-65920000D03*
X129745000Y-65920000D03*
D23*
X193675000Y-142875000D03*
D19*
X85367500Y-98425000D03*
X83542500Y-98425000D03*
D18*
X167005000Y-59650000D03*
X167005000Y-61475000D03*
D23*
X63500000Y-53975000D03*
D26*
X64412500Y-74295000D03*
X62662500Y-74295000D03*
D21*
X66397500Y-69215000D03*
X68222500Y-69215000D03*
D18*
X188595000Y-59650000D03*
X188595000Y-61475000D03*
D27*
X74295000Y-127850000D03*
X74295000Y-138850000D03*
D28*
X78740000Y-71397500D03*
X78740000Y-69572500D03*
D20*
X193040000Y-111125000D03*
D16*
X193040000Y-108625000D03*
D11*
X146155000Y-143025000D03*
D12*
X146155000Y-139065000D03*
X146155000Y-135105000D03*
D13*
X186805000Y-72965000D03*
X180805000Y-72965000D03*
X186805000Y-116965000D03*
X186805000Y-122965000D03*
X186805000Y-128965000D03*
D14*
X186805000Y-83965000D03*
X186805000Y-80965000D03*
D29*
X90805000Y-63535000D03*
X90805000Y-65285000D03*
X141605000Y-63535000D03*
X141605000Y-65285000D03*
D17*
X149655000Y-56000000D03*
X146255000Y-56000000D03*
X146255000Y-65920000D03*
X149655000Y-65920000D03*
D18*
X79375000Y-105767500D03*
X79375000Y-107592500D03*
D29*
X116205000Y-63535000D03*
X116205000Y-65285000D03*
D18*
X141605000Y-59650000D03*
X141605000Y-61475000D03*
D30*
X88265000Y-107087500D03*
X88265000Y-108812500D03*
D11*
X133350000Y-143025000D03*
D12*
X133350000Y-139065000D03*
X133350000Y-135105000D03*
D29*
X112395000Y-63535000D03*
X112395000Y-65285000D03*
D31*
X81035000Y-104410000D03*
X81035000Y-104910000D03*
X81035000Y-105410000D03*
X81035000Y-105910000D03*
X81035000Y-106410000D03*
X85335000Y-106410000D03*
X85335000Y-105910000D03*
X85335000Y-105410000D03*
X85335000Y-104910000D03*
X85335000Y-104410000D03*
D29*
X167005000Y-63535000D03*
X167005000Y-65285000D03*
D13*
X161400000Y-72965000D03*
X155400000Y-72965000D03*
X161400000Y-116965000D03*
X161400000Y-122965000D03*
X161400000Y-128965000D03*
D14*
X161400000Y-83965000D03*
X161400000Y-80965000D03*
D11*
X158750000Y-143025000D03*
D12*
X158750000Y-139065000D03*
X158750000Y-135105000D03*
D29*
X188595000Y-63535000D03*
X188595000Y-65285000D03*
D26*
X64375000Y-69215000D03*
X62625000Y-69215000D03*
D23*
X193675000Y-53975000D03*
D18*
X116205000Y-59650000D03*
X116205000Y-61475000D03*
D29*
X163195000Y-63535000D03*
X163195000Y-65285000D03*
D24*
X66085000Y-90090000D03*
X66085000Y-88840000D03*
X66085000Y-87590000D03*
X66085000Y-86340000D03*
X66085000Y-85090000D03*
X66085000Y-83840000D03*
X66085000Y-82590000D03*
X66085000Y-81340000D03*
X66085000Y-80090000D03*
D25*
X62735000Y-91940000D03*
X62735000Y-78240000D03*
D18*
X88265000Y-95607500D03*
X88265000Y-97432500D03*
X112395000Y-59650000D03*
X112395000Y-61475000D03*
D13*
X136000000Y-72965000D03*
X130000000Y-72965000D03*
X136000000Y-116965000D03*
X136000000Y-122965000D03*
X136000000Y-128965000D03*
D14*
X136000000Y-83965000D03*
X136000000Y-80965000D03*
D29*
X137795000Y-63535000D03*
X137795000Y-65285000D03*
D13*
X118000000Y-72965000D03*
X124000000Y-72965000D03*
X118000000Y-116965000D03*
X118000000Y-122965000D03*
X118000000Y-128965000D03*
D14*
X118000000Y-83965000D03*
X118000000Y-80965000D03*
D13*
X143400000Y-72965000D03*
X149400000Y-72965000D03*
X143400000Y-116965000D03*
X143400000Y-122965000D03*
X143400000Y-128965000D03*
D14*
X143400000Y-83965000D03*
X143400000Y-80965000D03*
D13*
X168805000Y-72965000D03*
X174805000Y-72965000D03*
X168805000Y-116965000D03*
X168805000Y-122965000D03*
X168805000Y-128965000D03*
D14*
X168805000Y-83965000D03*
X168805000Y-80965000D03*
D13*
X92600000Y-72965000D03*
X98600000Y-72965000D03*
X92600000Y-116965000D03*
X92600000Y-122965000D03*
X92600000Y-128965000D03*
D14*
X92600000Y-83965000D03*
X92600000Y-80965000D03*
M02*
