%TF.GenerationSoftware,KiCad,Pcbnew,(6.0.9)*%
%TF.CreationDate,2023-02-01T20:08:36-08:00*%
%TF.ProjectId,regulator_board,72656775-6c61-4746-9f72-5f626f617264,rev?*%
%TF.SameCoordinates,Original*%
%TF.FileFunction,Drillmap*%
%TF.FilePolarity,Positive*%
%FSLAX45Y45*%
G04 Gerber Fmt 4.5, Leading zero omitted, Abs format (unit mm)*
G04 Created by KiCad (PCBNEW (6.0.9)) date 2023-02-01 20:08:36*
%MOMM*%
%LPD*%
G01*
G04 APERTURE LIST*
%ADD10C,0.100000*%
%ADD11C,0.200000*%
G04 APERTURE END LIST*
D10*
X17145000Y-11684000D02*
X5461000Y-11684000D01*
X17145000Y-12573000D02*
G75*
G03*
X17145000Y-11684000I0J444500D01*
G01*
X5461000Y-15240000D02*
X17145000Y-15240000D01*
X5842000Y-12954000D02*
X5842000Y-13970000D01*
X16764000Y-13970000D02*
X16764000Y-12954000D01*
X5461000Y-14351000D02*
G75*
G03*
X5461000Y-15240000I0J-444500D01*
G01*
X5842000Y-12954000D02*
G75*
G03*
X5461000Y-12573000I-381000J0D01*
G01*
X17145000Y-12573000D02*
G75*
G03*
X16764000Y-12954000I0J-381000D01*
G01*
X17145000Y-15240000D02*
G75*
G03*
X17145000Y-14351000I0J444500D01*
G01*
X16764000Y-13970000D02*
G75*
G03*
X17145000Y-14351000I381000J0D01*
G01*
X5461000Y-14351000D02*
G75*
G03*
X5842000Y-13970000I0J381000D01*
G01*
X5461000Y-11684000D02*
G75*
G03*
X5461000Y-12573000I0J-444500D01*
G01*
D11*
X5269119Y-15555476D02*
X5269119Y-15355476D01*
X5316738Y-15355476D01*
X5345310Y-15365000D01*
X5364357Y-15384048D01*
X5373881Y-15403095D01*
X5383405Y-15441190D01*
X5383405Y-15469762D01*
X5373881Y-15507857D01*
X5364357Y-15526905D01*
X5345310Y-15545952D01*
X5316738Y-15555476D01*
X5269119Y-15555476D01*
X5469119Y-15555476D02*
X5469119Y-15422143D01*
X5469119Y-15460238D02*
X5478643Y-15441190D01*
X5488167Y-15431667D01*
X5507214Y-15422143D01*
X5526262Y-15422143D01*
X5592928Y-15555476D02*
X5592928Y-15422143D01*
X5592928Y-15355476D02*
X5583405Y-15365000D01*
X5592928Y-15374524D01*
X5602452Y-15365000D01*
X5592928Y-15355476D01*
X5592928Y-15374524D01*
X5716738Y-15555476D02*
X5697690Y-15545952D01*
X5688167Y-15526905D01*
X5688167Y-15355476D01*
X5821500Y-15555476D02*
X5802452Y-15545952D01*
X5792928Y-15526905D01*
X5792928Y-15355476D01*
X6050071Y-15555476D02*
X6050071Y-15355476D01*
X6116738Y-15498333D01*
X6183405Y-15355476D01*
X6183405Y-15555476D01*
X6364357Y-15555476D02*
X6364357Y-15450714D01*
X6354833Y-15431667D01*
X6335786Y-15422143D01*
X6297690Y-15422143D01*
X6278643Y-15431667D01*
X6364357Y-15545952D02*
X6345309Y-15555476D01*
X6297690Y-15555476D01*
X6278643Y-15545952D01*
X6269119Y-15526905D01*
X6269119Y-15507857D01*
X6278643Y-15488809D01*
X6297690Y-15479286D01*
X6345309Y-15479286D01*
X6364357Y-15469762D01*
X6459595Y-15422143D02*
X6459595Y-15622143D01*
X6459595Y-15431667D02*
X6478643Y-15422143D01*
X6516738Y-15422143D01*
X6535786Y-15431667D01*
X6545309Y-15441190D01*
X6554833Y-15460238D01*
X6554833Y-15517381D01*
X6545309Y-15536428D01*
X6535786Y-15545952D01*
X6516738Y-15555476D01*
X6478643Y-15555476D01*
X6459595Y-15545952D01*
X6640548Y-15536428D02*
X6650071Y-15545952D01*
X6640548Y-15555476D01*
X6631024Y-15545952D01*
X6640548Y-15536428D01*
X6640548Y-15555476D01*
X6640548Y-15431667D02*
X6650071Y-15441190D01*
X6640548Y-15450714D01*
X6631024Y-15441190D01*
X6640548Y-15431667D01*
X6640548Y-15450714D01*
M02*
