G04 #@! TF.GenerationSoftware,KiCad,Pcbnew,(6.0.9)*
G04 #@! TF.CreationDate,2023-02-01T20:00:21-08:00*
G04 #@! TF.ProjectId,regulator_board,72656775-6c61-4746-9f72-5f626f617264,rev?*
G04 #@! TF.SameCoordinates,Original*
G04 #@! TF.FileFunction,Copper,L2,Bot*
G04 #@! TF.FilePolarity,Positive*
%FSLAX46Y46*%
G04 Gerber Fmt 4.6, Leading zero omitted, Abs format (unit mm)*
G04 Created by KiCad (PCBNEW (6.0.9)) date 2023-02-01 20:00:21*
%MOMM*%
%LPD*%
G01*
G04 APERTURE LIST*
G04 Aperture macros list*
%AMRoundRect*
0 Rectangle with rounded corners*
0 $1 Rounding radius*
0 $2 $3 $4 $5 $6 $7 $8 $9 X,Y pos of 4 corners*
0 Add a 4 corners polygon primitive as box body*
4,1,4,$2,$3,$4,$5,$6,$7,$8,$9,$2,$3,0*
0 Add four circle primitives for the rounded corners*
1,1,$1+$1,$2,$3*
1,1,$1+$1,$4,$5*
1,1,$1+$1,$6,$7*
1,1,$1+$1,$8,$9*
0 Add four rect primitives between the rounded corners*
20,1,$1+$1,$2,$3,$4,$5,0*
20,1,$1+$1,$4,$5,$6,$7,0*
20,1,$1+$1,$6,$7,$8,$9,0*
20,1,$1+$1,$8,$9,$2,$3,0*%
G04 Aperture macros list end*
G04 #@! TA.AperFunction,ComponentPad*
%ADD10RoundRect,1.500000X-1.500000X1.500000X-1.500000X-1.500000X1.500000X-1.500000X1.500000X1.500000X0*%
G04 #@! TD*
G04 #@! TA.AperFunction,ComponentPad*
%ADD11C,6.000000*%
G04 #@! TD*
G04 #@! TA.AperFunction,ComponentPad*
%ADD12RoundRect,0.250000X0.750000X-0.600000X0.750000X0.600000X-0.750000X0.600000X-0.750000X-0.600000X0*%
G04 #@! TD*
G04 #@! TA.AperFunction,ComponentPad*
%ADD13O,2.000000X1.700000*%
G04 #@! TD*
G04 #@! TA.AperFunction,ComponentPad*
%ADD14C,2.780000*%
G04 #@! TD*
G04 #@! TA.AperFunction,ComponentPad*
%ADD15C,0.800000*%
G04 #@! TD*
G04 #@! TA.AperFunction,ComponentPad*
%ADD16C,6.400000*%
G04 #@! TD*
G04 #@! TA.AperFunction,ViaPad*
%ADD17C,0.508000*%
G04 #@! TD*
G04 APERTURE END LIST*
D10*
X64770000Y-122340000D03*
D11*
X64770000Y-129540000D03*
D12*
X99060000Y-123190000D03*
D13*
X99060000Y-120690000D03*
D12*
X162560000Y-123150000D03*
D13*
X162560000Y-120650000D03*
D12*
X114300000Y-123190000D03*
D13*
X114300000Y-120690000D03*
D14*
X66470000Y-138550000D03*
X63070000Y-138550000D03*
X63070000Y-148470000D03*
X66470000Y-148470000D03*
D12*
X106680000Y-123190000D03*
D13*
X106680000Y-120690000D03*
D15*
X173850000Y-147955000D03*
X173147056Y-146257944D03*
X173147056Y-149652056D03*
D16*
X171450000Y-147955000D03*
D15*
X169050000Y-147955000D03*
X171450000Y-150355000D03*
X171450000Y-145555000D03*
X169752944Y-146257944D03*
X169752944Y-149652056D03*
D12*
X147320000Y-123150000D03*
D13*
X147320000Y-120650000D03*
D12*
X138430000Y-123190000D03*
D13*
X138430000Y-120690000D03*
D12*
X154940000Y-123150000D03*
D13*
X154940000Y-120650000D03*
D15*
X52210000Y-147955000D03*
X56307056Y-146257944D03*
X52912944Y-149652056D03*
X56307056Y-149652056D03*
X54610000Y-150355000D03*
X57010000Y-147955000D03*
X52912944Y-146257944D03*
D16*
X54610000Y-147955000D03*
D15*
X54610000Y-145555000D03*
X54610000Y-123685000D03*
X56307056Y-122982056D03*
X52912944Y-119587944D03*
X56307056Y-119587944D03*
D16*
X54610000Y-121285000D03*
D15*
X57010000Y-121285000D03*
X52210000Y-121285000D03*
X52912944Y-122982056D03*
X54610000Y-118885000D03*
X169752944Y-119587944D03*
X171450000Y-118885000D03*
X173147056Y-119587944D03*
X169050000Y-121285000D03*
D16*
X171450000Y-121285000D03*
D15*
X169752944Y-122982056D03*
X171450000Y-123685000D03*
X173147056Y-122982056D03*
X173850000Y-121285000D03*
D12*
X123190000Y-123190000D03*
D13*
X123190000Y-120690000D03*
D12*
X90170000Y-123190000D03*
D13*
X90170000Y-120690000D03*
D12*
X130810000Y-123190000D03*
D13*
X130810000Y-120690000D03*
D12*
X74930000Y-123190000D03*
D13*
X74930000Y-120690000D03*
D12*
X82550000Y-123190000D03*
D13*
X82550000Y-120690000D03*
D17*
X155194000Y-136612000D03*
X129032000Y-135636000D03*
X83820000Y-138684000D03*
X107950000Y-138684000D03*
X130048000Y-137668000D03*
X81788000Y-137668000D03*
X105918000Y-136652000D03*
X153162000Y-135596000D03*
X129032000Y-136652000D03*
X154178000Y-136612000D03*
X104902000Y-136652000D03*
X153162000Y-136612000D03*
X82804000Y-137668000D03*
X155194000Y-137628000D03*
X158750000Y-144145000D03*
X132080000Y-136652000D03*
X78232000Y-131064000D03*
X80772000Y-135636000D03*
X156210000Y-136612000D03*
X131064000Y-136652000D03*
X150622000Y-131024000D03*
X80772000Y-136652000D03*
X102362000Y-131064000D03*
X83820000Y-137668000D03*
X105918000Y-137668000D03*
X107950000Y-136652000D03*
X106934000Y-136652000D03*
X130048000Y-136652000D03*
X82804000Y-136652000D03*
X156210000Y-138644000D03*
X108966000Y-136652000D03*
X83820000Y-136652000D03*
X156210000Y-137628000D03*
X154178000Y-137628000D03*
X84836000Y-136652000D03*
X132080000Y-138684000D03*
X104902000Y-135636000D03*
X131064000Y-137668000D03*
X133096000Y-136652000D03*
X157226000Y-136612000D03*
X106934000Y-137668000D03*
X132080000Y-137668000D03*
X107950000Y-137668000D03*
X81788000Y-136652000D03*
X126492000Y-131064000D03*
G04 #@! TA.AperFunction,Conductor*
G36*
X171430612Y-117045750D02*
G01*
X171435806Y-117045759D01*
X171449635Y-117048939D01*
X171463476Y-117045807D01*
X171477661Y-117045832D01*
X171477660Y-117046136D01*
X171485926Y-117045412D01*
X171648406Y-117053151D01*
X171847177Y-117062620D01*
X171859094Y-117063758D01*
X172136697Y-117103671D01*
X172246730Y-117119492D01*
X172258503Y-117121761D01*
X172639074Y-117214086D01*
X172650579Y-117217464D01*
X172929390Y-117313961D01*
X173020662Y-117345551D01*
X173031780Y-117350001D01*
X173388026Y-117512693D01*
X173398672Y-117518182D01*
X173568248Y-117616087D01*
X173737818Y-117713988D01*
X173747905Y-117720471D01*
X174066910Y-117947634D01*
X174076335Y-117955045D01*
X174372298Y-118211498D01*
X174380976Y-118219773D01*
X174651215Y-118503191D01*
X174659068Y-118512253D01*
X174901151Y-118820087D01*
X174908104Y-118829851D01*
X175119838Y-119159315D01*
X175125823Y-119169682D01*
X175251665Y-119413783D01*
X175305272Y-119517766D01*
X175310253Y-119528673D01*
X175455800Y-119892232D01*
X175459722Y-119903563D01*
X175570052Y-120279315D01*
X175572879Y-120290967D01*
X175646995Y-120675511D01*
X175648701Y-120687380D01*
X175685925Y-121077211D01*
X175686496Y-121089188D01*
X175686496Y-121480812D01*
X175685925Y-121492789D01*
X175648701Y-121882620D01*
X175646995Y-121894489D01*
X175572879Y-122279033D01*
X175570052Y-122290685D01*
X175459722Y-122666437D01*
X175455800Y-122677768D01*
X175310253Y-123041327D01*
X175305272Y-123052234D01*
X175125823Y-123400318D01*
X175119838Y-123410685D01*
X175068805Y-123490094D01*
X174908106Y-123740146D01*
X174901154Y-123749909D01*
X174802015Y-123875975D01*
X174659068Y-124057747D01*
X174651215Y-124066809D01*
X174380976Y-124350227D01*
X174372298Y-124358502D01*
X174076335Y-124614955D01*
X174066910Y-124622366D01*
X173747905Y-124849529D01*
X173737818Y-124856012D01*
X173568248Y-124953913D01*
X173398672Y-125051818D01*
X173388026Y-125057307D01*
X173031780Y-125219999D01*
X173020662Y-125224449D01*
X172929390Y-125256039D01*
X172650579Y-125352536D01*
X172639074Y-125355914D01*
X172258503Y-125448239D01*
X172246747Y-125450506D01*
X171859094Y-125506242D01*
X171847168Y-125507380D01*
X171486793Y-125524548D01*
X171464969Y-125522578D01*
X171464863Y-125523501D01*
X171457732Y-125522685D01*
X171450729Y-125521062D01*
X171450367Y-125521062D01*
X171450365Y-125521061D01*
X171450000Y-125521061D01*
X171445046Y-125522191D01*
X171443513Y-125522313D01*
X171442625Y-125522354D01*
X171082158Y-125539019D01*
X171082151Y-125539020D01*
X171079267Y-125539153D01*
X171076399Y-125539553D01*
X171076400Y-125539553D01*
X170714585Y-125590024D01*
X170714582Y-125590025D01*
X170711697Y-125590427D01*
X170513755Y-125636982D01*
X170353265Y-125674729D01*
X170353259Y-125674731D01*
X170350426Y-125675397D01*
X169998536Y-125793339D01*
X169659029Y-125943246D01*
X169656476Y-125944668D01*
X169656472Y-125944670D01*
X169397375Y-126088986D01*
X169334802Y-126123839D01*
X169028622Y-126333577D01*
X169026396Y-126335425D01*
X169026386Y-126335433D01*
X168805882Y-126518538D01*
X168743100Y-126570672D01*
X168480672Y-126833100D01*
X168478818Y-126835333D01*
X168478815Y-126835336D01*
X168245433Y-127116386D01*
X168245425Y-127116396D01*
X168243577Y-127118622D01*
X168033839Y-127424802D01*
X167853246Y-127749029D01*
X167703339Y-128088536D01*
X167585397Y-128440426D01*
X167500427Y-128801697D01*
X167500025Y-128804582D01*
X167500024Y-128804585D01*
X167495580Y-128836446D01*
X167449153Y-129169267D01*
X167432274Y-129534361D01*
X167431061Y-129539635D01*
X167434193Y-129553476D01*
X167434185Y-129557938D01*
X167436300Y-129576865D01*
X167436300Y-139662553D01*
X167434250Y-139680615D01*
X167434241Y-139685807D01*
X167431061Y-139699635D01*
X167432236Y-139704829D01*
X167432739Y-139715716D01*
X167432739Y-139715717D01*
X167444786Y-139976283D01*
X167449153Y-140070733D01*
X167449553Y-140073599D01*
X167449553Y-140073600D01*
X167495580Y-140403553D01*
X167500427Y-140438303D01*
X167585397Y-140799574D01*
X167703339Y-141151464D01*
X167853246Y-141490971D01*
X168033839Y-141815198D01*
X168243577Y-142121378D01*
X168245425Y-142123604D01*
X168245433Y-142123614D01*
X168478815Y-142404664D01*
X168480672Y-142406900D01*
X168743100Y-142669328D01*
X168745333Y-142671182D01*
X168745336Y-142671185D01*
X169026386Y-142904567D01*
X169026396Y-142904575D01*
X169028622Y-142906423D01*
X169334802Y-143116161D01*
X169337355Y-143117583D01*
X169551761Y-143237006D01*
X169659029Y-143296754D01*
X169998536Y-143446661D01*
X170350426Y-143564603D01*
X170353259Y-143565269D01*
X170353265Y-143565271D01*
X170493859Y-143598338D01*
X170711697Y-143649573D01*
X170714582Y-143649975D01*
X170714585Y-143649976D01*
X170956602Y-143683736D01*
X171079267Y-143700847D01*
X171082151Y-143700980D01*
X171082158Y-143700981D01*
X171442623Y-143717646D01*
X171444265Y-143717778D01*
X171449271Y-143718938D01*
X171449633Y-143718938D01*
X171449635Y-143718939D01*
X171450000Y-143718939D01*
X171456900Y-143717365D01*
X171463923Y-143716574D01*
X171464015Y-143717391D01*
X171486214Y-143715425D01*
X171847177Y-143732620D01*
X171859094Y-143733758D01*
X172136697Y-143773671D01*
X172246730Y-143789492D01*
X172258503Y-143791761D01*
X172639074Y-143884086D01*
X172650579Y-143887464D01*
X172929390Y-143983961D01*
X173020662Y-144015551D01*
X173031780Y-144020001D01*
X173388026Y-144182693D01*
X173398672Y-144188182D01*
X173568248Y-144286086D01*
X173737818Y-144383988D01*
X173747905Y-144390471D01*
X174066910Y-144617634D01*
X174076335Y-144625045D01*
X174372298Y-144881498D01*
X174380976Y-144889773D01*
X174651215Y-145173191D01*
X174659068Y-145182253D01*
X174901151Y-145490087D01*
X174908104Y-145499851D01*
X175119838Y-145829315D01*
X175125823Y-145839682D01*
X175268002Y-146115472D01*
X175305272Y-146187766D01*
X175310253Y-146198673D01*
X175455800Y-146562232D01*
X175459722Y-146573563D01*
X175570052Y-146949315D01*
X175572879Y-146960967D01*
X175646995Y-147345511D01*
X175648701Y-147357380D01*
X175685925Y-147747211D01*
X175686496Y-147759188D01*
X175686496Y-148150812D01*
X175685925Y-148162789D01*
X175648701Y-148552620D01*
X175646995Y-148564489D01*
X175572879Y-148949033D01*
X175570052Y-148960685D01*
X175459722Y-149336437D01*
X175455800Y-149347768D01*
X175310253Y-149711327D01*
X175305272Y-149722234D01*
X175125823Y-150070318D01*
X175119838Y-150080685D01*
X175068805Y-150160094D01*
X174908106Y-150410146D01*
X174901151Y-150419913D01*
X174659068Y-150727747D01*
X174651215Y-150736809D01*
X174380976Y-151020227D01*
X174372298Y-151028502D01*
X174076335Y-151284955D01*
X174066910Y-151292366D01*
X173747905Y-151519529D01*
X173737818Y-151526012D01*
X173568248Y-151623913D01*
X173398672Y-151721818D01*
X173388026Y-151727307D01*
X173031780Y-151889999D01*
X173020662Y-151894449D01*
X172929390Y-151926039D01*
X172650579Y-152022536D01*
X172639074Y-152025914D01*
X172258503Y-152118239D01*
X172246730Y-152120508D01*
X172136697Y-152136329D01*
X171859094Y-152176242D01*
X171847177Y-152177380D01*
X171663624Y-152186124D01*
X171486506Y-152194561D01*
X171478385Y-152193836D01*
X171478384Y-152194266D01*
X171464194Y-152194241D01*
X171450365Y-152191061D01*
X171436524Y-152194193D01*
X171432064Y-152194185D01*
X171413135Y-152196300D01*
X54647447Y-152196300D01*
X54629388Y-152194250D01*
X54624194Y-152194241D01*
X54610365Y-152191061D01*
X54596524Y-152194193D01*
X54582339Y-152194168D01*
X54582340Y-152193864D01*
X54574074Y-152194588D01*
X54411594Y-152186849D01*
X54212823Y-152177380D01*
X54200906Y-152176242D01*
X53923303Y-152136329D01*
X53813270Y-152120508D01*
X53801497Y-152118239D01*
X53420926Y-152025914D01*
X53409421Y-152022536D01*
X53130610Y-151926039D01*
X53039338Y-151894449D01*
X53028220Y-151889999D01*
X52671974Y-151727307D01*
X52661328Y-151721818D01*
X52491752Y-151623913D01*
X52322182Y-151526012D01*
X52312095Y-151519529D01*
X51993090Y-151292366D01*
X51983665Y-151284955D01*
X51687702Y-151028502D01*
X51679024Y-151020227D01*
X51408785Y-150736809D01*
X51400932Y-150727747D01*
X51158849Y-150419913D01*
X51151894Y-150410146D01*
X50991195Y-150160094D01*
X50940162Y-150080685D01*
X50934177Y-150070318D01*
X50754728Y-149722234D01*
X50749747Y-149711327D01*
X50604200Y-149347768D01*
X50600278Y-149336437D01*
X50489948Y-148960685D01*
X50487121Y-148949033D01*
X50413005Y-148564489D01*
X50411299Y-148552620D01*
X50403410Y-148470000D01*
X61471372Y-148470000D01*
X61491054Y-148720081D01*
X61492208Y-148724888D01*
X61492209Y-148724894D01*
X61529475Y-148880117D01*
X61549614Y-148964003D01*
X61551507Y-148968574D01*
X61551508Y-148968576D01*
X61560580Y-148990476D01*
X61645612Y-149195762D01*
X61776683Y-149409650D01*
X61939599Y-149600401D01*
X62130350Y-149763317D01*
X62344238Y-149894388D01*
X62348808Y-149896281D01*
X62348812Y-149896283D01*
X62571424Y-149988492D01*
X62575997Y-149990386D01*
X62659883Y-150010525D01*
X62815106Y-150047791D01*
X62815112Y-150047792D01*
X62819919Y-150048946D01*
X63070000Y-150068628D01*
X63320081Y-150048946D01*
X63324888Y-150047792D01*
X63324894Y-150047791D01*
X63480117Y-150010525D01*
X63564003Y-149990386D01*
X63568576Y-149988492D01*
X63791188Y-149896283D01*
X63791192Y-149896281D01*
X63795762Y-149894388D01*
X64009650Y-149763317D01*
X64200401Y-149600401D01*
X64363317Y-149409650D01*
X64494388Y-149195762D01*
X64579421Y-148990476D01*
X64588492Y-148968576D01*
X64588493Y-148968574D01*
X64590386Y-148964003D01*
X64647481Y-148726183D01*
X64682833Y-148664614D01*
X64745860Y-148631931D01*
X64816551Y-148638511D01*
X64872462Y-148682266D01*
X64892519Y-148726183D01*
X64949614Y-148964003D01*
X64951507Y-148968574D01*
X64951508Y-148968576D01*
X64960580Y-148990476D01*
X65045612Y-149195762D01*
X65176683Y-149409650D01*
X65339599Y-149600401D01*
X65530350Y-149763317D01*
X65744238Y-149894388D01*
X65748808Y-149896281D01*
X65748812Y-149896283D01*
X65971424Y-149988492D01*
X65975997Y-149990386D01*
X66059883Y-150010525D01*
X66215106Y-150047791D01*
X66215112Y-150047792D01*
X66219919Y-150048946D01*
X66470000Y-150068628D01*
X66720081Y-150048946D01*
X66724888Y-150047792D01*
X66724894Y-150047791D01*
X66880117Y-150010525D01*
X66964003Y-149990386D01*
X66968576Y-149988492D01*
X67191188Y-149896283D01*
X67191192Y-149896281D01*
X67195762Y-149894388D01*
X67409650Y-149763317D01*
X67600401Y-149600401D01*
X67763317Y-149409650D01*
X67894388Y-149195762D01*
X67979421Y-148990476D01*
X67988492Y-148968576D01*
X67988493Y-148968574D01*
X67990386Y-148964003D01*
X68010525Y-148880117D01*
X68047791Y-148724894D01*
X68047792Y-148724888D01*
X68048946Y-148720081D01*
X68068628Y-148470000D01*
X68048946Y-148219919D01*
X68047482Y-148213817D01*
X67991541Y-147980809D01*
X67990386Y-147975997D01*
X67900581Y-147759188D01*
X67896283Y-147748812D01*
X67896281Y-147748808D01*
X67894388Y-147744238D01*
X67763317Y-147530350D01*
X67600401Y-147339599D01*
X67409650Y-147176683D01*
X67195762Y-147045612D01*
X67191192Y-147043719D01*
X67191188Y-147043717D01*
X66968576Y-146951508D01*
X66968574Y-146951507D01*
X66964003Y-146949614D01*
X66880117Y-146929475D01*
X66724894Y-146892209D01*
X66724888Y-146892208D01*
X66720081Y-146891054D01*
X66470000Y-146871372D01*
X66219919Y-146891054D01*
X66215112Y-146892208D01*
X66215106Y-146892209D01*
X66059883Y-146929475D01*
X65975997Y-146949614D01*
X65971426Y-146951507D01*
X65971424Y-146951508D01*
X65748812Y-147043717D01*
X65748808Y-147043719D01*
X65744238Y-147045612D01*
X65530350Y-147176683D01*
X65339599Y-147339599D01*
X65176683Y-147530350D01*
X65045612Y-147744238D01*
X65043719Y-147748808D01*
X65043717Y-147748812D01*
X65039419Y-147759188D01*
X64949614Y-147975997D01*
X64948459Y-147980809D01*
X64892519Y-148213817D01*
X64857167Y-148275386D01*
X64794140Y-148308069D01*
X64723449Y-148301489D01*
X64667538Y-148257734D01*
X64647481Y-148213817D01*
X64591541Y-147980809D01*
X64590386Y-147975997D01*
X64500581Y-147759188D01*
X64496283Y-147748812D01*
X64496281Y-147748808D01*
X64494388Y-147744238D01*
X64363317Y-147530350D01*
X64200401Y-147339599D01*
X64009650Y-147176683D01*
X63795762Y-147045612D01*
X63791192Y-147043719D01*
X63791188Y-147043717D01*
X63568576Y-146951508D01*
X63568574Y-146951507D01*
X63564003Y-146949614D01*
X63480117Y-146929475D01*
X63324894Y-146892209D01*
X63324888Y-146892208D01*
X63320081Y-146891054D01*
X63070000Y-146871372D01*
X62819919Y-146891054D01*
X62815112Y-146892208D01*
X62815106Y-146892209D01*
X62659883Y-146929475D01*
X62575997Y-146949614D01*
X62571426Y-146951507D01*
X62571424Y-146951508D01*
X62348812Y-147043717D01*
X62348808Y-147043719D01*
X62344238Y-147045612D01*
X62130350Y-147176683D01*
X61939599Y-147339599D01*
X61776683Y-147530350D01*
X61645612Y-147744238D01*
X61643719Y-147748808D01*
X61643717Y-147748812D01*
X61639419Y-147759188D01*
X61549614Y-147975997D01*
X61548459Y-147980809D01*
X61492519Y-148213817D01*
X61491054Y-148219919D01*
X61471372Y-148470000D01*
X50403410Y-148470000D01*
X50374075Y-148162789D01*
X50373504Y-148150812D01*
X50373504Y-147759188D01*
X50374075Y-147747211D01*
X50411299Y-147357380D01*
X50413005Y-147345511D01*
X50487121Y-146960967D01*
X50489948Y-146949315D01*
X50600278Y-146573563D01*
X50604200Y-146562232D01*
X50749747Y-146198673D01*
X50754728Y-146187766D01*
X50791998Y-146115472D01*
X50934177Y-145839682D01*
X50940162Y-145829315D01*
X51151896Y-145499851D01*
X51158849Y-145490087D01*
X51400932Y-145182253D01*
X51408785Y-145173191D01*
X51679024Y-144889773D01*
X51687702Y-144881498D01*
X51983665Y-144625045D01*
X51993090Y-144617634D01*
X52312095Y-144390471D01*
X52322182Y-144383988D01*
X52491752Y-144286086D01*
X52661328Y-144188182D01*
X52671974Y-144182693D01*
X53028220Y-144020001D01*
X53039338Y-144015551D01*
X53130610Y-143983961D01*
X53409421Y-143887464D01*
X53420926Y-143884086D01*
X53801497Y-143791761D01*
X53813253Y-143789494D01*
X54200906Y-143733758D01*
X54212832Y-143732620D01*
X54573211Y-143715452D01*
X54595032Y-143717422D01*
X54595138Y-143716498D01*
X54602265Y-143717313D01*
X54609270Y-143718937D01*
X54609628Y-143718937D01*
X54609635Y-143718939D01*
X54609642Y-143718938D01*
X54609999Y-143718938D01*
X54615233Y-143717744D01*
X54620555Y-143717498D01*
X54620880Y-143717619D01*
X54621054Y-143717621D01*
X54621591Y-143717450D01*
X54683129Y-143714605D01*
X54977841Y-143700980D01*
X54977848Y-143700979D01*
X54980732Y-143700846D01*
X55103397Y-143683735D01*
X55345414Y-143649975D01*
X55345417Y-143649974D01*
X55348302Y-143649572D01*
X55566136Y-143598338D01*
X55706734Y-143565270D01*
X55706740Y-143565268D01*
X55709573Y-143564602D01*
X55887293Y-143505036D01*
X56058695Y-143447589D01*
X56058700Y-143447587D01*
X56061463Y-143446661D01*
X56400970Y-143296754D01*
X56508239Y-143237006D01*
X56722644Y-143117583D01*
X56725197Y-143116161D01*
X57031377Y-142906422D01*
X57316900Y-142669328D01*
X57579328Y-142406900D01*
X57816422Y-142121377D01*
X58026161Y-141815197D01*
X58206754Y-141490970D01*
X58356661Y-141151463D01*
X58380590Y-141080070D01*
X58473675Y-140802338D01*
X58474602Y-140799573D01*
X58475268Y-140796740D01*
X58475270Y-140796734D01*
X58558903Y-140441145D01*
X58559572Y-140438302D01*
X58610846Y-140070732D01*
X58627638Y-139707525D01*
X58627786Y-139705695D01*
X58628937Y-139700728D01*
X58628938Y-139699999D01*
X58626853Y-139690860D01*
X58623699Y-139662845D01*
X58623699Y-138550000D01*
X61471372Y-138550000D01*
X61491054Y-138800081D01*
X61492208Y-138804888D01*
X61492209Y-138804894D01*
X61529475Y-138960117D01*
X61549614Y-139044003D01*
X61645612Y-139275762D01*
X61776683Y-139489650D01*
X61939599Y-139680401D01*
X62130350Y-139843317D01*
X62344238Y-139974388D01*
X62348808Y-139976281D01*
X62348812Y-139976283D01*
X62569855Y-140067842D01*
X62575997Y-140070386D01*
X62659883Y-140090525D01*
X62815106Y-140127791D01*
X62815112Y-140127792D01*
X62819919Y-140128946D01*
X63070000Y-140148628D01*
X63320081Y-140128946D01*
X63324888Y-140127792D01*
X63324894Y-140127791D01*
X63480117Y-140090525D01*
X63564003Y-140070386D01*
X63570145Y-140067842D01*
X63791188Y-139976283D01*
X63791192Y-139976281D01*
X63795762Y-139974388D01*
X64009650Y-139843317D01*
X64200401Y-139680401D01*
X64363317Y-139489650D01*
X64494388Y-139275762D01*
X64590386Y-139044003D01*
X64647481Y-138806183D01*
X64682833Y-138744614D01*
X64745860Y-138711931D01*
X64816551Y-138718511D01*
X64872462Y-138762266D01*
X64892519Y-138806183D01*
X64949614Y-139044003D01*
X65045612Y-139275762D01*
X65176683Y-139489650D01*
X65339599Y-139680401D01*
X65530350Y-139843317D01*
X65744238Y-139974388D01*
X65748808Y-139976281D01*
X65748812Y-139976283D01*
X65969855Y-140067842D01*
X65975997Y-140070386D01*
X66059883Y-140090525D01*
X66215106Y-140127791D01*
X66215112Y-140127792D01*
X66219919Y-140128946D01*
X66470000Y-140148628D01*
X66720081Y-140128946D01*
X66724888Y-140127792D01*
X66724894Y-140127791D01*
X66880117Y-140090525D01*
X66964003Y-140070386D01*
X66970145Y-140067842D01*
X67191188Y-139976283D01*
X67191192Y-139976281D01*
X67195762Y-139974388D01*
X67409650Y-139843317D01*
X67600401Y-139680401D01*
X67763317Y-139489650D01*
X67894388Y-139275762D01*
X67990386Y-139044003D01*
X68010525Y-138960117D01*
X68047791Y-138804894D01*
X68047792Y-138804888D01*
X68048946Y-138800081D01*
X68068628Y-138550000D01*
X68048946Y-138299919D01*
X68047482Y-138293817D01*
X67991541Y-138060809D01*
X67990386Y-138055997D01*
X67894388Y-137824238D01*
X67763317Y-137610350D01*
X67600401Y-137419599D01*
X67409650Y-137256683D01*
X67195762Y-137125612D01*
X67191192Y-137123719D01*
X67191188Y-137123717D01*
X66968576Y-137031508D01*
X66968574Y-137031507D01*
X66964003Y-137029614D01*
X66880117Y-137009475D01*
X66724894Y-136972209D01*
X66724888Y-136972208D01*
X66720081Y-136971054D01*
X66470000Y-136951372D01*
X66219919Y-136971054D01*
X66215112Y-136972208D01*
X66215106Y-136972209D01*
X66059883Y-137009475D01*
X65975997Y-137029614D01*
X65971426Y-137031507D01*
X65971424Y-137031508D01*
X65748812Y-137123717D01*
X65748808Y-137123719D01*
X65744238Y-137125612D01*
X65530350Y-137256683D01*
X65339599Y-137419599D01*
X65176683Y-137610350D01*
X65045612Y-137824238D01*
X64949614Y-138055997D01*
X64948459Y-138060809D01*
X64892519Y-138293817D01*
X64857167Y-138355386D01*
X64794140Y-138388069D01*
X64723449Y-138381489D01*
X64667538Y-138337734D01*
X64647481Y-138293817D01*
X64591541Y-138060809D01*
X64590386Y-138055997D01*
X64494388Y-137824238D01*
X64363317Y-137610350D01*
X64200401Y-137419599D01*
X64009650Y-137256683D01*
X63795762Y-137125612D01*
X63791192Y-137123719D01*
X63791188Y-137123717D01*
X63568576Y-137031508D01*
X63568574Y-137031507D01*
X63564003Y-137029614D01*
X63480117Y-137009475D01*
X63324894Y-136972209D01*
X63324888Y-136972208D01*
X63320081Y-136971054D01*
X63070000Y-136951372D01*
X62819919Y-136971054D01*
X62815112Y-136972208D01*
X62815106Y-136972209D01*
X62659883Y-137009475D01*
X62575997Y-137029614D01*
X62571426Y-137031507D01*
X62571424Y-137031508D01*
X62348812Y-137123717D01*
X62348808Y-137123719D01*
X62344238Y-137125612D01*
X62130350Y-137256683D01*
X61939599Y-137419599D01*
X61776683Y-137610350D01*
X61645612Y-137824238D01*
X61549614Y-138055997D01*
X61548459Y-138060809D01*
X61492519Y-138293817D01*
X61491054Y-138299919D01*
X61471372Y-138550000D01*
X58623699Y-138550000D01*
X58623700Y-129577739D01*
X58626955Y-129549286D01*
X58627326Y-129547686D01*
X58627327Y-129547681D01*
X58628938Y-129540729D01*
X58628939Y-129540000D01*
X58627800Y-129535008D01*
X58627695Y-129533677D01*
X58625916Y-129495199D01*
X61561565Y-129495199D01*
X61576566Y-129853119D01*
X61631371Y-130207136D01*
X61725296Y-130552838D01*
X61857171Y-130885916D01*
X61858826Y-130889028D01*
X61858828Y-130889033D01*
X62023695Y-131199103D01*
X62023701Y-131199113D01*
X62025352Y-131202218D01*
X62027344Y-131205127D01*
X62225751Y-131494895D01*
X62225756Y-131494901D01*
X62227742Y-131497802D01*
X62461820Y-131768984D01*
X62724667Y-132012383D01*
X63013008Y-132224966D01*
X63323248Y-132404083D01*
X63452434Y-132460523D01*
X63648299Y-132546095D01*
X63648302Y-132546096D01*
X63651520Y-132547502D01*
X63654877Y-132548541D01*
X63654882Y-132548543D01*
X63990374Y-132652394D01*
X63993734Y-132653434D01*
X64345623Y-132720561D01*
X64612345Y-132741084D01*
X64699304Y-132747775D01*
X64699305Y-132747775D01*
X64702801Y-132748044D01*
X64919492Y-132740477D01*
X65057302Y-132735665D01*
X65057307Y-132735665D01*
X65060817Y-132735542D01*
X65166744Y-132719900D01*
X65411716Y-132683726D01*
X65411722Y-132683725D01*
X65415208Y-132683210D01*
X65418612Y-132682311D01*
X65418615Y-132682310D01*
X65758167Y-132592597D01*
X65758168Y-132592597D01*
X65761558Y-132591701D01*
X66095548Y-132462154D01*
X66413017Y-132296186D01*
X66710006Y-132095864D01*
X66982815Y-131863685D01*
X67074243Y-131766324D01*
X67225633Y-131605111D01*
X67225637Y-131605106D01*
X67228044Y-131602543D01*
X67230149Y-131599729D01*
X67230155Y-131599722D01*
X67440525Y-131318513D01*
X67442634Y-131315694D01*
X67444415Y-131312659D01*
X67622131Y-131009750D01*
X67622134Y-131009745D01*
X67623913Y-131006712D01*
X67769620Y-130679449D01*
X67877939Y-130337983D01*
X67947521Y-129986571D01*
X67977497Y-129629594D01*
X67978234Y-129576865D01*
X67978718Y-129542178D01*
X67978718Y-129542166D01*
X67978748Y-129540000D01*
X67978456Y-129534766D01*
X67958947Y-129185832D01*
X67958751Y-129182324D01*
X67940950Y-129077076D01*
X67899596Y-128832576D01*
X67899595Y-128832571D01*
X67899009Y-128829107D01*
X67800266Y-128484750D01*
X67666384Y-128159929D01*
X67665091Y-128156791D01*
X67665087Y-128156784D01*
X67663753Y-128153546D01*
X67491173Y-127839623D01*
X67284675Y-127546893D01*
X67046834Y-127279006D01*
X66780614Y-127039301D01*
X66777764Y-127037260D01*
X66777757Y-127037255D01*
X66492187Y-126832807D01*
X66492184Y-126832805D01*
X66489333Y-126830764D01*
X66176623Y-126655996D01*
X65846380Y-126517175D01*
X65843017Y-126516185D01*
X65843008Y-126516182D01*
X65631268Y-126453864D01*
X65502720Y-126416031D01*
X65182271Y-126359527D01*
X65153388Y-126354434D01*
X65153386Y-126354434D01*
X65149928Y-126353824D01*
X65146419Y-126353603D01*
X65146417Y-126353603D01*
X64795919Y-126331551D01*
X64795913Y-126331551D01*
X64792401Y-126331330D01*
X64708511Y-126335433D01*
X64438102Y-126348658D01*
X64438094Y-126348659D01*
X64434595Y-126348830D01*
X64431127Y-126349392D01*
X64431124Y-126349392D01*
X64084443Y-126405542D01*
X64084440Y-126405543D01*
X64080968Y-126406105D01*
X64077581Y-126407051D01*
X64077575Y-126407052D01*
X63791806Y-126486840D01*
X63735931Y-126502441D01*
X63571650Y-126568815D01*
X63407046Y-126635319D01*
X63407042Y-126635321D01*
X63403782Y-126636638D01*
X63400695Y-126638307D01*
X63400691Y-126638309D01*
X63291480Y-126697359D01*
X63088661Y-126807023D01*
X62794497Y-127011472D01*
X62791855Y-127013785D01*
X62791851Y-127013788D01*
X62674655Y-127116386D01*
X62524957Y-127247437D01*
X62283398Y-127511977D01*
X62072834Y-127801795D01*
X61895887Y-128113278D01*
X61754763Y-128442544D01*
X61651222Y-128785488D01*
X61586554Y-129137837D01*
X61561565Y-129495199D01*
X58625916Y-129495199D01*
X58610981Y-129172158D01*
X58610980Y-129172151D01*
X58610847Y-129169267D01*
X58564420Y-128836446D01*
X58559976Y-128804585D01*
X58559975Y-128804582D01*
X58559573Y-128801697D01*
X58474603Y-128440426D01*
X58356661Y-128088536D01*
X58206754Y-127749029D01*
X58026161Y-127424802D01*
X57816423Y-127118622D01*
X57814575Y-127116396D01*
X57814567Y-127116386D01*
X57581185Y-126835336D01*
X57581182Y-126835333D01*
X57579328Y-126833100D01*
X57316900Y-126570672D01*
X57254118Y-126518538D01*
X57033614Y-126335433D01*
X57033604Y-126335425D01*
X57031378Y-126333577D01*
X56725198Y-126123839D01*
X56662625Y-126088986D01*
X56403528Y-125944670D01*
X56403524Y-125944668D01*
X56400971Y-125943246D01*
X56061464Y-125793339D01*
X55709574Y-125675397D01*
X55706741Y-125674731D01*
X55706735Y-125674729D01*
X55546245Y-125636982D01*
X55348303Y-125590427D01*
X55345418Y-125590025D01*
X55345415Y-125590024D01*
X54983600Y-125539553D01*
X54983601Y-125539553D01*
X54980733Y-125539153D01*
X54977849Y-125539020D01*
X54977842Y-125539019D01*
X54617377Y-125522354D01*
X54615735Y-125522222D01*
X54610729Y-125521062D01*
X54610367Y-125521062D01*
X54610365Y-125521061D01*
X54610000Y-125521061D01*
X54603100Y-125522635D01*
X54596077Y-125523426D01*
X54595985Y-125522609D01*
X54573786Y-125524575D01*
X54212823Y-125507380D01*
X54200906Y-125506242D01*
X53923303Y-125466329D01*
X53813270Y-125450508D01*
X53801497Y-125448239D01*
X53420926Y-125355914D01*
X53409421Y-125352536D01*
X53130610Y-125256039D01*
X53039338Y-125224449D01*
X53028220Y-125219999D01*
X52671974Y-125057307D01*
X52661328Y-125051818D01*
X52491752Y-124953914D01*
X52322182Y-124856012D01*
X52312095Y-124849529D01*
X51993090Y-124622366D01*
X51983665Y-124614955D01*
X51687702Y-124358502D01*
X51679024Y-124350227D01*
X51408785Y-124066809D01*
X51400932Y-124057747D01*
X51316918Y-123950915D01*
X61262001Y-123950915D01*
X61262061Y-123953672D01*
X61264601Y-124011855D01*
X61265317Y-124018972D01*
X61307999Y-124288453D01*
X61309978Y-124297023D01*
X61389504Y-124557143D01*
X61392655Y-124565353D01*
X61507613Y-124811882D01*
X61511876Y-124819572D01*
X61660024Y-125047700D01*
X61665314Y-125054719D01*
X61843783Y-125260024D01*
X61849976Y-125266217D01*
X62055281Y-125444686D01*
X62062300Y-125449976D01*
X62290428Y-125598124D01*
X62298118Y-125602387D01*
X62544647Y-125717345D01*
X62552857Y-125720496D01*
X62812977Y-125800022D01*
X62821547Y-125802001D01*
X63091044Y-125844685D01*
X63098128Y-125845399D01*
X63156331Y-125847940D01*
X63159083Y-125848000D01*
X64243885Y-125848000D01*
X64259124Y-125843525D01*
X64260329Y-125842135D01*
X64262000Y-125834452D01*
X64262000Y-125829884D01*
X65278000Y-125829884D01*
X65282475Y-125845123D01*
X65283865Y-125846328D01*
X65291548Y-125847999D01*
X66380915Y-125847999D01*
X66383672Y-125847939D01*
X66441855Y-125845399D01*
X66448972Y-125844683D01*
X66718453Y-125802001D01*
X66727023Y-125800022D01*
X66987143Y-125720496D01*
X66995353Y-125717345D01*
X67241882Y-125602387D01*
X67249572Y-125598124D01*
X67477700Y-125449976D01*
X67484719Y-125444686D01*
X67690024Y-125266217D01*
X67696217Y-125260024D01*
X67874686Y-125054719D01*
X67879976Y-125047700D01*
X68028124Y-124819572D01*
X68032387Y-124811882D01*
X68147345Y-124565353D01*
X68150496Y-124557143D01*
X68230022Y-124297023D01*
X68232001Y-124288453D01*
X68274685Y-124018956D01*
X68275399Y-124011872D01*
X68277940Y-123953669D01*
X68278000Y-123950917D01*
X68278000Y-122866115D01*
X68273525Y-122850876D01*
X68272135Y-122849671D01*
X68264452Y-122848000D01*
X65296115Y-122848000D01*
X65280876Y-122852475D01*
X65279671Y-122853865D01*
X65278000Y-122861548D01*
X65278000Y-125829884D01*
X64262000Y-125829884D01*
X64262000Y-122866115D01*
X64257525Y-122850876D01*
X64256135Y-122849671D01*
X64248452Y-122848000D01*
X61280116Y-122848000D01*
X61264877Y-122852475D01*
X61263672Y-122853865D01*
X61262001Y-122861548D01*
X61262001Y-123950915D01*
X51316918Y-123950915D01*
X51257985Y-123875975D01*
X51158846Y-123749909D01*
X51151894Y-123740146D01*
X50991195Y-123490094D01*
X50940162Y-123410685D01*
X50934177Y-123400318D01*
X50754728Y-123052234D01*
X50749747Y-123041327D01*
X50604200Y-122677768D01*
X50600278Y-122666437D01*
X50489948Y-122290685D01*
X50487121Y-122279033D01*
X50413005Y-121894489D01*
X50411299Y-121882620D01*
X50404736Y-121813885D01*
X61262000Y-121813885D01*
X61266475Y-121829124D01*
X61267865Y-121830329D01*
X61275548Y-121832000D01*
X64243885Y-121832000D01*
X64259124Y-121827525D01*
X64260329Y-121826135D01*
X64262000Y-121818452D01*
X64262000Y-121813885D01*
X65278000Y-121813885D01*
X65282475Y-121829124D01*
X65283865Y-121830329D01*
X65291548Y-121832000D01*
X68259884Y-121832000D01*
X68275123Y-121827525D01*
X68276328Y-121826135D01*
X68277999Y-121818452D01*
X68277999Y-121207570D01*
X73524303Y-121207570D01*
X73557263Y-121291029D01*
X73561994Y-121300561D01*
X73676016Y-121488462D01*
X73682280Y-121497052D01*
X73826327Y-121663052D01*
X73833958Y-121670472D01*
X74003911Y-121809826D01*
X74012678Y-121815850D01*
X74164797Y-121902441D01*
X74214103Y-121953523D01*
X74227965Y-122023153D01*
X74201982Y-122089224D01*
X74144403Y-122130759D01*
X74114321Y-122137384D01*
X74101674Y-122138579D01*
X74101672Y-122138579D01*
X74094025Y-122139302D01*
X74086779Y-122141847D01*
X74086777Y-122141847D01*
X74063279Y-122150099D01*
X73965302Y-122184506D01*
X73957732Y-122190098D01*
X73957729Y-122190099D01*
X73917288Y-122219970D01*
X73855562Y-122265562D01*
X73849970Y-122273133D01*
X73780099Y-122367729D01*
X73780098Y-122367732D01*
X73774506Y-122375302D01*
X73729302Y-122504025D01*
X73726300Y-122535783D01*
X73726301Y-123844216D01*
X73729302Y-123875975D01*
X73774506Y-124004698D01*
X73780098Y-124012268D01*
X73780099Y-124012271D01*
X73785037Y-124018956D01*
X73855562Y-124114438D01*
X73863133Y-124120030D01*
X73957729Y-124189901D01*
X73957732Y-124189902D01*
X73965302Y-124195494D01*
X74094025Y-124240698D01*
X74101671Y-124241421D01*
X74101672Y-124241421D01*
X74108217Y-124242040D01*
X74125783Y-124243700D01*
X74929457Y-124243700D01*
X75734216Y-124243699D01*
X75737164Y-124243420D01*
X75737173Y-124243420D01*
X75758325Y-124241421D01*
X75758326Y-124241421D01*
X75765975Y-124240698D01*
X75773221Y-124238153D01*
X75773223Y-124238153D01*
X75817228Y-124222699D01*
X75894698Y-124195494D01*
X75902268Y-124189902D01*
X75902271Y-124189901D01*
X75996867Y-124120030D01*
X76004438Y-124114438D01*
X76074963Y-124018956D01*
X76079901Y-124012271D01*
X76079902Y-124012268D01*
X76085494Y-124004698D01*
X76130698Y-123875975D01*
X76133700Y-123844217D01*
X76133699Y-122535784D01*
X76130698Y-122504025D01*
X76126769Y-122492835D01*
X76088613Y-122384185D01*
X76085494Y-122375302D01*
X76079902Y-122367732D01*
X76079901Y-122367729D01*
X76010030Y-122273133D01*
X76004438Y-122265562D01*
X75942712Y-122219970D01*
X75902271Y-122190099D01*
X75902268Y-122190098D01*
X75894698Y-122184506D01*
X75765975Y-122139302D01*
X75758329Y-122138579D01*
X75758328Y-122138579D01*
X75746596Y-122137470D01*
X75680660Y-122111145D01*
X75639424Y-122053351D01*
X75635979Y-121982438D01*
X75671419Y-121920920D01*
X75706704Y-121897147D01*
X75737970Y-121883063D01*
X75747256Y-121877894D01*
X75929575Y-121755150D01*
X75937870Y-121748481D01*
X76096900Y-121596772D01*
X76103941Y-121588814D01*
X76235141Y-121412475D01*
X76240745Y-121403438D01*
X76338959Y-121210265D01*
X76339001Y-121207570D01*
X81144303Y-121207570D01*
X81177263Y-121291029D01*
X81181994Y-121300561D01*
X81296016Y-121488462D01*
X81302280Y-121497052D01*
X81446327Y-121663052D01*
X81453958Y-121670472D01*
X81623911Y-121809826D01*
X81632678Y-121815850D01*
X81784797Y-121902441D01*
X81834103Y-121953523D01*
X81847965Y-122023153D01*
X81821982Y-122089224D01*
X81764403Y-122130759D01*
X81734321Y-122137384D01*
X81721674Y-122138579D01*
X81721672Y-122138579D01*
X81714025Y-122139302D01*
X81706779Y-122141847D01*
X81706777Y-122141847D01*
X81683279Y-122150099D01*
X81585302Y-122184506D01*
X81577732Y-122190098D01*
X81577729Y-122190099D01*
X81537288Y-122219970D01*
X81475562Y-122265562D01*
X81469970Y-122273133D01*
X81400099Y-122367729D01*
X81400098Y-122367732D01*
X81394506Y-122375302D01*
X81349302Y-122504025D01*
X81346300Y-122535783D01*
X81346301Y-123844216D01*
X81349302Y-123875975D01*
X81394506Y-124004698D01*
X81400098Y-124012268D01*
X81400099Y-124012271D01*
X81405037Y-124018956D01*
X81475562Y-124114438D01*
X81483133Y-124120030D01*
X81577729Y-124189901D01*
X81577732Y-124189902D01*
X81585302Y-124195494D01*
X81714025Y-124240698D01*
X81721671Y-124241421D01*
X81721672Y-124241421D01*
X81728217Y-124242040D01*
X81745783Y-124243700D01*
X82549457Y-124243700D01*
X83354216Y-124243699D01*
X83357164Y-124243420D01*
X83357173Y-124243420D01*
X83378325Y-124241421D01*
X83378326Y-124241421D01*
X83385975Y-124240698D01*
X83393221Y-124238153D01*
X83393223Y-124238153D01*
X83437228Y-124222699D01*
X83514698Y-124195494D01*
X83522268Y-124189902D01*
X83522271Y-124189901D01*
X83616867Y-124120030D01*
X83624438Y-124114438D01*
X83694963Y-124018956D01*
X83699901Y-124012271D01*
X83699902Y-124012268D01*
X83705494Y-124004698D01*
X83750698Y-123875975D01*
X83753700Y-123844217D01*
X83753699Y-122535784D01*
X83750698Y-122504025D01*
X83746769Y-122492835D01*
X83708613Y-122384185D01*
X83705494Y-122375302D01*
X83699902Y-122367732D01*
X83699901Y-122367729D01*
X83630030Y-122273133D01*
X83624438Y-122265562D01*
X83562712Y-122219970D01*
X83522271Y-122190099D01*
X83522268Y-122190098D01*
X83514698Y-122184506D01*
X83385975Y-122139302D01*
X83378329Y-122138579D01*
X83378328Y-122138579D01*
X83366596Y-122137470D01*
X83300660Y-122111145D01*
X83259424Y-122053351D01*
X83255979Y-121982438D01*
X83291419Y-121920920D01*
X83326704Y-121897147D01*
X83357970Y-121883063D01*
X83367256Y-121877894D01*
X83549575Y-121755150D01*
X83557870Y-121748481D01*
X83716900Y-121596772D01*
X83723941Y-121588814D01*
X83855141Y-121412475D01*
X83860745Y-121403438D01*
X83958959Y-121210265D01*
X83959001Y-121207570D01*
X88764303Y-121207570D01*
X88797263Y-121291029D01*
X88801994Y-121300561D01*
X88916016Y-121488462D01*
X88922280Y-121497052D01*
X89066327Y-121663052D01*
X89073958Y-121670472D01*
X89243911Y-121809826D01*
X89252678Y-121815850D01*
X89404797Y-121902441D01*
X89454103Y-121953523D01*
X89467965Y-122023153D01*
X89441982Y-122089224D01*
X89384403Y-122130759D01*
X89354321Y-122137384D01*
X89341674Y-122138579D01*
X89341672Y-122138579D01*
X89334025Y-122139302D01*
X89326779Y-122141847D01*
X89326777Y-122141847D01*
X89303279Y-122150099D01*
X89205302Y-122184506D01*
X89197732Y-122190098D01*
X89197729Y-122190099D01*
X89157288Y-122219970D01*
X89095562Y-122265562D01*
X89089970Y-122273133D01*
X89020099Y-122367729D01*
X89020098Y-122367732D01*
X89014506Y-122375302D01*
X88969302Y-122504025D01*
X88966300Y-122535783D01*
X88966301Y-123844216D01*
X88969302Y-123875975D01*
X89014506Y-124004698D01*
X89020098Y-124012268D01*
X89020099Y-124012271D01*
X89025037Y-124018956D01*
X89095562Y-124114438D01*
X89103133Y-124120030D01*
X89197729Y-124189901D01*
X89197732Y-124189902D01*
X89205302Y-124195494D01*
X89334025Y-124240698D01*
X89341671Y-124241421D01*
X89341672Y-124241421D01*
X89348217Y-124242040D01*
X89365783Y-124243700D01*
X90169457Y-124243700D01*
X90974216Y-124243699D01*
X90977164Y-124243420D01*
X90977173Y-124243420D01*
X90998325Y-124241421D01*
X90998326Y-124241421D01*
X91005975Y-124240698D01*
X91013221Y-124238153D01*
X91013223Y-124238153D01*
X91057228Y-124222699D01*
X91134698Y-124195494D01*
X91142268Y-124189902D01*
X91142271Y-124189901D01*
X91236867Y-124120030D01*
X91244438Y-124114438D01*
X91314963Y-124018956D01*
X91319901Y-124012271D01*
X91319902Y-124012268D01*
X91325494Y-124004698D01*
X91370698Y-123875975D01*
X91373700Y-123844217D01*
X91373699Y-122535784D01*
X91370698Y-122504025D01*
X91366769Y-122492835D01*
X91328613Y-122384185D01*
X91325494Y-122375302D01*
X91319902Y-122367732D01*
X91319901Y-122367729D01*
X91250030Y-122273133D01*
X91244438Y-122265562D01*
X91182712Y-122219970D01*
X91142271Y-122190099D01*
X91142268Y-122190098D01*
X91134698Y-122184506D01*
X91005975Y-122139302D01*
X90998329Y-122138579D01*
X90998328Y-122138579D01*
X90986596Y-122137470D01*
X90920660Y-122111145D01*
X90879424Y-122053351D01*
X90875979Y-121982438D01*
X90911419Y-121920920D01*
X90946704Y-121897147D01*
X90977970Y-121883063D01*
X90987256Y-121877894D01*
X91169575Y-121755150D01*
X91177870Y-121748481D01*
X91336900Y-121596772D01*
X91343941Y-121588814D01*
X91475141Y-121412475D01*
X91480745Y-121403438D01*
X91578959Y-121210265D01*
X91579001Y-121207570D01*
X97654303Y-121207570D01*
X97687263Y-121291029D01*
X97691994Y-121300561D01*
X97806016Y-121488462D01*
X97812280Y-121497052D01*
X97956327Y-121663052D01*
X97963958Y-121670472D01*
X98133911Y-121809826D01*
X98142678Y-121815850D01*
X98294797Y-121902441D01*
X98344103Y-121953523D01*
X98357965Y-122023153D01*
X98331982Y-122089224D01*
X98274403Y-122130759D01*
X98244321Y-122137384D01*
X98231674Y-122138579D01*
X98231672Y-122138579D01*
X98224025Y-122139302D01*
X98216779Y-122141847D01*
X98216777Y-122141847D01*
X98193279Y-122150099D01*
X98095302Y-122184506D01*
X98087732Y-122190098D01*
X98087729Y-122190099D01*
X98047288Y-122219970D01*
X97985562Y-122265562D01*
X97979970Y-122273133D01*
X97910099Y-122367729D01*
X97910098Y-122367732D01*
X97904506Y-122375302D01*
X97859302Y-122504025D01*
X97856300Y-122535783D01*
X97856301Y-123844216D01*
X97859302Y-123875975D01*
X97904506Y-124004698D01*
X97910098Y-124012268D01*
X97910099Y-124012271D01*
X97915037Y-124018956D01*
X97985562Y-124114438D01*
X97993133Y-124120030D01*
X98087729Y-124189901D01*
X98087732Y-124189902D01*
X98095302Y-124195494D01*
X98224025Y-124240698D01*
X98231671Y-124241421D01*
X98231672Y-124241421D01*
X98238217Y-124242040D01*
X98255783Y-124243700D01*
X99059457Y-124243700D01*
X99864216Y-124243699D01*
X99867164Y-124243420D01*
X99867173Y-124243420D01*
X99888325Y-124241421D01*
X99888326Y-124241421D01*
X99895975Y-124240698D01*
X99903221Y-124238153D01*
X99903223Y-124238153D01*
X99947228Y-124222699D01*
X100024698Y-124195494D01*
X100032268Y-124189902D01*
X100032271Y-124189901D01*
X100126867Y-124120030D01*
X100134438Y-124114438D01*
X100204963Y-124018956D01*
X100209901Y-124012271D01*
X100209902Y-124012268D01*
X100215494Y-124004698D01*
X100260698Y-123875975D01*
X100263700Y-123844217D01*
X100263699Y-122535784D01*
X100260698Y-122504025D01*
X100256769Y-122492835D01*
X100218613Y-122384185D01*
X100215494Y-122375302D01*
X100209902Y-122367732D01*
X100209901Y-122367729D01*
X100140030Y-122273133D01*
X100134438Y-122265562D01*
X100072712Y-122219970D01*
X100032271Y-122190099D01*
X100032268Y-122190098D01*
X100024698Y-122184506D01*
X99895975Y-122139302D01*
X99888329Y-122138579D01*
X99888328Y-122138579D01*
X99876596Y-122137470D01*
X99810660Y-122111145D01*
X99769424Y-122053351D01*
X99765979Y-121982438D01*
X99801419Y-121920920D01*
X99836704Y-121897147D01*
X99867970Y-121883063D01*
X99877256Y-121877894D01*
X100059575Y-121755150D01*
X100067870Y-121748481D01*
X100226900Y-121596772D01*
X100233941Y-121588814D01*
X100365141Y-121412475D01*
X100370745Y-121403438D01*
X100468959Y-121210265D01*
X100469001Y-121207570D01*
X105274303Y-121207570D01*
X105307263Y-121291029D01*
X105311994Y-121300561D01*
X105426016Y-121488462D01*
X105432280Y-121497052D01*
X105576327Y-121663052D01*
X105583958Y-121670472D01*
X105753911Y-121809826D01*
X105762678Y-121815850D01*
X105914797Y-121902441D01*
X105964103Y-121953523D01*
X105977965Y-122023153D01*
X105951982Y-122089224D01*
X105894403Y-122130759D01*
X105864321Y-122137384D01*
X105851674Y-122138579D01*
X105851672Y-122138579D01*
X105844025Y-122139302D01*
X105836779Y-122141847D01*
X105836777Y-122141847D01*
X105813279Y-122150099D01*
X105715302Y-122184506D01*
X105707732Y-122190098D01*
X105707729Y-122190099D01*
X105667288Y-122219970D01*
X105605562Y-122265562D01*
X105599970Y-122273133D01*
X105530099Y-122367729D01*
X105530098Y-122367732D01*
X105524506Y-122375302D01*
X105479302Y-122504025D01*
X105476300Y-122535783D01*
X105476301Y-123844216D01*
X105479302Y-123875975D01*
X105524506Y-124004698D01*
X105530098Y-124012268D01*
X105530099Y-124012271D01*
X105535037Y-124018956D01*
X105605562Y-124114438D01*
X105613133Y-124120030D01*
X105707729Y-124189901D01*
X105707732Y-124189902D01*
X105715302Y-124195494D01*
X105844025Y-124240698D01*
X105851671Y-124241421D01*
X105851672Y-124241421D01*
X105858217Y-124242040D01*
X105875783Y-124243700D01*
X106679457Y-124243700D01*
X107484216Y-124243699D01*
X107487164Y-124243420D01*
X107487173Y-124243420D01*
X107508325Y-124241421D01*
X107508326Y-124241421D01*
X107515975Y-124240698D01*
X107523221Y-124238153D01*
X107523223Y-124238153D01*
X107567228Y-124222699D01*
X107644698Y-124195494D01*
X107652268Y-124189902D01*
X107652271Y-124189901D01*
X107746867Y-124120030D01*
X107754438Y-124114438D01*
X107824963Y-124018956D01*
X107829901Y-124012271D01*
X107829902Y-124012268D01*
X107835494Y-124004698D01*
X107880698Y-123875975D01*
X107883700Y-123844217D01*
X107883699Y-122535784D01*
X107880698Y-122504025D01*
X107876769Y-122492835D01*
X107838613Y-122384185D01*
X107835494Y-122375302D01*
X107829902Y-122367732D01*
X107829901Y-122367729D01*
X107760030Y-122273133D01*
X107754438Y-122265562D01*
X107692712Y-122219970D01*
X107652271Y-122190099D01*
X107652268Y-122190098D01*
X107644698Y-122184506D01*
X107515975Y-122139302D01*
X107508329Y-122138579D01*
X107508328Y-122138579D01*
X107496596Y-122137470D01*
X107430660Y-122111145D01*
X107389424Y-122053351D01*
X107385979Y-121982438D01*
X107421419Y-121920920D01*
X107456704Y-121897147D01*
X107487970Y-121883063D01*
X107497256Y-121877894D01*
X107679575Y-121755150D01*
X107687870Y-121748481D01*
X107846900Y-121596772D01*
X107853941Y-121588814D01*
X107985141Y-121412475D01*
X107990745Y-121403438D01*
X108088959Y-121210265D01*
X108089001Y-121207570D01*
X112894303Y-121207570D01*
X112927263Y-121291029D01*
X112931994Y-121300561D01*
X113046016Y-121488462D01*
X113052280Y-121497052D01*
X113196327Y-121663052D01*
X113203958Y-121670472D01*
X113373911Y-121809826D01*
X113382678Y-121815850D01*
X113534797Y-121902441D01*
X113584103Y-121953523D01*
X113597965Y-122023153D01*
X113571982Y-122089224D01*
X113514403Y-122130759D01*
X113484321Y-122137384D01*
X113471674Y-122138579D01*
X113471672Y-122138579D01*
X113464025Y-122139302D01*
X113456779Y-122141847D01*
X113456777Y-122141847D01*
X113433279Y-122150099D01*
X113335302Y-122184506D01*
X113327732Y-122190098D01*
X113327729Y-122190099D01*
X113287288Y-122219970D01*
X113225562Y-122265562D01*
X113219970Y-122273133D01*
X113150099Y-122367729D01*
X113150098Y-122367732D01*
X113144506Y-122375302D01*
X113099302Y-122504025D01*
X113096300Y-122535783D01*
X113096301Y-123844216D01*
X113099302Y-123875975D01*
X113144506Y-124004698D01*
X113150098Y-124012268D01*
X113150099Y-124012271D01*
X113155037Y-124018956D01*
X113225562Y-124114438D01*
X113233133Y-124120030D01*
X113327729Y-124189901D01*
X113327732Y-124189902D01*
X113335302Y-124195494D01*
X113464025Y-124240698D01*
X113471671Y-124241421D01*
X113471672Y-124241421D01*
X113478217Y-124242040D01*
X113495783Y-124243700D01*
X114299457Y-124243700D01*
X115104216Y-124243699D01*
X115107164Y-124243420D01*
X115107173Y-124243420D01*
X115128325Y-124241421D01*
X115128326Y-124241421D01*
X115135975Y-124240698D01*
X115143221Y-124238153D01*
X115143223Y-124238153D01*
X115187228Y-124222699D01*
X115264698Y-124195494D01*
X115272268Y-124189902D01*
X115272271Y-124189901D01*
X115366867Y-124120030D01*
X115374438Y-124114438D01*
X115444963Y-124018956D01*
X115449901Y-124012271D01*
X115449902Y-124012268D01*
X115455494Y-124004698D01*
X115500698Y-123875975D01*
X115503700Y-123844217D01*
X115503699Y-122535784D01*
X115500698Y-122504025D01*
X115496769Y-122492835D01*
X115458613Y-122384185D01*
X115455494Y-122375302D01*
X115449902Y-122367732D01*
X115449901Y-122367729D01*
X115380030Y-122273133D01*
X115374438Y-122265562D01*
X115312712Y-122219970D01*
X115272271Y-122190099D01*
X115272268Y-122190098D01*
X115264698Y-122184506D01*
X115135975Y-122139302D01*
X115128329Y-122138579D01*
X115128328Y-122138579D01*
X115116596Y-122137470D01*
X115050660Y-122111145D01*
X115009424Y-122053351D01*
X115005979Y-121982438D01*
X115041419Y-121920920D01*
X115076704Y-121897147D01*
X115107970Y-121883063D01*
X115117256Y-121877894D01*
X115299575Y-121755150D01*
X115307870Y-121748481D01*
X115466900Y-121596772D01*
X115473941Y-121588814D01*
X115605141Y-121412475D01*
X115610745Y-121403438D01*
X115708959Y-121210265D01*
X115709001Y-121207570D01*
X121784303Y-121207570D01*
X121817263Y-121291029D01*
X121821994Y-121300561D01*
X121936016Y-121488462D01*
X121942280Y-121497052D01*
X122086327Y-121663052D01*
X122093958Y-121670472D01*
X122263911Y-121809826D01*
X122272678Y-121815850D01*
X122424797Y-121902441D01*
X122474103Y-121953523D01*
X122487965Y-122023153D01*
X122461982Y-122089224D01*
X122404403Y-122130759D01*
X122374321Y-122137384D01*
X122361674Y-122138579D01*
X122361672Y-122138579D01*
X122354025Y-122139302D01*
X122346779Y-122141847D01*
X122346777Y-122141847D01*
X122323279Y-122150099D01*
X122225302Y-122184506D01*
X122217732Y-122190098D01*
X122217729Y-122190099D01*
X122177288Y-122219970D01*
X122115562Y-122265562D01*
X122109970Y-122273133D01*
X122040099Y-122367729D01*
X122040098Y-122367732D01*
X122034506Y-122375302D01*
X121989302Y-122504025D01*
X121986300Y-122535783D01*
X121986301Y-123844216D01*
X121989302Y-123875975D01*
X122034506Y-124004698D01*
X122040098Y-124012268D01*
X122040099Y-124012271D01*
X122045037Y-124018956D01*
X122115562Y-124114438D01*
X122123133Y-124120030D01*
X122217729Y-124189901D01*
X122217732Y-124189902D01*
X122225302Y-124195494D01*
X122354025Y-124240698D01*
X122361671Y-124241421D01*
X122361672Y-124241421D01*
X122368217Y-124242040D01*
X122385783Y-124243700D01*
X123189457Y-124243700D01*
X123994216Y-124243699D01*
X123997164Y-124243420D01*
X123997173Y-124243420D01*
X124018325Y-124241421D01*
X124018326Y-124241421D01*
X124025975Y-124240698D01*
X124033221Y-124238153D01*
X124033223Y-124238153D01*
X124077228Y-124222699D01*
X124154698Y-124195494D01*
X124162268Y-124189902D01*
X124162271Y-124189901D01*
X124256867Y-124120030D01*
X124264438Y-124114438D01*
X124334963Y-124018956D01*
X124339901Y-124012271D01*
X124339902Y-124012268D01*
X124345494Y-124004698D01*
X124390698Y-123875975D01*
X124393700Y-123844217D01*
X124393699Y-122535784D01*
X124390698Y-122504025D01*
X124386769Y-122492835D01*
X124348613Y-122384185D01*
X124345494Y-122375302D01*
X124339902Y-122367732D01*
X124339901Y-122367729D01*
X124270030Y-122273133D01*
X124264438Y-122265562D01*
X124202712Y-122219970D01*
X124162271Y-122190099D01*
X124162268Y-122190098D01*
X124154698Y-122184506D01*
X124025975Y-122139302D01*
X124018329Y-122138579D01*
X124018328Y-122138579D01*
X124006596Y-122137470D01*
X123940660Y-122111145D01*
X123899424Y-122053351D01*
X123895979Y-121982438D01*
X123931419Y-121920920D01*
X123966704Y-121897147D01*
X123997970Y-121883063D01*
X124007256Y-121877894D01*
X124189575Y-121755150D01*
X124197870Y-121748481D01*
X124356900Y-121596772D01*
X124363941Y-121588814D01*
X124495141Y-121412475D01*
X124500745Y-121403438D01*
X124598959Y-121210265D01*
X124599001Y-121207570D01*
X129404303Y-121207570D01*
X129437263Y-121291029D01*
X129441994Y-121300561D01*
X129556016Y-121488462D01*
X129562280Y-121497052D01*
X129706327Y-121663052D01*
X129713958Y-121670472D01*
X129883911Y-121809826D01*
X129892678Y-121815850D01*
X130044797Y-121902441D01*
X130094103Y-121953523D01*
X130107965Y-122023153D01*
X130081982Y-122089224D01*
X130024403Y-122130759D01*
X129994321Y-122137384D01*
X129981674Y-122138579D01*
X129981672Y-122138579D01*
X129974025Y-122139302D01*
X129966779Y-122141847D01*
X129966777Y-122141847D01*
X129943279Y-122150099D01*
X129845302Y-122184506D01*
X129837732Y-122190098D01*
X129837729Y-122190099D01*
X129797288Y-122219970D01*
X129735562Y-122265562D01*
X129729970Y-122273133D01*
X129660099Y-122367729D01*
X129660098Y-122367732D01*
X129654506Y-122375302D01*
X129609302Y-122504025D01*
X129606300Y-122535783D01*
X129606301Y-123844216D01*
X129609302Y-123875975D01*
X129654506Y-124004698D01*
X129660098Y-124012268D01*
X129660099Y-124012271D01*
X129665037Y-124018956D01*
X129735562Y-124114438D01*
X129743133Y-124120030D01*
X129837729Y-124189901D01*
X129837732Y-124189902D01*
X129845302Y-124195494D01*
X129974025Y-124240698D01*
X129981671Y-124241421D01*
X129981672Y-124241421D01*
X129988217Y-124242040D01*
X130005783Y-124243700D01*
X130809457Y-124243700D01*
X131614216Y-124243699D01*
X131617164Y-124243420D01*
X131617173Y-124243420D01*
X131638325Y-124241421D01*
X131638326Y-124241421D01*
X131645975Y-124240698D01*
X131653221Y-124238153D01*
X131653223Y-124238153D01*
X131697228Y-124222699D01*
X131774698Y-124195494D01*
X131782268Y-124189902D01*
X131782271Y-124189901D01*
X131876867Y-124120030D01*
X131884438Y-124114438D01*
X131954963Y-124018956D01*
X131959901Y-124012271D01*
X131959902Y-124012268D01*
X131965494Y-124004698D01*
X132010698Y-123875975D01*
X132013700Y-123844217D01*
X132013699Y-122535784D01*
X132010698Y-122504025D01*
X132006769Y-122492835D01*
X131968613Y-122384185D01*
X131965494Y-122375302D01*
X131959902Y-122367732D01*
X131959901Y-122367729D01*
X131890030Y-122273133D01*
X131884438Y-122265562D01*
X131822712Y-122219970D01*
X131782271Y-122190099D01*
X131782268Y-122190098D01*
X131774698Y-122184506D01*
X131645975Y-122139302D01*
X131638329Y-122138579D01*
X131638328Y-122138579D01*
X131626596Y-122137470D01*
X131560660Y-122111145D01*
X131519424Y-122053351D01*
X131515979Y-121982438D01*
X131551419Y-121920920D01*
X131586704Y-121897147D01*
X131617970Y-121883063D01*
X131627256Y-121877894D01*
X131809575Y-121755150D01*
X131817870Y-121748481D01*
X131976900Y-121596772D01*
X131983941Y-121588814D01*
X132115141Y-121412475D01*
X132120745Y-121403438D01*
X132218959Y-121210265D01*
X132219001Y-121207570D01*
X137024303Y-121207570D01*
X137057263Y-121291029D01*
X137061994Y-121300561D01*
X137176016Y-121488462D01*
X137182280Y-121497052D01*
X137326327Y-121663052D01*
X137333958Y-121670472D01*
X137503911Y-121809826D01*
X137512678Y-121815850D01*
X137664797Y-121902441D01*
X137714103Y-121953523D01*
X137727965Y-122023153D01*
X137701982Y-122089224D01*
X137644403Y-122130759D01*
X137614321Y-122137384D01*
X137601674Y-122138579D01*
X137601672Y-122138579D01*
X137594025Y-122139302D01*
X137586779Y-122141847D01*
X137586777Y-122141847D01*
X137563279Y-122150099D01*
X137465302Y-122184506D01*
X137457732Y-122190098D01*
X137457729Y-122190099D01*
X137417288Y-122219970D01*
X137355562Y-122265562D01*
X137349970Y-122273133D01*
X137280099Y-122367729D01*
X137280098Y-122367732D01*
X137274506Y-122375302D01*
X137229302Y-122504025D01*
X137226300Y-122535783D01*
X137226301Y-123844216D01*
X137229302Y-123875975D01*
X137274506Y-124004698D01*
X137280098Y-124012268D01*
X137280099Y-124012271D01*
X137285037Y-124018956D01*
X137355562Y-124114438D01*
X137363133Y-124120030D01*
X137457729Y-124189901D01*
X137457732Y-124189902D01*
X137465302Y-124195494D01*
X137594025Y-124240698D01*
X137601671Y-124241421D01*
X137601672Y-124241421D01*
X137608217Y-124242040D01*
X137625783Y-124243700D01*
X138429457Y-124243700D01*
X139234216Y-124243699D01*
X139237164Y-124243420D01*
X139237173Y-124243420D01*
X139258325Y-124241421D01*
X139258326Y-124241421D01*
X139265975Y-124240698D01*
X139273221Y-124238153D01*
X139273223Y-124238153D01*
X139317228Y-124222699D01*
X139394698Y-124195494D01*
X139402268Y-124189902D01*
X139402271Y-124189901D01*
X139496867Y-124120030D01*
X139504438Y-124114438D01*
X139574963Y-124018956D01*
X139579901Y-124012271D01*
X139579902Y-124012268D01*
X139585494Y-124004698D01*
X139630698Y-123875975D01*
X139633700Y-123844217D01*
X139633699Y-122535784D01*
X139630698Y-122504025D01*
X139626769Y-122492835D01*
X139588613Y-122384185D01*
X139585494Y-122375302D01*
X139579902Y-122367732D01*
X139579901Y-122367729D01*
X139510030Y-122273133D01*
X139504438Y-122265562D01*
X139442712Y-122219970D01*
X139402271Y-122190099D01*
X139402268Y-122190098D01*
X139394698Y-122184506D01*
X139265975Y-122139302D01*
X139258329Y-122138579D01*
X139258328Y-122138579D01*
X139246596Y-122137470D01*
X139180660Y-122111145D01*
X139139424Y-122053351D01*
X139135979Y-121982438D01*
X139171419Y-121920920D01*
X139206704Y-121897147D01*
X139237970Y-121883063D01*
X139247256Y-121877894D01*
X139429575Y-121755150D01*
X139437870Y-121748481D01*
X139596900Y-121596772D01*
X139603941Y-121588814D01*
X139735141Y-121412475D01*
X139740745Y-121403438D01*
X139838959Y-121210265D01*
X139839099Y-121201201D01*
X139832367Y-121198000D01*
X137038639Y-121198000D01*
X137025108Y-121201973D01*
X137024303Y-121207570D01*
X132219001Y-121207570D01*
X132219099Y-121201201D01*
X132212367Y-121198000D01*
X129418639Y-121198000D01*
X129405108Y-121201973D01*
X129404303Y-121207570D01*
X124599001Y-121207570D01*
X124599099Y-121201201D01*
X124592367Y-121198000D01*
X121798639Y-121198000D01*
X121785108Y-121201973D01*
X121784303Y-121207570D01*
X115709001Y-121207570D01*
X115709099Y-121201201D01*
X115702367Y-121198000D01*
X112908639Y-121198000D01*
X112895108Y-121201973D01*
X112894303Y-121207570D01*
X108089001Y-121207570D01*
X108089099Y-121201201D01*
X108082367Y-121198000D01*
X105288639Y-121198000D01*
X105275108Y-121201973D01*
X105274303Y-121207570D01*
X100469001Y-121207570D01*
X100469099Y-121201201D01*
X100462367Y-121198000D01*
X97668639Y-121198000D01*
X97655108Y-121201973D01*
X97654303Y-121207570D01*
X91579001Y-121207570D01*
X91579099Y-121201201D01*
X91572367Y-121198000D01*
X88778639Y-121198000D01*
X88765108Y-121201973D01*
X88764303Y-121207570D01*
X83959001Y-121207570D01*
X83959099Y-121201201D01*
X83952367Y-121198000D01*
X81158639Y-121198000D01*
X81145108Y-121201973D01*
X81144303Y-121207570D01*
X76339001Y-121207570D01*
X76339099Y-121201201D01*
X76332367Y-121198000D01*
X73538639Y-121198000D01*
X73525108Y-121201973D01*
X73524303Y-121207570D01*
X68277999Y-121207570D01*
X68277999Y-121167570D01*
X145914303Y-121167570D01*
X145947263Y-121251029D01*
X145951994Y-121260561D01*
X146066016Y-121448462D01*
X146072280Y-121457052D01*
X146216327Y-121623052D01*
X146223958Y-121630472D01*
X146393911Y-121769826D01*
X146402678Y-121775850D01*
X146554797Y-121862441D01*
X146604103Y-121913523D01*
X146617965Y-121983153D01*
X146591982Y-122049224D01*
X146534403Y-122090759D01*
X146504321Y-122097384D01*
X146491674Y-122098579D01*
X146491672Y-122098579D01*
X146484025Y-122099302D01*
X146476779Y-122101847D01*
X146476777Y-122101847D01*
X146450301Y-122111145D01*
X146355302Y-122144506D01*
X146347732Y-122150098D01*
X146347729Y-122150099D01*
X146265127Y-122211111D01*
X146245562Y-122225562D01*
X146239970Y-122233133D01*
X146170099Y-122327729D01*
X146170098Y-122327732D01*
X146164506Y-122335302D01*
X146119302Y-122464025D01*
X146116300Y-122495783D01*
X146116301Y-123804216D01*
X146119302Y-123835975D01*
X146121847Y-123843221D01*
X146121847Y-123843223D01*
X146123234Y-123847173D01*
X146164506Y-123964698D01*
X146170098Y-123972268D01*
X146170099Y-123972271D01*
X146199644Y-124012271D01*
X146245562Y-124074438D01*
X146253133Y-124080030D01*
X146347729Y-124149901D01*
X146347732Y-124149902D01*
X146355302Y-124155494D01*
X146484025Y-124200698D01*
X146491671Y-124201421D01*
X146491672Y-124201421D01*
X146498217Y-124202040D01*
X146515783Y-124203700D01*
X147319457Y-124203700D01*
X148124216Y-124203699D01*
X148127164Y-124203420D01*
X148127173Y-124203420D01*
X148148325Y-124201421D01*
X148148326Y-124201421D01*
X148155975Y-124200698D01*
X148163221Y-124198153D01*
X148163223Y-124198153D01*
X148207228Y-124182699D01*
X148284698Y-124155494D01*
X148292268Y-124149902D01*
X148292271Y-124149901D01*
X148386867Y-124080030D01*
X148394438Y-124074438D01*
X148440356Y-124012271D01*
X148469901Y-123972271D01*
X148469902Y-123972268D01*
X148475494Y-123964698D01*
X148520698Y-123835975D01*
X148523700Y-123804217D01*
X148523699Y-122495784D01*
X148520698Y-122464025D01*
X148475494Y-122335302D01*
X148469902Y-122327732D01*
X148469901Y-122327729D01*
X148400030Y-122233133D01*
X148394438Y-122225562D01*
X148374873Y-122211111D01*
X148292271Y-122150099D01*
X148292268Y-122150098D01*
X148284698Y-122144506D01*
X148155975Y-122099302D01*
X148148329Y-122098579D01*
X148148328Y-122098579D01*
X148136596Y-122097470D01*
X148070660Y-122071145D01*
X148029424Y-122013351D01*
X148025979Y-121942438D01*
X148061419Y-121880920D01*
X148096704Y-121857147D01*
X148127970Y-121843063D01*
X148137256Y-121837894D01*
X148319575Y-121715150D01*
X148327870Y-121708481D01*
X148486900Y-121556772D01*
X148493941Y-121548814D01*
X148625141Y-121372475D01*
X148630745Y-121363438D01*
X148728959Y-121170265D01*
X148729001Y-121167570D01*
X153534303Y-121167570D01*
X153567263Y-121251029D01*
X153571994Y-121260561D01*
X153686016Y-121448462D01*
X153692280Y-121457052D01*
X153836327Y-121623052D01*
X153843958Y-121630472D01*
X154013911Y-121769826D01*
X154022678Y-121775850D01*
X154174797Y-121862441D01*
X154224103Y-121913523D01*
X154237965Y-121983153D01*
X154211982Y-122049224D01*
X154154403Y-122090759D01*
X154124321Y-122097384D01*
X154111674Y-122098579D01*
X154111672Y-122098579D01*
X154104025Y-122099302D01*
X154096779Y-122101847D01*
X154096777Y-122101847D01*
X154070301Y-122111145D01*
X153975302Y-122144506D01*
X153967732Y-122150098D01*
X153967729Y-122150099D01*
X153885127Y-122211111D01*
X153865562Y-122225562D01*
X153859970Y-122233133D01*
X153790099Y-122327729D01*
X153790098Y-122327732D01*
X153784506Y-122335302D01*
X153739302Y-122464025D01*
X153736300Y-122495783D01*
X153736301Y-123804216D01*
X153739302Y-123835975D01*
X153741847Y-123843221D01*
X153741847Y-123843223D01*
X153743234Y-123847173D01*
X153784506Y-123964698D01*
X153790098Y-123972268D01*
X153790099Y-123972271D01*
X153819644Y-124012271D01*
X153865562Y-124074438D01*
X153873133Y-124080030D01*
X153967729Y-124149901D01*
X153967732Y-124149902D01*
X153975302Y-124155494D01*
X154104025Y-124200698D01*
X154111671Y-124201421D01*
X154111672Y-124201421D01*
X154118217Y-124202040D01*
X154135783Y-124203700D01*
X154939457Y-124203700D01*
X155744216Y-124203699D01*
X155747164Y-124203420D01*
X155747173Y-124203420D01*
X155768325Y-124201421D01*
X155768326Y-124201421D01*
X155775975Y-124200698D01*
X155783221Y-124198153D01*
X155783223Y-124198153D01*
X155827228Y-124182699D01*
X155904698Y-124155494D01*
X155912268Y-124149902D01*
X155912271Y-124149901D01*
X156006867Y-124080030D01*
X156014438Y-124074438D01*
X156060356Y-124012271D01*
X156089901Y-123972271D01*
X156089902Y-123972268D01*
X156095494Y-123964698D01*
X156140698Y-123835975D01*
X156143700Y-123804217D01*
X156143699Y-122495784D01*
X156140698Y-122464025D01*
X156095494Y-122335302D01*
X156089902Y-122327732D01*
X156089901Y-122327729D01*
X156020030Y-122233133D01*
X156014438Y-122225562D01*
X155994873Y-122211111D01*
X155912271Y-122150099D01*
X155912268Y-122150098D01*
X155904698Y-122144506D01*
X155775975Y-122099302D01*
X155768329Y-122098579D01*
X155768328Y-122098579D01*
X155756596Y-122097470D01*
X155690660Y-122071145D01*
X155649424Y-122013351D01*
X155645979Y-121942438D01*
X155681419Y-121880920D01*
X155716704Y-121857147D01*
X155747970Y-121843063D01*
X155757256Y-121837894D01*
X155939575Y-121715150D01*
X155947870Y-121708481D01*
X156106900Y-121556772D01*
X156113941Y-121548814D01*
X156245141Y-121372475D01*
X156250745Y-121363438D01*
X156348959Y-121170265D01*
X156349001Y-121167570D01*
X161154303Y-121167570D01*
X161187263Y-121251029D01*
X161191994Y-121260561D01*
X161306016Y-121448462D01*
X161312280Y-121457052D01*
X161456327Y-121623052D01*
X161463958Y-121630472D01*
X161633911Y-121769826D01*
X161642678Y-121775850D01*
X161794797Y-121862441D01*
X161844103Y-121913523D01*
X161857965Y-121983153D01*
X161831982Y-122049224D01*
X161774403Y-122090759D01*
X161744321Y-122097384D01*
X161731674Y-122098579D01*
X161731672Y-122098579D01*
X161724025Y-122099302D01*
X161716779Y-122101847D01*
X161716777Y-122101847D01*
X161690301Y-122111145D01*
X161595302Y-122144506D01*
X161587732Y-122150098D01*
X161587729Y-122150099D01*
X161505127Y-122211111D01*
X161485562Y-122225562D01*
X161479970Y-122233133D01*
X161410099Y-122327729D01*
X161410098Y-122327732D01*
X161404506Y-122335302D01*
X161359302Y-122464025D01*
X161356300Y-122495783D01*
X161356301Y-123804216D01*
X161359302Y-123835975D01*
X161361847Y-123843221D01*
X161361847Y-123843223D01*
X161363234Y-123847173D01*
X161404506Y-123964698D01*
X161410098Y-123972268D01*
X161410099Y-123972271D01*
X161439644Y-124012271D01*
X161485562Y-124074438D01*
X161493133Y-124080030D01*
X161587729Y-124149901D01*
X161587732Y-124149902D01*
X161595302Y-124155494D01*
X161724025Y-124200698D01*
X161731671Y-124201421D01*
X161731672Y-124201421D01*
X161738217Y-124202040D01*
X161755783Y-124203700D01*
X162559457Y-124203700D01*
X163364216Y-124203699D01*
X163367164Y-124203420D01*
X163367173Y-124203420D01*
X163388325Y-124201421D01*
X163388326Y-124201421D01*
X163395975Y-124200698D01*
X163403221Y-124198153D01*
X163403223Y-124198153D01*
X163447228Y-124182699D01*
X163524698Y-124155494D01*
X163532268Y-124149902D01*
X163532271Y-124149901D01*
X163626867Y-124080030D01*
X163634438Y-124074438D01*
X163680356Y-124012271D01*
X163709901Y-123972271D01*
X163709902Y-123972268D01*
X163715494Y-123964698D01*
X163760698Y-123835975D01*
X163763700Y-123804217D01*
X163763699Y-122495784D01*
X163760698Y-122464025D01*
X163715494Y-122335302D01*
X163709902Y-122327732D01*
X163709901Y-122327729D01*
X163640030Y-122233133D01*
X163634438Y-122225562D01*
X163614873Y-122211111D01*
X163532271Y-122150099D01*
X163532268Y-122150098D01*
X163524698Y-122144506D01*
X163395975Y-122099302D01*
X163388329Y-122098579D01*
X163388328Y-122098579D01*
X163376596Y-122097470D01*
X163310660Y-122071145D01*
X163269424Y-122013351D01*
X163265979Y-121942438D01*
X163301419Y-121880920D01*
X163336704Y-121857147D01*
X163367970Y-121843063D01*
X163377256Y-121837894D01*
X163559575Y-121715150D01*
X163567870Y-121708481D01*
X163726900Y-121556772D01*
X163733941Y-121548814D01*
X163865141Y-121372475D01*
X163870745Y-121363438D01*
X163968959Y-121170265D01*
X163969099Y-121161201D01*
X163962367Y-121158000D01*
X161168639Y-121158000D01*
X161155108Y-121161973D01*
X161154303Y-121167570D01*
X156349001Y-121167570D01*
X156349099Y-121161201D01*
X156342367Y-121158000D01*
X153548639Y-121158000D01*
X153535108Y-121161973D01*
X153534303Y-121167570D01*
X148729001Y-121167570D01*
X148729099Y-121161201D01*
X148722367Y-121158000D01*
X145928639Y-121158000D01*
X145915108Y-121161973D01*
X145914303Y-121167570D01*
X68277999Y-121167570D01*
X68277999Y-120729086D01*
X68277939Y-120726328D01*
X68275399Y-120668145D01*
X68274683Y-120661028D01*
X68232001Y-120391547D01*
X68230022Y-120382977D01*
X68167599Y-120178799D01*
X73520901Y-120178799D01*
X73527633Y-120182000D01*
X74403885Y-120182000D01*
X74419124Y-120177525D01*
X74420329Y-120176135D01*
X74422000Y-120168452D01*
X74422000Y-120163885D01*
X75438000Y-120163885D01*
X75442475Y-120179124D01*
X75443865Y-120180329D01*
X75451548Y-120182000D01*
X76321361Y-120182000D01*
X76332263Y-120178799D01*
X81140901Y-120178799D01*
X81147633Y-120182000D01*
X82023885Y-120182000D01*
X82039124Y-120177525D01*
X82040329Y-120176135D01*
X82042000Y-120168452D01*
X82042000Y-120163885D01*
X83058000Y-120163885D01*
X83062475Y-120179124D01*
X83063865Y-120180329D01*
X83071548Y-120182000D01*
X83941361Y-120182000D01*
X83952263Y-120178799D01*
X88760901Y-120178799D01*
X88767633Y-120182000D01*
X89643885Y-120182000D01*
X89659124Y-120177525D01*
X89660329Y-120176135D01*
X89662000Y-120168452D01*
X89662000Y-120163885D01*
X90678000Y-120163885D01*
X90682475Y-120179124D01*
X90683865Y-120180329D01*
X90691548Y-120182000D01*
X91561361Y-120182000D01*
X91572263Y-120178799D01*
X97650901Y-120178799D01*
X97657633Y-120182000D01*
X98533885Y-120182000D01*
X98549124Y-120177525D01*
X98550329Y-120176135D01*
X98552000Y-120168452D01*
X98552000Y-120163885D01*
X99568000Y-120163885D01*
X99572475Y-120179124D01*
X99573865Y-120180329D01*
X99581548Y-120182000D01*
X100451361Y-120182000D01*
X100462263Y-120178799D01*
X105270901Y-120178799D01*
X105277633Y-120182000D01*
X106153885Y-120182000D01*
X106169124Y-120177525D01*
X106170329Y-120176135D01*
X106172000Y-120168452D01*
X106172000Y-120163885D01*
X107188000Y-120163885D01*
X107192475Y-120179124D01*
X107193865Y-120180329D01*
X107201548Y-120182000D01*
X108071361Y-120182000D01*
X108082263Y-120178799D01*
X112890901Y-120178799D01*
X112897633Y-120182000D01*
X113773885Y-120182000D01*
X113789124Y-120177525D01*
X113790329Y-120176135D01*
X113792000Y-120168452D01*
X113792000Y-120163885D01*
X114808000Y-120163885D01*
X114812475Y-120179124D01*
X114813865Y-120180329D01*
X114821548Y-120182000D01*
X115691361Y-120182000D01*
X115702263Y-120178799D01*
X121780901Y-120178799D01*
X121787633Y-120182000D01*
X122663885Y-120182000D01*
X122679124Y-120177525D01*
X122680329Y-120176135D01*
X122682000Y-120168452D01*
X122682000Y-120163885D01*
X123698000Y-120163885D01*
X123702475Y-120179124D01*
X123703865Y-120180329D01*
X123711548Y-120182000D01*
X124581361Y-120182000D01*
X124592263Y-120178799D01*
X129400901Y-120178799D01*
X129407633Y-120182000D01*
X130283885Y-120182000D01*
X130299124Y-120177525D01*
X130300329Y-120176135D01*
X130302000Y-120168452D01*
X130302000Y-120163885D01*
X131318000Y-120163885D01*
X131322475Y-120179124D01*
X131323865Y-120180329D01*
X131331548Y-120182000D01*
X132201361Y-120182000D01*
X132212263Y-120178799D01*
X137020901Y-120178799D01*
X137027633Y-120182000D01*
X137903885Y-120182000D01*
X137919124Y-120177525D01*
X137920329Y-120176135D01*
X137922000Y-120168452D01*
X137922000Y-120163885D01*
X138938000Y-120163885D01*
X138942475Y-120179124D01*
X138943865Y-120180329D01*
X138951548Y-120182000D01*
X139821361Y-120182000D01*
X139834892Y-120178027D01*
X139835697Y-120172430D01*
X139822415Y-120138799D01*
X145910901Y-120138799D01*
X145917633Y-120142000D01*
X146793885Y-120142000D01*
X146809124Y-120137525D01*
X146810329Y-120136135D01*
X146812000Y-120128452D01*
X146812000Y-120123885D01*
X147828000Y-120123885D01*
X147832475Y-120139124D01*
X147833865Y-120140329D01*
X147841548Y-120142000D01*
X148711361Y-120142000D01*
X148722263Y-120138799D01*
X153530901Y-120138799D01*
X153537633Y-120142000D01*
X154413885Y-120142000D01*
X154429124Y-120137525D01*
X154430329Y-120136135D01*
X154432000Y-120128452D01*
X154432000Y-120123885D01*
X155448000Y-120123885D01*
X155452475Y-120139124D01*
X155453865Y-120140329D01*
X155461548Y-120142000D01*
X156331361Y-120142000D01*
X156342263Y-120138799D01*
X161150901Y-120138799D01*
X161157633Y-120142000D01*
X162033885Y-120142000D01*
X162049124Y-120137525D01*
X162050329Y-120136135D01*
X162052000Y-120128452D01*
X162052000Y-120123885D01*
X163068000Y-120123885D01*
X163072475Y-120139124D01*
X163073865Y-120140329D01*
X163081548Y-120142000D01*
X163951361Y-120142000D01*
X163964892Y-120138027D01*
X163965697Y-120132430D01*
X163932737Y-120048971D01*
X163928006Y-120039439D01*
X163813984Y-119851538D01*
X163807720Y-119842948D01*
X163663673Y-119676948D01*
X163656042Y-119669528D01*
X163486089Y-119530174D01*
X163477322Y-119524150D01*
X163286318Y-119415424D01*
X163276654Y-119410959D01*
X163085028Y-119341402D01*
X163070955Y-119340520D01*
X163068000Y-119346046D01*
X163068000Y-120123885D01*
X162052000Y-120123885D01*
X162052000Y-119358006D01*
X162048027Y-119344475D01*
X162039218Y-119343209D01*
X161962459Y-119363131D01*
X161952429Y-119366664D01*
X161752030Y-119456937D01*
X161742744Y-119462106D01*
X161560425Y-119584850D01*
X161552130Y-119591519D01*
X161393100Y-119743228D01*
X161386059Y-119751186D01*
X161254859Y-119927525D01*
X161249255Y-119936562D01*
X161151041Y-120129735D01*
X161150901Y-120138799D01*
X156342263Y-120138799D01*
X156344892Y-120138027D01*
X156345697Y-120132430D01*
X156312737Y-120048971D01*
X156308006Y-120039439D01*
X156193984Y-119851538D01*
X156187720Y-119842948D01*
X156043673Y-119676948D01*
X156036042Y-119669528D01*
X155866089Y-119530174D01*
X155857322Y-119524150D01*
X155666318Y-119415424D01*
X155656654Y-119410959D01*
X155465028Y-119341402D01*
X155450955Y-119340520D01*
X155448000Y-119346046D01*
X155448000Y-120123885D01*
X154432000Y-120123885D01*
X154432000Y-119358006D01*
X154428027Y-119344475D01*
X154419218Y-119343209D01*
X154342459Y-119363131D01*
X154332429Y-119366664D01*
X154132030Y-119456937D01*
X154122744Y-119462106D01*
X153940425Y-119584850D01*
X153932130Y-119591519D01*
X153773100Y-119743228D01*
X153766059Y-119751186D01*
X153634859Y-119927525D01*
X153629255Y-119936562D01*
X153531041Y-120129735D01*
X153530901Y-120138799D01*
X148722263Y-120138799D01*
X148724892Y-120138027D01*
X148725697Y-120132430D01*
X148692737Y-120048971D01*
X148688006Y-120039439D01*
X148573984Y-119851538D01*
X148567720Y-119842948D01*
X148423673Y-119676948D01*
X148416042Y-119669528D01*
X148246089Y-119530174D01*
X148237322Y-119524150D01*
X148046318Y-119415424D01*
X148036654Y-119410959D01*
X147845028Y-119341402D01*
X147830955Y-119340520D01*
X147828000Y-119346046D01*
X147828000Y-120123885D01*
X146812000Y-120123885D01*
X146812000Y-119358006D01*
X146808027Y-119344475D01*
X146799218Y-119343209D01*
X146722459Y-119363131D01*
X146712429Y-119366664D01*
X146512030Y-119456937D01*
X146502744Y-119462106D01*
X146320425Y-119584850D01*
X146312130Y-119591519D01*
X146153100Y-119743228D01*
X146146059Y-119751186D01*
X146014859Y-119927525D01*
X146009255Y-119936562D01*
X145911041Y-120129735D01*
X145910901Y-120138799D01*
X139822415Y-120138799D01*
X139802737Y-120088971D01*
X139798006Y-120079439D01*
X139683984Y-119891538D01*
X139677720Y-119882948D01*
X139533673Y-119716948D01*
X139526042Y-119709528D01*
X139356089Y-119570174D01*
X139347322Y-119564150D01*
X139156318Y-119455424D01*
X139146654Y-119450959D01*
X138955028Y-119381402D01*
X138940955Y-119380520D01*
X138938000Y-119386046D01*
X138938000Y-120163885D01*
X137922000Y-120163885D01*
X137922000Y-119398006D01*
X137918027Y-119384475D01*
X137909218Y-119383209D01*
X137832459Y-119403131D01*
X137822429Y-119406664D01*
X137622030Y-119496937D01*
X137612744Y-119502106D01*
X137430425Y-119624850D01*
X137422130Y-119631519D01*
X137263100Y-119783228D01*
X137256059Y-119791186D01*
X137124859Y-119967525D01*
X137119255Y-119976562D01*
X137021041Y-120169735D01*
X137020901Y-120178799D01*
X132212263Y-120178799D01*
X132214892Y-120178027D01*
X132215697Y-120172430D01*
X132182737Y-120088971D01*
X132178006Y-120079439D01*
X132063984Y-119891538D01*
X132057720Y-119882948D01*
X131913673Y-119716948D01*
X131906042Y-119709528D01*
X131736089Y-119570174D01*
X131727322Y-119564150D01*
X131536318Y-119455424D01*
X131526654Y-119450959D01*
X131335028Y-119381402D01*
X131320955Y-119380520D01*
X131318000Y-119386046D01*
X131318000Y-120163885D01*
X130302000Y-120163885D01*
X130302000Y-119398006D01*
X130298027Y-119384475D01*
X130289218Y-119383209D01*
X130212459Y-119403131D01*
X130202429Y-119406664D01*
X130002030Y-119496937D01*
X129992744Y-119502106D01*
X129810425Y-119624850D01*
X129802130Y-119631519D01*
X129643100Y-119783228D01*
X129636059Y-119791186D01*
X129504859Y-119967525D01*
X129499255Y-119976562D01*
X129401041Y-120169735D01*
X129400901Y-120178799D01*
X124592263Y-120178799D01*
X124594892Y-120178027D01*
X124595697Y-120172430D01*
X124562737Y-120088971D01*
X124558006Y-120079439D01*
X124443984Y-119891538D01*
X124437720Y-119882948D01*
X124293673Y-119716948D01*
X124286042Y-119709528D01*
X124116089Y-119570174D01*
X124107322Y-119564150D01*
X123916318Y-119455424D01*
X123906654Y-119450959D01*
X123715028Y-119381402D01*
X123700955Y-119380520D01*
X123698000Y-119386046D01*
X123698000Y-120163885D01*
X122682000Y-120163885D01*
X122682000Y-119398006D01*
X122678027Y-119384475D01*
X122669218Y-119383209D01*
X122592459Y-119403131D01*
X122582429Y-119406664D01*
X122382030Y-119496937D01*
X122372744Y-119502106D01*
X122190425Y-119624850D01*
X122182130Y-119631519D01*
X122023100Y-119783228D01*
X122016059Y-119791186D01*
X121884859Y-119967525D01*
X121879255Y-119976562D01*
X121781041Y-120169735D01*
X121780901Y-120178799D01*
X115702263Y-120178799D01*
X115704892Y-120178027D01*
X115705697Y-120172430D01*
X115672737Y-120088971D01*
X115668006Y-120079439D01*
X115553984Y-119891538D01*
X115547720Y-119882948D01*
X115403673Y-119716948D01*
X115396042Y-119709528D01*
X115226089Y-119570174D01*
X115217322Y-119564150D01*
X115026318Y-119455424D01*
X115016654Y-119450959D01*
X114825028Y-119381402D01*
X114810955Y-119380520D01*
X114808000Y-119386046D01*
X114808000Y-120163885D01*
X113792000Y-120163885D01*
X113792000Y-119398006D01*
X113788027Y-119384475D01*
X113779218Y-119383209D01*
X113702459Y-119403131D01*
X113692429Y-119406664D01*
X113492030Y-119496937D01*
X113482744Y-119502106D01*
X113300425Y-119624850D01*
X113292130Y-119631519D01*
X113133100Y-119783228D01*
X113126059Y-119791186D01*
X112994859Y-119967525D01*
X112989255Y-119976562D01*
X112891041Y-120169735D01*
X112890901Y-120178799D01*
X108082263Y-120178799D01*
X108084892Y-120178027D01*
X108085697Y-120172430D01*
X108052737Y-120088971D01*
X108048006Y-120079439D01*
X107933984Y-119891538D01*
X107927720Y-119882948D01*
X107783673Y-119716948D01*
X107776042Y-119709528D01*
X107606089Y-119570174D01*
X107597322Y-119564150D01*
X107406318Y-119455424D01*
X107396654Y-119450959D01*
X107205028Y-119381402D01*
X107190955Y-119380520D01*
X107188000Y-119386046D01*
X107188000Y-120163885D01*
X106172000Y-120163885D01*
X106172000Y-119398006D01*
X106168027Y-119384475D01*
X106159218Y-119383209D01*
X106082459Y-119403131D01*
X106072429Y-119406664D01*
X105872030Y-119496937D01*
X105862744Y-119502106D01*
X105680425Y-119624850D01*
X105672130Y-119631519D01*
X105513100Y-119783228D01*
X105506059Y-119791186D01*
X105374859Y-119967525D01*
X105369255Y-119976562D01*
X105271041Y-120169735D01*
X105270901Y-120178799D01*
X100462263Y-120178799D01*
X100464892Y-120178027D01*
X100465697Y-120172430D01*
X100432737Y-120088971D01*
X100428006Y-120079439D01*
X100313984Y-119891538D01*
X100307720Y-119882948D01*
X100163673Y-119716948D01*
X100156042Y-119709528D01*
X99986089Y-119570174D01*
X99977322Y-119564150D01*
X99786318Y-119455424D01*
X99776654Y-119450959D01*
X99585028Y-119381402D01*
X99570955Y-119380520D01*
X99568000Y-119386046D01*
X99568000Y-120163885D01*
X98552000Y-120163885D01*
X98552000Y-119398006D01*
X98548027Y-119384475D01*
X98539218Y-119383209D01*
X98462459Y-119403131D01*
X98452429Y-119406664D01*
X98252030Y-119496937D01*
X98242744Y-119502106D01*
X98060425Y-119624850D01*
X98052130Y-119631519D01*
X97893100Y-119783228D01*
X97886059Y-119791186D01*
X97754859Y-119967525D01*
X97749255Y-119976562D01*
X97651041Y-120169735D01*
X97650901Y-120178799D01*
X91572263Y-120178799D01*
X91574892Y-120178027D01*
X91575697Y-120172430D01*
X91542737Y-120088971D01*
X91538006Y-120079439D01*
X91423984Y-119891538D01*
X91417720Y-119882948D01*
X91273673Y-119716948D01*
X91266042Y-119709528D01*
X91096089Y-119570174D01*
X91087322Y-119564150D01*
X90896318Y-119455424D01*
X90886654Y-119450959D01*
X90695028Y-119381402D01*
X90680955Y-119380520D01*
X90678000Y-119386046D01*
X90678000Y-120163885D01*
X89662000Y-120163885D01*
X89662000Y-119398006D01*
X89658027Y-119384475D01*
X89649218Y-119383209D01*
X89572459Y-119403131D01*
X89562429Y-119406664D01*
X89362030Y-119496937D01*
X89352744Y-119502106D01*
X89170425Y-119624850D01*
X89162130Y-119631519D01*
X89003100Y-119783228D01*
X88996059Y-119791186D01*
X88864859Y-119967525D01*
X88859255Y-119976562D01*
X88761041Y-120169735D01*
X88760901Y-120178799D01*
X83952263Y-120178799D01*
X83954892Y-120178027D01*
X83955697Y-120172430D01*
X83922737Y-120088971D01*
X83918006Y-120079439D01*
X83803984Y-119891538D01*
X83797720Y-119882948D01*
X83653673Y-119716948D01*
X83646042Y-119709528D01*
X83476089Y-119570174D01*
X83467322Y-119564150D01*
X83276318Y-119455424D01*
X83266654Y-119450959D01*
X83075028Y-119381402D01*
X83060955Y-119380520D01*
X83058000Y-119386046D01*
X83058000Y-120163885D01*
X82042000Y-120163885D01*
X82042000Y-119398006D01*
X82038027Y-119384475D01*
X82029218Y-119383209D01*
X81952459Y-119403131D01*
X81942429Y-119406664D01*
X81742030Y-119496937D01*
X81732744Y-119502106D01*
X81550425Y-119624850D01*
X81542130Y-119631519D01*
X81383100Y-119783228D01*
X81376059Y-119791186D01*
X81244859Y-119967525D01*
X81239255Y-119976562D01*
X81141041Y-120169735D01*
X81140901Y-120178799D01*
X76332263Y-120178799D01*
X76334892Y-120178027D01*
X76335697Y-120172430D01*
X76302737Y-120088971D01*
X76298006Y-120079439D01*
X76183984Y-119891538D01*
X76177720Y-119882948D01*
X76033673Y-119716948D01*
X76026042Y-119709528D01*
X75856089Y-119570174D01*
X75847322Y-119564150D01*
X75656318Y-119455424D01*
X75646654Y-119450959D01*
X75455028Y-119381402D01*
X75440955Y-119380520D01*
X75438000Y-119386046D01*
X75438000Y-120163885D01*
X74422000Y-120163885D01*
X74422000Y-119398006D01*
X74418027Y-119384475D01*
X74409218Y-119383209D01*
X74332459Y-119403131D01*
X74322429Y-119406664D01*
X74122030Y-119496937D01*
X74112744Y-119502106D01*
X73930425Y-119624850D01*
X73922130Y-119631519D01*
X73763100Y-119783228D01*
X73756059Y-119791186D01*
X73624859Y-119967525D01*
X73619255Y-119976562D01*
X73521041Y-120169735D01*
X73520901Y-120178799D01*
X68167599Y-120178799D01*
X68150496Y-120122857D01*
X68147345Y-120114647D01*
X68032387Y-119868118D01*
X68028124Y-119860428D01*
X67879976Y-119632300D01*
X67874686Y-119625281D01*
X67696217Y-119419976D01*
X67690024Y-119413783D01*
X67484719Y-119235314D01*
X67477700Y-119230024D01*
X67249572Y-119081876D01*
X67241882Y-119077613D01*
X66995353Y-118962655D01*
X66987143Y-118959504D01*
X66727023Y-118879978D01*
X66718453Y-118877999D01*
X66448956Y-118835315D01*
X66441872Y-118834601D01*
X66383669Y-118832060D01*
X66380917Y-118832000D01*
X65296115Y-118832000D01*
X65280876Y-118836475D01*
X65279671Y-118837865D01*
X65278000Y-118845548D01*
X65278000Y-121813885D01*
X64262000Y-121813885D01*
X64262000Y-118850116D01*
X64257525Y-118834877D01*
X64256135Y-118833672D01*
X64248452Y-118832001D01*
X63159086Y-118832001D01*
X63156328Y-118832061D01*
X63098145Y-118834601D01*
X63091028Y-118835317D01*
X62821547Y-118877999D01*
X62812977Y-118879978D01*
X62552857Y-118959504D01*
X62544647Y-118962655D01*
X62298118Y-119077613D01*
X62290428Y-119081876D01*
X62062300Y-119230024D01*
X62055281Y-119235314D01*
X61849976Y-119413783D01*
X61843783Y-119419976D01*
X61665314Y-119625281D01*
X61660024Y-119632300D01*
X61511876Y-119860428D01*
X61507613Y-119868118D01*
X61392655Y-120114647D01*
X61389504Y-120122857D01*
X61309978Y-120382977D01*
X61307999Y-120391547D01*
X61265315Y-120661044D01*
X61264601Y-120668128D01*
X61262060Y-120726331D01*
X61262000Y-120729083D01*
X61262000Y-121813885D01*
X50404736Y-121813885D01*
X50374075Y-121492789D01*
X50373504Y-121480812D01*
X50373504Y-121089188D01*
X50374075Y-121077211D01*
X50411299Y-120687380D01*
X50413005Y-120675511D01*
X50487121Y-120290967D01*
X50489948Y-120279315D01*
X50600278Y-119903563D01*
X50604200Y-119892232D01*
X50749747Y-119528673D01*
X50754728Y-119517766D01*
X50808335Y-119413783D01*
X50934177Y-119169682D01*
X50940162Y-119159315D01*
X51151896Y-118829851D01*
X51158849Y-118820087D01*
X51400932Y-118512253D01*
X51408785Y-118503191D01*
X51679024Y-118219773D01*
X51687702Y-118211498D01*
X51983665Y-117955045D01*
X51993090Y-117947634D01*
X52312095Y-117720471D01*
X52322182Y-117713988D01*
X52491752Y-117616087D01*
X52661328Y-117518182D01*
X52671974Y-117512693D01*
X53028220Y-117350001D01*
X53039338Y-117345551D01*
X53130610Y-117313961D01*
X53409421Y-117217464D01*
X53420926Y-117214086D01*
X53801497Y-117121761D01*
X53813270Y-117119492D01*
X53923303Y-117103671D01*
X54200906Y-117063758D01*
X54212823Y-117062620D01*
X54396376Y-117053876D01*
X54573494Y-117045439D01*
X54581615Y-117046164D01*
X54581616Y-117045734D01*
X54595806Y-117045759D01*
X54609635Y-117048939D01*
X54623476Y-117045807D01*
X54627936Y-117045815D01*
X54646865Y-117043700D01*
X171412553Y-117043700D01*
X171430612Y-117045750D01*
G37*
G04 #@! TD.AperFunction*
M02*
