G04 #@! TF.GenerationSoftware,KiCad,Pcbnew,(6.0.9)*
G04 #@! TF.CreationDate,2023-02-01T20:08:33-08:00*
G04 #@! TF.ProjectId,regulator_board,72656775-6c61-4746-9f72-5f626f617264,rev?*
G04 #@! TF.SameCoordinates,Original*
G04 #@! TF.FileFunction,Copper,L1,Top*
G04 #@! TF.FilePolarity,Positive*
%FSLAX46Y46*%
G04 Gerber Fmt 4.6, Leading zero omitted, Abs format (unit mm)*
G04 Created by KiCad (PCBNEW (6.0.9)) date 2023-02-01 20:08:33*
%MOMM*%
%LPD*%
G01*
G04 APERTURE LIST*
G04 Aperture macros list*
%AMRoundRect*
0 Rectangle with rounded corners*
0 $1 Rounding radius*
0 $2 $3 $4 $5 $6 $7 $8 $9 X,Y pos of 4 corners*
0 Add a 4 corners polygon primitive as box body*
4,1,4,$2,$3,$4,$5,$6,$7,$8,$9,$2,$3,0*
0 Add four circle primitives for the rounded corners*
1,1,$1+$1,$2,$3*
1,1,$1+$1,$4,$5*
1,1,$1+$1,$6,$7*
1,1,$1+$1,$8,$9*
0 Add four rect primitives between the rounded corners*
20,1,$1+$1,$2,$3,$4,$5,0*
20,1,$1+$1,$4,$5,$6,$7,0*
20,1,$1+$1,$6,$7,$8,$9,0*
20,1,$1+$1,$8,$9,$2,$3,0*%
%AMFreePoly0*
4,1,22,0.500000,-0.750000,0.000000,-0.750000,0.000000,-0.745033,-0.079941,-0.743568,-0.215256,-0.701293,-0.333266,-0.622738,-0.424486,-0.514219,-0.481581,-0.384460,-0.499164,-0.250000,-0.500000,-0.250000,-0.500000,0.250000,-0.499164,0.250000,-0.499963,0.256109,-0.478152,0.396186,-0.417904,0.524511,-0.324060,0.630769,-0.204165,0.706417,-0.067858,0.745374,0.000000,0.744959,0.000000,0.750000,
0.500000,0.750000,0.500000,-0.750000,0.500000,-0.750000,$1*%
%AMFreePoly1*
4,1,20,0.000000,0.744959,0.073905,0.744508,0.209726,0.703889,0.328688,0.626782,0.421226,0.519385,0.479903,0.390333,0.500000,0.250000,0.500000,-0.250000,0.499851,-0.262216,0.476331,-0.402017,0.414519,-0.529596,0.319384,-0.634700,0.198574,-0.708877,0.061801,-0.746166,0.000000,-0.745033,0.000000,-0.750000,-0.500000,-0.750000,-0.500000,0.750000,0.000000,0.750000,0.000000,0.744959,
0.000000,0.744959,$1*%
%AMFreePoly2*
4,1,17,-1.075000,1.162500,-1.059485,1.290712,-1.005777,1.426361,-0.917570,1.542570,-0.801361,1.630777,-0.665712,1.684485,-0.537500,1.700000,1.075000,1.700000,1.075000,-1.700000,-0.537500,-1.700000,-0.665712,-1.684485,-0.801361,-1.630777,-0.917570,-1.542570,-1.005777,-1.426361,-1.059485,-1.290712,-1.075000,-1.162500,-1.075000,1.162500,-1.075000,1.162500,$1*%
%AMFreePoly3*
4,1,17,-1.075000,1.700000,0.537500,1.700000,0.665712,1.684485,0.801361,1.630777,0.917570,1.542570,1.005777,1.426361,1.059485,1.290712,1.075000,1.162500,1.075000,-1.162500,1.059485,-1.290712,1.005777,-1.426361,0.917570,-1.542570,0.801361,-1.630777,0.665712,-1.684485,0.537500,-1.700000,-1.075000,-1.700000,-1.075000,1.700000,-1.075000,1.700000,$1*%
G04 Aperture macros list end*
G04 #@! TA.AperFunction,SMDPad,CuDef*
%ADD10RoundRect,0.237500X0.250000X0.237500X-0.250000X0.237500X-0.250000X-0.237500X0.250000X-0.237500X0*%
G04 #@! TD*
G04 #@! TA.AperFunction,SMDPad,CuDef*
%ADD11RoundRect,0.237500X-0.300000X-0.237500X0.300000X-0.237500X0.300000X0.237500X-0.300000X0.237500X0*%
G04 #@! TD*
G04 #@! TA.AperFunction,ComponentPad*
%ADD12RoundRect,1.500000X-1.500000X1.500000X-1.500000X-1.500000X1.500000X-1.500000X1.500000X1.500000X0*%
G04 #@! TD*
G04 #@! TA.AperFunction,ComponentPad*
%ADD13C,6.000000*%
G04 #@! TD*
G04 #@! TA.AperFunction,SMDPad,CuDef*
%ADD14RoundRect,0.237500X-0.250000X-0.237500X0.250000X-0.237500X0.250000X0.237500X-0.250000X0.237500X0*%
G04 #@! TD*
G04 #@! TA.AperFunction,SMDPad,CuDef*
%ADD15RoundRect,0.237500X0.300000X0.237500X-0.300000X0.237500X-0.300000X-0.237500X0.300000X-0.237500X0*%
G04 #@! TD*
G04 #@! TA.AperFunction,SMDPad,CuDef*
%ADD16FreePoly0,90.000000*%
G04 #@! TD*
G04 #@! TA.AperFunction,SMDPad,CuDef*
%ADD17FreePoly1,90.000000*%
G04 #@! TD*
G04 #@! TA.AperFunction,SMDPad,CuDef*
%ADD18RoundRect,0.150000X-0.512500X-0.150000X0.512500X-0.150000X0.512500X0.150000X-0.512500X0.150000X0*%
G04 #@! TD*
G04 #@! TA.AperFunction,ComponentPad*
%ADD19RoundRect,0.250000X0.750000X-0.600000X0.750000X0.600000X-0.750000X0.600000X-0.750000X-0.600000X0*%
G04 #@! TD*
G04 #@! TA.AperFunction,ComponentPad*
%ADD20O,2.000000X1.700000*%
G04 #@! TD*
G04 #@! TA.AperFunction,SMDPad,CuDef*
%ADD21RoundRect,0.237500X0.237500X-0.287500X0.237500X0.287500X-0.237500X0.287500X-0.237500X-0.287500X0*%
G04 #@! TD*
G04 #@! TA.AperFunction,SMDPad,CuDef*
%ADD22RoundRect,0.237500X0.287500X0.237500X-0.287500X0.237500X-0.287500X-0.237500X0.287500X-0.237500X0*%
G04 #@! TD*
G04 #@! TA.AperFunction,ComponentPad*
%ADD23C,2.780000*%
G04 #@! TD*
G04 #@! TA.AperFunction,SMDPad,CuDef*
%ADD24RoundRect,0.237500X-0.287500X-0.237500X0.287500X-0.237500X0.287500X0.237500X-0.287500X0.237500X0*%
G04 #@! TD*
G04 #@! TA.AperFunction,ComponentPad*
%ADD25C,0.800000*%
G04 #@! TD*
G04 #@! TA.AperFunction,ComponentPad*
%ADD26C,6.400000*%
G04 #@! TD*
G04 #@! TA.AperFunction,SMDPad,CuDef*
%ADD27FreePoly2,0.000000*%
G04 #@! TD*
G04 #@! TA.AperFunction,SMDPad,CuDef*
%ADD28FreePoly3,0.000000*%
G04 #@! TD*
G04 #@! TA.AperFunction,ViaPad*
%ADD29C,0.508000*%
G04 #@! TD*
G04 #@! TA.AperFunction,Conductor*
%ADD30C,0.254000*%
G04 #@! TD*
G04 #@! TA.AperFunction,Conductor*
%ADD31C,1.270000*%
G04 #@! TD*
G04 APERTURE END LIST*
G36*
X122220000Y-136013000D02*
G01*
X121620000Y-136013000D01*
X121620000Y-135513000D01*
X122220000Y-135513000D01*
X122220000Y-136013000D01*
G37*
G36*
X98090000Y-136013000D02*
G01*
X97490000Y-136013000D01*
X97490000Y-135513000D01*
X98090000Y-135513000D01*
X98090000Y-136013000D01*
G37*
G36*
X73960000Y-136013000D02*
G01*
X73360000Y-136013000D01*
X73360000Y-135513000D01*
X73960000Y-135513000D01*
X73960000Y-136013000D01*
G37*
G36*
X146350000Y-135973000D02*
G01*
X145750000Y-135973000D01*
X145750000Y-135473000D01*
X146350000Y-135473000D01*
X146350000Y-135973000D01*
G37*
D10*
X152691500Y-149396750D03*
X150866500Y-149396750D03*
D11*
X77877500Y-136652000D03*
X79602500Y-136652000D03*
D12*
X64770000Y-122340000D03*
D13*
X64770000Y-129540000D03*
D14*
X83542500Y-144145000D03*
X85367500Y-144145000D03*
D15*
X135101500Y-140335000D03*
X133376500Y-140335000D03*
X82142500Y-129794000D03*
X80417500Y-129794000D03*
D16*
X121920000Y-136413000D03*
D17*
X121920000Y-135113000D03*
D14*
X155932500Y-144145000D03*
X157757500Y-144145000D03*
D18*
X125862500Y-132654000D03*
X125862500Y-133604000D03*
X125862500Y-134554000D03*
X128137500Y-134554000D03*
X128137500Y-133604000D03*
X128137500Y-132654000D03*
D14*
X107672500Y-144145000D03*
X109497500Y-144145000D03*
D15*
X86841500Y-138684000D03*
X85116500Y-138684000D03*
D19*
X99060000Y-123190000D03*
D20*
X99060000Y-120690000D03*
D21*
X124079000Y-136638000D03*
X124079000Y-134888000D03*
X75819000Y-136638000D03*
X75819000Y-134888000D03*
D15*
X159231500Y-138644000D03*
X157506500Y-138644000D03*
D19*
X162560000Y-123150000D03*
D20*
X162560000Y-120650000D03*
D19*
X114300000Y-123190000D03*
D20*
X114300000Y-120690000D03*
D11*
X96927500Y-131572000D03*
X98652500Y-131572000D03*
D22*
X152654000Y-147745750D03*
X150904000Y-147745750D03*
D23*
X66470000Y-138550000D03*
X63070000Y-138550000D03*
X63070000Y-148470000D03*
X66470000Y-148470000D03*
D24*
X131840000Y-142240000D03*
X133590000Y-142240000D03*
D19*
X106680000Y-123190000D03*
D20*
X106680000Y-120690000D03*
D16*
X97790000Y-136413000D03*
D17*
X97790000Y-135113000D03*
D25*
X173850000Y-147955000D03*
X173147056Y-146257944D03*
X173147056Y-149652056D03*
D26*
X171450000Y-147955000D03*
D25*
X169050000Y-147955000D03*
X171450000Y-150355000D03*
X171450000Y-145555000D03*
X169752944Y-146257944D03*
X169752944Y-149652056D03*
D19*
X147320000Y-123150000D03*
D20*
X147320000Y-120650000D03*
D27*
X108835000Y-133604000D03*
D28*
X114685000Y-133604000D03*
D19*
X138430000Y-123190000D03*
D20*
X138430000Y-120690000D03*
D19*
X154940000Y-123150000D03*
D20*
X154940000Y-120650000D03*
D15*
X106272500Y-129794000D03*
X104547500Y-129794000D03*
D11*
X102007500Y-136652000D03*
X103732500Y-136652000D03*
D14*
X100433500Y-129921000D03*
X102258500Y-129921000D03*
D25*
X52210000Y-147955000D03*
X56307056Y-146257944D03*
X52912944Y-149652056D03*
X56307056Y-149652056D03*
X54610000Y-150355000D03*
X57010000Y-147955000D03*
X52912944Y-146257944D03*
D26*
X54610000Y-147955000D03*
D25*
X54610000Y-145555000D03*
D11*
X145187500Y-131532000D03*
X146912500Y-131532000D03*
D14*
X121057500Y-129921000D03*
X122882500Y-129921000D03*
D15*
X154532500Y-129754000D03*
X152807500Y-129754000D03*
D11*
X72797500Y-131572000D03*
X74522500Y-131572000D03*
X150267500Y-136612000D03*
X151992500Y-136612000D03*
D15*
X159231500Y-140295000D03*
X157506500Y-140295000D03*
D27*
X84705000Y-133604000D03*
D28*
X90555000Y-133604000D03*
D16*
X73660000Y-136413000D03*
D17*
X73660000Y-135113000D03*
D15*
X135101500Y-138684000D03*
X133376500Y-138684000D03*
D27*
X157095000Y-133564000D03*
D28*
X162945000Y-133564000D03*
D14*
X72797500Y-129921000D03*
X74622500Y-129921000D03*
X124563500Y-129921000D03*
X126388500Y-129921000D03*
D18*
X101732500Y-132654000D03*
X101732500Y-133604000D03*
X101732500Y-134554000D03*
X104007500Y-134554000D03*
X104007500Y-133604000D03*
X104007500Y-132654000D03*
D24*
X107710000Y-142240000D03*
X109460000Y-142240000D03*
D14*
X96927500Y-129921000D03*
X98752500Y-129921000D03*
D25*
X54610000Y-123685000D03*
X56307056Y-122982056D03*
X52912944Y-119587944D03*
X56307056Y-119587944D03*
D26*
X54610000Y-121285000D03*
D25*
X57010000Y-121285000D03*
X52210000Y-121285000D03*
X52912944Y-122982056D03*
X54610000Y-118885000D03*
D14*
X148693500Y-129881000D03*
X150518500Y-129881000D03*
D25*
X169752944Y-119587944D03*
X171450000Y-118885000D03*
X173147056Y-119587944D03*
X169050000Y-121285000D03*
D26*
X171450000Y-121285000D03*
D25*
X169752944Y-122982056D03*
X171450000Y-123685000D03*
X173147056Y-122982056D03*
X173850000Y-121285000D03*
D14*
X131802500Y-144145000D03*
X133627500Y-144145000D03*
X76303500Y-129921000D03*
X78128500Y-129921000D03*
D19*
X123190000Y-123190000D03*
D20*
X123190000Y-120690000D03*
D15*
X86841500Y-140335000D03*
X85116500Y-140335000D03*
D18*
X77602500Y-132654000D03*
X77602500Y-133604000D03*
X77602500Y-134554000D03*
X79877500Y-134554000D03*
X79877500Y-133604000D03*
X79877500Y-132654000D03*
D24*
X83580000Y-142240000D03*
X85330000Y-142240000D03*
D19*
X90170000Y-123190000D03*
D20*
X90170000Y-120690000D03*
D18*
X149992500Y-132614000D03*
X149992500Y-133564000D03*
X149992500Y-134514000D03*
X152267500Y-134514000D03*
X152267500Y-133564000D03*
X152267500Y-132614000D03*
D15*
X130402500Y-129794000D03*
X128677500Y-129794000D03*
D11*
X126137500Y-136652000D03*
X127862500Y-136652000D03*
D19*
X130810000Y-123190000D03*
D20*
X130810000Y-120690000D03*
D19*
X74930000Y-123190000D03*
D20*
X74930000Y-120690000D03*
D15*
X110971500Y-138684000D03*
X109246500Y-138684000D03*
D19*
X82550000Y-123190000D03*
D20*
X82550000Y-120690000D03*
D15*
X110971500Y-140335000D03*
X109246500Y-140335000D03*
D21*
X99949000Y-136638000D03*
X99949000Y-134888000D03*
X148209000Y-136598000D03*
X148209000Y-134848000D03*
D27*
X132965000Y-133604000D03*
D28*
X138815000Y-133604000D03*
D16*
X146050000Y-136373000D03*
D17*
X146050000Y-135073000D03*
D11*
X121057500Y-131572000D03*
X122782500Y-131572000D03*
D24*
X155970000Y-142240000D03*
X157720000Y-142240000D03*
D14*
X145187500Y-129881000D03*
X147012500Y-129881000D03*
D29*
X155194000Y-136612000D03*
X129032000Y-135636000D03*
X83820000Y-138684000D03*
X107950000Y-138684000D03*
X130048000Y-137668000D03*
X81788000Y-137668000D03*
X105918000Y-136652000D03*
X153162000Y-135596000D03*
X129032000Y-136652000D03*
X154178000Y-136612000D03*
X104902000Y-136652000D03*
X153162000Y-136612000D03*
X82804000Y-137668000D03*
X155194000Y-137628000D03*
X158750000Y-144145000D03*
X132080000Y-136652000D03*
X78232000Y-131064000D03*
X80772000Y-135636000D03*
X156210000Y-136612000D03*
X131064000Y-136652000D03*
X150622000Y-131024000D03*
X80772000Y-136652000D03*
X102362000Y-131064000D03*
X83820000Y-137668000D03*
X105918000Y-137668000D03*
X107950000Y-136652000D03*
X106934000Y-136652000D03*
X130048000Y-136652000D03*
X82804000Y-136652000D03*
X156210000Y-138644000D03*
X108966000Y-136652000D03*
X83820000Y-136652000D03*
X156210000Y-137628000D03*
X154178000Y-137628000D03*
X84836000Y-136652000D03*
X132080000Y-138684000D03*
X104902000Y-135636000D03*
X131064000Y-137668000D03*
X133096000Y-136652000D03*
X157226000Y-136612000D03*
X106934000Y-137668000D03*
X132080000Y-137668000D03*
X107950000Y-137668000D03*
X81788000Y-136652000D03*
X126492000Y-131064000D03*
D30*
X146050000Y-136373000D02*
X146275000Y-136598000D01*
X97790000Y-136413000D02*
X98015000Y-136638000D01*
D31*
X99949000Y-136638000D02*
X99949000Y-146685000D01*
D30*
X98015000Y-136638000D02*
X99949000Y-136638000D01*
X122145000Y-136638000D02*
X124079000Y-136638000D01*
D31*
X124079000Y-136638000D02*
X124079000Y-146685000D01*
X148209000Y-136598000D02*
X148209000Y-146645000D01*
D30*
X73885000Y-136638000D02*
X75819000Y-136638000D01*
X146275000Y-136598000D02*
X148209000Y-136598000D01*
X73660000Y-136413000D02*
X73885000Y-136638000D01*
X121920000Y-136413000D02*
X122145000Y-136638000D01*
D31*
X75819000Y-136638000D02*
X75819000Y-146685000D01*
D30*
X150904000Y-147745750D02*
X148418250Y-147745750D01*
X157757500Y-144145000D02*
X158750000Y-144145000D01*
X86360000Y-142240000D02*
X85330000Y-142240000D01*
X86841500Y-140335000D02*
X86841500Y-141758500D01*
X86841500Y-141758500D02*
X86360000Y-142240000D01*
X72797500Y-129921000D02*
X72797500Y-129132500D01*
X72797500Y-131572000D02*
X72797500Y-129921000D01*
X72797500Y-129132500D02*
X73914000Y-128016000D01*
X121057500Y-129921000D02*
X121057500Y-129132500D01*
X121057500Y-129132500D02*
X122174000Y-128016000D01*
X135101500Y-141758500D02*
X134620000Y-142240000D01*
X134620000Y-142240000D02*
X133590000Y-142240000D01*
X135101500Y-140335000D02*
X135101500Y-141758500D01*
X121057500Y-131572000D02*
X121057500Y-129921000D01*
X110971500Y-140335000D02*
X110971500Y-141758500D01*
X110971500Y-141758500D02*
X110490000Y-142240000D01*
X96927500Y-129921000D02*
X96927500Y-129132500D01*
X110490000Y-142240000D02*
X109460000Y-142240000D01*
X96927500Y-129132500D02*
X98044000Y-128016000D01*
X96927500Y-131572000D02*
X96927500Y-129921000D01*
X145187500Y-129092500D02*
X146304000Y-127976000D01*
X159231500Y-140295000D02*
X159231500Y-141758500D01*
X145187500Y-129881000D02*
X145187500Y-129092500D01*
X158750000Y-142240000D02*
X157720000Y-142240000D01*
X159231500Y-141758500D02*
X158750000Y-142240000D01*
X145187500Y-131532000D02*
X145187500Y-129881000D01*
X152654000Y-149523750D02*
X152654000Y-147656250D01*
X152654000Y-149434250D02*
X152691500Y-149396750D01*
X83580000Y-142240000D02*
X83580000Y-144107500D01*
X83580000Y-144107500D02*
X83542500Y-144145000D01*
X107710000Y-142240000D02*
X107710000Y-144107500D01*
X107710000Y-144107500D02*
X107672500Y-144145000D01*
X131840000Y-144107500D02*
X131802500Y-144145000D01*
X131840000Y-142240000D02*
X131840000Y-144107500D01*
X155970000Y-142240000D02*
X155970000Y-144107500D01*
X155970000Y-144107500D02*
X155932500Y-144145000D01*
X75169000Y-133604000D02*
X73660000Y-135113000D01*
X77602500Y-133604000D02*
X75169000Y-133604000D01*
X99299000Y-133604000D02*
X97790000Y-135113000D01*
X101732500Y-133604000D02*
X99299000Y-133604000D01*
X125862500Y-133604000D02*
X123429000Y-133604000D01*
X123429000Y-133604000D02*
X121920000Y-135113000D01*
X147559000Y-133564000D02*
X146050000Y-135073000D01*
X149992500Y-133564000D02*
X147559000Y-133564000D01*
G04 #@! TA.AperFunction,Conductor*
G36*
X82697249Y-129166103D02*
G01*
X82882924Y-129231234D01*
X82919925Y-129251740D01*
X85857414Y-131601731D01*
X85892266Y-131645538D01*
X85966564Y-131800125D01*
X85979000Y-131854707D01*
X85979000Y-135329810D01*
X85958998Y-135397931D01*
X85942095Y-135418905D01*
X85888905Y-135472095D01*
X85826593Y-135506121D01*
X85799810Y-135509000D01*
X82448063Y-135509000D01*
X82399845Y-135499409D01*
X82229350Y-135428787D01*
X82188474Y-135401474D01*
X80772000Y-133985000D01*
X79300190Y-133985000D01*
X79232069Y-133964998D01*
X79211095Y-133948095D01*
X79157905Y-133894905D01*
X79123879Y-133832593D01*
X79121000Y-133805810D01*
X79121000Y-133402190D01*
X79141002Y-133334069D01*
X79157905Y-133313095D01*
X79211095Y-133259905D01*
X79273407Y-133225879D01*
X79300190Y-133223000D01*
X80772000Y-133223000D01*
X81407000Y-132588000D01*
X81407000Y-129338190D01*
X81427002Y-129270069D01*
X81443905Y-129249095D01*
X81497095Y-129195905D01*
X81559407Y-129161879D01*
X81586190Y-129159000D01*
X82655542Y-129159000D01*
X82697249Y-129166103D01*
G37*
G04 #@! TD.AperFunction*
G04 #@! TA.AperFunction,Conductor*
G36*
X78247931Y-134259002D02*
G01*
X78268905Y-134275905D01*
X78322095Y-134329095D01*
X78356121Y-134391407D01*
X78359000Y-134418190D01*
X78359000Y-134705668D01*
X78338998Y-134773789D01*
X78334532Y-134780281D01*
X78262264Y-134878580D01*
X78205798Y-134921616D01*
X78198330Y-134924209D01*
X77388056Y-135177420D01*
X76457341Y-135468268D01*
X76438779Y-135472560D01*
X76209449Y-135507558D01*
X76190440Y-135509000D01*
X75490190Y-135509000D01*
X75422069Y-135488998D01*
X75401095Y-135472095D01*
X75347905Y-135418905D01*
X75313879Y-135356593D01*
X75311000Y-135329810D01*
X75311000Y-134418190D01*
X75331002Y-134350069D01*
X75347905Y-134329095D01*
X75401095Y-134275905D01*
X75463407Y-134241879D01*
X75490190Y-134239000D01*
X78179810Y-134239000D01*
X78247931Y-134259002D01*
G37*
G04 #@! TD.AperFunction*
G04 #@! TA.AperFunction,Conductor*
G36*
X154559000Y-135723000D02*
G01*
X158115000Y-135723000D01*
X158115000Y-140930000D01*
X156972000Y-140930000D01*
X151384000Y-137247000D01*
X151384000Y-135977000D01*
X151511000Y-134834000D01*
X151511000Y-134199000D01*
X153035000Y-134199000D01*
X154559000Y-135723000D01*
G37*
G04 #@! TD.AperFunction*
G04 #@! TA.AperFunction,Conductor*
G36*
X155087249Y-129126103D02*
G01*
X155272924Y-129191234D01*
X155309925Y-129211740D01*
X158247414Y-131561731D01*
X158282266Y-131605538D01*
X158356564Y-131760125D01*
X158369000Y-131814707D01*
X158369000Y-135289810D01*
X158348998Y-135357931D01*
X158332095Y-135378905D01*
X158278905Y-135432095D01*
X158216593Y-135466121D01*
X158189810Y-135469000D01*
X154838063Y-135469000D01*
X154789845Y-135459409D01*
X154619350Y-135388787D01*
X154578474Y-135361474D01*
X153162000Y-133945000D01*
X151690190Y-133945000D01*
X151622069Y-133924998D01*
X151601095Y-133908095D01*
X151547905Y-133854905D01*
X151513879Y-133792593D01*
X151511000Y-133765810D01*
X151511000Y-133362190D01*
X151531002Y-133294069D01*
X151547905Y-133273095D01*
X151601095Y-133219905D01*
X151663407Y-133185879D01*
X151690190Y-133183000D01*
X153162000Y-133183000D01*
X153797000Y-132548000D01*
X153797000Y-129298190D01*
X153817002Y-129230069D01*
X153833905Y-129209095D01*
X153887095Y-129155905D01*
X153949407Y-129121879D01*
X153976190Y-129119000D01*
X155045542Y-129119000D01*
X155087249Y-129126103D01*
G37*
G04 #@! TD.AperFunction*
G04 #@! TA.AperFunction,Conductor*
G36*
X139969931Y-121940002D02*
G01*
X139990905Y-121956905D01*
X140044095Y-122010095D01*
X140078121Y-122072407D01*
X140081000Y-122099190D01*
X140081000Y-135329810D01*
X140060998Y-135397931D01*
X140044095Y-135418905D01*
X139990905Y-135472095D01*
X139928593Y-135506121D01*
X139901810Y-135509000D01*
X137033000Y-135509000D01*
X136398000Y-136144000D01*
X136398000Y-140182937D01*
X136388409Y-140231155D01*
X136317788Y-140401649D01*
X136290474Y-140442526D01*
X135870526Y-140862474D01*
X135829650Y-140889787D01*
X135684289Y-140949998D01*
X135659155Y-140960409D01*
X135610937Y-140970000D01*
X134672190Y-140970000D01*
X134604069Y-140949998D01*
X134583095Y-140933095D01*
X134529905Y-140879905D01*
X134495879Y-140817593D01*
X134493000Y-140790810D01*
X134493000Y-131572000D01*
X133869052Y-131068042D01*
X131298142Y-128991537D01*
X131298139Y-128991535D01*
X131191000Y-128905000D01*
X122707063Y-128905000D01*
X122658845Y-128895409D01*
X122488350Y-128824787D01*
X122447474Y-128797474D01*
X122027526Y-128377526D01*
X122000212Y-128336649D01*
X121929591Y-128166155D01*
X121920000Y-128117937D01*
X121920000Y-122099190D01*
X121940002Y-122031069D01*
X121956905Y-122010095D01*
X122010095Y-121956905D01*
X122072407Y-121922879D01*
X122099190Y-121920000D01*
X139901810Y-121920000D01*
X139969931Y-121940002D01*
G37*
G04 #@! TD.AperFunction*
G04 #@! TA.AperFunction,Conductor*
G36*
X149240931Y-129139002D02*
G01*
X149261905Y-129155905D01*
X149315095Y-129209095D01*
X149349121Y-129271407D01*
X149352000Y-129298190D01*
X149352000Y-130516000D01*
X149434035Y-130612950D01*
X149441195Y-130621411D01*
X149441195Y-130621412D01*
X150652528Y-132052988D01*
X150674653Y-132091038D01*
X150714222Y-132199057D01*
X150741312Y-132273012D01*
X150749000Y-132316351D01*
X150749000Y-132749810D01*
X150728998Y-132817931D01*
X150712095Y-132838905D01*
X150658905Y-132892095D01*
X150596593Y-132926121D01*
X150569810Y-132929000D01*
X149360051Y-132929000D01*
X149344018Y-132927976D01*
X149110096Y-132897966D01*
X149094324Y-132894910D01*
X147663511Y-132521655D01*
X146468496Y-132209912D01*
X146407632Y-132173363D01*
X146400595Y-132165027D01*
X146330292Y-132074031D01*
X146304472Y-132007896D01*
X146304000Y-131996997D01*
X146304000Y-129298190D01*
X146324002Y-129230069D01*
X146340905Y-129209095D01*
X146394095Y-129155905D01*
X146456407Y-129121879D01*
X146483190Y-129119000D01*
X149172810Y-129119000D01*
X149240931Y-129139002D01*
G37*
G04 #@! TD.AperFunction*
G04 #@! TA.AperFunction,Conductor*
G36*
X115839931Y-121940002D02*
G01*
X115860905Y-121956905D01*
X115914095Y-122010095D01*
X115948121Y-122072407D01*
X115951000Y-122099190D01*
X115951000Y-135329810D01*
X115930998Y-135397931D01*
X115914095Y-135418905D01*
X115860905Y-135472095D01*
X115798593Y-135506121D01*
X115771810Y-135509000D01*
X112903000Y-135509000D01*
X112268000Y-136144000D01*
X112268000Y-140182937D01*
X112258409Y-140231155D01*
X112187788Y-140401649D01*
X112160474Y-140442526D01*
X111740526Y-140862474D01*
X111699650Y-140889787D01*
X111554289Y-140949998D01*
X111529155Y-140960409D01*
X111480937Y-140970000D01*
X110542190Y-140970000D01*
X110474069Y-140949998D01*
X110453095Y-140933095D01*
X110399905Y-140879905D01*
X110365879Y-140817593D01*
X110363000Y-140790810D01*
X110363000Y-131572000D01*
X109739052Y-131068042D01*
X107168142Y-128991537D01*
X107168139Y-128991535D01*
X107061000Y-128905000D01*
X98577063Y-128905000D01*
X98528845Y-128895409D01*
X98358350Y-128824787D01*
X98317474Y-128797474D01*
X97897526Y-128377526D01*
X97870212Y-128336649D01*
X97799591Y-128166155D01*
X97790000Y-128117937D01*
X97790000Y-122099190D01*
X97810002Y-122031069D01*
X97826905Y-122010095D01*
X97880095Y-121956905D01*
X97942407Y-121922879D01*
X97969190Y-121920000D01*
X115771810Y-121920000D01*
X115839931Y-121940002D01*
G37*
G04 #@! TD.AperFunction*
G04 #@! TA.AperFunction,Conductor*
G36*
X106299000Y-135763000D02*
G01*
X109855000Y-135763000D01*
X109855000Y-140970000D01*
X108712000Y-140970000D01*
X103124000Y-137287000D01*
X103124000Y-136017000D01*
X103251000Y-134874000D01*
X103251000Y-134239000D01*
X104775000Y-134239000D01*
X106299000Y-135763000D01*
G37*
G04 #@! TD.AperFunction*
G04 #@! TA.AperFunction,Conductor*
G36*
X82169000Y-135763000D02*
G01*
X85725000Y-135763000D01*
X85725000Y-140970000D01*
X84582000Y-140970000D01*
X78994000Y-137287000D01*
X78994000Y-136017000D01*
X79121000Y-134874000D01*
X79121000Y-134239000D01*
X80645000Y-134239000D01*
X82169000Y-135763000D01*
G37*
G04 #@! TD.AperFunction*
G04 #@! TA.AperFunction,Conductor*
G36*
X106827249Y-129166103D02*
G01*
X107012924Y-129231234D01*
X107049925Y-129251740D01*
X109987414Y-131601731D01*
X110022266Y-131645538D01*
X110096564Y-131800125D01*
X110109000Y-131854707D01*
X110109000Y-135329810D01*
X110088998Y-135397931D01*
X110072095Y-135418905D01*
X110018905Y-135472095D01*
X109956593Y-135506121D01*
X109929810Y-135509000D01*
X106578063Y-135509000D01*
X106529845Y-135499409D01*
X106359350Y-135428787D01*
X106318474Y-135401474D01*
X104902000Y-133985000D01*
X103430190Y-133985000D01*
X103362069Y-133964998D01*
X103341095Y-133948095D01*
X103287905Y-133894905D01*
X103253879Y-133832593D01*
X103251000Y-133805810D01*
X103251000Y-133402190D01*
X103271002Y-133334069D01*
X103287905Y-133313095D01*
X103341095Y-133259905D01*
X103403407Y-133225879D01*
X103430190Y-133223000D01*
X104902000Y-133223000D01*
X105537000Y-132588000D01*
X105537000Y-129338190D01*
X105557002Y-129270069D01*
X105573905Y-129249095D01*
X105627095Y-129195905D01*
X105689407Y-129161879D01*
X105716190Y-129159000D01*
X106785542Y-129159000D01*
X106827249Y-129166103D01*
G37*
G04 #@! TD.AperFunction*
G04 #@! TA.AperFunction,Conductor*
G36*
X126634931Y-136037002D02*
G01*
X126655905Y-136053905D01*
X126709095Y-136107095D01*
X126743121Y-136169407D01*
X126746000Y-136196190D01*
X126746000Y-136997206D01*
X126727182Y-137063448D01*
X126654725Y-137180687D01*
X126601898Y-137228118D01*
X126576496Y-137237073D01*
X126379280Y-137283629D01*
X126350331Y-137287000D01*
X123750190Y-137287000D01*
X123682069Y-137266998D01*
X123661095Y-137250095D01*
X123607905Y-137196905D01*
X123573879Y-137134593D01*
X123571000Y-137107810D01*
X123571000Y-136196190D01*
X123591002Y-136128069D01*
X123607905Y-136107095D01*
X123661095Y-136053905D01*
X123723407Y-136019879D01*
X123750190Y-136017000D01*
X126566810Y-136017000D01*
X126634931Y-136037002D01*
G37*
G04 #@! TD.AperFunction*
G04 #@! TA.AperFunction,Conductor*
G36*
X125110931Y-129179002D02*
G01*
X125131905Y-129195905D01*
X125185095Y-129249095D01*
X125219121Y-129311407D01*
X125222000Y-129338190D01*
X125222000Y-130556000D01*
X125304035Y-130652950D01*
X125311195Y-130661411D01*
X125311195Y-130661412D01*
X126522528Y-132092988D01*
X126544653Y-132131038D01*
X126584222Y-132239057D01*
X126611312Y-132313012D01*
X126619000Y-132356351D01*
X126619000Y-132789810D01*
X126598998Y-132857931D01*
X126582095Y-132878905D01*
X126528905Y-132932095D01*
X126466593Y-132966121D01*
X126439810Y-132969000D01*
X125230051Y-132969000D01*
X125214018Y-132967976D01*
X124980096Y-132937966D01*
X124964324Y-132934910D01*
X123533511Y-132561655D01*
X122338496Y-132249912D01*
X122277632Y-132213363D01*
X122270595Y-132205027D01*
X122200292Y-132114031D01*
X122174472Y-132047896D01*
X122174000Y-132036997D01*
X122174000Y-129338190D01*
X122194002Y-129270069D01*
X122210905Y-129249095D01*
X122264095Y-129195905D01*
X122326407Y-129161879D01*
X122353190Y-129159000D01*
X125042810Y-129159000D01*
X125110931Y-129179002D01*
G37*
G04 #@! TD.AperFunction*
G04 #@! TA.AperFunction,Conductor*
G36*
X67833931Y-126385002D02*
G01*
X67854905Y-126401905D01*
X67908095Y-126455095D01*
X67942121Y-126517407D01*
X67945000Y-126544190D01*
X67945000Y-139901810D01*
X67924998Y-139969931D01*
X67908095Y-139990905D01*
X67854905Y-140044095D01*
X67792593Y-140078121D01*
X67765810Y-140081000D01*
X61774190Y-140081000D01*
X61706069Y-140060998D01*
X61685095Y-140044095D01*
X61631905Y-139990905D01*
X61597879Y-139928593D01*
X61595000Y-139901810D01*
X61595000Y-126544190D01*
X61615002Y-126476069D01*
X61631905Y-126455095D01*
X61685095Y-126401905D01*
X61747407Y-126367879D01*
X61774190Y-126365000D01*
X67765810Y-126365000D01*
X67833931Y-126385002D01*
G37*
G04 #@! TD.AperFunction*
G04 #@! TA.AperFunction,Conductor*
G36*
X102504931Y-136037002D02*
G01*
X102525905Y-136053905D01*
X102579095Y-136107095D01*
X102613121Y-136169407D01*
X102616000Y-136196190D01*
X102616000Y-136997206D01*
X102597182Y-137063448D01*
X102524725Y-137180687D01*
X102471898Y-137228118D01*
X102446496Y-137237073D01*
X102249280Y-137283629D01*
X102220331Y-137287000D01*
X99620190Y-137287000D01*
X99552069Y-137266998D01*
X99531095Y-137250095D01*
X99477905Y-137196905D01*
X99443879Y-137134593D01*
X99441000Y-137107810D01*
X99441000Y-136196190D01*
X99461002Y-136128069D01*
X99477905Y-136107095D01*
X99531095Y-136053905D01*
X99593407Y-136019879D01*
X99620190Y-136017000D01*
X102436810Y-136017000D01*
X102504931Y-136037002D01*
G37*
G04 #@! TD.AperFunction*
G04 #@! TA.AperFunction,Conductor*
G36*
X150764931Y-135997002D02*
G01*
X150785905Y-136013905D01*
X150839095Y-136067095D01*
X150873121Y-136129407D01*
X150876000Y-136156190D01*
X150876000Y-136957206D01*
X150857182Y-137023448D01*
X150784725Y-137140687D01*
X150731898Y-137188118D01*
X150706496Y-137197073D01*
X150509280Y-137243629D01*
X150480331Y-137247000D01*
X147880190Y-137247000D01*
X147812069Y-137226998D01*
X147791095Y-137210095D01*
X147737905Y-137156905D01*
X147703879Y-137094593D01*
X147701000Y-137067810D01*
X147701000Y-136156190D01*
X147721002Y-136088069D01*
X147737905Y-136067095D01*
X147791095Y-136013905D01*
X147853407Y-135979879D01*
X147880190Y-135977000D01*
X150696810Y-135977000D01*
X150764931Y-135997002D01*
G37*
G04 #@! TD.AperFunction*
G04 #@! TA.AperFunction,Conductor*
G36*
X105171931Y-129179002D02*
G01*
X105192905Y-129195905D01*
X105246095Y-129249095D01*
X105280121Y-129311407D01*
X105283000Y-129338190D01*
X105283000Y-132308937D01*
X105273409Y-132357155D01*
X105202788Y-132527649D01*
X105175474Y-132568526D01*
X104882526Y-132861474D01*
X104841650Y-132888787D01*
X104696289Y-132948998D01*
X104671155Y-132959409D01*
X104622937Y-132969000D01*
X103430190Y-132969000D01*
X103362069Y-132948998D01*
X103341095Y-132932095D01*
X103287905Y-132878905D01*
X103253879Y-132816593D01*
X103251000Y-132789810D01*
X103251000Y-129338190D01*
X103271002Y-129270069D01*
X103287905Y-129249095D01*
X103341095Y-129195905D01*
X103403407Y-129161879D01*
X103430190Y-129159000D01*
X105103810Y-129159000D01*
X105171931Y-129179002D01*
G37*
G04 #@! TD.AperFunction*
G04 #@! TA.AperFunction,Conductor*
G36*
X129301931Y-129179002D02*
G01*
X129322905Y-129195905D01*
X129376095Y-129249095D01*
X129410121Y-129311407D01*
X129413000Y-129338190D01*
X129413000Y-132308937D01*
X129403409Y-132357155D01*
X129332788Y-132527649D01*
X129305474Y-132568526D01*
X129012526Y-132861474D01*
X128971650Y-132888787D01*
X128826289Y-132948998D01*
X128801155Y-132959409D01*
X128752937Y-132969000D01*
X127560190Y-132969000D01*
X127492069Y-132948998D01*
X127471095Y-132932095D01*
X127417905Y-132878905D01*
X127383879Y-132816593D01*
X127381000Y-132789810D01*
X127381000Y-129338190D01*
X127401002Y-129270069D01*
X127417905Y-129249095D01*
X127471095Y-129195905D01*
X127533407Y-129161879D01*
X127560190Y-129159000D01*
X129233810Y-129159000D01*
X129301931Y-129179002D01*
G37*
G04 #@! TD.AperFunction*
G04 #@! TA.AperFunction,Conductor*
G36*
X164099931Y-121900002D02*
G01*
X164120905Y-121916905D01*
X164174095Y-121970095D01*
X164208121Y-122032407D01*
X164211000Y-122059190D01*
X164211000Y-135289810D01*
X164190998Y-135357931D01*
X164174095Y-135378905D01*
X164120905Y-135432095D01*
X164058593Y-135466121D01*
X164031810Y-135469000D01*
X161163000Y-135469000D01*
X160528000Y-136104000D01*
X160528000Y-140142937D01*
X160518409Y-140191155D01*
X160447788Y-140361649D01*
X160420474Y-140402526D01*
X160000526Y-140822474D01*
X159959650Y-140849787D01*
X159814289Y-140909998D01*
X159789155Y-140920409D01*
X159740937Y-140930000D01*
X158802190Y-140930000D01*
X158734069Y-140909998D01*
X158713095Y-140893095D01*
X158659905Y-140839905D01*
X158625879Y-140777593D01*
X158623000Y-140750810D01*
X158623000Y-131532000D01*
X157999052Y-131028042D01*
X155428142Y-128951537D01*
X155428139Y-128951535D01*
X155321000Y-128865000D01*
X146837063Y-128865000D01*
X146788845Y-128855409D01*
X146618350Y-128784787D01*
X146577474Y-128757474D01*
X146157526Y-128337526D01*
X146130212Y-128296649D01*
X146059591Y-128126155D01*
X146050000Y-128077937D01*
X146050000Y-122059190D01*
X146070002Y-121991069D01*
X146086905Y-121970095D01*
X146140095Y-121916905D01*
X146202407Y-121882879D01*
X146229190Y-121880000D01*
X164031810Y-121880000D01*
X164099931Y-121900002D01*
G37*
G04 #@! TD.AperFunction*
G04 #@! TA.AperFunction,Conductor*
G36*
X171430612Y-117045750D02*
G01*
X171435806Y-117045759D01*
X171449635Y-117048939D01*
X171463476Y-117045807D01*
X171477661Y-117045832D01*
X171477660Y-117046136D01*
X171485926Y-117045412D01*
X171648406Y-117053151D01*
X171847177Y-117062620D01*
X171859094Y-117063758D01*
X172136697Y-117103671D01*
X172246730Y-117119492D01*
X172258503Y-117121761D01*
X172639074Y-117214086D01*
X172650579Y-117217464D01*
X172929390Y-117313961D01*
X173020662Y-117345551D01*
X173031780Y-117350001D01*
X173388026Y-117512693D01*
X173398672Y-117518182D01*
X173568248Y-117616087D01*
X173737818Y-117713988D01*
X173747905Y-117720471D01*
X174066910Y-117947634D01*
X174076335Y-117955045D01*
X174372298Y-118211498D01*
X174380976Y-118219773D01*
X174651215Y-118503191D01*
X174659068Y-118512253D01*
X174901151Y-118820087D01*
X174908104Y-118829851D01*
X175119838Y-119159315D01*
X175125823Y-119169682D01*
X175251665Y-119413783D01*
X175305272Y-119517766D01*
X175310253Y-119528673D01*
X175455800Y-119892232D01*
X175459722Y-119903563D01*
X175570052Y-120279315D01*
X175572879Y-120290967D01*
X175646995Y-120675511D01*
X175648701Y-120687380D01*
X175685925Y-121077211D01*
X175686496Y-121089188D01*
X175686496Y-121480812D01*
X175685925Y-121492789D01*
X175648701Y-121882620D01*
X175646995Y-121894489D01*
X175572879Y-122279033D01*
X175570052Y-122290685D01*
X175459722Y-122666437D01*
X175455800Y-122677768D01*
X175310253Y-123041327D01*
X175305272Y-123052234D01*
X175125823Y-123400318D01*
X175119838Y-123410685D01*
X175068805Y-123490094D01*
X174908106Y-123740146D01*
X174901151Y-123749913D01*
X174659068Y-124057747D01*
X174651215Y-124066809D01*
X174380976Y-124350227D01*
X174372298Y-124358502D01*
X174076335Y-124614955D01*
X174066910Y-124622366D01*
X173747905Y-124849529D01*
X173737818Y-124856012D01*
X173568248Y-124953913D01*
X173398672Y-125051818D01*
X173388026Y-125057307D01*
X173031780Y-125219999D01*
X173020662Y-125224449D01*
X172929390Y-125256039D01*
X172650579Y-125352536D01*
X172639074Y-125355914D01*
X172258503Y-125448239D01*
X172246747Y-125450506D01*
X171859094Y-125506242D01*
X171847168Y-125507380D01*
X171486793Y-125524548D01*
X171464969Y-125522578D01*
X171464863Y-125523501D01*
X171457732Y-125522685D01*
X171450729Y-125521062D01*
X171450367Y-125521062D01*
X171450365Y-125521061D01*
X171450000Y-125521061D01*
X171445046Y-125522191D01*
X171443513Y-125522313D01*
X171442625Y-125522354D01*
X171082158Y-125539019D01*
X171082151Y-125539020D01*
X171079267Y-125539153D01*
X171076399Y-125539553D01*
X171076400Y-125539553D01*
X170714585Y-125590024D01*
X170714582Y-125590025D01*
X170711697Y-125590427D01*
X170513755Y-125636982D01*
X170353265Y-125674729D01*
X170353259Y-125674731D01*
X170350426Y-125675397D01*
X169998536Y-125793339D01*
X169659029Y-125943246D01*
X169656476Y-125944668D01*
X169656472Y-125944670D01*
X169397375Y-126088986D01*
X169334802Y-126123839D01*
X169028622Y-126333577D01*
X169026396Y-126335425D01*
X169026386Y-126335433D01*
X168745336Y-126568815D01*
X168743100Y-126570672D01*
X168480672Y-126833100D01*
X168478818Y-126835333D01*
X168478815Y-126835336D01*
X168245433Y-127116386D01*
X168245425Y-127116396D01*
X168243577Y-127118622D01*
X168033839Y-127424802D01*
X167853246Y-127749029D01*
X167703339Y-128088536D01*
X167585397Y-128440426D01*
X167500427Y-128801697D01*
X167500025Y-128804582D01*
X167500024Y-128804585D01*
X167484044Y-128919145D01*
X167449153Y-129169267D01*
X167449020Y-129172151D01*
X167449019Y-129172158D01*
X167442375Y-129315885D01*
X167432274Y-129534361D01*
X167431061Y-129539635D01*
X167434193Y-129553476D01*
X167434185Y-129557938D01*
X167436300Y-129576865D01*
X167436300Y-139662553D01*
X167434250Y-139680615D01*
X167434241Y-139685807D01*
X167431061Y-139699635D01*
X167432236Y-139704829D01*
X167432739Y-139715716D01*
X167432739Y-139715717D01*
X167448355Y-140053478D01*
X167449153Y-140070733D01*
X167449553Y-140073599D01*
X167449553Y-140073600D01*
X167495580Y-140403553D01*
X167500427Y-140438303D01*
X167529257Y-140560879D01*
X167583336Y-140790810D01*
X167585397Y-140799574D01*
X167703339Y-141151464D01*
X167853246Y-141490971D01*
X167854668Y-141493524D01*
X167854670Y-141493528D01*
X167962433Y-141687000D01*
X168033839Y-141815198D01*
X168243577Y-142121378D01*
X168245425Y-142123604D01*
X168245433Y-142123614D01*
X168478815Y-142404664D01*
X168480672Y-142406900D01*
X168743100Y-142669328D01*
X168745333Y-142671182D01*
X168745336Y-142671185D01*
X169026386Y-142904567D01*
X169026396Y-142904575D01*
X169028622Y-142906423D01*
X169334802Y-143116161D01*
X169337355Y-143117583D01*
X169551761Y-143237006D01*
X169659029Y-143296754D01*
X169998536Y-143446661D01*
X170350426Y-143564603D01*
X170353259Y-143565269D01*
X170353265Y-143565271D01*
X170443135Y-143586408D01*
X170711697Y-143649573D01*
X170714582Y-143649975D01*
X170714585Y-143649976D01*
X170956602Y-143683736D01*
X171079267Y-143700847D01*
X171082151Y-143700980D01*
X171082158Y-143700981D01*
X171442623Y-143717646D01*
X171444265Y-143717778D01*
X171449271Y-143718938D01*
X171449633Y-143718938D01*
X171449635Y-143718939D01*
X171450000Y-143718939D01*
X171456900Y-143717365D01*
X171463923Y-143716574D01*
X171464015Y-143717391D01*
X171486214Y-143715425D01*
X171847177Y-143732620D01*
X171859094Y-143733758D01*
X172136697Y-143773671D01*
X172246730Y-143789492D01*
X172258503Y-143791761D01*
X172639074Y-143884086D01*
X172650579Y-143887464D01*
X172929390Y-143983961D01*
X173020662Y-144015551D01*
X173031780Y-144020001D01*
X173388026Y-144182693D01*
X173398672Y-144188182D01*
X173568248Y-144286086D01*
X173737818Y-144383988D01*
X173747905Y-144390471D01*
X174066910Y-144617634D01*
X174076335Y-144625045D01*
X174372298Y-144881498D01*
X174380976Y-144889773D01*
X174651215Y-145173191D01*
X174659068Y-145182253D01*
X174878513Y-145461300D01*
X174901151Y-145490087D01*
X174908104Y-145499851D01*
X175119838Y-145829315D01*
X175125823Y-145839682D01*
X175195682Y-145975190D01*
X175305272Y-146187766D01*
X175310253Y-146198673D01*
X175455800Y-146562232D01*
X175459722Y-146573563D01*
X175570052Y-146949315D01*
X175572879Y-146960967D01*
X175646995Y-147345511D01*
X175648701Y-147357380D01*
X175685925Y-147747211D01*
X175686496Y-147759188D01*
X175686496Y-148150812D01*
X175685925Y-148162789D01*
X175648701Y-148552620D01*
X175646995Y-148564489D01*
X175572879Y-148949033D01*
X175570052Y-148960685D01*
X175459722Y-149336437D01*
X175455800Y-149347768D01*
X175310253Y-149711327D01*
X175305272Y-149722234D01*
X175273483Y-149783897D01*
X175125823Y-150070318D01*
X175119838Y-150080685D01*
X174979421Y-150299178D01*
X174908106Y-150410146D01*
X174901151Y-150419913D01*
X174659068Y-150727747D01*
X174651215Y-150736809D01*
X174380976Y-151020227D01*
X174372298Y-151028502D01*
X174076335Y-151284955D01*
X174066910Y-151292366D01*
X173747905Y-151519529D01*
X173737818Y-151526012D01*
X173568248Y-151623913D01*
X173398672Y-151721818D01*
X173388026Y-151727307D01*
X173031780Y-151889999D01*
X173020662Y-151894449D01*
X172929390Y-151926039D01*
X172650579Y-152022536D01*
X172639074Y-152025914D01*
X172258503Y-152118239D01*
X172246730Y-152120508D01*
X172136697Y-152136329D01*
X171859094Y-152176242D01*
X171847177Y-152177380D01*
X171663624Y-152186124D01*
X171486506Y-152194561D01*
X171478385Y-152193836D01*
X171478384Y-152194266D01*
X171464194Y-152194241D01*
X171450365Y-152191061D01*
X171436524Y-152194193D01*
X171432064Y-152194185D01*
X171413135Y-152196300D01*
X54647447Y-152196300D01*
X54629388Y-152194250D01*
X54624194Y-152194241D01*
X54610365Y-152191061D01*
X54596524Y-152194193D01*
X54582339Y-152194168D01*
X54582340Y-152193864D01*
X54574074Y-152194588D01*
X54411594Y-152186849D01*
X54212823Y-152177380D01*
X54200906Y-152176242D01*
X53923303Y-152136329D01*
X53813270Y-152120508D01*
X53801497Y-152118239D01*
X53420926Y-152025914D01*
X53409421Y-152022536D01*
X53130610Y-151926039D01*
X53039338Y-151894449D01*
X53028220Y-151889999D01*
X52671974Y-151727307D01*
X52661328Y-151721818D01*
X52491752Y-151623913D01*
X52322182Y-151526012D01*
X52312095Y-151519529D01*
X51993090Y-151292366D01*
X51983665Y-151284955D01*
X51891048Y-151204702D01*
X60243300Y-151204702D01*
X60244512Y-151227165D01*
X60247431Y-151254128D01*
X60271893Y-151331950D01*
X60306008Y-151394212D01*
X60341676Y-151441715D01*
X60394608Y-151494493D01*
X60411368Y-151509493D01*
X60432522Y-151526464D01*
X60438025Y-151529325D01*
X60438027Y-151529326D01*
X60499401Y-151561231D01*
X60499403Y-151561232D01*
X60504907Y-151564093D01*
X60510865Y-151565823D01*
X60510866Y-151565824D01*
X60528355Y-151570904D01*
X60573085Y-151583896D01*
X60577539Y-151584523D01*
X60577543Y-151584524D01*
X60597401Y-151587320D01*
X60631905Y-151592178D01*
X60636412Y-151592165D01*
X60636414Y-151592165D01*
X147673562Y-151339150D01*
X147673563Y-151339150D01*
X147676640Y-151339141D01*
X147703319Y-151336445D01*
X147714128Y-151335353D01*
X147714132Y-151335352D01*
X147717194Y-151335043D01*
X147765211Y-151325383D01*
X147773500Y-151322852D01*
X147801250Y-151314379D01*
X147801258Y-151314376D01*
X147804196Y-151313479D01*
X147807036Y-151312298D01*
X147972047Y-151243667D01*
X147972051Y-151243665D01*
X147974898Y-151242481D01*
X148010827Y-151223226D01*
X148051534Y-151195983D01*
X148053912Y-151194030D01*
X148053920Y-151194024D01*
X148080648Y-151172072D01*
X148080649Y-151172072D01*
X148083032Y-151170114D01*
X148884047Y-150369099D01*
X148910000Y-150337476D01*
X148937314Y-150296599D01*
X148956602Y-150260515D01*
X148957784Y-150257662D01*
X148957788Y-150257653D01*
X149026042Y-150092872D01*
X149027223Y-150090021D01*
X149039099Y-150050870D01*
X149048690Y-150002652D01*
X149052700Y-149961937D01*
X149052700Y-148202450D01*
X149072702Y-148134329D01*
X149126358Y-148087836D01*
X149178700Y-148076450D01*
X150092293Y-148076450D01*
X150160414Y-148096452D01*
X150206907Y-148150108D01*
X150211168Y-148160681D01*
X150222178Y-148192033D01*
X150301000Y-148298750D01*
X150308571Y-148304342D01*
X150400140Y-148371976D01*
X150400142Y-148371977D01*
X150407717Y-148377572D01*
X150532893Y-148421531D01*
X150540535Y-148422253D01*
X150540538Y-148422254D01*
X150554787Y-148423600D01*
X150563774Y-148424450D01*
X151244226Y-148424450D01*
X151253213Y-148423600D01*
X151267462Y-148422254D01*
X151267465Y-148422253D01*
X151275107Y-148421531D01*
X151400283Y-148377572D01*
X151407858Y-148371977D01*
X151407860Y-148371976D01*
X151499429Y-148304342D01*
X151507000Y-148298750D01*
X151585822Y-148192033D01*
X151629781Y-148066857D01*
X151632700Y-148035976D01*
X151925300Y-148035976D01*
X151928219Y-148066857D01*
X151972178Y-148192033D01*
X152051000Y-148298750D01*
X152058571Y-148304342D01*
X152150140Y-148371976D01*
X152150142Y-148371977D01*
X152157717Y-148377572D01*
X152166607Y-148380694D01*
X152239049Y-148406134D01*
X152296694Y-148447577D01*
X152322782Y-148513607D01*
X152323300Y-148525016D01*
X152323300Y-148643822D01*
X152303298Y-148711943D01*
X152249642Y-148758436D01*
X152242653Y-148761252D01*
X152241606Y-148761806D01*
X152232717Y-148764928D01*
X152225142Y-148770523D01*
X152225140Y-148770524D01*
X152133571Y-148838158D01*
X152126000Y-148843750D01*
X152047178Y-148950467D01*
X152003219Y-149075643D01*
X152000300Y-149106524D01*
X152000300Y-149686976D01*
X152003219Y-149717857D01*
X152047178Y-149843033D01*
X152126000Y-149949750D01*
X152133571Y-149955342D01*
X152225140Y-150022976D01*
X152225142Y-150022977D01*
X152232717Y-150028572D01*
X152357893Y-150072531D01*
X152365535Y-150073253D01*
X152365538Y-150073254D01*
X152379787Y-150074600D01*
X152388774Y-150075450D01*
X152994226Y-150075450D01*
X153003213Y-150074600D01*
X153017462Y-150073254D01*
X153017465Y-150073253D01*
X153025107Y-150072531D01*
X153150283Y-150028572D01*
X153157858Y-150022977D01*
X153157860Y-150022976D01*
X153249429Y-149955342D01*
X153257000Y-149949750D01*
X153335822Y-149843033D01*
X153379781Y-149717857D01*
X153382700Y-149686976D01*
X153382700Y-149106524D01*
X153379781Y-149075643D01*
X153335822Y-148950467D01*
X153257000Y-148843750D01*
X153249429Y-148838158D01*
X153157860Y-148770524D01*
X153157858Y-148770523D01*
X153150283Y-148764928D01*
X153068951Y-148736366D01*
X153011306Y-148694923D01*
X152985218Y-148628893D01*
X152984700Y-148617484D01*
X152984700Y-148525016D01*
X153004702Y-148456895D01*
X153058358Y-148410402D01*
X153068951Y-148406134D01*
X153141393Y-148380694D01*
X153150283Y-148377572D01*
X153157858Y-148371977D01*
X153157860Y-148371976D01*
X153249429Y-148304342D01*
X153257000Y-148298750D01*
X153335822Y-148192033D01*
X153379781Y-148066857D01*
X153382700Y-148035976D01*
X153382700Y-147455524D01*
X153379781Y-147424643D01*
X153335822Y-147299467D01*
X153257000Y-147192750D01*
X153249429Y-147187158D01*
X153157860Y-147119524D01*
X153157858Y-147119523D01*
X153150283Y-147113928D01*
X153025107Y-147069969D01*
X153017465Y-147069247D01*
X153017462Y-147069246D01*
X153003213Y-147067900D01*
X152994226Y-147067050D01*
X152313774Y-147067050D01*
X152304787Y-147067900D01*
X152290538Y-147069246D01*
X152290535Y-147069247D01*
X152282893Y-147069969D01*
X152157717Y-147113928D01*
X152150142Y-147119523D01*
X152150140Y-147119524D01*
X152058571Y-147187158D01*
X152051000Y-147192750D01*
X151972178Y-147299467D01*
X151928219Y-147424643D01*
X151925300Y-147455524D01*
X151925300Y-148035976D01*
X151632700Y-148035976D01*
X151632700Y-147455524D01*
X151629781Y-147424643D01*
X151585822Y-147299467D01*
X151507000Y-147192750D01*
X151499429Y-147187158D01*
X151407860Y-147119524D01*
X151407858Y-147119523D01*
X151400283Y-147113928D01*
X151275107Y-147069969D01*
X151267465Y-147069247D01*
X151267462Y-147069246D01*
X151253213Y-147067900D01*
X151244226Y-147067050D01*
X150563774Y-147067050D01*
X150554787Y-147067900D01*
X150540538Y-147069246D01*
X150540535Y-147069247D01*
X150532893Y-147069969D01*
X150407717Y-147113928D01*
X150400142Y-147119523D01*
X150400140Y-147119524D01*
X150308571Y-147187158D01*
X150301000Y-147192750D01*
X150222178Y-147299467D01*
X150211174Y-147330802D01*
X150169732Y-147388444D01*
X150103703Y-147414532D01*
X150092293Y-147415050D01*
X149178700Y-147415050D01*
X149110579Y-147395048D01*
X149064086Y-147341392D01*
X149052700Y-147289050D01*
X149052700Y-145975190D01*
X149051505Y-145952885D01*
X149048626Y-145926102D01*
X149049181Y-145926042D01*
X149047700Y-145911655D01*
X149047700Y-144435226D01*
X155241300Y-144435226D01*
X155241579Y-144438176D01*
X155242760Y-144450668D01*
X155244219Y-144466107D01*
X155288178Y-144591283D01*
X155293773Y-144598858D01*
X155293774Y-144598860D01*
X155313115Y-144625045D01*
X155367000Y-144698000D01*
X155374571Y-144703592D01*
X155466140Y-144771226D01*
X155466142Y-144771227D01*
X155473717Y-144776822D01*
X155598893Y-144820781D01*
X155606535Y-144821503D01*
X155606538Y-144821504D01*
X155620787Y-144822850D01*
X155629774Y-144823700D01*
X156235226Y-144823700D01*
X156244213Y-144822850D01*
X156258462Y-144821504D01*
X156258465Y-144821503D01*
X156266107Y-144820781D01*
X156391283Y-144776822D01*
X156398858Y-144771227D01*
X156398860Y-144771226D01*
X156490429Y-144703592D01*
X156498000Y-144698000D01*
X156551885Y-144625045D01*
X156571226Y-144598860D01*
X156571227Y-144598858D01*
X156576822Y-144591283D01*
X156620781Y-144466107D01*
X156622241Y-144450668D01*
X156623421Y-144438176D01*
X156623700Y-144435226D01*
X156623700Y-143854774D01*
X156620781Y-143823893D01*
X156582699Y-143715452D01*
X156579944Y-143707607D01*
X156576822Y-143698717D01*
X156498000Y-143592000D01*
X156459651Y-143563675D01*
X156398860Y-143518774D01*
X156398858Y-143518773D01*
X156391283Y-143513178D01*
X156382394Y-143510056D01*
X156374075Y-143505652D01*
X156375040Y-143503830D01*
X156327302Y-143469506D01*
X156301217Y-143403475D01*
X156300700Y-143392072D01*
X156300700Y-143019266D01*
X156320702Y-142951145D01*
X156374358Y-142904652D01*
X156384951Y-142900384D01*
X156457393Y-142874944D01*
X156466283Y-142871822D01*
X156473858Y-142866227D01*
X156473860Y-142866226D01*
X156565429Y-142798592D01*
X156573000Y-142793000D01*
X156651822Y-142686283D01*
X156695781Y-142561107D01*
X156697005Y-142548164D01*
X156698421Y-142533176D01*
X156698700Y-142530226D01*
X156698700Y-141949774D01*
X156697850Y-141940787D01*
X156696504Y-141926538D01*
X156696503Y-141926535D01*
X156695781Y-141918893D01*
X156651822Y-141793717D01*
X156639321Y-141776791D01*
X156578592Y-141694571D01*
X156573000Y-141687000D01*
X156565429Y-141681408D01*
X156473860Y-141613774D01*
X156473858Y-141613773D01*
X156466283Y-141608178D01*
X156341107Y-141564219D01*
X156333465Y-141563497D01*
X156333462Y-141563496D01*
X156319213Y-141562150D01*
X156310226Y-141561300D01*
X155629774Y-141561300D01*
X155620787Y-141562150D01*
X155606538Y-141563496D01*
X155606535Y-141563497D01*
X155598893Y-141564219D01*
X155473717Y-141608178D01*
X155466142Y-141613773D01*
X155466140Y-141613774D01*
X155374571Y-141681408D01*
X155367000Y-141687000D01*
X155361408Y-141694571D01*
X155300680Y-141776791D01*
X155288178Y-141793717D01*
X155244219Y-141918893D01*
X155243497Y-141926535D01*
X155243496Y-141926538D01*
X155242150Y-141940787D01*
X155241300Y-141949774D01*
X155241300Y-142530226D01*
X155241579Y-142533176D01*
X155242996Y-142548164D01*
X155244219Y-142561107D01*
X155288178Y-142686283D01*
X155367000Y-142793000D01*
X155374571Y-142798592D01*
X155466140Y-142866226D01*
X155466142Y-142866227D01*
X155473717Y-142871822D01*
X155482607Y-142874944D01*
X155555049Y-142900384D01*
X155612694Y-142941827D01*
X155638782Y-143007857D01*
X155639300Y-143019266D01*
X155639300Y-143365734D01*
X155619298Y-143433855D01*
X155565642Y-143480348D01*
X155555048Y-143484616D01*
X155473717Y-143513178D01*
X155466142Y-143518773D01*
X155466140Y-143518774D01*
X155405349Y-143563675D01*
X155367000Y-143592000D01*
X155288178Y-143698717D01*
X155285056Y-143707607D01*
X155282301Y-143715452D01*
X155244219Y-143823893D01*
X155241300Y-143854774D01*
X155241300Y-144435226D01*
X149047700Y-144435226D01*
X149047700Y-137581700D01*
X149067702Y-137513579D01*
X149121358Y-137467086D01*
X149173700Y-137455700D01*
X150480331Y-137455700D01*
X150482150Y-137455594D01*
X150482165Y-137455594D01*
X150493118Y-137454958D01*
X150504470Y-137454299D01*
X150506281Y-137454088D01*
X150506294Y-137454087D01*
X150521563Y-137452309D01*
X150533419Y-137450928D01*
X150557229Y-137446746D01*
X150559018Y-137446324D01*
X150559031Y-137446321D01*
X150662962Y-137421786D01*
X150754445Y-137400190D01*
X150756067Y-137399714D01*
X150756075Y-137399712D01*
X150774255Y-137394378D01*
X150774257Y-137394377D01*
X150775884Y-137393900D01*
X150801286Y-137384945D01*
X150810851Y-137379273D01*
X150866003Y-137346567D01*
X150866008Y-137346563D01*
X150871327Y-137343409D01*
X150876255Y-137338985D01*
X150920805Y-137298985D01*
X150920806Y-137298984D01*
X150924154Y-137295978D01*
X150962256Y-137250406D01*
X150964361Y-137247000D01*
X151384000Y-137247000D01*
X156972000Y-140930000D01*
X158115000Y-140930000D01*
X158115000Y-135723000D01*
X154559000Y-135723000D01*
X153035000Y-134199000D01*
X151511000Y-134199000D01*
X151511000Y-134834000D01*
X151384000Y-135977000D01*
X151384000Y-137247000D01*
X150964361Y-137247000D01*
X151034713Y-137133167D01*
X151038736Y-137124042D01*
X151046665Y-137106054D01*
X151057939Y-137080479D01*
X151076757Y-137014237D01*
X151084700Y-136957206D01*
X151084700Y-136156190D01*
X151084591Y-136154144D01*
X151083595Y-136135565D01*
X151083505Y-136133885D01*
X151080626Y-136107102D01*
X151056291Y-136029385D01*
X151053329Y-136023961D01*
X151053327Y-136023956D01*
X151024423Y-135971025D01*
X151022265Y-135967073D01*
X150986668Y-135919522D01*
X150933478Y-135866332D01*
X150930467Y-135863627D01*
X150918107Y-135852524D01*
X150918097Y-135852516D01*
X150916863Y-135851407D01*
X150895889Y-135834504D01*
X150848081Y-135809495D01*
X150829213Y-135799625D01*
X150829211Y-135799624D01*
X150823728Y-135796756D01*
X150817790Y-135795013D01*
X150817789Y-135795012D01*
X150799959Y-135789777D01*
X150755607Y-135776754D01*
X150751148Y-135776113D01*
X150751144Y-135776112D01*
X150720714Y-135771737D01*
X150696810Y-135768300D01*
X149284556Y-135768300D01*
X149216435Y-135748298D01*
X149169942Y-135694642D01*
X149159838Y-135624368D01*
X149189332Y-135559788D01*
X149246973Y-135522036D01*
X149269569Y-135514975D01*
X149602964Y-135410789D01*
X150650089Y-135083563D01*
X150650153Y-135083542D01*
X150650580Y-135083409D01*
X150652272Y-135082851D01*
X150656397Y-135081491D01*
X150656404Y-135081489D01*
X150656785Y-135081363D01*
X150664253Y-135078770D01*
X150722306Y-135047602D01*
X150778772Y-135004566D01*
X150786144Y-134997066D01*
X150817258Y-134965409D01*
X150820412Y-134962200D01*
X150892680Y-134863901D01*
X150896476Y-134858565D01*
X150900942Y-134852073D01*
X150929244Y-134792586D01*
X150949246Y-134724465D01*
X150957700Y-134665668D01*
X150957700Y-134378190D01*
X150956897Y-134363192D01*
X150956595Y-134357565D01*
X150956505Y-134355885D01*
X150953626Y-134329102D01*
X150939664Y-134284514D01*
X150931140Y-134257289D01*
X150931139Y-134257286D01*
X150929291Y-134251385D01*
X150926329Y-134245961D01*
X150926327Y-134245956D01*
X150897423Y-134193025D01*
X150895265Y-134189073D01*
X150868304Y-134153058D01*
X150862373Y-134145135D01*
X150862371Y-134145133D01*
X150859668Y-134141522D01*
X150806478Y-134088332D01*
X150806993Y-134087817D01*
X150772684Y-134028818D01*
X150775841Y-133957892D01*
X150791237Y-133927942D01*
X150796934Y-133922235D01*
X150848646Y-133816445D01*
X150850058Y-133806768D01*
X150858040Y-133752054D01*
X150858040Y-133752048D01*
X150858700Y-133747527D01*
X150858699Y-133380474D01*
X150848467Y-133310955D01*
X150796571Y-133205256D01*
X150791845Y-133200539D01*
X150769172Y-133135562D01*
X150785735Y-133066525D01*
X150807224Y-133040414D01*
X150806478Y-133039668D01*
X150859668Y-132986478D01*
X150874593Y-132969863D01*
X150891496Y-132948889D01*
X150929244Y-132876728D01*
X150949246Y-132808607D01*
X150951528Y-132792740D01*
X150953473Y-132779208D01*
X150957700Y-132749810D01*
X150957700Y-132316351D01*
X150954492Y-132279898D01*
X150946804Y-132236559D01*
X150937278Y-132201228D01*
X150880426Y-132046027D01*
X150871573Y-132021858D01*
X150871572Y-132021855D01*
X150870619Y-132019254D01*
X150855070Y-131986131D01*
X150853680Y-131983740D01*
X150853675Y-131983731D01*
X150834342Y-131950484D01*
X150832945Y-131948081D01*
X150811847Y-131918180D01*
X149590513Y-130474784D01*
X149561781Y-130409862D01*
X149560700Y-130393396D01*
X149560700Y-129298190D01*
X149559505Y-129275885D01*
X149558821Y-129269517D01*
X149557288Y-129255260D01*
X149557288Y-129255259D01*
X149556626Y-129249102D01*
X149552947Y-129237352D01*
X149551677Y-129166370D01*
X149588986Y-129105967D01*
X149653029Y-129075323D01*
X149673189Y-129073700D01*
X151191090Y-129073700D01*
X151259211Y-129093702D01*
X151305704Y-129147358D01*
X151315808Y-129217632D01*
X151312970Y-129230675D01*
X151312979Y-129230677D01*
X151312024Y-129235069D01*
X151310754Y-129239393D01*
X151310113Y-129243852D01*
X151310112Y-129243856D01*
X151306527Y-129268791D01*
X151302300Y-129298190D01*
X151302300Y-132749810D01*
X151303495Y-132772115D01*
X151306374Y-132798898D01*
X151330709Y-132876615D01*
X151333671Y-132882039D01*
X151333673Y-132882044D01*
X151349327Y-132910711D01*
X151364735Y-132938927D01*
X151395137Y-132979538D01*
X151419947Y-133046056D01*
X151404856Y-133115431D01*
X151388004Y-133139246D01*
X151385407Y-133142137D01*
X151384356Y-133143441D01*
X151384351Y-133143447D01*
X151379642Y-133149291D01*
X151368504Y-133163111D01*
X151330756Y-133235272D01*
X151329013Y-133241210D01*
X151329012Y-133241211D01*
X151328606Y-133242595D01*
X151310754Y-133303393D01*
X151310113Y-133307852D01*
X151310112Y-133307856D01*
X151307672Y-133324826D01*
X151302300Y-133362190D01*
X151302300Y-133765810D01*
X151303495Y-133788115D01*
X151306374Y-133814898D01*
X151330709Y-133892615D01*
X151333671Y-133898039D01*
X151333673Y-133898044D01*
X151346883Y-133922235D01*
X151364735Y-133954927D01*
X151400332Y-134002478D01*
X151453522Y-134055668D01*
X151454779Y-134056797D01*
X151454782Y-134056800D01*
X151468893Y-134069476D01*
X151468903Y-134069484D01*
X151470137Y-134070593D01*
X151491111Y-134087496D01*
X151563272Y-134125244D01*
X151569210Y-134126987D01*
X151569211Y-134126988D01*
X151580719Y-134130367D01*
X151631393Y-134145246D01*
X151635852Y-134145887D01*
X151635856Y-134145888D01*
X151660792Y-134149473D01*
X151690190Y-134153700D01*
X153023364Y-134153700D01*
X153091485Y-134173702D01*
X153112459Y-134190605D01*
X154430901Y-135509047D01*
X154462525Y-135535001D01*
X154465088Y-135536714D01*
X154465094Y-135536718D01*
X154500835Y-135560600D01*
X154500843Y-135560605D01*
X154503401Y-135562314D01*
X154506128Y-135563772D01*
X154506132Y-135563774D01*
X154536745Y-135580137D01*
X154536753Y-135580141D01*
X154539483Y-135581600D01*
X154542336Y-135582782D01*
X154542345Y-135582786D01*
X154620757Y-135615265D01*
X154709978Y-135652222D01*
X154733076Y-135659229D01*
X154746159Y-135663198D01*
X154746164Y-135663199D01*
X154749130Y-135664099D01*
X154797348Y-135673690D01*
X154812324Y-135675165D01*
X154834982Y-135677397D01*
X154834991Y-135677397D01*
X154838063Y-135677700D01*
X158189810Y-135677700D01*
X158191465Y-135677611D01*
X158191477Y-135677611D01*
X158210435Y-135676595D01*
X158212115Y-135676505D01*
X158213792Y-135676325D01*
X158213801Y-135676324D01*
X158232740Y-135674288D01*
X158232741Y-135674288D01*
X158238898Y-135673626D01*
X158250648Y-135669947D01*
X158321630Y-135668677D01*
X158382033Y-135705986D01*
X158412677Y-135770029D01*
X158414300Y-135790189D01*
X158414300Y-140750810D01*
X158415495Y-140773115D01*
X158418374Y-140799898D01*
X158442709Y-140877615D01*
X158445671Y-140883039D01*
X158445673Y-140883044D01*
X158461327Y-140911711D01*
X158476735Y-140939927D01*
X158512332Y-140987478D01*
X158565522Y-141040668D01*
X158566779Y-141041797D01*
X158566782Y-141041800D01*
X158580893Y-141054476D01*
X158580903Y-141054484D01*
X158582137Y-141055593D01*
X158603111Y-141072496D01*
X158675272Y-141110244D01*
X158681210Y-141111987D01*
X158681211Y-141111988D01*
X158692719Y-141115367D01*
X158743393Y-141130246D01*
X158747852Y-141130887D01*
X158747856Y-141130888D01*
X158776415Y-141134994D01*
X158792732Y-141137340D01*
X158857313Y-141166833D01*
X158895696Y-141226559D01*
X158900800Y-141262057D01*
X158900800Y-141569330D01*
X158880798Y-141637451D01*
X158863895Y-141658425D01*
X158649925Y-141872395D01*
X158587613Y-141906421D01*
X158560830Y-141909300D01*
X158531707Y-141909300D01*
X158463586Y-141889298D01*
X158417093Y-141835642D01*
X158412832Y-141825069D01*
X158401822Y-141793717D01*
X158389321Y-141776791D01*
X158328592Y-141694571D01*
X158323000Y-141687000D01*
X158315429Y-141681408D01*
X158223860Y-141613774D01*
X158223858Y-141613773D01*
X158216283Y-141608178D01*
X158091107Y-141564219D01*
X158083465Y-141563497D01*
X158083462Y-141563496D01*
X158069213Y-141562150D01*
X158060226Y-141561300D01*
X157379774Y-141561300D01*
X157370787Y-141562150D01*
X157356538Y-141563496D01*
X157356535Y-141563497D01*
X157348893Y-141564219D01*
X157223717Y-141608178D01*
X157216142Y-141613773D01*
X157216140Y-141613774D01*
X157124571Y-141681408D01*
X157117000Y-141687000D01*
X157111408Y-141694571D01*
X157050680Y-141776791D01*
X157038178Y-141793717D01*
X156994219Y-141918893D01*
X156993497Y-141926535D01*
X156993496Y-141926538D01*
X156992150Y-141940787D01*
X156991300Y-141949774D01*
X156991300Y-142530226D01*
X156991579Y-142533176D01*
X156992996Y-142548164D01*
X156994219Y-142561107D01*
X157038178Y-142686283D01*
X157117000Y-142793000D01*
X157124571Y-142798592D01*
X157216140Y-142866226D01*
X157216142Y-142866227D01*
X157223717Y-142871822D01*
X157348893Y-142915781D01*
X157356535Y-142916503D01*
X157356538Y-142916504D01*
X157370787Y-142917850D01*
X157379774Y-142918700D01*
X158060226Y-142918700D01*
X158069213Y-142917850D01*
X158083462Y-142916504D01*
X158083465Y-142916503D01*
X158091107Y-142915781D01*
X158216283Y-142871822D01*
X158223858Y-142866227D01*
X158223860Y-142866226D01*
X158315429Y-142798592D01*
X158323000Y-142793000D01*
X158401822Y-142686283D01*
X158412826Y-142654948D01*
X158454268Y-142597306D01*
X158520297Y-142571218D01*
X158531707Y-142570700D01*
X158730051Y-142570700D01*
X158741032Y-142571179D01*
X158768291Y-142573564D01*
X158768292Y-142573564D01*
X158779267Y-142574524D01*
X158816339Y-142564591D01*
X158827053Y-142562216D01*
X158842900Y-142559422D01*
X158853997Y-142557465D01*
X158853998Y-142557465D01*
X158864851Y-142555551D01*
X158874396Y-142550040D01*
X158877889Y-142548769D01*
X158881267Y-142547194D01*
X158891916Y-142544340D01*
X158900947Y-142538016D01*
X158900950Y-142538015D01*
X158923355Y-142522327D01*
X158932624Y-142516422D01*
X158934017Y-142515618D01*
X158965849Y-142497239D01*
X158972933Y-142488796D01*
X158972936Y-142488794D01*
X158990522Y-142467836D01*
X158997948Y-142459732D01*
X159451232Y-142006448D01*
X159459336Y-141999022D01*
X159480294Y-141981436D01*
X159480296Y-141981433D01*
X159488739Y-141974349D01*
X159507922Y-141941124D01*
X159513827Y-141931855D01*
X159529515Y-141909450D01*
X159529516Y-141909447D01*
X159535840Y-141900416D01*
X159538694Y-141889767D01*
X159540269Y-141886389D01*
X159541540Y-141882896D01*
X159547051Y-141873351D01*
X159553716Y-141835553D01*
X159556091Y-141824839D01*
X159566024Y-141787767D01*
X159562679Y-141749532D01*
X159562200Y-141738551D01*
X159562200Y-141264700D01*
X159582202Y-141196579D01*
X159635858Y-141150086D01*
X159688200Y-141138700D01*
X159740937Y-141138700D01*
X159744009Y-141138397D01*
X159744018Y-141138397D01*
X159766676Y-141136165D01*
X159781652Y-141134690D01*
X159829870Y-141125099D01*
X159832836Y-141124199D01*
X159832841Y-141124198D01*
X159845924Y-141120229D01*
X159869022Y-141113222D01*
X159960411Y-141075367D01*
X160036655Y-141043786D01*
X160036664Y-141043782D01*
X160039517Y-141042600D01*
X160042247Y-141041141D01*
X160042255Y-141041137D01*
X160072868Y-141024774D01*
X160072872Y-141024772D01*
X160075599Y-141023314D01*
X160078157Y-141021605D01*
X160078165Y-141021600D01*
X160113906Y-140997718D01*
X160113912Y-140997714D01*
X160116475Y-140996001D01*
X160148099Y-140970047D01*
X160568047Y-140550099D01*
X160594000Y-140518476D01*
X160596413Y-140514866D01*
X160619591Y-140480178D01*
X160619594Y-140480174D01*
X160621314Y-140477599D01*
X160640602Y-140441515D01*
X160641784Y-140438662D01*
X160641788Y-140438653D01*
X160710042Y-140273872D01*
X160711223Y-140271021D01*
X160723099Y-140231870D01*
X160724553Y-140224563D01*
X160730870Y-140192800D01*
X160732690Y-140183652D01*
X160736700Y-140142937D01*
X160736700Y-136242636D01*
X160756702Y-136174515D01*
X160773605Y-136153541D01*
X161212541Y-135714605D01*
X161274853Y-135680579D01*
X161301636Y-135677700D01*
X164031810Y-135677700D01*
X164033465Y-135677611D01*
X164033477Y-135677611D01*
X164052435Y-135676595D01*
X164054115Y-135676505D01*
X164055792Y-135676325D01*
X164055801Y-135676324D01*
X164074740Y-135674288D01*
X164074741Y-135674288D01*
X164080898Y-135673626D01*
X164125280Y-135659729D01*
X164152711Y-135651140D01*
X164152714Y-135651139D01*
X164158615Y-135649291D01*
X164164039Y-135646329D01*
X164164044Y-135646327D01*
X164216975Y-135617423D01*
X164220927Y-135615265D01*
X164250033Y-135593476D01*
X164264865Y-135582373D01*
X164264867Y-135582371D01*
X164268478Y-135579668D01*
X164321668Y-135526478D01*
X164336593Y-135509863D01*
X164353496Y-135488889D01*
X164391244Y-135416728D01*
X164411246Y-135348607D01*
X164413528Y-135332740D01*
X164415473Y-135319208D01*
X164419700Y-135289810D01*
X164419700Y-122059190D01*
X164418897Y-122044192D01*
X164418595Y-122038565D01*
X164418505Y-122036885D01*
X164415626Y-122010102D01*
X164391291Y-121932385D01*
X164388329Y-121926961D01*
X164388327Y-121926956D01*
X164359423Y-121874025D01*
X164357265Y-121870073D01*
X164328763Y-121832000D01*
X164324373Y-121826135D01*
X164324371Y-121826133D01*
X164321668Y-121822522D01*
X164268478Y-121769332D01*
X164265467Y-121766627D01*
X164253107Y-121755524D01*
X164253097Y-121755516D01*
X164251863Y-121754407D01*
X164230889Y-121737504D01*
X164183081Y-121712495D01*
X164164213Y-121702625D01*
X164164211Y-121702624D01*
X164158728Y-121699756D01*
X164152790Y-121698013D01*
X164152789Y-121698012D01*
X164134959Y-121692777D01*
X164090607Y-121679754D01*
X164086148Y-121679113D01*
X164086144Y-121679112D01*
X164060144Y-121675374D01*
X164031810Y-121671300D01*
X163893605Y-121671300D01*
X163825484Y-121651298D01*
X163778991Y-121597642D01*
X163768887Y-121527368D01*
X163792515Y-121470088D01*
X163865142Y-121372473D01*
X163870745Y-121363438D01*
X163968959Y-121170265D01*
X163969099Y-121161201D01*
X163962367Y-121158000D01*
X161168639Y-121158000D01*
X161155108Y-121161973D01*
X161154303Y-121167570D01*
X161187263Y-121251029D01*
X161191994Y-121260561D01*
X161306016Y-121448462D01*
X161312279Y-121457051D01*
X161317200Y-121462722D01*
X161346737Y-121527283D01*
X161336681Y-121597564D01*
X161290225Y-121651251D01*
X161222032Y-121671300D01*
X156273605Y-121671300D01*
X156205484Y-121651298D01*
X156158991Y-121597642D01*
X156148887Y-121527368D01*
X156172515Y-121470088D01*
X156245142Y-121372473D01*
X156250745Y-121363438D01*
X156348959Y-121170265D01*
X156349099Y-121161201D01*
X156342367Y-121158000D01*
X153548639Y-121158000D01*
X153535108Y-121161973D01*
X153534303Y-121167570D01*
X153567263Y-121251029D01*
X153571994Y-121260561D01*
X153686016Y-121448462D01*
X153692279Y-121457051D01*
X153697200Y-121462722D01*
X153726737Y-121527283D01*
X153716681Y-121597564D01*
X153670225Y-121651251D01*
X153602032Y-121671300D01*
X148653605Y-121671300D01*
X148585484Y-121651298D01*
X148538991Y-121597642D01*
X148528887Y-121527368D01*
X148552515Y-121470088D01*
X148625142Y-121372473D01*
X148630745Y-121363438D01*
X148728959Y-121170265D01*
X148729099Y-121161201D01*
X148722367Y-121158000D01*
X145928639Y-121158000D01*
X145915108Y-121161973D01*
X145914303Y-121167570D01*
X145947263Y-121251029D01*
X145951994Y-121260561D01*
X146066016Y-121448462D01*
X146072280Y-121457052D01*
X146122278Y-121514669D01*
X146151818Y-121579229D01*
X146141764Y-121649510D01*
X146095310Y-121703199D01*
X146087500Y-121707837D01*
X146040073Y-121733735D01*
X145992522Y-121769332D01*
X145939332Y-121822522D01*
X145938203Y-121823779D01*
X145938200Y-121823782D01*
X145933402Y-121829124D01*
X145924407Y-121839137D01*
X145907504Y-121860111D01*
X145892601Y-121888600D01*
X145881596Y-121909639D01*
X145869756Y-121932272D01*
X145849754Y-122000393D01*
X145849113Y-122004852D01*
X145849112Y-122004856D01*
X145845527Y-122029791D01*
X145841300Y-122059190D01*
X145841300Y-127918830D01*
X145821298Y-127986951D01*
X145804395Y-128007925D01*
X144967768Y-128844552D01*
X144959664Y-128851978D01*
X144938706Y-128869564D01*
X144938704Y-128869567D01*
X144930261Y-128876651D01*
X144921412Y-128891978D01*
X144911078Y-128909876D01*
X144905173Y-128919145D01*
X144889485Y-128941550D01*
X144889484Y-128941553D01*
X144883160Y-128950584D01*
X144880306Y-128961233D01*
X144878731Y-128964611D01*
X144877460Y-128968104D01*
X144871949Y-128977649D01*
X144870035Y-128988502D01*
X144870035Y-128988503D01*
X144865285Y-129015443D01*
X144862909Y-129026161D01*
X144852976Y-129063233D01*
X144853936Y-129074208D01*
X144853936Y-129074209D01*
X144856321Y-129101468D01*
X144856800Y-129112449D01*
X144856800Y-129114903D01*
X144836798Y-129183024D01*
X144783142Y-129229517D01*
X144772549Y-129233785D01*
X144739990Y-129245219D01*
X144728717Y-129249178D01*
X144721142Y-129254773D01*
X144721140Y-129254774D01*
X144662360Y-129298190D01*
X144622000Y-129328000D01*
X144543178Y-129434717D01*
X144499219Y-129559893D01*
X144496300Y-129590774D01*
X144496300Y-130171226D01*
X144499219Y-130202107D01*
X144543178Y-130327283D01*
X144548773Y-130334858D01*
X144548774Y-130334860D01*
X144604171Y-130409862D01*
X144622000Y-130434000D01*
X144629571Y-130439592D01*
X144721140Y-130507226D01*
X144721142Y-130507227D01*
X144728717Y-130512822D01*
X144737607Y-130515944D01*
X144772549Y-130528215D01*
X144830194Y-130569658D01*
X144856282Y-130635688D01*
X144856800Y-130647097D01*
X144856800Y-130748344D01*
X144836798Y-130816465D01*
X144783142Y-130862958D01*
X144772549Y-130867226D01*
X144689990Y-130896219D01*
X144678717Y-130900178D01*
X144671142Y-130905773D01*
X144671140Y-130905774D01*
X144579571Y-130973408D01*
X144572000Y-130979000D01*
X144566408Y-130986571D01*
X144512029Y-131060195D01*
X144493178Y-131085717D01*
X144449219Y-131210893D01*
X144446300Y-131241774D01*
X144446300Y-131822226D01*
X144449219Y-131853107D01*
X144493178Y-131978283D01*
X144498773Y-131985858D01*
X144498774Y-131985860D01*
X144543214Y-132046027D01*
X144572000Y-132085000D01*
X144579571Y-132090592D01*
X144671140Y-132158226D01*
X144671142Y-132158227D01*
X144678717Y-132163822D01*
X144803893Y-132207781D01*
X144811535Y-132208503D01*
X144811538Y-132208504D01*
X144825787Y-132209850D01*
X144834774Y-132210700D01*
X145540226Y-132210700D01*
X145549213Y-132209850D01*
X145563462Y-132208504D01*
X145563465Y-132208503D01*
X145571107Y-132207781D01*
X145696283Y-132163822D01*
X145703858Y-132158227D01*
X145703860Y-132158226D01*
X145795429Y-132090592D01*
X145803000Y-132085000D01*
X145808592Y-132077429D01*
X145808596Y-132077425D01*
X145875333Y-131987070D01*
X145931894Y-131944159D01*
X146002675Y-131938639D01*
X146065205Y-131972263D01*
X146099974Y-132035939D01*
X146108991Y-132078715D01*
X146108994Y-132078726D01*
X146110063Y-132083796D01*
X146135883Y-132149931D01*
X146165140Y-132201626D01*
X146235443Y-132292622D01*
X146241120Y-132299651D01*
X146248157Y-132307987D01*
X146300191Y-132352282D01*
X146361055Y-132388831D01*
X146365203Y-132390575D01*
X146365207Y-132390577D01*
X146411667Y-132410110D01*
X146411671Y-132410111D01*
X146415816Y-132411854D01*
X148090037Y-132848607D01*
X148614334Y-132985380D01*
X148675200Y-133021930D01*
X148706643Y-133085584D01*
X148698681Y-133156132D01*
X148653842Y-133211177D01*
X148582529Y-133233300D01*
X147578949Y-133233300D01*
X147567968Y-133232821D01*
X147540709Y-133230436D01*
X147540708Y-133230436D01*
X147529733Y-133229476D01*
X147492661Y-133239409D01*
X147481945Y-133241784D01*
X147444149Y-133248449D01*
X147434603Y-133253960D01*
X147431114Y-133255230D01*
X147427735Y-133256806D01*
X147417083Y-133259660D01*
X147385639Y-133281678D01*
X147376383Y-133287574D01*
X147343151Y-133306761D01*
X147336066Y-133315204D01*
X147336063Y-133315207D01*
X147318478Y-133336164D01*
X147311052Y-133344268D01*
X146326916Y-134328404D01*
X146264604Y-134362430D01*
X146237821Y-134365309D01*
X145869886Y-134365309D01*
X145851640Y-134363784D01*
X145851624Y-134363912D01*
X145849207Y-134363601D01*
X145846800Y-134363196D01*
X145814883Y-134360334D01*
X145812452Y-134360304D01*
X145812447Y-134360304D01*
X145809784Y-134360272D01*
X145802541Y-134360183D01*
X145787735Y-134361147D01*
X145772978Y-134362107D01*
X145772968Y-134362108D01*
X145770557Y-134362265D01*
X145628780Y-134382569D01*
X145624477Y-134383827D01*
X145624478Y-134383827D01*
X145576561Y-134397838D01*
X145576557Y-134397840D01*
X145572260Y-134399096D01*
X145441881Y-134458376D01*
X145392272Y-134490102D01*
X145283771Y-134583592D01*
X145280832Y-134586961D01*
X145280828Y-134586965D01*
X145262577Y-134607887D01*
X145245060Y-134627967D01*
X145167160Y-134748152D01*
X145142460Y-134801610D01*
X145141175Y-134805908D01*
X145141172Y-134805915D01*
X145125427Y-134858565D01*
X145101424Y-134938828D01*
X145092720Y-134997066D01*
X145092448Y-135041540D01*
X145091952Y-135122851D01*
X145091845Y-135140287D01*
X145092184Y-135142760D01*
X145092309Y-135146615D01*
X145092309Y-135573000D01*
X145108119Y-135652480D01*
X145115013Y-135662798D01*
X145119762Y-135674263D01*
X145115653Y-135675965D01*
X145129679Y-135720715D01*
X145115247Y-135769867D01*
X145119762Y-135771737D01*
X145115013Y-135783202D01*
X145108119Y-135793520D01*
X145092309Y-135873000D01*
X145092309Y-136363896D01*
X145092307Y-136364666D01*
X145092063Y-136404666D01*
X145091845Y-136440287D01*
X145099837Y-136498629D01*
X145139194Y-136636338D01*
X145163239Y-136690092D01*
X145239665Y-136811220D01*
X145277832Y-136856065D01*
X145385183Y-136950873D01*
X145388920Y-136953328D01*
X145388923Y-136953330D01*
X145412322Y-136968700D01*
X145434399Y-136983202D01*
X145438456Y-136985107D01*
X145438460Y-136985109D01*
X145505220Y-137016453D01*
X145564044Y-137044071D01*
X145568331Y-137045382D01*
X145568332Y-137045382D01*
X145616080Y-137059980D01*
X145616083Y-137059981D01*
X145620359Y-137061288D01*
X145624780Y-137061976D01*
X145624783Y-137061977D01*
X145757455Y-137082634D01*
X145757462Y-137082635D01*
X145761877Y-137083322D01*
X145766343Y-137083377D01*
X145766348Y-137083377D01*
X145794454Y-137083720D01*
X145820758Y-137084042D01*
X145825200Y-137083461D01*
X145825203Y-137083461D01*
X145838248Y-137081755D01*
X145854585Y-137080691D01*
X146235222Y-137080691D01*
X146254605Y-137082191D01*
X146257055Y-137082572D01*
X146261877Y-137083323D01*
X146266360Y-137083378D01*
X146266363Y-137083378D01*
X146286806Y-137083627D01*
X146320758Y-137084042D01*
X146325199Y-137083461D01*
X146325204Y-137083461D01*
X146400446Y-137073622D01*
X146462772Y-137065472D01*
X146467087Y-137064267D01*
X146467093Y-137064266D01*
X146491132Y-137057554D01*
X146519491Y-137049636D01*
X146532139Y-137044071D01*
X146599940Y-137014237D01*
X146650584Y-136991953D01*
X146657080Y-136987910D01*
X146696772Y-136963203D01*
X146700575Y-136960836D01*
X146704002Y-136957955D01*
X146707637Y-136955317D01*
X146708288Y-136956214D01*
X146768673Y-136929727D01*
X146784729Y-136928700D01*
X147244300Y-136928700D01*
X147312421Y-136948702D01*
X147358914Y-137002358D01*
X147370300Y-137054700D01*
X147370300Y-145461300D01*
X147350298Y-145529421D01*
X147296642Y-145575914D01*
X147244300Y-145587300D01*
X125043700Y-145587300D01*
X124975579Y-145567298D01*
X124929086Y-145513642D01*
X124917700Y-145461300D01*
X124917700Y-144435226D01*
X131111300Y-144435226D01*
X131111579Y-144438176D01*
X131112760Y-144450668D01*
X131114219Y-144466107D01*
X131158178Y-144591283D01*
X131163773Y-144598858D01*
X131163774Y-144598860D01*
X131183115Y-144625045D01*
X131237000Y-144698000D01*
X131244571Y-144703592D01*
X131336140Y-144771226D01*
X131336142Y-144771227D01*
X131343717Y-144776822D01*
X131468893Y-144820781D01*
X131476535Y-144821503D01*
X131476538Y-144821504D01*
X131490787Y-144822850D01*
X131499774Y-144823700D01*
X132105226Y-144823700D01*
X132114213Y-144822850D01*
X132128462Y-144821504D01*
X132128465Y-144821503D01*
X132136107Y-144820781D01*
X132261283Y-144776822D01*
X132268858Y-144771227D01*
X132268860Y-144771226D01*
X132360429Y-144703592D01*
X132368000Y-144698000D01*
X132421885Y-144625045D01*
X132441226Y-144598860D01*
X132441227Y-144598858D01*
X132446822Y-144591283D01*
X132490781Y-144466107D01*
X132492241Y-144450668D01*
X132493421Y-144438176D01*
X132493700Y-144435226D01*
X132493700Y-143854774D01*
X132490781Y-143823893D01*
X132452699Y-143715452D01*
X132449944Y-143707607D01*
X132446822Y-143698717D01*
X132368000Y-143592000D01*
X132329651Y-143563675D01*
X132268860Y-143518774D01*
X132268858Y-143518773D01*
X132261283Y-143513178D01*
X132252394Y-143510056D01*
X132244075Y-143505652D01*
X132245040Y-143503830D01*
X132197302Y-143469506D01*
X132171217Y-143403475D01*
X132170700Y-143392072D01*
X132170700Y-143019266D01*
X132190702Y-142951145D01*
X132244358Y-142904652D01*
X132254951Y-142900384D01*
X132327393Y-142874944D01*
X132336283Y-142871822D01*
X132343858Y-142866227D01*
X132343860Y-142866226D01*
X132435429Y-142798592D01*
X132443000Y-142793000D01*
X132521822Y-142686283D01*
X132565781Y-142561107D01*
X132567005Y-142548164D01*
X132568421Y-142533176D01*
X132568700Y-142530226D01*
X132568700Y-141949774D01*
X132567850Y-141940787D01*
X132566504Y-141926538D01*
X132566503Y-141926535D01*
X132565781Y-141918893D01*
X132521822Y-141793717D01*
X132509321Y-141776791D01*
X132448592Y-141694571D01*
X132443000Y-141687000D01*
X132435429Y-141681408D01*
X132343860Y-141613774D01*
X132343858Y-141613773D01*
X132336283Y-141608178D01*
X132211107Y-141564219D01*
X132203465Y-141563497D01*
X132203462Y-141563496D01*
X132189213Y-141562150D01*
X132180226Y-141561300D01*
X131499774Y-141561300D01*
X131490787Y-141562150D01*
X131476538Y-141563496D01*
X131476535Y-141563497D01*
X131468893Y-141564219D01*
X131343717Y-141608178D01*
X131336142Y-141613773D01*
X131336140Y-141613774D01*
X131244571Y-141681408D01*
X131237000Y-141687000D01*
X131231408Y-141694571D01*
X131170680Y-141776791D01*
X131158178Y-141793717D01*
X131114219Y-141918893D01*
X131113497Y-141926535D01*
X131113496Y-141926538D01*
X131112150Y-141940787D01*
X131111300Y-141949774D01*
X131111300Y-142530226D01*
X131111579Y-142533176D01*
X131112996Y-142548164D01*
X131114219Y-142561107D01*
X131158178Y-142686283D01*
X131237000Y-142793000D01*
X131244571Y-142798592D01*
X131336140Y-142866226D01*
X131336142Y-142866227D01*
X131343717Y-142871822D01*
X131352607Y-142874944D01*
X131425049Y-142900384D01*
X131482694Y-142941827D01*
X131508782Y-143007857D01*
X131509300Y-143019266D01*
X131509300Y-143365734D01*
X131489298Y-143433855D01*
X131435642Y-143480348D01*
X131425048Y-143484616D01*
X131343717Y-143513178D01*
X131336142Y-143518773D01*
X131336140Y-143518774D01*
X131275349Y-143563675D01*
X131237000Y-143592000D01*
X131158178Y-143698717D01*
X131155056Y-143707607D01*
X131152301Y-143715452D01*
X131114219Y-143823893D01*
X131111300Y-143854774D01*
X131111300Y-144435226D01*
X124917700Y-144435226D01*
X124917700Y-137621700D01*
X124937702Y-137553579D01*
X124991358Y-137507086D01*
X125043700Y-137495700D01*
X126350331Y-137495700D01*
X126352150Y-137495594D01*
X126352165Y-137495594D01*
X126363118Y-137494958D01*
X126374470Y-137494299D01*
X126376281Y-137494088D01*
X126376294Y-137494087D01*
X126391563Y-137492309D01*
X126403419Y-137490928D01*
X126427229Y-137486746D01*
X126429018Y-137486324D01*
X126429031Y-137486321D01*
X126559192Y-137455594D01*
X126624445Y-137440190D01*
X126626067Y-137439714D01*
X126626075Y-137439712D01*
X126644255Y-137434378D01*
X126644257Y-137434377D01*
X126645884Y-137433900D01*
X126671286Y-137424945D01*
X126713030Y-137400190D01*
X126736003Y-137386567D01*
X126736008Y-137386563D01*
X126741327Y-137383409D01*
X126782361Y-137346567D01*
X126790805Y-137338985D01*
X126790806Y-137338984D01*
X126794154Y-137335978D01*
X126832256Y-137290406D01*
X126834361Y-137287000D01*
X127254000Y-137287000D01*
X132842000Y-140970000D01*
X133985000Y-140970000D01*
X133985000Y-135763000D01*
X130429000Y-135763000D01*
X128905000Y-134239000D01*
X127381000Y-134239000D01*
X127381000Y-134874000D01*
X127254000Y-136017000D01*
X127254000Y-137287000D01*
X126834361Y-137287000D01*
X126904713Y-137173167D01*
X126927939Y-137120479D01*
X126946757Y-137054237D01*
X126954700Y-136997206D01*
X126954700Y-136196190D01*
X126954591Y-136194144D01*
X126953595Y-136175565D01*
X126953505Y-136173885D01*
X126950626Y-136147102D01*
X126926291Y-136069385D01*
X126923329Y-136063961D01*
X126923327Y-136063956D01*
X126894423Y-136011025D01*
X126892265Y-136007073D01*
X126856668Y-135959522D01*
X126803478Y-135906332D01*
X126800467Y-135903627D01*
X126788107Y-135892524D01*
X126788097Y-135892516D01*
X126786863Y-135891407D01*
X126765889Y-135874504D01*
X126693728Y-135836756D01*
X126687790Y-135835013D01*
X126687789Y-135835012D01*
X126669959Y-135829777D01*
X126625607Y-135816754D01*
X126621148Y-135816113D01*
X126621144Y-135816112D01*
X126590714Y-135811737D01*
X126566810Y-135808300D01*
X125154556Y-135808300D01*
X125086435Y-135788298D01*
X125039942Y-135734642D01*
X125029838Y-135664368D01*
X125059332Y-135599788D01*
X125116973Y-135562036D01*
X125121569Y-135560600D01*
X125472964Y-135450789D01*
X126520089Y-135123563D01*
X126520153Y-135123542D01*
X126520580Y-135123409D01*
X126522272Y-135122851D01*
X126526397Y-135121491D01*
X126526404Y-135121489D01*
X126526785Y-135121363D01*
X126534253Y-135118770D01*
X126592306Y-135087602D01*
X126648772Y-135044566D01*
X126656144Y-135037066D01*
X126687258Y-135005409D01*
X126690412Y-135002200D01*
X126762680Y-134903901D01*
X126766476Y-134898565D01*
X126770942Y-134892073D01*
X126799244Y-134832586D01*
X126819246Y-134764465D01*
X126822134Y-134744383D01*
X126827058Y-134710131D01*
X126827700Y-134705668D01*
X126827700Y-134418190D01*
X126826505Y-134395885D01*
X126826258Y-134393581D01*
X126824288Y-134375260D01*
X126824288Y-134375259D01*
X126823626Y-134369102D01*
X126809251Y-134323192D01*
X126801140Y-134297289D01*
X126801139Y-134297286D01*
X126799291Y-134291385D01*
X126796329Y-134285961D01*
X126796327Y-134285956D01*
X126767423Y-134233025D01*
X126765265Y-134229073D01*
X126735321Y-134189073D01*
X126732373Y-134185135D01*
X126732371Y-134185133D01*
X126729668Y-134181522D01*
X126676478Y-134128332D01*
X126676993Y-134127817D01*
X126642684Y-134068818D01*
X126645841Y-133997892D01*
X126661237Y-133967942D01*
X126666934Y-133962235D01*
X126718646Y-133856445D01*
X126723845Y-133820808D01*
X126728040Y-133792054D01*
X126728040Y-133792048D01*
X126728700Y-133787527D01*
X126728699Y-133420474D01*
X126718467Y-133350955D01*
X126666571Y-133245256D01*
X126661845Y-133240539D01*
X126639172Y-133175562D01*
X126655735Y-133106525D01*
X126677224Y-133080414D01*
X126676478Y-133079668D01*
X126729668Y-133026478D01*
X126730800Y-133025218D01*
X126743476Y-133011107D01*
X126743484Y-133011097D01*
X126744593Y-133009863D01*
X126761496Y-132988889D01*
X126799244Y-132916728D01*
X126819246Y-132848607D01*
X126821528Y-132832740D01*
X126823473Y-132819208D01*
X126827700Y-132789810D01*
X126827700Y-132356351D01*
X126824492Y-132319898D01*
X126823374Y-132313592D01*
X126819553Y-132292055D01*
X126816804Y-132276559D01*
X126807278Y-132241228D01*
X126761928Y-132117425D01*
X126741573Y-132061858D01*
X126741572Y-132061855D01*
X126740619Y-132059254D01*
X126725070Y-132026131D01*
X126723680Y-132023740D01*
X126723675Y-132023731D01*
X126704342Y-131990484D01*
X126702945Y-131988081D01*
X126681847Y-131958180D01*
X125460513Y-130514784D01*
X125431781Y-130449862D01*
X125430700Y-130433396D01*
X125430700Y-129338190D01*
X125429855Y-129322408D01*
X125429595Y-129317565D01*
X125429505Y-129315885D01*
X125426626Y-129289102D01*
X125422947Y-129277352D01*
X125421677Y-129206370D01*
X125458986Y-129145967D01*
X125523029Y-129115323D01*
X125543189Y-129113700D01*
X127061090Y-129113700D01*
X127129211Y-129133702D01*
X127175704Y-129187358D01*
X127185808Y-129257632D01*
X127182970Y-129270675D01*
X127182979Y-129270677D01*
X127182024Y-129275069D01*
X127180754Y-129279393D01*
X127180113Y-129283852D01*
X127180112Y-129283856D01*
X127178291Y-129296523D01*
X127172300Y-129338190D01*
X127172300Y-132789810D01*
X127172389Y-132791465D01*
X127172389Y-132791477D01*
X127173307Y-132808607D01*
X127173495Y-132812115D01*
X127176374Y-132838898D01*
X127200709Y-132916615D01*
X127203671Y-132922039D01*
X127203673Y-132922044D01*
X127230465Y-132971107D01*
X127234735Y-132978927D01*
X127265137Y-133019538D01*
X127289947Y-133086056D01*
X127274856Y-133155431D01*
X127258004Y-133179246D01*
X127255407Y-133182137D01*
X127238504Y-133203111D01*
X127200756Y-133275272D01*
X127199013Y-133281210D01*
X127199012Y-133281211D01*
X127197951Y-133284826D01*
X127180754Y-133343393D01*
X127180113Y-133347852D01*
X127180112Y-133347856D01*
X127178051Y-133362190D01*
X127172300Y-133402190D01*
X127172300Y-133805810D01*
X127172389Y-133807465D01*
X127172389Y-133807477D01*
X127173340Y-133825229D01*
X127173495Y-133828115D01*
X127176374Y-133854898D01*
X127200709Y-133932615D01*
X127203671Y-133938039D01*
X127203673Y-133938044D01*
X127214863Y-133958536D01*
X127234735Y-133994927D01*
X127270332Y-134042478D01*
X127323522Y-134095668D01*
X127324779Y-134096797D01*
X127324782Y-134096800D01*
X127338893Y-134109476D01*
X127338903Y-134109484D01*
X127340137Y-134110593D01*
X127361111Y-134127496D01*
X127381820Y-134138329D01*
X127409977Y-134153058D01*
X127433272Y-134165244D01*
X127439210Y-134166987D01*
X127439211Y-134166988D01*
X127457041Y-134172223D01*
X127501393Y-134185246D01*
X127505852Y-134185887D01*
X127505856Y-134185888D01*
X127530792Y-134189473D01*
X127560190Y-134193700D01*
X128893364Y-134193700D01*
X128961485Y-134213702D01*
X128982459Y-134230605D01*
X130300901Y-135549047D01*
X130332525Y-135575001D01*
X130335088Y-135576714D01*
X130335094Y-135576718D01*
X130370835Y-135600600D01*
X130370843Y-135600605D01*
X130373401Y-135602314D01*
X130376128Y-135603772D01*
X130376132Y-135603774D01*
X130406745Y-135620137D01*
X130406753Y-135620141D01*
X130409483Y-135621600D01*
X130412336Y-135622782D01*
X130412345Y-135622786D01*
X130485573Y-135653118D01*
X130579978Y-135692222D01*
X130603076Y-135699229D01*
X130616159Y-135703198D01*
X130616164Y-135703199D01*
X130619130Y-135704099D01*
X130667348Y-135713690D01*
X130682324Y-135715165D01*
X130704982Y-135717397D01*
X130704991Y-135717397D01*
X130708063Y-135717700D01*
X134059810Y-135717700D01*
X134061465Y-135717611D01*
X134061477Y-135717611D01*
X134080435Y-135716595D01*
X134082115Y-135716505D01*
X134083792Y-135716325D01*
X134083801Y-135716324D01*
X134102740Y-135714288D01*
X134102741Y-135714288D01*
X134108898Y-135713626D01*
X134120648Y-135709947D01*
X134191630Y-135708677D01*
X134252033Y-135745986D01*
X134282677Y-135810029D01*
X134284300Y-135830189D01*
X134284300Y-140790810D01*
X134284389Y-140792465D01*
X134284389Y-140792477D01*
X134285383Y-140811033D01*
X134285495Y-140813115D01*
X134288374Y-140839898D01*
X134312709Y-140917615D01*
X134315671Y-140923039D01*
X134315673Y-140923044D01*
X134326863Y-140943536D01*
X134346735Y-140979927D01*
X134364382Y-141003501D01*
X134377932Y-141021600D01*
X134382332Y-141027478D01*
X134435522Y-141080668D01*
X134436779Y-141081797D01*
X134436782Y-141081800D01*
X134450893Y-141094476D01*
X134450903Y-141094484D01*
X134452137Y-141095593D01*
X134473111Y-141112496D01*
X134545272Y-141150244D01*
X134551210Y-141151987D01*
X134551211Y-141151988D01*
X134558520Y-141154134D01*
X134613393Y-141170246D01*
X134617852Y-141170887D01*
X134617856Y-141170888D01*
X134646415Y-141174994D01*
X134662732Y-141177340D01*
X134727313Y-141206833D01*
X134765696Y-141266559D01*
X134770800Y-141302057D01*
X134770800Y-141569330D01*
X134750798Y-141637451D01*
X134733895Y-141658425D01*
X134519925Y-141872395D01*
X134457613Y-141906421D01*
X134430830Y-141909300D01*
X134401707Y-141909300D01*
X134333586Y-141889298D01*
X134287093Y-141835642D01*
X134282832Y-141825069D01*
X134271822Y-141793717D01*
X134259321Y-141776791D01*
X134198592Y-141694571D01*
X134193000Y-141687000D01*
X134185429Y-141681408D01*
X134093860Y-141613774D01*
X134093858Y-141613773D01*
X134086283Y-141608178D01*
X133961107Y-141564219D01*
X133953465Y-141563497D01*
X133953462Y-141563496D01*
X133939213Y-141562150D01*
X133930226Y-141561300D01*
X133249774Y-141561300D01*
X133240787Y-141562150D01*
X133226538Y-141563496D01*
X133226535Y-141563497D01*
X133218893Y-141564219D01*
X133093717Y-141608178D01*
X133086142Y-141613773D01*
X133086140Y-141613774D01*
X132994571Y-141681408D01*
X132987000Y-141687000D01*
X132981408Y-141694571D01*
X132920680Y-141776791D01*
X132908178Y-141793717D01*
X132864219Y-141918893D01*
X132863497Y-141926535D01*
X132863496Y-141926538D01*
X132862150Y-141940787D01*
X132861300Y-141949774D01*
X132861300Y-142530226D01*
X132861579Y-142533176D01*
X132862996Y-142548164D01*
X132864219Y-142561107D01*
X132908178Y-142686283D01*
X132987000Y-142793000D01*
X132994571Y-142798592D01*
X133086140Y-142866226D01*
X133086142Y-142866227D01*
X133093717Y-142871822D01*
X133218893Y-142915781D01*
X133226535Y-142916503D01*
X133226538Y-142916504D01*
X133240787Y-142917850D01*
X133249774Y-142918700D01*
X133930226Y-142918700D01*
X133939213Y-142917850D01*
X133953462Y-142916504D01*
X133953465Y-142916503D01*
X133961107Y-142915781D01*
X134086283Y-142871822D01*
X134093858Y-142866227D01*
X134093860Y-142866226D01*
X134185429Y-142798592D01*
X134193000Y-142793000D01*
X134271822Y-142686283D01*
X134282826Y-142654948D01*
X134324268Y-142597306D01*
X134390297Y-142571218D01*
X134401707Y-142570700D01*
X134600051Y-142570700D01*
X134611032Y-142571179D01*
X134638291Y-142573564D01*
X134638292Y-142573564D01*
X134649267Y-142574524D01*
X134686339Y-142564591D01*
X134697053Y-142562216D01*
X134712900Y-142559422D01*
X134723997Y-142557465D01*
X134723998Y-142557465D01*
X134734851Y-142555551D01*
X134744396Y-142550040D01*
X134747889Y-142548769D01*
X134751267Y-142547194D01*
X134761916Y-142544340D01*
X134770947Y-142538016D01*
X134770950Y-142538015D01*
X134793355Y-142522327D01*
X134802624Y-142516422D01*
X134804017Y-142515618D01*
X134835849Y-142497239D01*
X134842933Y-142488796D01*
X134842936Y-142488794D01*
X134860522Y-142467836D01*
X134867948Y-142459732D01*
X135321232Y-142006448D01*
X135329336Y-141999022D01*
X135350294Y-141981436D01*
X135350296Y-141981433D01*
X135358739Y-141974349D01*
X135377922Y-141941124D01*
X135383827Y-141931855D01*
X135399515Y-141909450D01*
X135399516Y-141909447D01*
X135405840Y-141900416D01*
X135408694Y-141889767D01*
X135410269Y-141886389D01*
X135411540Y-141882896D01*
X135417051Y-141873351D01*
X135423716Y-141835553D01*
X135426091Y-141824839D01*
X135436024Y-141787767D01*
X135432679Y-141749532D01*
X135432200Y-141738551D01*
X135432200Y-141304700D01*
X135452202Y-141236579D01*
X135505858Y-141190086D01*
X135558200Y-141178700D01*
X135610937Y-141178700D01*
X135614009Y-141178397D01*
X135614018Y-141178397D01*
X135636676Y-141176165D01*
X135651652Y-141174690D01*
X135699870Y-141165099D01*
X135702836Y-141164199D01*
X135702841Y-141164198D01*
X135715924Y-141160229D01*
X135739022Y-141153222D01*
X135835590Y-141113222D01*
X135906655Y-141083786D01*
X135906664Y-141083782D01*
X135909517Y-141082600D01*
X135912247Y-141081141D01*
X135912255Y-141081137D01*
X135942868Y-141064774D01*
X135942872Y-141064772D01*
X135945599Y-141063314D01*
X135948157Y-141061605D01*
X135948165Y-141061600D01*
X135983906Y-141037718D01*
X135983912Y-141037714D01*
X135986475Y-141036001D01*
X136018099Y-141010047D01*
X136438047Y-140590099D01*
X136464000Y-140558476D01*
X136468137Y-140552286D01*
X136489591Y-140520178D01*
X136489594Y-140520174D01*
X136491314Y-140517599D01*
X136510602Y-140481515D01*
X136511784Y-140478662D01*
X136511788Y-140478653D01*
X136580042Y-140313872D01*
X136581223Y-140311021D01*
X136593099Y-140271870D01*
X136594836Y-140263140D01*
X136602085Y-140226693D01*
X136602690Y-140223652D01*
X136605840Y-140191668D01*
X136606397Y-140186018D01*
X136606397Y-140186009D01*
X136606700Y-140182937D01*
X136606700Y-136282636D01*
X136626702Y-136214515D01*
X136643605Y-136193541D01*
X137082541Y-135754605D01*
X137144853Y-135720579D01*
X137171636Y-135717700D01*
X139901810Y-135717700D01*
X139903465Y-135717611D01*
X139903477Y-135717611D01*
X139922435Y-135716595D01*
X139924115Y-135716505D01*
X139925792Y-135716325D01*
X139925801Y-135716324D01*
X139944740Y-135714288D01*
X139944741Y-135714288D01*
X139950898Y-135713626D01*
X140011526Y-135694642D01*
X140022711Y-135691140D01*
X140022714Y-135691139D01*
X140028615Y-135689291D01*
X140034039Y-135686329D01*
X140034044Y-135686327D01*
X140086975Y-135657423D01*
X140090927Y-135655265D01*
X140122535Y-135631603D01*
X140134865Y-135622373D01*
X140134867Y-135622371D01*
X140138478Y-135619668D01*
X140191668Y-135566478D01*
X140194914Y-135562865D01*
X140205476Y-135551107D01*
X140205484Y-135551097D01*
X140206593Y-135549863D01*
X140223496Y-135528889D01*
X140261244Y-135456728D01*
X140281246Y-135388607D01*
X140283528Y-135372740D01*
X140285473Y-135359208D01*
X140289700Y-135329810D01*
X140289700Y-122099190D01*
X140288505Y-122076885D01*
X140285626Y-122050102D01*
X140261291Y-121972385D01*
X140258329Y-121966961D01*
X140258327Y-121966956D01*
X140229423Y-121914025D01*
X140227265Y-121910073D01*
X140209618Y-121886499D01*
X140194373Y-121866135D01*
X140194371Y-121866133D01*
X140191668Y-121862522D01*
X140138478Y-121809332D01*
X140135467Y-121806627D01*
X140123107Y-121795524D01*
X140123097Y-121795516D01*
X140121863Y-121794407D01*
X140100889Y-121777504D01*
X140028728Y-121739756D01*
X140022790Y-121738013D01*
X140022789Y-121738012D01*
X140000873Y-121731577D01*
X139960607Y-121719754D01*
X139956148Y-121719113D01*
X139956144Y-121719112D01*
X139930144Y-121715374D01*
X139901810Y-121711300D01*
X139763605Y-121711300D01*
X139695484Y-121691298D01*
X139648991Y-121637642D01*
X139638887Y-121567368D01*
X139662515Y-121510088D01*
X139735142Y-121412473D01*
X139740745Y-121403438D01*
X139838959Y-121210265D01*
X139839099Y-121201201D01*
X139832367Y-121198000D01*
X137038639Y-121198000D01*
X137025108Y-121201973D01*
X137024303Y-121207570D01*
X137057263Y-121291029D01*
X137061994Y-121300561D01*
X137176016Y-121488462D01*
X137182279Y-121497051D01*
X137187200Y-121502722D01*
X137216737Y-121567283D01*
X137206681Y-121637564D01*
X137160225Y-121691251D01*
X137092032Y-121711300D01*
X132143605Y-121711300D01*
X132075484Y-121691298D01*
X132028991Y-121637642D01*
X132018887Y-121567368D01*
X132042515Y-121510088D01*
X132115142Y-121412473D01*
X132120745Y-121403438D01*
X132218959Y-121210265D01*
X132219099Y-121201201D01*
X132212367Y-121198000D01*
X129418639Y-121198000D01*
X129405108Y-121201973D01*
X129404303Y-121207570D01*
X129437263Y-121291029D01*
X129441994Y-121300561D01*
X129556016Y-121488462D01*
X129562279Y-121497051D01*
X129567200Y-121502722D01*
X129596737Y-121567283D01*
X129586681Y-121637564D01*
X129540225Y-121691251D01*
X129472032Y-121711300D01*
X124523605Y-121711300D01*
X124455484Y-121691298D01*
X124408991Y-121637642D01*
X124398887Y-121567368D01*
X124422515Y-121510088D01*
X124495142Y-121412473D01*
X124500745Y-121403438D01*
X124598959Y-121210265D01*
X124599099Y-121201201D01*
X124592367Y-121198000D01*
X121798639Y-121198000D01*
X121785108Y-121201973D01*
X121784303Y-121207570D01*
X121817263Y-121291029D01*
X121821994Y-121300561D01*
X121936016Y-121488462D01*
X121942280Y-121497052D01*
X121992278Y-121554669D01*
X122021818Y-121619229D01*
X122011764Y-121689510D01*
X121965310Y-121743199D01*
X121957500Y-121747837D01*
X121910073Y-121773735D01*
X121862522Y-121809332D01*
X121809332Y-121862522D01*
X121794407Y-121879137D01*
X121777504Y-121900111D01*
X121739756Y-121972272D01*
X121719754Y-122040393D01*
X121719113Y-122044852D01*
X121719112Y-122044856D01*
X121717291Y-122057523D01*
X121711300Y-122099190D01*
X121711300Y-127958830D01*
X121691298Y-128026951D01*
X121674395Y-128047925D01*
X120837768Y-128884552D01*
X120829664Y-128891978D01*
X120808706Y-128909564D01*
X120808704Y-128909567D01*
X120800261Y-128916651D01*
X120785885Y-128941550D01*
X120781078Y-128949876D01*
X120775173Y-128959145D01*
X120759485Y-128981550D01*
X120759484Y-128981553D01*
X120753160Y-128990584D01*
X120750306Y-129001233D01*
X120748731Y-129004611D01*
X120747460Y-129008104D01*
X120741949Y-129017649D01*
X120740035Y-129028502D01*
X120740035Y-129028503D01*
X120735285Y-129055443D01*
X120732909Y-129066161D01*
X120722976Y-129103233D01*
X120723936Y-129114208D01*
X120723936Y-129114209D01*
X120726321Y-129141468D01*
X120726800Y-129152449D01*
X120726800Y-129154903D01*
X120706798Y-129223024D01*
X120653142Y-129269517D01*
X120642549Y-129273785D01*
X120626580Y-129279393D01*
X120598717Y-129289178D01*
X120591142Y-129294773D01*
X120591140Y-129294774D01*
X120532360Y-129338190D01*
X120492000Y-129368000D01*
X120486408Y-129375571D01*
X120448319Y-129427140D01*
X120413178Y-129474717D01*
X120369219Y-129599893D01*
X120366300Y-129630774D01*
X120366300Y-130211226D01*
X120369219Y-130242107D01*
X120413178Y-130367283D01*
X120418773Y-130374858D01*
X120418774Y-130374860D01*
X120462456Y-130434000D01*
X120492000Y-130474000D01*
X120499571Y-130479592D01*
X120591140Y-130547226D01*
X120591142Y-130547227D01*
X120598717Y-130552822D01*
X120607607Y-130555944D01*
X120642549Y-130568215D01*
X120700194Y-130609658D01*
X120726282Y-130675688D01*
X120726800Y-130687097D01*
X120726800Y-130788344D01*
X120706798Y-130856465D01*
X120653142Y-130902958D01*
X120642549Y-130907226D01*
X120557607Y-130937056D01*
X120548717Y-130940178D01*
X120541142Y-130945773D01*
X120541140Y-130945774D01*
X120478455Y-130992074D01*
X120442000Y-131019000D01*
X120436408Y-131026571D01*
X120382029Y-131100195D01*
X120363178Y-131125717D01*
X120319219Y-131250893D01*
X120316300Y-131281774D01*
X120316300Y-131862226D01*
X120319219Y-131893107D01*
X120363178Y-132018283D01*
X120368773Y-132025858D01*
X120368774Y-132025860D01*
X120411566Y-132083796D01*
X120442000Y-132125000D01*
X120449571Y-132130592D01*
X120541140Y-132198226D01*
X120541142Y-132198227D01*
X120548717Y-132203822D01*
X120557607Y-132206944D01*
X120629501Y-132232192D01*
X120673893Y-132247781D01*
X120681535Y-132248503D01*
X120681538Y-132248504D01*
X120695787Y-132249850D01*
X120704774Y-132250700D01*
X121410226Y-132250700D01*
X121419213Y-132249850D01*
X121433462Y-132248504D01*
X121433465Y-132248503D01*
X121441107Y-132247781D01*
X121485499Y-132232192D01*
X121557393Y-132206944D01*
X121566283Y-132203822D01*
X121573858Y-132198227D01*
X121573860Y-132198226D01*
X121665429Y-132130592D01*
X121673000Y-132125000D01*
X121678592Y-132117429D01*
X121678596Y-132117425D01*
X121745333Y-132027070D01*
X121801894Y-131984159D01*
X121872675Y-131978639D01*
X121935205Y-132012263D01*
X121969974Y-132075939D01*
X121978991Y-132118715D01*
X121978994Y-132118726D01*
X121980063Y-132123796D01*
X122005883Y-132189931D01*
X122035140Y-132241626D01*
X122105443Y-132332622D01*
X122111120Y-132339651D01*
X122118157Y-132347987D01*
X122170191Y-132392282D01*
X122231055Y-132428831D01*
X122235203Y-132430575D01*
X122235207Y-132430577D01*
X122281667Y-132450110D01*
X122281671Y-132450111D01*
X122285816Y-132451854D01*
X123660378Y-132810435D01*
X124484334Y-133025380D01*
X124545200Y-133061930D01*
X124576643Y-133125584D01*
X124568681Y-133196132D01*
X124523842Y-133251177D01*
X124452529Y-133273300D01*
X123448949Y-133273300D01*
X123437968Y-133272821D01*
X123410709Y-133270436D01*
X123410708Y-133270436D01*
X123399733Y-133269476D01*
X123362661Y-133279409D01*
X123351945Y-133281784D01*
X123314149Y-133288449D01*
X123304603Y-133293960D01*
X123301114Y-133295230D01*
X123297735Y-133296806D01*
X123287083Y-133299660D01*
X123255639Y-133321678D01*
X123246383Y-133327574D01*
X123213151Y-133346761D01*
X123206066Y-133355204D01*
X123206063Y-133355207D01*
X123188478Y-133376164D01*
X123181052Y-133384268D01*
X122196916Y-134368404D01*
X122134604Y-134402430D01*
X122107821Y-134405309D01*
X121739886Y-134405309D01*
X121721640Y-134403784D01*
X121721624Y-134403912D01*
X121719207Y-134403601D01*
X121716800Y-134403196D01*
X121684883Y-134400334D01*
X121682452Y-134400304D01*
X121682447Y-134400304D01*
X121679784Y-134400272D01*
X121672541Y-134400183D01*
X121657735Y-134401147D01*
X121642978Y-134402107D01*
X121642968Y-134402108D01*
X121640557Y-134402265D01*
X121498780Y-134422569D01*
X121494477Y-134423827D01*
X121494478Y-134423827D01*
X121446561Y-134437838D01*
X121446557Y-134437840D01*
X121442260Y-134439096D01*
X121311881Y-134498376D01*
X121262272Y-134530102D01*
X121153771Y-134623592D01*
X121150832Y-134626961D01*
X121150828Y-134626965D01*
X121149954Y-134627967D01*
X121115060Y-134667967D01*
X121037160Y-134788152D01*
X121012460Y-134841610D01*
X121011175Y-134845908D01*
X121011172Y-134845915D01*
X120995427Y-134898565D01*
X120971424Y-134978828D01*
X120970761Y-134983262D01*
X120970760Y-134983268D01*
X120967931Y-135002200D01*
X120962720Y-135037066D01*
X120962440Y-135082851D01*
X120962069Y-135143675D01*
X120961845Y-135180287D01*
X120962184Y-135182760D01*
X120962309Y-135186615D01*
X120962309Y-135613000D01*
X120978119Y-135692480D01*
X120985013Y-135702798D01*
X120989762Y-135714263D01*
X120985653Y-135715965D01*
X120999679Y-135760715D01*
X120985247Y-135809867D01*
X120989762Y-135811737D01*
X120985013Y-135823202D01*
X120978119Y-135833520D01*
X120962309Y-135913000D01*
X120962309Y-136403896D01*
X120962307Y-136404666D01*
X120961845Y-136480287D01*
X120962454Y-136484730D01*
X120962454Y-136484736D01*
X120964948Y-136502941D01*
X120969837Y-136538629D01*
X121009194Y-136676338D01*
X121033239Y-136730092D01*
X121109665Y-136851220D01*
X121112572Y-136854636D01*
X121112573Y-136854637D01*
X121116317Y-136859036D01*
X121147832Y-136896065D01*
X121255183Y-136990873D01*
X121258920Y-136993328D01*
X121258923Y-136993330D01*
X121290751Y-137014237D01*
X121304399Y-137023202D01*
X121308456Y-137025107D01*
X121308460Y-137025109D01*
X121371487Y-137054700D01*
X121434044Y-137084071D01*
X121438331Y-137085382D01*
X121438332Y-137085382D01*
X121486080Y-137099980D01*
X121486083Y-137099981D01*
X121490359Y-137101288D01*
X121494780Y-137101976D01*
X121494783Y-137101977D01*
X121627455Y-137122634D01*
X121627462Y-137122635D01*
X121631877Y-137123322D01*
X121636343Y-137123377D01*
X121636348Y-137123377D01*
X121664454Y-137123720D01*
X121690758Y-137124042D01*
X121695200Y-137123461D01*
X121695203Y-137123461D01*
X121708248Y-137121755D01*
X121724585Y-137120691D01*
X122105222Y-137120691D01*
X122124605Y-137122191D01*
X122127055Y-137122572D01*
X122131877Y-137123323D01*
X122136360Y-137123378D01*
X122136363Y-137123378D01*
X122156806Y-137123627D01*
X122190758Y-137124042D01*
X122195199Y-137123461D01*
X122195204Y-137123461D01*
X122270446Y-137113622D01*
X122332772Y-137105472D01*
X122337087Y-137104267D01*
X122337093Y-137104266D01*
X122361132Y-137097554D01*
X122389491Y-137089636D01*
X122402139Y-137084071D01*
X122437074Y-137068699D01*
X122520584Y-137031953D01*
X122531580Y-137025109D01*
X122566772Y-137003203D01*
X122570575Y-137000836D01*
X122574002Y-136997955D01*
X122577637Y-136995317D01*
X122578288Y-136996214D01*
X122638673Y-136969727D01*
X122654729Y-136968700D01*
X123114300Y-136968700D01*
X123182421Y-136988702D01*
X123228914Y-137042358D01*
X123240300Y-137094700D01*
X123240300Y-145461300D01*
X123220298Y-145529421D01*
X123166642Y-145575914D01*
X123114300Y-145587300D01*
X100913700Y-145587300D01*
X100845579Y-145567298D01*
X100799086Y-145513642D01*
X100787700Y-145461300D01*
X100787700Y-144435226D01*
X106981300Y-144435226D01*
X106981579Y-144438176D01*
X106982760Y-144450668D01*
X106984219Y-144466107D01*
X107028178Y-144591283D01*
X107033773Y-144598858D01*
X107033774Y-144598860D01*
X107053115Y-144625045D01*
X107107000Y-144698000D01*
X107114571Y-144703592D01*
X107206140Y-144771226D01*
X107206142Y-144771227D01*
X107213717Y-144776822D01*
X107338893Y-144820781D01*
X107346535Y-144821503D01*
X107346538Y-144821504D01*
X107360787Y-144822850D01*
X107369774Y-144823700D01*
X107975226Y-144823700D01*
X107984213Y-144822850D01*
X107998462Y-144821504D01*
X107998465Y-144821503D01*
X108006107Y-144820781D01*
X108131283Y-144776822D01*
X108138858Y-144771227D01*
X108138860Y-144771226D01*
X108230429Y-144703592D01*
X108238000Y-144698000D01*
X108291885Y-144625045D01*
X108311226Y-144598860D01*
X108311227Y-144598858D01*
X108316822Y-144591283D01*
X108360781Y-144466107D01*
X108362241Y-144450668D01*
X108363421Y-144438176D01*
X108363700Y-144435226D01*
X108363700Y-143854774D01*
X108360781Y-143823893D01*
X108322699Y-143715452D01*
X108319944Y-143707607D01*
X108316822Y-143698717D01*
X108238000Y-143592000D01*
X108199651Y-143563675D01*
X108138860Y-143518774D01*
X108138858Y-143518773D01*
X108131283Y-143513178D01*
X108122394Y-143510056D01*
X108114075Y-143505652D01*
X108115040Y-143503830D01*
X108067302Y-143469506D01*
X108041217Y-143403475D01*
X108040700Y-143392072D01*
X108040700Y-143019266D01*
X108060702Y-142951145D01*
X108114358Y-142904652D01*
X108124951Y-142900384D01*
X108197393Y-142874944D01*
X108206283Y-142871822D01*
X108213858Y-142866227D01*
X108213860Y-142866226D01*
X108305429Y-142798592D01*
X108313000Y-142793000D01*
X108391822Y-142686283D01*
X108435781Y-142561107D01*
X108437005Y-142548164D01*
X108438421Y-142533176D01*
X108438700Y-142530226D01*
X108438700Y-141949774D01*
X108437850Y-141940787D01*
X108436504Y-141926538D01*
X108436503Y-141926535D01*
X108435781Y-141918893D01*
X108391822Y-141793717D01*
X108379321Y-141776791D01*
X108318592Y-141694571D01*
X108313000Y-141687000D01*
X108305429Y-141681408D01*
X108213860Y-141613774D01*
X108213858Y-141613773D01*
X108206283Y-141608178D01*
X108081107Y-141564219D01*
X108073465Y-141563497D01*
X108073462Y-141563496D01*
X108059213Y-141562150D01*
X108050226Y-141561300D01*
X107369774Y-141561300D01*
X107360787Y-141562150D01*
X107346538Y-141563496D01*
X107346535Y-141563497D01*
X107338893Y-141564219D01*
X107213717Y-141608178D01*
X107206142Y-141613773D01*
X107206140Y-141613774D01*
X107114571Y-141681408D01*
X107107000Y-141687000D01*
X107101408Y-141694571D01*
X107040680Y-141776791D01*
X107028178Y-141793717D01*
X106984219Y-141918893D01*
X106983497Y-141926535D01*
X106983496Y-141926538D01*
X106982150Y-141940787D01*
X106981300Y-141949774D01*
X106981300Y-142530226D01*
X106981579Y-142533176D01*
X106982996Y-142548164D01*
X106984219Y-142561107D01*
X107028178Y-142686283D01*
X107107000Y-142793000D01*
X107114571Y-142798592D01*
X107206140Y-142866226D01*
X107206142Y-142866227D01*
X107213717Y-142871822D01*
X107222607Y-142874944D01*
X107295049Y-142900384D01*
X107352694Y-142941827D01*
X107378782Y-143007857D01*
X107379300Y-143019266D01*
X107379300Y-143365734D01*
X107359298Y-143433855D01*
X107305642Y-143480348D01*
X107295048Y-143484616D01*
X107213717Y-143513178D01*
X107206142Y-143518773D01*
X107206140Y-143518774D01*
X107145349Y-143563675D01*
X107107000Y-143592000D01*
X107028178Y-143698717D01*
X107025056Y-143707607D01*
X107022301Y-143715452D01*
X106984219Y-143823893D01*
X106981300Y-143854774D01*
X106981300Y-144435226D01*
X100787700Y-144435226D01*
X100787700Y-137621700D01*
X100807702Y-137553579D01*
X100861358Y-137507086D01*
X100913700Y-137495700D01*
X102220331Y-137495700D01*
X102222150Y-137495594D01*
X102222165Y-137495594D01*
X102233118Y-137494958D01*
X102244470Y-137494299D01*
X102246281Y-137494088D01*
X102246294Y-137494087D01*
X102261563Y-137492309D01*
X102273419Y-137490928D01*
X102297229Y-137486746D01*
X102299018Y-137486324D01*
X102299031Y-137486321D01*
X102429192Y-137455594D01*
X102494445Y-137440190D01*
X102496067Y-137439714D01*
X102496075Y-137439712D01*
X102514255Y-137434378D01*
X102514257Y-137434377D01*
X102515884Y-137433900D01*
X102541286Y-137424945D01*
X102583030Y-137400190D01*
X102606003Y-137386567D01*
X102606008Y-137386563D01*
X102611327Y-137383409D01*
X102652361Y-137346567D01*
X102660805Y-137338985D01*
X102660806Y-137338984D01*
X102664154Y-137335978D01*
X102702256Y-137290406D01*
X102704361Y-137287000D01*
X103124000Y-137287000D01*
X108712000Y-140970000D01*
X109855000Y-140970000D01*
X109855000Y-135763000D01*
X106299000Y-135763000D01*
X104775000Y-134239000D01*
X103251000Y-134239000D01*
X103251000Y-134874000D01*
X103124000Y-136017000D01*
X103124000Y-137287000D01*
X102704361Y-137287000D01*
X102774713Y-137173167D01*
X102797939Y-137120479D01*
X102816757Y-137054237D01*
X102824700Y-136997206D01*
X102824700Y-136196190D01*
X102824591Y-136194144D01*
X102823595Y-136175565D01*
X102823505Y-136173885D01*
X102820626Y-136147102D01*
X102796291Y-136069385D01*
X102793329Y-136063961D01*
X102793327Y-136063956D01*
X102764423Y-136011025D01*
X102762265Y-136007073D01*
X102726668Y-135959522D01*
X102673478Y-135906332D01*
X102670467Y-135903627D01*
X102658107Y-135892524D01*
X102658097Y-135892516D01*
X102656863Y-135891407D01*
X102635889Y-135874504D01*
X102563728Y-135836756D01*
X102557790Y-135835013D01*
X102557789Y-135835012D01*
X102539959Y-135829777D01*
X102495607Y-135816754D01*
X102491148Y-135816113D01*
X102491144Y-135816112D01*
X102460714Y-135811737D01*
X102436810Y-135808300D01*
X101024556Y-135808300D01*
X100956435Y-135788298D01*
X100909942Y-135734642D01*
X100899838Y-135664368D01*
X100929332Y-135599788D01*
X100986973Y-135562036D01*
X100991569Y-135560600D01*
X101342964Y-135450789D01*
X102390089Y-135123563D01*
X102390153Y-135123542D01*
X102390580Y-135123409D01*
X102392272Y-135122851D01*
X102396397Y-135121491D01*
X102396404Y-135121489D01*
X102396785Y-135121363D01*
X102404253Y-135118770D01*
X102462306Y-135087602D01*
X102518772Y-135044566D01*
X102526144Y-135037066D01*
X102557258Y-135005409D01*
X102560412Y-135002200D01*
X102632680Y-134903901D01*
X102636476Y-134898565D01*
X102640942Y-134892073D01*
X102669244Y-134832586D01*
X102689246Y-134764465D01*
X102692134Y-134744383D01*
X102697058Y-134710131D01*
X102697700Y-134705668D01*
X102697700Y-134418190D01*
X102696505Y-134395885D01*
X102696258Y-134393581D01*
X102694288Y-134375260D01*
X102694288Y-134375259D01*
X102693626Y-134369102D01*
X102679251Y-134323192D01*
X102671140Y-134297289D01*
X102671139Y-134297286D01*
X102669291Y-134291385D01*
X102666329Y-134285961D01*
X102666327Y-134285956D01*
X102637423Y-134233025D01*
X102635265Y-134229073D01*
X102605321Y-134189073D01*
X102602373Y-134185135D01*
X102602371Y-134185133D01*
X102599668Y-134181522D01*
X102546478Y-134128332D01*
X102546993Y-134127817D01*
X102512684Y-134068818D01*
X102515841Y-133997892D01*
X102531237Y-133967942D01*
X102536934Y-133962235D01*
X102588646Y-133856445D01*
X102593845Y-133820808D01*
X102598040Y-133792054D01*
X102598040Y-133792048D01*
X102598700Y-133787527D01*
X102598699Y-133420474D01*
X102588467Y-133350955D01*
X102536571Y-133245256D01*
X102531845Y-133240539D01*
X102509172Y-133175562D01*
X102525735Y-133106525D01*
X102547224Y-133080414D01*
X102546478Y-133079668D01*
X102599668Y-133026478D01*
X102600800Y-133025218D01*
X102613476Y-133011107D01*
X102613484Y-133011097D01*
X102614593Y-133009863D01*
X102631496Y-132988889D01*
X102669244Y-132916728D01*
X102689246Y-132848607D01*
X102691528Y-132832740D01*
X102693473Y-132819208D01*
X102697700Y-132789810D01*
X102697700Y-132356351D01*
X102694492Y-132319898D01*
X102693374Y-132313592D01*
X102689553Y-132292055D01*
X102686804Y-132276559D01*
X102677278Y-132241228D01*
X102631928Y-132117425D01*
X102611573Y-132061858D01*
X102611572Y-132061855D01*
X102610619Y-132059254D01*
X102595070Y-132026131D01*
X102593680Y-132023740D01*
X102593675Y-132023731D01*
X102574342Y-131990484D01*
X102572945Y-131988081D01*
X102551847Y-131958180D01*
X101330513Y-130514784D01*
X101301781Y-130449862D01*
X101300700Y-130433396D01*
X101300700Y-129338190D01*
X101299855Y-129322408D01*
X101299595Y-129317565D01*
X101299505Y-129315885D01*
X101296626Y-129289102D01*
X101292947Y-129277352D01*
X101291677Y-129206370D01*
X101328986Y-129145967D01*
X101393029Y-129115323D01*
X101413189Y-129113700D01*
X102931090Y-129113700D01*
X102999211Y-129133702D01*
X103045704Y-129187358D01*
X103055808Y-129257632D01*
X103052970Y-129270675D01*
X103052979Y-129270677D01*
X103052024Y-129275069D01*
X103050754Y-129279393D01*
X103050113Y-129283852D01*
X103050112Y-129283856D01*
X103048291Y-129296523D01*
X103042300Y-129338190D01*
X103042300Y-132789810D01*
X103042389Y-132791465D01*
X103042389Y-132791477D01*
X103043307Y-132808607D01*
X103043495Y-132812115D01*
X103046374Y-132838898D01*
X103070709Y-132916615D01*
X103073671Y-132922039D01*
X103073673Y-132922044D01*
X103100465Y-132971107D01*
X103104735Y-132978927D01*
X103135137Y-133019538D01*
X103159947Y-133086056D01*
X103144856Y-133155431D01*
X103128004Y-133179246D01*
X103125407Y-133182137D01*
X103108504Y-133203111D01*
X103070756Y-133275272D01*
X103069013Y-133281210D01*
X103069012Y-133281211D01*
X103067951Y-133284826D01*
X103050754Y-133343393D01*
X103050113Y-133347852D01*
X103050112Y-133347856D01*
X103048051Y-133362190D01*
X103042300Y-133402190D01*
X103042300Y-133805810D01*
X103042389Y-133807465D01*
X103042389Y-133807477D01*
X103043340Y-133825229D01*
X103043495Y-133828115D01*
X103046374Y-133854898D01*
X103070709Y-133932615D01*
X103073671Y-133938039D01*
X103073673Y-133938044D01*
X103084863Y-133958536D01*
X103104735Y-133994927D01*
X103140332Y-134042478D01*
X103193522Y-134095668D01*
X103194779Y-134096797D01*
X103194782Y-134096800D01*
X103208893Y-134109476D01*
X103208903Y-134109484D01*
X103210137Y-134110593D01*
X103231111Y-134127496D01*
X103251820Y-134138329D01*
X103279977Y-134153058D01*
X103303272Y-134165244D01*
X103309210Y-134166987D01*
X103309211Y-134166988D01*
X103327041Y-134172223D01*
X103371393Y-134185246D01*
X103375852Y-134185887D01*
X103375856Y-134185888D01*
X103400792Y-134189473D01*
X103430190Y-134193700D01*
X104763364Y-134193700D01*
X104831485Y-134213702D01*
X104852459Y-134230605D01*
X106170901Y-135549047D01*
X106202525Y-135575001D01*
X106205088Y-135576714D01*
X106205094Y-135576718D01*
X106240835Y-135600600D01*
X106240843Y-135600605D01*
X106243401Y-135602314D01*
X106246128Y-135603772D01*
X106246132Y-135603774D01*
X106276745Y-135620137D01*
X106276753Y-135620141D01*
X106279483Y-135621600D01*
X106282336Y-135622782D01*
X106282345Y-135622786D01*
X106355573Y-135653118D01*
X106449978Y-135692222D01*
X106473076Y-135699229D01*
X106486159Y-135703198D01*
X106486164Y-135703199D01*
X106489130Y-135704099D01*
X106537348Y-135713690D01*
X106552324Y-135715165D01*
X106574982Y-135717397D01*
X106574991Y-135717397D01*
X106578063Y-135717700D01*
X109929810Y-135717700D01*
X109931465Y-135717611D01*
X109931477Y-135717611D01*
X109950435Y-135716595D01*
X109952115Y-135716505D01*
X109953792Y-135716325D01*
X109953801Y-135716324D01*
X109972740Y-135714288D01*
X109972741Y-135714288D01*
X109978898Y-135713626D01*
X109990648Y-135709947D01*
X110061630Y-135708677D01*
X110122033Y-135745986D01*
X110152677Y-135810029D01*
X110154300Y-135830189D01*
X110154300Y-140790810D01*
X110154389Y-140792465D01*
X110154389Y-140792477D01*
X110155383Y-140811033D01*
X110155495Y-140813115D01*
X110158374Y-140839898D01*
X110182709Y-140917615D01*
X110185671Y-140923039D01*
X110185673Y-140923044D01*
X110196863Y-140943536D01*
X110216735Y-140979927D01*
X110234382Y-141003501D01*
X110247932Y-141021600D01*
X110252332Y-141027478D01*
X110305522Y-141080668D01*
X110306779Y-141081797D01*
X110306782Y-141081800D01*
X110320893Y-141094476D01*
X110320903Y-141094484D01*
X110322137Y-141095593D01*
X110343111Y-141112496D01*
X110415272Y-141150244D01*
X110421210Y-141151987D01*
X110421211Y-141151988D01*
X110428520Y-141154134D01*
X110483393Y-141170246D01*
X110487852Y-141170887D01*
X110487856Y-141170888D01*
X110516415Y-141174994D01*
X110532732Y-141177340D01*
X110597313Y-141206833D01*
X110635696Y-141266559D01*
X110640800Y-141302057D01*
X110640800Y-141569330D01*
X110620798Y-141637451D01*
X110603895Y-141658425D01*
X110389925Y-141872395D01*
X110327613Y-141906421D01*
X110300830Y-141909300D01*
X110271707Y-141909300D01*
X110203586Y-141889298D01*
X110157093Y-141835642D01*
X110152832Y-141825069D01*
X110141822Y-141793717D01*
X110129321Y-141776791D01*
X110068592Y-141694571D01*
X110063000Y-141687000D01*
X110055429Y-141681408D01*
X109963860Y-141613774D01*
X109963858Y-141613773D01*
X109956283Y-141608178D01*
X109831107Y-141564219D01*
X109823465Y-141563497D01*
X109823462Y-141563496D01*
X109809213Y-141562150D01*
X109800226Y-141561300D01*
X109119774Y-141561300D01*
X109110787Y-141562150D01*
X109096538Y-141563496D01*
X109096535Y-141563497D01*
X109088893Y-141564219D01*
X108963717Y-141608178D01*
X108956142Y-141613773D01*
X108956140Y-141613774D01*
X108864571Y-141681408D01*
X108857000Y-141687000D01*
X108851408Y-141694571D01*
X108790680Y-141776791D01*
X108778178Y-141793717D01*
X108734219Y-141918893D01*
X108733497Y-141926535D01*
X108733496Y-141926538D01*
X108732150Y-141940787D01*
X108731300Y-141949774D01*
X108731300Y-142530226D01*
X108731579Y-142533176D01*
X108732996Y-142548164D01*
X108734219Y-142561107D01*
X108778178Y-142686283D01*
X108857000Y-142793000D01*
X108864571Y-142798592D01*
X108956140Y-142866226D01*
X108956142Y-142866227D01*
X108963717Y-142871822D01*
X109088893Y-142915781D01*
X109096535Y-142916503D01*
X109096538Y-142916504D01*
X109110787Y-142917850D01*
X109119774Y-142918700D01*
X109800226Y-142918700D01*
X109809213Y-142917850D01*
X109823462Y-142916504D01*
X109823465Y-142916503D01*
X109831107Y-142915781D01*
X109956283Y-142871822D01*
X109963858Y-142866227D01*
X109963860Y-142866226D01*
X110055429Y-142798592D01*
X110063000Y-142793000D01*
X110141822Y-142686283D01*
X110152826Y-142654948D01*
X110194268Y-142597306D01*
X110260297Y-142571218D01*
X110271707Y-142570700D01*
X110470051Y-142570700D01*
X110481032Y-142571179D01*
X110508291Y-142573564D01*
X110508292Y-142573564D01*
X110519267Y-142574524D01*
X110556339Y-142564591D01*
X110567053Y-142562216D01*
X110582900Y-142559422D01*
X110593997Y-142557465D01*
X110593998Y-142557465D01*
X110604851Y-142555551D01*
X110614396Y-142550040D01*
X110617889Y-142548769D01*
X110621267Y-142547194D01*
X110631916Y-142544340D01*
X110640947Y-142538016D01*
X110640950Y-142538015D01*
X110663355Y-142522327D01*
X110672624Y-142516422D01*
X110674017Y-142515618D01*
X110705849Y-142497239D01*
X110712933Y-142488796D01*
X110712936Y-142488794D01*
X110730522Y-142467836D01*
X110737948Y-142459732D01*
X111191232Y-142006448D01*
X111199336Y-141999022D01*
X111220294Y-141981436D01*
X111220296Y-141981433D01*
X111228739Y-141974349D01*
X111247922Y-141941124D01*
X111253827Y-141931855D01*
X111269515Y-141909450D01*
X111269516Y-141909447D01*
X111275840Y-141900416D01*
X111278694Y-141889767D01*
X111280269Y-141886389D01*
X111281540Y-141882896D01*
X111287051Y-141873351D01*
X111293716Y-141835553D01*
X111296091Y-141824839D01*
X111306024Y-141787767D01*
X111302679Y-141749532D01*
X111302200Y-141738551D01*
X111302200Y-141304700D01*
X111322202Y-141236579D01*
X111375858Y-141190086D01*
X111428200Y-141178700D01*
X111480937Y-141178700D01*
X111484009Y-141178397D01*
X111484018Y-141178397D01*
X111506676Y-141176165D01*
X111521652Y-141174690D01*
X111569870Y-141165099D01*
X111572836Y-141164199D01*
X111572841Y-141164198D01*
X111585924Y-141160229D01*
X111609022Y-141153222D01*
X111705590Y-141113222D01*
X111776655Y-141083786D01*
X111776664Y-141083782D01*
X111779517Y-141082600D01*
X111782247Y-141081141D01*
X111782255Y-141081137D01*
X111812868Y-141064774D01*
X111812872Y-141064772D01*
X111815599Y-141063314D01*
X111818157Y-141061605D01*
X111818165Y-141061600D01*
X111853906Y-141037718D01*
X111853912Y-141037714D01*
X111856475Y-141036001D01*
X111888099Y-141010047D01*
X112308047Y-140590099D01*
X112334000Y-140558476D01*
X112338137Y-140552286D01*
X112359591Y-140520178D01*
X112359594Y-140520174D01*
X112361314Y-140517599D01*
X112380602Y-140481515D01*
X112381784Y-140478662D01*
X112381788Y-140478653D01*
X112450042Y-140313872D01*
X112451223Y-140311021D01*
X112463099Y-140271870D01*
X112464836Y-140263140D01*
X112472085Y-140226693D01*
X112472690Y-140223652D01*
X112475840Y-140191668D01*
X112476397Y-140186018D01*
X112476397Y-140186009D01*
X112476700Y-140182937D01*
X112476700Y-136282636D01*
X112496702Y-136214515D01*
X112513605Y-136193541D01*
X112952541Y-135754605D01*
X113014853Y-135720579D01*
X113041636Y-135717700D01*
X115771810Y-135717700D01*
X115773465Y-135717611D01*
X115773477Y-135717611D01*
X115792435Y-135716595D01*
X115794115Y-135716505D01*
X115795792Y-135716325D01*
X115795801Y-135716324D01*
X115814740Y-135714288D01*
X115814741Y-135714288D01*
X115820898Y-135713626D01*
X115881526Y-135694642D01*
X115892711Y-135691140D01*
X115892714Y-135691139D01*
X115898615Y-135689291D01*
X115904039Y-135686329D01*
X115904044Y-135686327D01*
X115956975Y-135657423D01*
X115960927Y-135655265D01*
X115992535Y-135631603D01*
X116004865Y-135622373D01*
X116004867Y-135622371D01*
X116008478Y-135619668D01*
X116061668Y-135566478D01*
X116064914Y-135562865D01*
X116075476Y-135551107D01*
X116075484Y-135551097D01*
X116076593Y-135549863D01*
X116093496Y-135528889D01*
X116131244Y-135456728D01*
X116151246Y-135388607D01*
X116153528Y-135372740D01*
X116155473Y-135359208D01*
X116159700Y-135329810D01*
X116159700Y-122099190D01*
X116158505Y-122076885D01*
X116155626Y-122050102D01*
X116131291Y-121972385D01*
X116128329Y-121966961D01*
X116128327Y-121966956D01*
X116099423Y-121914025D01*
X116097265Y-121910073D01*
X116079618Y-121886499D01*
X116064373Y-121866135D01*
X116064371Y-121866133D01*
X116061668Y-121862522D01*
X116008478Y-121809332D01*
X116005467Y-121806627D01*
X115993107Y-121795524D01*
X115993097Y-121795516D01*
X115991863Y-121794407D01*
X115970889Y-121777504D01*
X115898728Y-121739756D01*
X115892790Y-121738013D01*
X115892789Y-121738012D01*
X115870873Y-121731577D01*
X115830607Y-121719754D01*
X115826148Y-121719113D01*
X115826144Y-121719112D01*
X115800144Y-121715374D01*
X115771810Y-121711300D01*
X115633605Y-121711300D01*
X115565484Y-121691298D01*
X115518991Y-121637642D01*
X115508887Y-121567368D01*
X115532515Y-121510088D01*
X115605142Y-121412473D01*
X115610745Y-121403438D01*
X115708959Y-121210265D01*
X115709099Y-121201201D01*
X115702367Y-121198000D01*
X112908639Y-121198000D01*
X112895108Y-121201973D01*
X112894303Y-121207570D01*
X112927263Y-121291029D01*
X112931994Y-121300561D01*
X113046016Y-121488462D01*
X113052279Y-121497051D01*
X113057200Y-121502722D01*
X113086737Y-121567283D01*
X113076681Y-121637564D01*
X113030225Y-121691251D01*
X112962032Y-121711300D01*
X108013605Y-121711300D01*
X107945484Y-121691298D01*
X107898991Y-121637642D01*
X107888887Y-121567368D01*
X107912515Y-121510088D01*
X107985142Y-121412473D01*
X107990745Y-121403438D01*
X108088959Y-121210265D01*
X108089099Y-121201201D01*
X108082367Y-121198000D01*
X105288639Y-121198000D01*
X105275108Y-121201973D01*
X105274303Y-121207570D01*
X105307263Y-121291029D01*
X105311994Y-121300561D01*
X105426016Y-121488462D01*
X105432279Y-121497051D01*
X105437200Y-121502722D01*
X105466737Y-121567283D01*
X105456681Y-121637564D01*
X105410225Y-121691251D01*
X105342032Y-121711300D01*
X100393605Y-121711300D01*
X100325484Y-121691298D01*
X100278991Y-121637642D01*
X100268887Y-121567368D01*
X100292515Y-121510088D01*
X100365142Y-121412473D01*
X100370745Y-121403438D01*
X100468959Y-121210265D01*
X100469099Y-121201201D01*
X100462367Y-121198000D01*
X97668639Y-121198000D01*
X97655108Y-121201973D01*
X97654303Y-121207570D01*
X97687263Y-121291029D01*
X97691994Y-121300561D01*
X97806016Y-121488462D01*
X97812280Y-121497052D01*
X97862278Y-121554669D01*
X97891818Y-121619229D01*
X97881764Y-121689510D01*
X97835310Y-121743199D01*
X97827500Y-121747837D01*
X97780073Y-121773735D01*
X97732522Y-121809332D01*
X97679332Y-121862522D01*
X97664407Y-121879137D01*
X97647504Y-121900111D01*
X97609756Y-121972272D01*
X97589754Y-122040393D01*
X97589113Y-122044852D01*
X97589112Y-122044856D01*
X97587291Y-122057523D01*
X97581300Y-122099190D01*
X97581300Y-127958830D01*
X97561298Y-128026951D01*
X97544395Y-128047925D01*
X96707768Y-128884552D01*
X96699664Y-128891978D01*
X96678706Y-128909564D01*
X96678704Y-128909567D01*
X96670261Y-128916651D01*
X96655885Y-128941550D01*
X96651078Y-128949876D01*
X96645173Y-128959145D01*
X96629485Y-128981550D01*
X96629484Y-128981553D01*
X96623160Y-128990584D01*
X96620306Y-129001233D01*
X96618731Y-129004611D01*
X96617460Y-129008104D01*
X96611949Y-129017649D01*
X96610035Y-129028502D01*
X96610035Y-129028503D01*
X96605285Y-129055443D01*
X96602909Y-129066161D01*
X96592976Y-129103233D01*
X96593936Y-129114208D01*
X96593936Y-129114209D01*
X96596321Y-129141468D01*
X96596800Y-129152449D01*
X96596800Y-129154903D01*
X96576798Y-129223024D01*
X96523142Y-129269517D01*
X96512549Y-129273785D01*
X96496580Y-129279393D01*
X96468717Y-129289178D01*
X96461142Y-129294773D01*
X96461140Y-129294774D01*
X96402360Y-129338190D01*
X96362000Y-129368000D01*
X96356408Y-129375571D01*
X96318319Y-129427140D01*
X96283178Y-129474717D01*
X96239219Y-129599893D01*
X96236300Y-129630774D01*
X96236300Y-130211226D01*
X96239219Y-130242107D01*
X96283178Y-130367283D01*
X96288773Y-130374858D01*
X96288774Y-130374860D01*
X96332456Y-130434000D01*
X96362000Y-130474000D01*
X96369571Y-130479592D01*
X96461140Y-130547226D01*
X96461142Y-130547227D01*
X96468717Y-130552822D01*
X96477607Y-130555944D01*
X96512549Y-130568215D01*
X96570194Y-130609658D01*
X96596282Y-130675688D01*
X96596800Y-130687097D01*
X96596800Y-130788344D01*
X96576798Y-130856465D01*
X96523142Y-130902958D01*
X96512549Y-130907226D01*
X96427607Y-130937056D01*
X96418717Y-130940178D01*
X96411142Y-130945773D01*
X96411140Y-130945774D01*
X96348455Y-130992074D01*
X96312000Y-131019000D01*
X96306408Y-131026571D01*
X96252029Y-131100195D01*
X96233178Y-131125717D01*
X96189219Y-131250893D01*
X96186300Y-131281774D01*
X96186300Y-131862226D01*
X96189219Y-131893107D01*
X96233178Y-132018283D01*
X96238773Y-132025858D01*
X96238774Y-132025860D01*
X96281566Y-132083796D01*
X96312000Y-132125000D01*
X96319571Y-132130592D01*
X96411140Y-132198226D01*
X96411142Y-132198227D01*
X96418717Y-132203822D01*
X96427607Y-132206944D01*
X96499501Y-132232192D01*
X96543893Y-132247781D01*
X96551535Y-132248503D01*
X96551538Y-132248504D01*
X96565787Y-132249850D01*
X96574774Y-132250700D01*
X97280226Y-132250700D01*
X97289213Y-132249850D01*
X97303462Y-132248504D01*
X97303465Y-132248503D01*
X97311107Y-132247781D01*
X97355499Y-132232192D01*
X97427393Y-132206944D01*
X97436283Y-132203822D01*
X97443858Y-132198227D01*
X97443860Y-132198226D01*
X97535429Y-132130592D01*
X97543000Y-132125000D01*
X97548592Y-132117429D01*
X97548596Y-132117425D01*
X97615333Y-132027070D01*
X97671894Y-131984159D01*
X97742675Y-131978639D01*
X97805205Y-132012263D01*
X97839974Y-132075939D01*
X97848991Y-132118715D01*
X97848994Y-132118726D01*
X97850063Y-132123796D01*
X97875883Y-132189931D01*
X97905140Y-132241626D01*
X97975443Y-132332622D01*
X97981120Y-132339651D01*
X97988157Y-132347987D01*
X98040191Y-132392282D01*
X98101055Y-132428831D01*
X98105203Y-132430575D01*
X98105207Y-132430577D01*
X98151667Y-132450110D01*
X98151671Y-132450111D01*
X98155816Y-132451854D01*
X99530378Y-132810435D01*
X100354334Y-133025380D01*
X100415200Y-133061930D01*
X100446643Y-133125584D01*
X100438681Y-133196132D01*
X100393842Y-133251177D01*
X100322529Y-133273300D01*
X99318949Y-133273300D01*
X99307968Y-133272821D01*
X99280709Y-133270436D01*
X99280708Y-133270436D01*
X99269733Y-133269476D01*
X99232661Y-133279409D01*
X99221945Y-133281784D01*
X99184149Y-133288449D01*
X99174603Y-133293960D01*
X99171114Y-133295230D01*
X99167735Y-133296806D01*
X99157083Y-133299660D01*
X99125639Y-133321678D01*
X99116383Y-133327574D01*
X99083151Y-133346761D01*
X99076066Y-133355204D01*
X99076063Y-133355207D01*
X99058478Y-133376164D01*
X99051052Y-133384268D01*
X98066916Y-134368404D01*
X98004604Y-134402430D01*
X97977821Y-134405309D01*
X97609886Y-134405309D01*
X97591640Y-134403784D01*
X97591624Y-134403912D01*
X97589207Y-134403601D01*
X97586800Y-134403196D01*
X97554883Y-134400334D01*
X97552452Y-134400304D01*
X97552447Y-134400304D01*
X97549784Y-134400272D01*
X97542541Y-134400183D01*
X97527735Y-134401147D01*
X97512978Y-134402107D01*
X97512968Y-134402108D01*
X97510557Y-134402265D01*
X97368780Y-134422569D01*
X97364477Y-134423827D01*
X97364478Y-134423827D01*
X97316561Y-134437838D01*
X97316557Y-134437840D01*
X97312260Y-134439096D01*
X97181881Y-134498376D01*
X97132272Y-134530102D01*
X97023771Y-134623592D01*
X97020832Y-134626961D01*
X97020828Y-134626965D01*
X97019954Y-134627967D01*
X96985060Y-134667967D01*
X96907160Y-134788152D01*
X96882460Y-134841610D01*
X96881175Y-134845908D01*
X96881172Y-134845915D01*
X96865427Y-134898565D01*
X96841424Y-134978828D01*
X96840761Y-134983262D01*
X96840760Y-134983268D01*
X96837931Y-135002200D01*
X96832720Y-135037066D01*
X96832440Y-135082851D01*
X96832069Y-135143675D01*
X96831845Y-135180287D01*
X96832184Y-135182760D01*
X96832309Y-135186615D01*
X96832309Y-135613000D01*
X96848119Y-135692480D01*
X96855013Y-135702798D01*
X96859762Y-135714263D01*
X96855653Y-135715965D01*
X96869679Y-135760715D01*
X96855247Y-135809867D01*
X96859762Y-135811737D01*
X96855013Y-135823202D01*
X96848119Y-135833520D01*
X96832309Y-135913000D01*
X96832309Y-136403896D01*
X96832307Y-136404666D01*
X96831845Y-136480287D01*
X96832454Y-136484730D01*
X96832454Y-136484736D01*
X96834948Y-136502941D01*
X96839837Y-136538629D01*
X96879194Y-136676338D01*
X96903239Y-136730092D01*
X96979665Y-136851220D01*
X96982572Y-136854636D01*
X96982573Y-136854637D01*
X96986317Y-136859036D01*
X97017832Y-136896065D01*
X97125183Y-136990873D01*
X97128920Y-136993328D01*
X97128923Y-136993330D01*
X97160751Y-137014237D01*
X97174399Y-137023202D01*
X97178456Y-137025107D01*
X97178460Y-137025109D01*
X97241487Y-137054700D01*
X97304044Y-137084071D01*
X97308331Y-137085382D01*
X97308332Y-137085382D01*
X97356080Y-137099980D01*
X97356083Y-137099981D01*
X97360359Y-137101288D01*
X97364780Y-137101976D01*
X97364783Y-137101977D01*
X97497455Y-137122634D01*
X97497462Y-137122635D01*
X97501877Y-137123322D01*
X97506343Y-137123377D01*
X97506348Y-137123377D01*
X97534454Y-137123720D01*
X97560758Y-137124042D01*
X97565200Y-137123461D01*
X97565203Y-137123461D01*
X97578248Y-137121755D01*
X97594585Y-137120691D01*
X97975222Y-137120691D01*
X97994605Y-137122191D01*
X97997055Y-137122572D01*
X98001877Y-137123323D01*
X98006360Y-137123378D01*
X98006363Y-137123378D01*
X98026806Y-137123627D01*
X98060758Y-137124042D01*
X98065199Y-137123461D01*
X98065204Y-137123461D01*
X98140446Y-137113622D01*
X98202772Y-137105472D01*
X98207087Y-137104267D01*
X98207093Y-137104266D01*
X98231132Y-137097554D01*
X98259491Y-137089636D01*
X98272139Y-137084071D01*
X98307074Y-137068699D01*
X98390584Y-137031953D01*
X98401580Y-137025109D01*
X98436772Y-137003203D01*
X98440575Y-137000836D01*
X98444002Y-136997955D01*
X98447637Y-136995317D01*
X98448288Y-136996214D01*
X98508673Y-136969727D01*
X98524729Y-136968700D01*
X98984300Y-136968700D01*
X99052421Y-136988702D01*
X99098914Y-137042358D01*
X99110300Y-137094700D01*
X99110300Y-145461300D01*
X99090298Y-145529421D01*
X99036642Y-145575914D01*
X98984300Y-145587300D01*
X76783700Y-145587300D01*
X76715579Y-145567298D01*
X76669086Y-145513642D01*
X76657700Y-145461300D01*
X76657700Y-144435226D01*
X82851300Y-144435226D01*
X82851579Y-144438176D01*
X82852760Y-144450668D01*
X82854219Y-144466107D01*
X82898178Y-144591283D01*
X82903773Y-144598858D01*
X82903774Y-144598860D01*
X82923115Y-144625045D01*
X82977000Y-144698000D01*
X82984571Y-144703592D01*
X83076140Y-144771226D01*
X83076142Y-144771227D01*
X83083717Y-144776822D01*
X83208893Y-144820781D01*
X83216535Y-144821503D01*
X83216538Y-144821504D01*
X83230787Y-144822850D01*
X83239774Y-144823700D01*
X83845226Y-144823700D01*
X83854213Y-144822850D01*
X83868462Y-144821504D01*
X83868465Y-144821503D01*
X83876107Y-144820781D01*
X84001283Y-144776822D01*
X84008858Y-144771227D01*
X84008860Y-144771226D01*
X84100429Y-144703592D01*
X84108000Y-144698000D01*
X84161885Y-144625045D01*
X84181226Y-144598860D01*
X84181227Y-144598858D01*
X84186822Y-144591283D01*
X84230781Y-144466107D01*
X84232241Y-144450668D01*
X84233421Y-144438176D01*
X84233700Y-144435226D01*
X84233700Y-143854774D01*
X84230781Y-143823893D01*
X84192699Y-143715452D01*
X84189944Y-143707607D01*
X84186822Y-143698717D01*
X84108000Y-143592000D01*
X84069651Y-143563675D01*
X84008860Y-143518774D01*
X84008858Y-143518773D01*
X84001283Y-143513178D01*
X83992394Y-143510056D01*
X83984075Y-143505652D01*
X83985040Y-143503830D01*
X83937302Y-143469506D01*
X83911217Y-143403475D01*
X83910700Y-143392072D01*
X83910700Y-143019266D01*
X83930702Y-142951145D01*
X83984358Y-142904652D01*
X83994951Y-142900384D01*
X84067393Y-142874944D01*
X84076283Y-142871822D01*
X84083858Y-142866227D01*
X84083860Y-142866226D01*
X84175429Y-142798592D01*
X84183000Y-142793000D01*
X84261822Y-142686283D01*
X84305781Y-142561107D01*
X84307005Y-142548164D01*
X84308421Y-142533176D01*
X84308700Y-142530226D01*
X84308700Y-141949774D01*
X84307850Y-141940787D01*
X84306504Y-141926538D01*
X84306503Y-141926535D01*
X84305781Y-141918893D01*
X84261822Y-141793717D01*
X84249321Y-141776791D01*
X84188592Y-141694571D01*
X84183000Y-141687000D01*
X84175429Y-141681408D01*
X84083860Y-141613774D01*
X84083858Y-141613773D01*
X84076283Y-141608178D01*
X83951107Y-141564219D01*
X83943465Y-141563497D01*
X83943462Y-141563496D01*
X83929213Y-141562150D01*
X83920226Y-141561300D01*
X83239774Y-141561300D01*
X83230787Y-141562150D01*
X83216538Y-141563496D01*
X83216535Y-141563497D01*
X83208893Y-141564219D01*
X83083717Y-141608178D01*
X83076142Y-141613773D01*
X83076140Y-141613774D01*
X82984571Y-141681408D01*
X82977000Y-141687000D01*
X82971408Y-141694571D01*
X82910680Y-141776791D01*
X82898178Y-141793717D01*
X82854219Y-141918893D01*
X82853497Y-141926535D01*
X82853496Y-141926538D01*
X82852150Y-141940787D01*
X82851300Y-141949774D01*
X82851300Y-142530226D01*
X82851579Y-142533176D01*
X82852996Y-142548164D01*
X82854219Y-142561107D01*
X82898178Y-142686283D01*
X82977000Y-142793000D01*
X82984571Y-142798592D01*
X83076140Y-142866226D01*
X83076142Y-142866227D01*
X83083717Y-142871822D01*
X83092607Y-142874944D01*
X83165049Y-142900384D01*
X83222694Y-142941827D01*
X83248782Y-143007857D01*
X83249300Y-143019266D01*
X83249300Y-143365734D01*
X83229298Y-143433855D01*
X83175642Y-143480348D01*
X83165048Y-143484616D01*
X83083717Y-143513178D01*
X83076142Y-143518773D01*
X83076140Y-143518774D01*
X83015349Y-143563675D01*
X82977000Y-143592000D01*
X82898178Y-143698717D01*
X82895056Y-143707607D01*
X82892301Y-143715452D01*
X82854219Y-143823893D01*
X82851300Y-143854774D01*
X82851300Y-144435226D01*
X76657700Y-144435226D01*
X76657700Y-137621700D01*
X76677702Y-137553579D01*
X76731358Y-137507086D01*
X76783700Y-137495700D01*
X78090331Y-137495700D01*
X78092150Y-137495594D01*
X78092165Y-137495594D01*
X78103118Y-137494958D01*
X78114470Y-137494299D01*
X78116281Y-137494088D01*
X78116294Y-137494087D01*
X78131563Y-137492309D01*
X78143419Y-137490928D01*
X78167229Y-137486746D01*
X78169018Y-137486324D01*
X78169031Y-137486321D01*
X78299192Y-137455594D01*
X78364445Y-137440190D01*
X78366067Y-137439714D01*
X78366075Y-137439712D01*
X78384255Y-137434378D01*
X78384257Y-137434377D01*
X78385884Y-137433900D01*
X78411286Y-137424945D01*
X78453030Y-137400190D01*
X78476003Y-137386567D01*
X78476008Y-137386563D01*
X78481327Y-137383409D01*
X78522361Y-137346567D01*
X78530805Y-137338985D01*
X78530806Y-137338984D01*
X78534154Y-137335978D01*
X78572256Y-137290406D01*
X78574361Y-137287000D01*
X78994000Y-137287000D01*
X84582000Y-140970000D01*
X85725000Y-140970000D01*
X85725000Y-135763000D01*
X82169000Y-135763000D01*
X80645000Y-134239000D01*
X79121000Y-134239000D01*
X79121000Y-134874000D01*
X78994000Y-136017000D01*
X78994000Y-137287000D01*
X78574361Y-137287000D01*
X78644713Y-137173167D01*
X78667939Y-137120479D01*
X78686757Y-137054237D01*
X78694700Y-136997206D01*
X78694700Y-136196190D01*
X78694591Y-136194144D01*
X78693595Y-136175565D01*
X78693505Y-136173885D01*
X78690626Y-136147102D01*
X78666291Y-136069385D01*
X78663329Y-136063961D01*
X78663327Y-136063956D01*
X78634423Y-136011025D01*
X78632265Y-136007073D01*
X78596668Y-135959522D01*
X78543478Y-135906332D01*
X78540467Y-135903627D01*
X78528107Y-135892524D01*
X78528097Y-135892516D01*
X78526863Y-135891407D01*
X78505889Y-135874504D01*
X78433728Y-135836756D01*
X78427790Y-135835013D01*
X78427789Y-135835012D01*
X78409959Y-135829777D01*
X78365607Y-135816754D01*
X78361148Y-135816113D01*
X78361144Y-135816112D01*
X78330714Y-135811737D01*
X78306810Y-135808300D01*
X76894556Y-135808300D01*
X76826435Y-135788298D01*
X76779942Y-135734642D01*
X76769838Y-135664368D01*
X76799332Y-135599788D01*
X76856973Y-135562036D01*
X76861569Y-135560600D01*
X77212964Y-135450789D01*
X78260089Y-135123563D01*
X78260153Y-135123542D01*
X78260580Y-135123409D01*
X78262272Y-135122851D01*
X78266397Y-135121491D01*
X78266404Y-135121489D01*
X78266785Y-135121363D01*
X78274253Y-135118770D01*
X78332306Y-135087602D01*
X78388772Y-135044566D01*
X78396144Y-135037066D01*
X78427258Y-135005409D01*
X78430412Y-135002200D01*
X78502680Y-134903901D01*
X78506476Y-134898565D01*
X78510942Y-134892073D01*
X78539244Y-134832586D01*
X78559246Y-134764465D01*
X78562134Y-134744383D01*
X78567058Y-134710131D01*
X78567700Y-134705668D01*
X78567700Y-134418190D01*
X78566505Y-134395885D01*
X78566258Y-134393581D01*
X78564288Y-134375260D01*
X78564288Y-134375259D01*
X78563626Y-134369102D01*
X78549251Y-134323192D01*
X78541140Y-134297289D01*
X78541139Y-134297286D01*
X78539291Y-134291385D01*
X78536329Y-134285961D01*
X78536327Y-134285956D01*
X78507423Y-134233025D01*
X78505265Y-134229073D01*
X78475321Y-134189073D01*
X78472373Y-134185135D01*
X78472371Y-134185133D01*
X78469668Y-134181522D01*
X78416478Y-134128332D01*
X78416993Y-134127817D01*
X78382684Y-134068818D01*
X78385841Y-133997892D01*
X78401237Y-133967942D01*
X78406934Y-133962235D01*
X78458646Y-133856445D01*
X78463845Y-133820808D01*
X78468040Y-133792054D01*
X78468040Y-133792048D01*
X78468700Y-133787527D01*
X78468699Y-133420474D01*
X78458467Y-133350955D01*
X78406571Y-133245256D01*
X78401845Y-133240539D01*
X78379172Y-133175562D01*
X78395735Y-133106525D01*
X78417224Y-133080414D01*
X78416478Y-133079668D01*
X78469668Y-133026478D01*
X78470800Y-133025218D01*
X78483476Y-133011107D01*
X78483484Y-133011097D01*
X78484593Y-133009863D01*
X78501496Y-132988889D01*
X78539244Y-132916728D01*
X78559246Y-132848607D01*
X78561528Y-132832740D01*
X78563473Y-132819208D01*
X78567700Y-132789810D01*
X78567700Y-132356351D01*
X78564492Y-132319898D01*
X78563374Y-132313592D01*
X78559553Y-132292055D01*
X78556804Y-132276559D01*
X78547278Y-132241228D01*
X78501928Y-132117425D01*
X78481573Y-132061858D01*
X78481572Y-132061855D01*
X78480619Y-132059254D01*
X78465070Y-132026131D01*
X78463680Y-132023740D01*
X78463675Y-132023731D01*
X78444342Y-131990484D01*
X78442945Y-131988081D01*
X78421847Y-131958180D01*
X77200513Y-130514784D01*
X77171781Y-130449862D01*
X77170700Y-130433396D01*
X77170700Y-129338190D01*
X77169855Y-129322408D01*
X77169595Y-129317565D01*
X77169505Y-129315885D01*
X77166626Y-129289102D01*
X77162947Y-129277352D01*
X77161677Y-129206370D01*
X77198986Y-129145967D01*
X77263029Y-129115323D01*
X77283189Y-129113700D01*
X78801090Y-129113700D01*
X78869211Y-129133702D01*
X78915704Y-129187358D01*
X78925808Y-129257632D01*
X78922970Y-129270675D01*
X78922979Y-129270677D01*
X78922024Y-129275069D01*
X78920754Y-129279393D01*
X78920113Y-129283852D01*
X78920112Y-129283856D01*
X78918291Y-129296523D01*
X78912300Y-129338190D01*
X78912300Y-132789810D01*
X78912389Y-132791465D01*
X78912389Y-132791477D01*
X78913307Y-132808607D01*
X78913495Y-132812115D01*
X78916374Y-132838898D01*
X78940709Y-132916615D01*
X78943671Y-132922039D01*
X78943673Y-132922044D01*
X78970465Y-132971107D01*
X78974735Y-132978927D01*
X79005137Y-133019538D01*
X79029947Y-133086056D01*
X79014856Y-133155431D01*
X78998004Y-133179246D01*
X78995407Y-133182137D01*
X78978504Y-133203111D01*
X78940756Y-133275272D01*
X78939013Y-133281210D01*
X78939012Y-133281211D01*
X78937951Y-133284826D01*
X78920754Y-133343393D01*
X78920113Y-133347852D01*
X78920112Y-133347856D01*
X78918051Y-133362190D01*
X78912300Y-133402190D01*
X78912300Y-133805810D01*
X78912389Y-133807465D01*
X78912389Y-133807477D01*
X78913340Y-133825229D01*
X78913495Y-133828115D01*
X78916374Y-133854898D01*
X78940709Y-133932615D01*
X78943671Y-133938039D01*
X78943673Y-133938044D01*
X78954863Y-133958536D01*
X78974735Y-133994927D01*
X79010332Y-134042478D01*
X79063522Y-134095668D01*
X79064779Y-134096797D01*
X79064782Y-134096800D01*
X79078893Y-134109476D01*
X79078903Y-134109484D01*
X79080137Y-134110593D01*
X79101111Y-134127496D01*
X79121820Y-134138329D01*
X79149977Y-134153058D01*
X79173272Y-134165244D01*
X79179210Y-134166987D01*
X79179211Y-134166988D01*
X79197041Y-134172223D01*
X79241393Y-134185246D01*
X79245852Y-134185887D01*
X79245856Y-134185888D01*
X79270792Y-134189473D01*
X79300190Y-134193700D01*
X80633364Y-134193700D01*
X80701485Y-134213702D01*
X80722459Y-134230605D01*
X82040901Y-135549047D01*
X82072525Y-135575001D01*
X82075088Y-135576714D01*
X82075094Y-135576718D01*
X82110835Y-135600600D01*
X82110843Y-135600605D01*
X82113401Y-135602314D01*
X82116128Y-135603772D01*
X82116132Y-135603774D01*
X82146745Y-135620137D01*
X82146753Y-135620141D01*
X82149483Y-135621600D01*
X82152336Y-135622782D01*
X82152345Y-135622786D01*
X82225573Y-135653118D01*
X82319978Y-135692222D01*
X82343076Y-135699229D01*
X82356159Y-135703198D01*
X82356164Y-135703199D01*
X82359130Y-135704099D01*
X82407348Y-135713690D01*
X82422324Y-135715165D01*
X82444982Y-135717397D01*
X82444991Y-135717397D01*
X82448063Y-135717700D01*
X85799810Y-135717700D01*
X85801465Y-135717611D01*
X85801477Y-135717611D01*
X85820435Y-135716595D01*
X85822115Y-135716505D01*
X85823792Y-135716325D01*
X85823801Y-135716324D01*
X85842740Y-135714288D01*
X85842741Y-135714288D01*
X85848898Y-135713626D01*
X85860648Y-135709947D01*
X85931630Y-135708677D01*
X85992033Y-135745986D01*
X86022677Y-135810029D01*
X86024300Y-135830189D01*
X86024300Y-140790810D01*
X86024389Y-140792465D01*
X86024389Y-140792477D01*
X86025383Y-140811033D01*
X86025495Y-140813115D01*
X86028374Y-140839898D01*
X86052709Y-140917615D01*
X86055671Y-140923039D01*
X86055673Y-140923044D01*
X86066863Y-140943536D01*
X86086735Y-140979927D01*
X86104382Y-141003501D01*
X86117932Y-141021600D01*
X86122332Y-141027478D01*
X86175522Y-141080668D01*
X86176779Y-141081797D01*
X86176782Y-141081800D01*
X86190893Y-141094476D01*
X86190903Y-141094484D01*
X86192137Y-141095593D01*
X86213111Y-141112496D01*
X86285272Y-141150244D01*
X86291210Y-141151987D01*
X86291211Y-141151988D01*
X86298520Y-141154134D01*
X86353393Y-141170246D01*
X86357852Y-141170887D01*
X86357856Y-141170888D01*
X86386415Y-141174994D01*
X86402732Y-141177340D01*
X86467313Y-141206833D01*
X86505696Y-141266559D01*
X86510800Y-141302057D01*
X86510800Y-141569330D01*
X86490798Y-141637451D01*
X86473895Y-141658425D01*
X86259925Y-141872395D01*
X86197613Y-141906421D01*
X86170830Y-141909300D01*
X86141707Y-141909300D01*
X86073586Y-141889298D01*
X86027093Y-141835642D01*
X86022832Y-141825069D01*
X86011822Y-141793717D01*
X85999321Y-141776791D01*
X85938592Y-141694571D01*
X85933000Y-141687000D01*
X85925429Y-141681408D01*
X85833860Y-141613774D01*
X85833858Y-141613773D01*
X85826283Y-141608178D01*
X85701107Y-141564219D01*
X85693465Y-141563497D01*
X85693462Y-141563496D01*
X85679213Y-141562150D01*
X85670226Y-141561300D01*
X84989774Y-141561300D01*
X84980787Y-141562150D01*
X84966538Y-141563496D01*
X84966535Y-141563497D01*
X84958893Y-141564219D01*
X84833717Y-141608178D01*
X84826142Y-141613773D01*
X84826140Y-141613774D01*
X84734571Y-141681408D01*
X84727000Y-141687000D01*
X84721408Y-141694571D01*
X84660680Y-141776791D01*
X84648178Y-141793717D01*
X84604219Y-141918893D01*
X84603497Y-141926535D01*
X84603496Y-141926538D01*
X84602150Y-141940787D01*
X84601300Y-141949774D01*
X84601300Y-142530226D01*
X84601579Y-142533176D01*
X84602996Y-142548164D01*
X84604219Y-142561107D01*
X84648178Y-142686283D01*
X84727000Y-142793000D01*
X84734571Y-142798592D01*
X84826140Y-142866226D01*
X84826142Y-142866227D01*
X84833717Y-142871822D01*
X84958893Y-142915781D01*
X84966535Y-142916503D01*
X84966538Y-142916504D01*
X84980787Y-142917850D01*
X84989774Y-142918700D01*
X85670226Y-142918700D01*
X85679213Y-142917850D01*
X85693462Y-142916504D01*
X85693465Y-142916503D01*
X85701107Y-142915781D01*
X85826283Y-142871822D01*
X85833858Y-142866227D01*
X85833860Y-142866226D01*
X85925429Y-142798592D01*
X85933000Y-142793000D01*
X86011822Y-142686283D01*
X86022826Y-142654948D01*
X86064268Y-142597306D01*
X86130297Y-142571218D01*
X86141707Y-142570700D01*
X86340051Y-142570700D01*
X86351032Y-142571179D01*
X86378291Y-142573564D01*
X86378292Y-142573564D01*
X86389267Y-142574524D01*
X86426339Y-142564591D01*
X86437053Y-142562216D01*
X86452900Y-142559422D01*
X86463997Y-142557465D01*
X86463998Y-142557465D01*
X86474851Y-142555551D01*
X86484396Y-142550040D01*
X86487889Y-142548769D01*
X86491267Y-142547194D01*
X86501916Y-142544340D01*
X86510947Y-142538016D01*
X86510950Y-142538015D01*
X86533355Y-142522327D01*
X86542624Y-142516422D01*
X86544017Y-142515618D01*
X86575849Y-142497239D01*
X86582933Y-142488796D01*
X86582936Y-142488794D01*
X86600522Y-142467836D01*
X86607948Y-142459732D01*
X87061232Y-142006448D01*
X87069336Y-141999022D01*
X87090294Y-141981436D01*
X87090296Y-141981433D01*
X87098739Y-141974349D01*
X87117922Y-141941124D01*
X87123827Y-141931855D01*
X87139515Y-141909450D01*
X87139516Y-141909447D01*
X87145840Y-141900416D01*
X87148694Y-141889767D01*
X87150269Y-141886389D01*
X87151540Y-141882896D01*
X87157051Y-141873351D01*
X87163716Y-141835553D01*
X87166091Y-141824839D01*
X87176024Y-141787767D01*
X87172679Y-141749532D01*
X87172200Y-141738551D01*
X87172200Y-141304700D01*
X87192202Y-141236579D01*
X87245858Y-141190086D01*
X87298200Y-141178700D01*
X87350937Y-141178700D01*
X87354009Y-141178397D01*
X87354018Y-141178397D01*
X87376676Y-141176165D01*
X87391652Y-141174690D01*
X87439870Y-141165099D01*
X87442836Y-141164199D01*
X87442841Y-141164198D01*
X87455924Y-141160229D01*
X87479022Y-141153222D01*
X87575590Y-141113222D01*
X87646655Y-141083786D01*
X87646664Y-141083782D01*
X87649517Y-141082600D01*
X87652247Y-141081141D01*
X87652255Y-141081137D01*
X87682868Y-141064774D01*
X87682872Y-141064772D01*
X87685599Y-141063314D01*
X87688157Y-141061605D01*
X87688165Y-141061600D01*
X87723906Y-141037718D01*
X87723912Y-141037714D01*
X87726475Y-141036001D01*
X87758099Y-141010047D01*
X88178047Y-140590099D01*
X88204000Y-140558476D01*
X88208137Y-140552286D01*
X88229591Y-140520178D01*
X88229594Y-140520174D01*
X88231314Y-140517599D01*
X88250602Y-140481515D01*
X88251784Y-140478662D01*
X88251788Y-140478653D01*
X88320042Y-140313872D01*
X88321223Y-140311021D01*
X88333099Y-140271870D01*
X88334836Y-140263140D01*
X88342085Y-140226693D01*
X88342690Y-140223652D01*
X88345840Y-140191668D01*
X88346397Y-140186018D01*
X88346397Y-140186009D01*
X88346700Y-140182937D01*
X88346700Y-136282636D01*
X88366702Y-136214515D01*
X88383605Y-136193541D01*
X88822541Y-135754605D01*
X88884853Y-135720579D01*
X88911636Y-135717700D01*
X91641810Y-135717700D01*
X91643465Y-135717611D01*
X91643477Y-135717611D01*
X91662435Y-135716595D01*
X91664115Y-135716505D01*
X91665792Y-135716325D01*
X91665801Y-135716324D01*
X91684740Y-135714288D01*
X91684741Y-135714288D01*
X91690898Y-135713626D01*
X91751526Y-135694642D01*
X91762711Y-135691140D01*
X91762714Y-135691139D01*
X91768615Y-135689291D01*
X91774039Y-135686329D01*
X91774044Y-135686327D01*
X91826975Y-135657423D01*
X91830927Y-135655265D01*
X91862535Y-135631603D01*
X91874865Y-135622373D01*
X91874867Y-135622371D01*
X91878478Y-135619668D01*
X91931668Y-135566478D01*
X91934914Y-135562865D01*
X91945476Y-135551107D01*
X91945484Y-135551097D01*
X91946593Y-135549863D01*
X91963496Y-135528889D01*
X92001244Y-135456728D01*
X92021246Y-135388607D01*
X92023528Y-135372740D01*
X92025473Y-135359208D01*
X92029700Y-135329810D01*
X92029700Y-122099190D01*
X92028505Y-122076885D01*
X92025626Y-122050102D01*
X92001291Y-121972385D01*
X91998329Y-121966961D01*
X91998327Y-121966956D01*
X91969423Y-121914025D01*
X91967265Y-121910073D01*
X91949618Y-121886499D01*
X91934373Y-121866135D01*
X91934371Y-121866133D01*
X91931668Y-121862522D01*
X91878478Y-121809332D01*
X91875467Y-121806627D01*
X91863107Y-121795524D01*
X91863097Y-121795516D01*
X91861863Y-121794407D01*
X91840889Y-121777504D01*
X91768728Y-121739756D01*
X91762790Y-121738013D01*
X91762789Y-121738012D01*
X91740873Y-121731577D01*
X91700607Y-121719754D01*
X91696148Y-121719113D01*
X91696144Y-121719112D01*
X91670144Y-121715374D01*
X91641810Y-121711300D01*
X91503605Y-121711300D01*
X91435484Y-121691298D01*
X91388991Y-121637642D01*
X91378887Y-121567368D01*
X91402515Y-121510088D01*
X91475142Y-121412473D01*
X91480745Y-121403438D01*
X91578959Y-121210265D01*
X91579099Y-121201201D01*
X91572367Y-121198000D01*
X88778639Y-121198000D01*
X88765108Y-121201973D01*
X88764303Y-121207570D01*
X88797263Y-121291029D01*
X88801994Y-121300561D01*
X88916016Y-121488462D01*
X88922279Y-121497051D01*
X88927200Y-121502722D01*
X88956737Y-121567283D01*
X88946681Y-121637564D01*
X88900225Y-121691251D01*
X88832032Y-121711300D01*
X83883605Y-121711300D01*
X83815484Y-121691298D01*
X83768991Y-121637642D01*
X83758887Y-121567368D01*
X83782515Y-121510088D01*
X83855142Y-121412473D01*
X83860745Y-121403438D01*
X83958959Y-121210265D01*
X83959099Y-121201201D01*
X83952367Y-121198000D01*
X81158639Y-121198000D01*
X81145108Y-121201973D01*
X81144303Y-121207570D01*
X81177263Y-121291029D01*
X81181994Y-121300561D01*
X81296016Y-121488462D01*
X81302279Y-121497051D01*
X81307200Y-121502722D01*
X81336737Y-121567283D01*
X81326681Y-121637564D01*
X81280225Y-121691251D01*
X81212032Y-121711300D01*
X76263605Y-121711300D01*
X76195484Y-121691298D01*
X76148991Y-121637642D01*
X76138887Y-121567368D01*
X76162515Y-121510088D01*
X76235142Y-121412473D01*
X76240745Y-121403438D01*
X76338959Y-121210265D01*
X76339099Y-121201201D01*
X76332367Y-121198000D01*
X73538639Y-121198000D01*
X73525108Y-121201973D01*
X73524303Y-121207570D01*
X73557263Y-121291029D01*
X73561994Y-121300561D01*
X73676016Y-121488462D01*
X73682280Y-121497052D01*
X73732278Y-121554669D01*
X73761818Y-121619229D01*
X73751764Y-121689510D01*
X73705310Y-121743199D01*
X73697500Y-121747837D01*
X73650073Y-121773735D01*
X73602522Y-121809332D01*
X73549332Y-121862522D01*
X73534407Y-121879137D01*
X73517504Y-121900111D01*
X73479756Y-121972272D01*
X73459754Y-122040393D01*
X73459113Y-122044852D01*
X73459112Y-122044856D01*
X73457291Y-122057523D01*
X73451300Y-122099190D01*
X73451300Y-127958830D01*
X73431298Y-128026951D01*
X73414395Y-128047925D01*
X72577768Y-128884552D01*
X72569664Y-128891978D01*
X72548706Y-128909564D01*
X72548704Y-128909567D01*
X72540261Y-128916651D01*
X72525885Y-128941550D01*
X72521078Y-128949876D01*
X72515173Y-128959145D01*
X72499485Y-128981550D01*
X72499484Y-128981553D01*
X72493160Y-128990584D01*
X72490306Y-129001233D01*
X72488731Y-129004611D01*
X72487460Y-129008104D01*
X72481949Y-129017649D01*
X72480035Y-129028502D01*
X72480035Y-129028503D01*
X72475285Y-129055443D01*
X72472909Y-129066161D01*
X72462976Y-129103233D01*
X72463936Y-129114208D01*
X72463936Y-129114209D01*
X72466321Y-129141468D01*
X72466800Y-129152449D01*
X72466800Y-129154903D01*
X72446798Y-129223024D01*
X72393142Y-129269517D01*
X72382549Y-129273785D01*
X72366580Y-129279393D01*
X72338717Y-129289178D01*
X72331142Y-129294773D01*
X72331140Y-129294774D01*
X72272360Y-129338190D01*
X72232000Y-129368000D01*
X72226408Y-129375571D01*
X72188319Y-129427140D01*
X72153178Y-129474717D01*
X72109219Y-129599893D01*
X72106300Y-129630774D01*
X72106300Y-130211226D01*
X72109219Y-130242107D01*
X72153178Y-130367283D01*
X72158773Y-130374858D01*
X72158774Y-130374860D01*
X72202456Y-130434000D01*
X72232000Y-130474000D01*
X72239571Y-130479592D01*
X72331140Y-130547226D01*
X72331142Y-130547227D01*
X72338717Y-130552822D01*
X72347607Y-130555944D01*
X72382549Y-130568215D01*
X72440194Y-130609658D01*
X72466282Y-130675688D01*
X72466800Y-130687097D01*
X72466800Y-130788344D01*
X72446798Y-130856465D01*
X72393142Y-130902958D01*
X72382549Y-130907226D01*
X72297607Y-130937056D01*
X72288717Y-130940178D01*
X72281142Y-130945773D01*
X72281140Y-130945774D01*
X72218455Y-130992074D01*
X72182000Y-131019000D01*
X72176408Y-131026571D01*
X72122029Y-131100195D01*
X72103178Y-131125717D01*
X72059219Y-131250893D01*
X72056300Y-131281774D01*
X72056300Y-131862226D01*
X72059219Y-131893107D01*
X72103178Y-132018283D01*
X72108773Y-132025858D01*
X72108774Y-132025860D01*
X72151566Y-132083796D01*
X72182000Y-132125000D01*
X72189571Y-132130592D01*
X72281140Y-132198226D01*
X72281142Y-132198227D01*
X72288717Y-132203822D01*
X72297607Y-132206944D01*
X72369501Y-132232192D01*
X72413893Y-132247781D01*
X72421535Y-132248503D01*
X72421538Y-132248504D01*
X72435787Y-132249850D01*
X72444774Y-132250700D01*
X73150226Y-132250700D01*
X73159213Y-132249850D01*
X73173462Y-132248504D01*
X73173465Y-132248503D01*
X73181107Y-132247781D01*
X73225499Y-132232192D01*
X73297393Y-132206944D01*
X73306283Y-132203822D01*
X73313858Y-132198227D01*
X73313860Y-132198226D01*
X73405429Y-132130592D01*
X73413000Y-132125000D01*
X73418592Y-132117429D01*
X73418596Y-132117425D01*
X73485333Y-132027070D01*
X73541894Y-131984159D01*
X73612675Y-131978639D01*
X73675205Y-132012263D01*
X73709974Y-132075939D01*
X73718991Y-132118715D01*
X73718994Y-132118726D01*
X73720063Y-132123796D01*
X73745883Y-132189931D01*
X73775140Y-132241626D01*
X73845443Y-132332622D01*
X73851120Y-132339651D01*
X73858157Y-132347987D01*
X73910191Y-132392282D01*
X73971055Y-132428831D01*
X73975203Y-132430575D01*
X73975207Y-132430577D01*
X74021667Y-132450110D01*
X74021671Y-132450111D01*
X74025816Y-132451854D01*
X75400378Y-132810435D01*
X76224334Y-133025380D01*
X76285200Y-133061930D01*
X76316643Y-133125584D01*
X76308681Y-133196132D01*
X76263842Y-133251177D01*
X76192529Y-133273300D01*
X75188949Y-133273300D01*
X75177968Y-133272821D01*
X75150709Y-133270436D01*
X75150708Y-133270436D01*
X75139733Y-133269476D01*
X75102661Y-133279409D01*
X75091945Y-133281784D01*
X75054149Y-133288449D01*
X75044603Y-133293960D01*
X75041114Y-133295230D01*
X75037735Y-133296806D01*
X75027083Y-133299660D01*
X74995639Y-133321678D01*
X74986383Y-133327574D01*
X74953151Y-133346761D01*
X74946066Y-133355204D01*
X74946063Y-133355207D01*
X74928478Y-133376164D01*
X74921052Y-133384268D01*
X73936916Y-134368404D01*
X73874604Y-134402430D01*
X73847821Y-134405309D01*
X73479886Y-134405309D01*
X73461640Y-134403784D01*
X73461624Y-134403912D01*
X73459207Y-134403601D01*
X73456800Y-134403196D01*
X73424883Y-134400334D01*
X73422452Y-134400304D01*
X73422447Y-134400304D01*
X73419784Y-134400272D01*
X73412541Y-134400183D01*
X73397735Y-134401147D01*
X73382978Y-134402107D01*
X73382968Y-134402108D01*
X73380557Y-134402265D01*
X73238780Y-134422569D01*
X73234477Y-134423827D01*
X73234478Y-134423827D01*
X73186561Y-134437838D01*
X73186557Y-134437840D01*
X73182260Y-134439096D01*
X73051881Y-134498376D01*
X73002272Y-134530102D01*
X72893771Y-134623592D01*
X72890832Y-134626961D01*
X72890828Y-134626965D01*
X72889954Y-134627967D01*
X72855060Y-134667967D01*
X72777160Y-134788152D01*
X72752460Y-134841610D01*
X72751175Y-134845908D01*
X72751172Y-134845915D01*
X72735427Y-134898565D01*
X72711424Y-134978828D01*
X72710761Y-134983262D01*
X72710760Y-134983268D01*
X72707931Y-135002200D01*
X72702720Y-135037066D01*
X72702440Y-135082851D01*
X72702069Y-135143675D01*
X72701845Y-135180287D01*
X72702184Y-135182760D01*
X72702309Y-135186615D01*
X72702309Y-135613000D01*
X72718119Y-135692480D01*
X72725013Y-135702798D01*
X72729762Y-135714263D01*
X72725653Y-135715965D01*
X72739679Y-135760715D01*
X72725247Y-135809867D01*
X72729762Y-135811737D01*
X72725013Y-135823202D01*
X72718119Y-135833520D01*
X72702309Y-135913000D01*
X72702309Y-136403896D01*
X72702307Y-136404666D01*
X72701845Y-136480287D01*
X72702454Y-136484730D01*
X72702454Y-136484736D01*
X72704948Y-136502941D01*
X72709837Y-136538629D01*
X72749194Y-136676338D01*
X72773239Y-136730092D01*
X72849665Y-136851220D01*
X72852572Y-136854636D01*
X72852573Y-136854637D01*
X72856317Y-136859036D01*
X72887832Y-136896065D01*
X72995183Y-136990873D01*
X72998920Y-136993328D01*
X72998923Y-136993330D01*
X73030751Y-137014237D01*
X73044399Y-137023202D01*
X73048456Y-137025107D01*
X73048460Y-137025109D01*
X73111487Y-137054700D01*
X73174044Y-137084071D01*
X73178331Y-137085382D01*
X73178332Y-137085382D01*
X73226080Y-137099980D01*
X73226083Y-137099981D01*
X73230359Y-137101288D01*
X73234780Y-137101976D01*
X73234783Y-137101977D01*
X73367455Y-137122634D01*
X73367462Y-137122635D01*
X73371877Y-137123322D01*
X73376343Y-137123377D01*
X73376348Y-137123377D01*
X73404454Y-137123720D01*
X73430758Y-137124042D01*
X73435200Y-137123461D01*
X73435203Y-137123461D01*
X73448248Y-137121755D01*
X73464585Y-137120691D01*
X73845222Y-137120691D01*
X73864605Y-137122191D01*
X73867055Y-137122572D01*
X73871877Y-137123323D01*
X73876360Y-137123378D01*
X73876363Y-137123378D01*
X73896806Y-137123627D01*
X73930758Y-137124042D01*
X73935199Y-137123461D01*
X73935204Y-137123461D01*
X74010446Y-137113622D01*
X74072772Y-137105472D01*
X74077087Y-137104267D01*
X74077093Y-137104266D01*
X74101132Y-137097554D01*
X74129491Y-137089636D01*
X74142139Y-137084071D01*
X74177074Y-137068699D01*
X74260584Y-137031953D01*
X74271580Y-137025109D01*
X74306772Y-137003203D01*
X74310575Y-137000836D01*
X74314002Y-136997955D01*
X74317637Y-136995317D01*
X74318288Y-136996214D01*
X74378673Y-136969727D01*
X74394729Y-136968700D01*
X74854300Y-136968700D01*
X74922421Y-136988702D01*
X74968914Y-137042358D01*
X74980300Y-137094700D01*
X74980300Y-145461300D01*
X74960298Y-145529421D01*
X74906642Y-145575914D01*
X74854300Y-145587300D01*
X60631190Y-145587300D01*
X60629535Y-145587389D01*
X60629523Y-145587389D01*
X60610967Y-145588383D01*
X60608885Y-145588495D01*
X60607208Y-145588675D01*
X60607199Y-145588676D01*
X60588260Y-145590712D01*
X60588259Y-145590712D01*
X60582102Y-145591374D01*
X60537996Y-145605185D01*
X60510289Y-145613860D01*
X60510286Y-145613861D01*
X60504385Y-145615709D01*
X60498961Y-145618671D01*
X60498956Y-145618673D01*
X60448175Y-145646403D01*
X60442073Y-145649735D01*
X60394522Y-145685332D01*
X60341332Y-145738522D01*
X60326407Y-145755137D01*
X60309504Y-145776111D01*
X60271756Y-145848272D01*
X60251754Y-145916393D01*
X60251113Y-145920852D01*
X60251112Y-145920856D01*
X60250358Y-145926102D01*
X60243300Y-145975190D01*
X60243300Y-151204702D01*
X51891048Y-151204702D01*
X51687702Y-151028502D01*
X51679024Y-151020227D01*
X51408785Y-150736809D01*
X51400932Y-150727747D01*
X51158849Y-150419913D01*
X51151894Y-150410146D01*
X51080579Y-150299178D01*
X50940162Y-150080685D01*
X50934177Y-150070318D01*
X50786517Y-149783897D01*
X50754728Y-149722234D01*
X50749747Y-149711327D01*
X50604200Y-149347768D01*
X50600278Y-149336437D01*
X50489948Y-148960685D01*
X50487121Y-148949033D01*
X50413005Y-148564489D01*
X50411299Y-148552620D01*
X50374075Y-148162789D01*
X50373504Y-148150812D01*
X50373504Y-147759188D01*
X50374075Y-147747211D01*
X50411299Y-147357380D01*
X50413005Y-147345511D01*
X50487121Y-146960967D01*
X50489948Y-146949315D01*
X50600278Y-146573563D01*
X50604200Y-146562232D01*
X50749747Y-146198673D01*
X50754728Y-146187766D01*
X50864318Y-145975190D01*
X50934177Y-145839682D01*
X50940162Y-145829315D01*
X51151896Y-145499851D01*
X51158849Y-145490087D01*
X51181488Y-145461300D01*
X51400932Y-145182253D01*
X51408785Y-145173191D01*
X51679024Y-144889773D01*
X51687702Y-144881498D01*
X51983665Y-144625045D01*
X51993090Y-144617634D01*
X52312095Y-144390471D01*
X52322182Y-144383988D01*
X52491752Y-144286086D01*
X52661328Y-144188182D01*
X52671974Y-144182693D01*
X53028220Y-144020001D01*
X53039338Y-144015551D01*
X53130610Y-143983961D01*
X53409421Y-143887464D01*
X53420926Y-143884086D01*
X53801497Y-143791761D01*
X53813253Y-143789494D01*
X54200906Y-143733758D01*
X54212832Y-143732620D01*
X54573211Y-143715452D01*
X54595032Y-143717422D01*
X54595138Y-143716498D01*
X54602265Y-143717313D01*
X54609270Y-143718937D01*
X54609628Y-143718937D01*
X54609635Y-143718939D01*
X54609642Y-143718938D01*
X54609999Y-143718938D01*
X54615233Y-143717744D01*
X54620555Y-143717498D01*
X54620880Y-143717619D01*
X54621054Y-143717621D01*
X54621591Y-143717450D01*
X54683129Y-143714605D01*
X54977841Y-143700980D01*
X54977848Y-143700979D01*
X54980732Y-143700846D01*
X55103397Y-143683735D01*
X55345414Y-143649975D01*
X55345417Y-143649974D01*
X55348302Y-143649572D01*
X55593084Y-143592000D01*
X55706734Y-143565270D01*
X55706740Y-143565268D01*
X55709573Y-143564602D01*
X55960954Y-143480348D01*
X56058695Y-143447589D01*
X56058700Y-143447587D01*
X56061463Y-143446661D01*
X56400970Y-143296754D01*
X56508239Y-143237006D01*
X56722644Y-143117583D01*
X56725197Y-143116161D01*
X57031377Y-142906422D01*
X57316900Y-142669328D01*
X57579328Y-142406900D01*
X57816422Y-142121377D01*
X58026161Y-141815197D01*
X58065786Y-141744057D01*
X58205330Y-141493527D01*
X58205332Y-141493523D01*
X58206754Y-141490970D01*
X58356661Y-141151463D01*
X58361041Y-141138397D01*
X58433219Y-140923044D01*
X58474602Y-140799573D01*
X58475268Y-140796740D01*
X58475270Y-140796734D01*
X58532763Y-140552286D01*
X58559572Y-140438302D01*
X58580870Y-140285626D01*
X58603540Y-140123107D01*
X58610846Y-140070732D01*
X58612535Y-140034213D01*
X58618656Y-139901810D01*
X61386300Y-139901810D01*
X61387495Y-139924115D01*
X61390374Y-139950898D01*
X61414709Y-140028615D01*
X61417671Y-140034039D01*
X61417673Y-140034044D01*
X61428286Y-140053479D01*
X61448735Y-140090927D01*
X61484332Y-140138478D01*
X61537522Y-140191668D01*
X61538779Y-140192797D01*
X61538782Y-140192800D01*
X61552893Y-140205476D01*
X61552903Y-140205484D01*
X61554137Y-140206593D01*
X61575111Y-140223496D01*
X61596778Y-140234830D01*
X61641696Y-140258327D01*
X61647272Y-140261244D01*
X61653210Y-140262987D01*
X61653211Y-140262988D01*
X61653729Y-140263140D01*
X61715393Y-140281246D01*
X61719852Y-140281887D01*
X61719856Y-140281888D01*
X61744791Y-140285473D01*
X61774190Y-140289700D01*
X67765810Y-140289700D01*
X67767465Y-140289611D01*
X67767477Y-140289611D01*
X67786435Y-140288595D01*
X67788115Y-140288505D01*
X67789792Y-140288325D01*
X67789801Y-140288324D01*
X67808740Y-140286288D01*
X67808741Y-140286288D01*
X67814898Y-140285626D01*
X67861541Y-140271021D01*
X67886711Y-140263140D01*
X67886714Y-140263139D01*
X67892615Y-140261291D01*
X67898039Y-140258329D01*
X67898044Y-140258327D01*
X67950975Y-140229423D01*
X67954927Y-140227265D01*
X68002478Y-140191668D01*
X68055668Y-140138478D01*
X68070593Y-140121863D01*
X68087496Y-140100889D01*
X68125244Y-140028728D01*
X68145246Y-139960607D01*
X68147528Y-139944740D01*
X68149473Y-139931209D01*
X68153700Y-139901810D01*
X68153700Y-126544190D01*
X68153555Y-126541471D01*
X68152595Y-126523565D01*
X68152505Y-126521885D01*
X68149626Y-126495102D01*
X68125291Y-126417385D01*
X68122329Y-126411961D01*
X68122327Y-126411956D01*
X68093423Y-126359025D01*
X68091265Y-126355073D01*
X68055668Y-126307522D01*
X68002478Y-126254332D01*
X67999467Y-126251627D01*
X67987107Y-126240524D01*
X67987097Y-126240516D01*
X67985863Y-126239407D01*
X67964889Y-126222504D01*
X67923995Y-126201112D01*
X67898213Y-126187625D01*
X67898211Y-126187624D01*
X67892728Y-126184756D01*
X67886790Y-126183013D01*
X67886789Y-126183012D01*
X67868959Y-126177777D01*
X67824607Y-126164754D01*
X67820148Y-126164113D01*
X67820144Y-126164112D01*
X67789540Y-126159712D01*
X67765810Y-126156300D01*
X61774190Y-126156300D01*
X61772535Y-126156389D01*
X61772523Y-126156389D01*
X61753967Y-126157383D01*
X61751885Y-126157495D01*
X61750208Y-126157675D01*
X61750199Y-126157676D01*
X61731260Y-126159712D01*
X61731259Y-126159712D01*
X61725102Y-126160374D01*
X61680996Y-126174185D01*
X61653289Y-126182860D01*
X61653286Y-126182861D01*
X61647385Y-126184709D01*
X61641961Y-126187671D01*
X61641956Y-126187673D01*
X61604342Y-126208213D01*
X61585073Y-126218735D01*
X61537522Y-126254332D01*
X61484332Y-126307522D01*
X61469407Y-126324137D01*
X61452504Y-126345111D01*
X61414756Y-126417272D01*
X61394754Y-126485393D01*
X61394113Y-126489852D01*
X61394112Y-126489856D01*
X61390527Y-126514791D01*
X61386300Y-126544190D01*
X61386300Y-139901810D01*
X58618656Y-139901810D01*
X58627637Y-139707539D01*
X58627786Y-139705695D01*
X58628937Y-139700728D01*
X58628938Y-139699999D01*
X58626853Y-139690860D01*
X58623699Y-139662845D01*
X58623700Y-129577739D01*
X58626955Y-129549286D01*
X58627326Y-129547686D01*
X58627327Y-129547681D01*
X58628938Y-129540729D01*
X58628939Y-129540000D01*
X58627800Y-129535008D01*
X58627695Y-129533677D01*
X58610981Y-129172158D01*
X58610980Y-129172151D01*
X58610847Y-129169267D01*
X58575956Y-128919145D01*
X58559976Y-128804585D01*
X58559975Y-128804582D01*
X58559573Y-128801697D01*
X58474603Y-128440426D01*
X58356661Y-128088536D01*
X58206754Y-127749029D01*
X58026161Y-127424802D01*
X57816423Y-127118622D01*
X57814575Y-127116396D01*
X57814567Y-127116386D01*
X57581185Y-126835336D01*
X57581182Y-126835333D01*
X57579328Y-126833100D01*
X57316900Y-126570672D01*
X57314664Y-126568815D01*
X57033614Y-126335433D01*
X57033604Y-126335425D01*
X57031378Y-126333577D01*
X56725198Y-126123839D01*
X56662625Y-126088986D01*
X56403528Y-125944670D01*
X56403524Y-125944668D01*
X56400971Y-125943246D01*
X56061464Y-125793339D01*
X55709574Y-125675397D01*
X55706741Y-125674731D01*
X55706735Y-125674729D01*
X55546245Y-125636982D01*
X55348303Y-125590427D01*
X55345418Y-125590025D01*
X55345415Y-125590024D01*
X54983600Y-125539553D01*
X54983601Y-125539553D01*
X54980733Y-125539153D01*
X54977849Y-125539020D01*
X54977842Y-125539019D01*
X54617377Y-125522354D01*
X54615735Y-125522222D01*
X54610729Y-125521062D01*
X54610367Y-125521062D01*
X54610365Y-125521061D01*
X54610000Y-125521061D01*
X54603100Y-125522635D01*
X54596077Y-125523426D01*
X54595985Y-125522609D01*
X54573786Y-125524575D01*
X54212823Y-125507380D01*
X54200906Y-125506242D01*
X53923303Y-125466329D01*
X53813270Y-125450508D01*
X53801497Y-125448239D01*
X53420926Y-125355914D01*
X53409421Y-125352536D01*
X53130610Y-125256039D01*
X53039338Y-125224449D01*
X53028220Y-125219999D01*
X52671974Y-125057307D01*
X52661328Y-125051818D01*
X52491752Y-124953914D01*
X52322182Y-124856012D01*
X52312095Y-124849529D01*
X51993090Y-124622366D01*
X51983665Y-124614955D01*
X51687702Y-124358502D01*
X51679024Y-124350227D01*
X51408785Y-124066809D01*
X51400932Y-124057747D01*
X51316919Y-123950915D01*
X61262001Y-123950915D01*
X61262061Y-123953672D01*
X61264601Y-124011855D01*
X61265317Y-124018972D01*
X61307999Y-124288453D01*
X61309978Y-124297023D01*
X61389504Y-124557143D01*
X61392655Y-124565353D01*
X61507613Y-124811882D01*
X61511876Y-124819572D01*
X61660024Y-125047700D01*
X61665314Y-125054719D01*
X61843783Y-125260024D01*
X61849976Y-125266217D01*
X62055281Y-125444686D01*
X62062300Y-125449976D01*
X62290428Y-125598124D01*
X62298118Y-125602387D01*
X62544647Y-125717345D01*
X62552857Y-125720496D01*
X62812977Y-125800022D01*
X62821547Y-125802001D01*
X63091044Y-125844685D01*
X63098128Y-125845399D01*
X63156331Y-125847940D01*
X63159083Y-125848000D01*
X64243885Y-125848000D01*
X64259124Y-125843525D01*
X64260329Y-125842135D01*
X64262000Y-125834452D01*
X64262000Y-125829884D01*
X65278000Y-125829884D01*
X65282475Y-125845123D01*
X65283865Y-125846328D01*
X65291548Y-125847999D01*
X66380915Y-125847999D01*
X66383672Y-125847939D01*
X66441855Y-125845399D01*
X66448972Y-125844683D01*
X66718453Y-125802001D01*
X66727023Y-125800022D01*
X66987143Y-125720496D01*
X66995353Y-125717345D01*
X67241882Y-125602387D01*
X67249572Y-125598124D01*
X67477700Y-125449976D01*
X67484719Y-125444686D01*
X67690024Y-125266217D01*
X67696217Y-125260024D01*
X67874686Y-125054719D01*
X67879976Y-125047700D01*
X68028124Y-124819572D01*
X68032387Y-124811882D01*
X68147345Y-124565353D01*
X68150496Y-124557143D01*
X68230022Y-124297023D01*
X68232001Y-124288453D01*
X68274685Y-124018956D01*
X68275399Y-124011872D01*
X68277940Y-123953669D01*
X68278000Y-123950917D01*
X68278000Y-122866115D01*
X68273525Y-122850876D01*
X68272135Y-122849671D01*
X68264452Y-122848000D01*
X65296115Y-122848000D01*
X65280876Y-122852475D01*
X65279671Y-122853865D01*
X65278000Y-122861548D01*
X65278000Y-125829884D01*
X64262000Y-125829884D01*
X64262000Y-122866115D01*
X64257525Y-122850876D01*
X64256135Y-122849671D01*
X64248452Y-122848000D01*
X61280116Y-122848000D01*
X61264877Y-122852475D01*
X61263672Y-122853865D01*
X61262001Y-122861548D01*
X61262001Y-123950915D01*
X51316919Y-123950915D01*
X51158849Y-123749913D01*
X51151894Y-123740146D01*
X50991195Y-123490094D01*
X50940162Y-123410685D01*
X50934177Y-123400318D01*
X50754728Y-123052234D01*
X50749747Y-123041327D01*
X50604200Y-122677768D01*
X50600278Y-122666437D01*
X50489948Y-122290685D01*
X50487121Y-122279033D01*
X50413005Y-121894489D01*
X50411299Y-121882620D01*
X50404736Y-121813885D01*
X61262000Y-121813885D01*
X61266475Y-121829124D01*
X61267865Y-121830329D01*
X61275548Y-121832000D01*
X64243885Y-121832000D01*
X64259124Y-121827525D01*
X64260329Y-121826135D01*
X64262000Y-121818452D01*
X64262000Y-121813885D01*
X65278000Y-121813885D01*
X65282475Y-121829124D01*
X65283865Y-121830329D01*
X65291548Y-121832000D01*
X68259884Y-121832000D01*
X68275123Y-121827525D01*
X68276328Y-121826135D01*
X68277999Y-121818452D01*
X68277999Y-120729086D01*
X68277939Y-120726328D01*
X68275399Y-120668145D01*
X68274683Y-120661028D01*
X68232001Y-120391547D01*
X68230022Y-120382977D01*
X68167599Y-120178799D01*
X73520901Y-120178799D01*
X73527633Y-120182000D01*
X74403885Y-120182000D01*
X74419124Y-120177525D01*
X74420329Y-120176135D01*
X74422000Y-120168452D01*
X74422000Y-120163885D01*
X75438000Y-120163885D01*
X75442475Y-120179124D01*
X75443865Y-120180329D01*
X75451548Y-120182000D01*
X76321361Y-120182000D01*
X76332263Y-120178799D01*
X81140901Y-120178799D01*
X81147633Y-120182000D01*
X82023885Y-120182000D01*
X82039124Y-120177525D01*
X82040329Y-120176135D01*
X82042000Y-120168452D01*
X82042000Y-120163885D01*
X83058000Y-120163885D01*
X83062475Y-120179124D01*
X83063865Y-120180329D01*
X83071548Y-120182000D01*
X83941361Y-120182000D01*
X83952263Y-120178799D01*
X88760901Y-120178799D01*
X88767633Y-120182000D01*
X89643885Y-120182000D01*
X89659124Y-120177525D01*
X89660329Y-120176135D01*
X89662000Y-120168452D01*
X89662000Y-120163885D01*
X90678000Y-120163885D01*
X90682475Y-120179124D01*
X90683865Y-120180329D01*
X90691548Y-120182000D01*
X91561361Y-120182000D01*
X91572263Y-120178799D01*
X97650901Y-120178799D01*
X97657633Y-120182000D01*
X98533885Y-120182000D01*
X98549124Y-120177525D01*
X98550329Y-120176135D01*
X98552000Y-120168452D01*
X98552000Y-120163885D01*
X99568000Y-120163885D01*
X99572475Y-120179124D01*
X99573865Y-120180329D01*
X99581548Y-120182000D01*
X100451361Y-120182000D01*
X100462263Y-120178799D01*
X105270901Y-120178799D01*
X105277633Y-120182000D01*
X106153885Y-120182000D01*
X106169124Y-120177525D01*
X106170329Y-120176135D01*
X106172000Y-120168452D01*
X106172000Y-120163885D01*
X107188000Y-120163885D01*
X107192475Y-120179124D01*
X107193865Y-120180329D01*
X107201548Y-120182000D01*
X108071361Y-120182000D01*
X108082263Y-120178799D01*
X112890901Y-120178799D01*
X112897633Y-120182000D01*
X113773885Y-120182000D01*
X113789124Y-120177525D01*
X113790329Y-120176135D01*
X113792000Y-120168452D01*
X113792000Y-120163885D01*
X114808000Y-120163885D01*
X114812475Y-120179124D01*
X114813865Y-120180329D01*
X114821548Y-120182000D01*
X115691361Y-120182000D01*
X115702263Y-120178799D01*
X121780901Y-120178799D01*
X121787633Y-120182000D01*
X122663885Y-120182000D01*
X122679124Y-120177525D01*
X122680329Y-120176135D01*
X122682000Y-120168452D01*
X122682000Y-120163885D01*
X123698000Y-120163885D01*
X123702475Y-120179124D01*
X123703865Y-120180329D01*
X123711548Y-120182000D01*
X124581361Y-120182000D01*
X124592263Y-120178799D01*
X129400901Y-120178799D01*
X129407633Y-120182000D01*
X130283885Y-120182000D01*
X130299124Y-120177525D01*
X130300329Y-120176135D01*
X130302000Y-120168452D01*
X130302000Y-120163885D01*
X131318000Y-120163885D01*
X131322475Y-120179124D01*
X131323865Y-120180329D01*
X131331548Y-120182000D01*
X132201361Y-120182000D01*
X132212263Y-120178799D01*
X137020901Y-120178799D01*
X137027633Y-120182000D01*
X137903885Y-120182000D01*
X137919124Y-120177525D01*
X137920329Y-120176135D01*
X137922000Y-120168452D01*
X137922000Y-120163885D01*
X138938000Y-120163885D01*
X138942475Y-120179124D01*
X138943865Y-120180329D01*
X138951548Y-120182000D01*
X139821361Y-120182000D01*
X139834892Y-120178027D01*
X139835697Y-120172430D01*
X139822415Y-120138799D01*
X145910901Y-120138799D01*
X145917633Y-120142000D01*
X146793885Y-120142000D01*
X146809124Y-120137525D01*
X146810329Y-120136135D01*
X146812000Y-120128452D01*
X146812000Y-120123885D01*
X147828000Y-120123885D01*
X147832475Y-120139124D01*
X147833865Y-120140329D01*
X147841548Y-120142000D01*
X148711361Y-120142000D01*
X148722263Y-120138799D01*
X153530901Y-120138799D01*
X153537633Y-120142000D01*
X154413885Y-120142000D01*
X154429124Y-120137525D01*
X154430329Y-120136135D01*
X154432000Y-120128452D01*
X154432000Y-120123885D01*
X155448000Y-120123885D01*
X155452475Y-120139124D01*
X155453865Y-120140329D01*
X155461548Y-120142000D01*
X156331361Y-120142000D01*
X156342263Y-120138799D01*
X161150901Y-120138799D01*
X161157633Y-120142000D01*
X162033885Y-120142000D01*
X162049124Y-120137525D01*
X162050329Y-120136135D01*
X162052000Y-120128452D01*
X162052000Y-120123885D01*
X163068000Y-120123885D01*
X163072475Y-120139124D01*
X163073865Y-120140329D01*
X163081548Y-120142000D01*
X163951361Y-120142000D01*
X163964892Y-120138027D01*
X163965697Y-120132430D01*
X163932737Y-120048971D01*
X163928006Y-120039439D01*
X163813984Y-119851538D01*
X163807720Y-119842948D01*
X163663673Y-119676948D01*
X163656042Y-119669528D01*
X163486089Y-119530174D01*
X163477322Y-119524150D01*
X163286318Y-119415424D01*
X163276654Y-119410959D01*
X163085028Y-119341402D01*
X163070955Y-119340520D01*
X163068000Y-119346046D01*
X163068000Y-120123885D01*
X162052000Y-120123885D01*
X162052000Y-119358006D01*
X162048027Y-119344475D01*
X162039218Y-119343209D01*
X161962459Y-119363131D01*
X161952429Y-119366664D01*
X161752030Y-119456937D01*
X161742744Y-119462106D01*
X161560425Y-119584850D01*
X161552130Y-119591519D01*
X161393100Y-119743228D01*
X161386059Y-119751186D01*
X161254859Y-119927525D01*
X161249255Y-119936562D01*
X161151041Y-120129735D01*
X161150901Y-120138799D01*
X156342263Y-120138799D01*
X156344892Y-120138027D01*
X156345697Y-120132430D01*
X156312737Y-120048971D01*
X156308006Y-120039439D01*
X156193984Y-119851538D01*
X156187720Y-119842948D01*
X156043673Y-119676948D01*
X156036042Y-119669528D01*
X155866089Y-119530174D01*
X155857322Y-119524150D01*
X155666318Y-119415424D01*
X155656654Y-119410959D01*
X155465028Y-119341402D01*
X155450955Y-119340520D01*
X155448000Y-119346046D01*
X155448000Y-120123885D01*
X154432000Y-120123885D01*
X154432000Y-119358006D01*
X154428027Y-119344475D01*
X154419218Y-119343209D01*
X154342459Y-119363131D01*
X154332429Y-119366664D01*
X154132030Y-119456937D01*
X154122744Y-119462106D01*
X153940425Y-119584850D01*
X153932130Y-119591519D01*
X153773100Y-119743228D01*
X153766059Y-119751186D01*
X153634859Y-119927525D01*
X153629255Y-119936562D01*
X153531041Y-120129735D01*
X153530901Y-120138799D01*
X148722263Y-120138799D01*
X148724892Y-120138027D01*
X148725697Y-120132430D01*
X148692737Y-120048971D01*
X148688006Y-120039439D01*
X148573984Y-119851538D01*
X148567720Y-119842948D01*
X148423673Y-119676948D01*
X148416042Y-119669528D01*
X148246089Y-119530174D01*
X148237322Y-119524150D01*
X148046318Y-119415424D01*
X148036654Y-119410959D01*
X147845028Y-119341402D01*
X147830955Y-119340520D01*
X147828000Y-119346046D01*
X147828000Y-120123885D01*
X146812000Y-120123885D01*
X146812000Y-119358006D01*
X146808027Y-119344475D01*
X146799218Y-119343209D01*
X146722459Y-119363131D01*
X146712429Y-119366664D01*
X146512030Y-119456937D01*
X146502744Y-119462106D01*
X146320425Y-119584850D01*
X146312130Y-119591519D01*
X146153100Y-119743228D01*
X146146059Y-119751186D01*
X146014859Y-119927525D01*
X146009255Y-119936562D01*
X145911041Y-120129735D01*
X145910901Y-120138799D01*
X139822415Y-120138799D01*
X139802737Y-120088971D01*
X139798006Y-120079439D01*
X139683984Y-119891538D01*
X139677720Y-119882948D01*
X139533673Y-119716948D01*
X139526042Y-119709528D01*
X139356089Y-119570174D01*
X139347322Y-119564150D01*
X139156318Y-119455424D01*
X139146654Y-119450959D01*
X138955028Y-119381402D01*
X138940955Y-119380520D01*
X138938000Y-119386046D01*
X138938000Y-120163885D01*
X137922000Y-120163885D01*
X137922000Y-119398006D01*
X137918027Y-119384475D01*
X137909218Y-119383209D01*
X137832459Y-119403131D01*
X137822429Y-119406664D01*
X137622030Y-119496937D01*
X137612744Y-119502106D01*
X137430425Y-119624850D01*
X137422130Y-119631519D01*
X137263100Y-119783228D01*
X137256059Y-119791186D01*
X137124859Y-119967525D01*
X137119255Y-119976562D01*
X137021041Y-120169735D01*
X137020901Y-120178799D01*
X132212263Y-120178799D01*
X132214892Y-120178027D01*
X132215697Y-120172430D01*
X132182737Y-120088971D01*
X132178006Y-120079439D01*
X132063984Y-119891538D01*
X132057720Y-119882948D01*
X131913673Y-119716948D01*
X131906042Y-119709528D01*
X131736089Y-119570174D01*
X131727322Y-119564150D01*
X131536318Y-119455424D01*
X131526654Y-119450959D01*
X131335028Y-119381402D01*
X131320955Y-119380520D01*
X131318000Y-119386046D01*
X131318000Y-120163885D01*
X130302000Y-120163885D01*
X130302000Y-119398006D01*
X130298027Y-119384475D01*
X130289218Y-119383209D01*
X130212459Y-119403131D01*
X130202429Y-119406664D01*
X130002030Y-119496937D01*
X129992744Y-119502106D01*
X129810425Y-119624850D01*
X129802130Y-119631519D01*
X129643100Y-119783228D01*
X129636059Y-119791186D01*
X129504859Y-119967525D01*
X129499255Y-119976562D01*
X129401041Y-120169735D01*
X129400901Y-120178799D01*
X124592263Y-120178799D01*
X124594892Y-120178027D01*
X124595697Y-120172430D01*
X124562737Y-120088971D01*
X124558006Y-120079439D01*
X124443984Y-119891538D01*
X124437720Y-119882948D01*
X124293673Y-119716948D01*
X124286042Y-119709528D01*
X124116089Y-119570174D01*
X124107322Y-119564150D01*
X123916318Y-119455424D01*
X123906654Y-119450959D01*
X123715028Y-119381402D01*
X123700955Y-119380520D01*
X123698000Y-119386046D01*
X123698000Y-120163885D01*
X122682000Y-120163885D01*
X122682000Y-119398006D01*
X122678027Y-119384475D01*
X122669218Y-119383209D01*
X122592459Y-119403131D01*
X122582429Y-119406664D01*
X122382030Y-119496937D01*
X122372744Y-119502106D01*
X122190425Y-119624850D01*
X122182130Y-119631519D01*
X122023100Y-119783228D01*
X122016059Y-119791186D01*
X121884859Y-119967525D01*
X121879255Y-119976562D01*
X121781041Y-120169735D01*
X121780901Y-120178799D01*
X115702263Y-120178799D01*
X115704892Y-120178027D01*
X115705697Y-120172430D01*
X115672737Y-120088971D01*
X115668006Y-120079439D01*
X115553984Y-119891538D01*
X115547720Y-119882948D01*
X115403673Y-119716948D01*
X115396042Y-119709528D01*
X115226089Y-119570174D01*
X115217322Y-119564150D01*
X115026318Y-119455424D01*
X115016654Y-119450959D01*
X114825028Y-119381402D01*
X114810955Y-119380520D01*
X114808000Y-119386046D01*
X114808000Y-120163885D01*
X113792000Y-120163885D01*
X113792000Y-119398006D01*
X113788027Y-119384475D01*
X113779218Y-119383209D01*
X113702459Y-119403131D01*
X113692429Y-119406664D01*
X113492030Y-119496937D01*
X113482744Y-119502106D01*
X113300425Y-119624850D01*
X113292130Y-119631519D01*
X113133100Y-119783228D01*
X113126059Y-119791186D01*
X112994859Y-119967525D01*
X112989255Y-119976562D01*
X112891041Y-120169735D01*
X112890901Y-120178799D01*
X108082263Y-120178799D01*
X108084892Y-120178027D01*
X108085697Y-120172430D01*
X108052737Y-120088971D01*
X108048006Y-120079439D01*
X107933984Y-119891538D01*
X107927720Y-119882948D01*
X107783673Y-119716948D01*
X107776042Y-119709528D01*
X107606089Y-119570174D01*
X107597322Y-119564150D01*
X107406318Y-119455424D01*
X107396654Y-119450959D01*
X107205028Y-119381402D01*
X107190955Y-119380520D01*
X107188000Y-119386046D01*
X107188000Y-120163885D01*
X106172000Y-120163885D01*
X106172000Y-119398006D01*
X106168027Y-119384475D01*
X106159218Y-119383209D01*
X106082459Y-119403131D01*
X106072429Y-119406664D01*
X105872030Y-119496937D01*
X105862744Y-119502106D01*
X105680425Y-119624850D01*
X105672130Y-119631519D01*
X105513100Y-119783228D01*
X105506059Y-119791186D01*
X105374859Y-119967525D01*
X105369255Y-119976562D01*
X105271041Y-120169735D01*
X105270901Y-120178799D01*
X100462263Y-120178799D01*
X100464892Y-120178027D01*
X100465697Y-120172430D01*
X100432737Y-120088971D01*
X100428006Y-120079439D01*
X100313984Y-119891538D01*
X100307720Y-119882948D01*
X100163673Y-119716948D01*
X100156042Y-119709528D01*
X99986089Y-119570174D01*
X99977322Y-119564150D01*
X99786318Y-119455424D01*
X99776654Y-119450959D01*
X99585028Y-119381402D01*
X99570955Y-119380520D01*
X99568000Y-119386046D01*
X99568000Y-120163885D01*
X98552000Y-120163885D01*
X98552000Y-119398006D01*
X98548027Y-119384475D01*
X98539218Y-119383209D01*
X98462459Y-119403131D01*
X98452429Y-119406664D01*
X98252030Y-119496937D01*
X98242744Y-119502106D01*
X98060425Y-119624850D01*
X98052130Y-119631519D01*
X97893100Y-119783228D01*
X97886059Y-119791186D01*
X97754859Y-119967525D01*
X97749255Y-119976562D01*
X97651041Y-120169735D01*
X97650901Y-120178799D01*
X91572263Y-120178799D01*
X91574892Y-120178027D01*
X91575697Y-120172430D01*
X91542737Y-120088971D01*
X91538006Y-120079439D01*
X91423984Y-119891538D01*
X91417720Y-119882948D01*
X91273673Y-119716948D01*
X91266042Y-119709528D01*
X91096089Y-119570174D01*
X91087322Y-119564150D01*
X90896318Y-119455424D01*
X90886654Y-119450959D01*
X90695028Y-119381402D01*
X90680955Y-119380520D01*
X90678000Y-119386046D01*
X90678000Y-120163885D01*
X89662000Y-120163885D01*
X89662000Y-119398006D01*
X89658027Y-119384475D01*
X89649218Y-119383209D01*
X89572459Y-119403131D01*
X89562429Y-119406664D01*
X89362030Y-119496937D01*
X89352744Y-119502106D01*
X89170425Y-119624850D01*
X89162130Y-119631519D01*
X89003100Y-119783228D01*
X88996059Y-119791186D01*
X88864859Y-119967525D01*
X88859255Y-119976562D01*
X88761041Y-120169735D01*
X88760901Y-120178799D01*
X83952263Y-120178799D01*
X83954892Y-120178027D01*
X83955697Y-120172430D01*
X83922737Y-120088971D01*
X83918006Y-120079439D01*
X83803984Y-119891538D01*
X83797720Y-119882948D01*
X83653673Y-119716948D01*
X83646042Y-119709528D01*
X83476089Y-119570174D01*
X83467322Y-119564150D01*
X83276318Y-119455424D01*
X83266654Y-119450959D01*
X83075028Y-119381402D01*
X83060955Y-119380520D01*
X83058000Y-119386046D01*
X83058000Y-120163885D01*
X82042000Y-120163885D01*
X82042000Y-119398006D01*
X82038027Y-119384475D01*
X82029218Y-119383209D01*
X81952459Y-119403131D01*
X81942429Y-119406664D01*
X81742030Y-119496937D01*
X81732744Y-119502106D01*
X81550425Y-119624850D01*
X81542130Y-119631519D01*
X81383100Y-119783228D01*
X81376059Y-119791186D01*
X81244859Y-119967525D01*
X81239255Y-119976562D01*
X81141041Y-120169735D01*
X81140901Y-120178799D01*
X76332263Y-120178799D01*
X76334892Y-120178027D01*
X76335697Y-120172430D01*
X76302737Y-120088971D01*
X76298006Y-120079439D01*
X76183984Y-119891538D01*
X76177720Y-119882948D01*
X76033673Y-119716948D01*
X76026042Y-119709528D01*
X75856089Y-119570174D01*
X75847322Y-119564150D01*
X75656318Y-119455424D01*
X75646654Y-119450959D01*
X75455028Y-119381402D01*
X75440955Y-119380520D01*
X75438000Y-119386046D01*
X75438000Y-120163885D01*
X74422000Y-120163885D01*
X74422000Y-119398006D01*
X74418027Y-119384475D01*
X74409218Y-119383209D01*
X74332459Y-119403131D01*
X74322429Y-119406664D01*
X74122030Y-119496937D01*
X74112744Y-119502106D01*
X73930425Y-119624850D01*
X73922130Y-119631519D01*
X73763100Y-119783228D01*
X73756059Y-119791186D01*
X73624859Y-119967525D01*
X73619255Y-119976562D01*
X73521041Y-120169735D01*
X73520901Y-120178799D01*
X68167599Y-120178799D01*
X68150496Y-120122857D01*
X68147345Y-120114647D01*
X68032387Y-119868118D01*
X68028124Y-119860428D01*
X67879976Y-119632300D01*
X67874686Y-119625281D01*
X67696217Y-119419976D01*
X67690024Y-119413783D01*
X67484719Y-119235314D01*
X67477700Y-119230024D01*
X67249572Y-119081876D01*
X67241882Y-119077613D01*
X66995353Y-118962655D01*
X66987143Y-118959504D01*
X66727023Y-118879978D01*
X66718453Y-118877999D01*
X66448956Y-118835315D01*
X66441872Y-118834601D01*
X66383669Y-118832060D01*
X66380917Y-118832000D01*
X65296115Y-118832000D01*
X65280876Y-118836475D01*
X65279671Y-118837865D01*
X65278000Y-118845548D01*
X65278000Y-121813885D01*
X64262000Y-121813885D01*
X64262000Y-118850116D01*
X64257525Y-118834877D01*
X64256135Y-118833672D01*
X64248452Y-118832001D01*
X63159086Y-118832001D01*
X63156328Y-118832061D01*
X63098145Y-118834601D01*
X63091028Y-118835317D01*
X62821547Y-118877999D01*
X62812977Y-118879978D01*
X62552857Y-118959504D01*
X62544647Y-118962655D01*
X62298118Y-119077613D01*
X62290428Y-119081876D01*
X62062300Y-119230024D01*
X62055281Y-119235314D01*
X61849976Y-119413783D01*
X61843783Y-119419976D01*
X61665314Y-119625281D01*
X61660024Y-119632300D01*
X61511876Y-119860428D01*
X61507613Y-119868118D01*
X61392655Y-120114647D01*
X61389504Y-120122857D01*
X61309978Y-120382977D01*
X61307999Y-120391547D01*
X61265315Y-120661044D01*
X61264601Y-120668128D01*
X61262060Y-120726331D01*
X61262000Y-120729083D01*
X61262000Y-121813885D01*
X50404736Y-121813885D01*
X50374075Y-121492789D01*
X50373504Y-121480812D01*
X50373504Y-121089188D01*
X50374075Y-121077211D01*
X50411299Y-120687380D01*
X50413005Y-120675511D01*
X50487121Y-120290967D01*
X50489948Y-120279315D01*
X50600278Y-119903563D01*
X50604200Y-119892232D01*
X50749747Y-119528673D01*
X50754728Y-119517766D01*
X50808335Y-119413783D01*
X50934177Y-119169682D01*
X50940162Y-119159315D01*
X51151896Y-118829851D01*
X51158849Y-118820087D01*
X51400932Y-118512253D01*
X51408785Y-118503191D01*
X51679024Y-118219773D01*
X51687702Y-118211498D01*
X51983665Y-117955045D01*
X51993090Y-117947634D01*
X52312095Y-117720471D01*
X52322182Y-117713988D01*
X52491752Y-117616087D01*
X52661328Y-117518182D01*
X52671974Y-117512693D01*
X53028220Y-117350001D01*
X53039338Y-117345551D01*
X53130610Y-117313961D01*
X53409421Y-117217464D01*
X53420926Y-117214086D01*
X53801497Y-117121761D01*
X53813270Y-117119492D01*
X53923303Y-117103671D01*
X54200906Y-117063758D01*
X54212823Y-117062620D01*
X54396376Y-117053876D01*
X54573494Y-117045439D01*
X54581615Y-117046164D01*
X54581616Y-117045734D01*
X54595806Y-117045759D01*
X54609635Y-117048939D01*
X54623476Y-117045807D01*
X54627936Y-117045815D01*
X54646865Y-117043700D01*
X171412553Y-117043700D01*
X171430612Y-117045750D01*
G37*
G04 #@! TD.AperFunction*
G04 #@! TA.AperFunction,Conductor*
G36*
X130957249Y-129166103D02*
G01*
X131142924Y-129231234D01*
X131179925Y-129251740D01*
X134117414Y-131601731D01*
X134152266Y-131645538D01*
X134226564Y-131800125D01*
X134239000Y-131854707D01*
X134239000Y-135329810D01*
X134218998Y-135397931D01*
X134202095Y-135418905D01*
X134148905Y-135472095D01*
X134086593Y-135506121D01*
X134059810Y-135509000D01*
X130708063Y-135509000D01*
X130659845Y-135499409D01*
X130489350Y-135428787D01*
X130448474Y-135401474D01*
X129032000Y-133985000D01*
X127560190Y-133985000D01*
X127492069Y-133964998D01*
X127471095Y-133948095D01*
X127417905Y-133894905D01*
X127383879Y-133832593D01*
X127381000Y-133805810D01*
X127381000Y-133402190D01*
X127401002Y-133334069D01*
X127417905Y-133313095D01*
X127471095Y-133259905D01*
X127533407Y-133225879D01*
X127560190Y-133223000D01*
X129032000Y-133223000D01*
X129667000Y-132588000D01*
X129667000Y-129338190D01*
X129687002Y-129270069D01*
X129703905Y-129249095D01*
X129757095Y-129195905D01*
X129819407Y-129161879D01*
X129846190Y-129159000D01*
X130915542Y-129159000D01*
X130957249Y-129166103D01*
G37*
G04 #@! TD.AperFunction*
G04 #@! TA.AperFunction,Conductor*
G36*
X91709931Y-121940002D02*
G01*
X91730905Y-121956905D01*
X91784095Y-122010095D01*
X91818121Y-122072407D01*
X91821000Y-122099190D01*
X91821000Y-135329810D01*
X91800998Y-135397931D01*
X91784095Y-135418905D01*
X91730905Y-135472095D01*
X91668593Y-135506121D01*
X91641810Y-135509000D01*
X88773000Y-135509000D01*
X88138000Y-136144000D01*
X88138000Y-140182937D01*
X88128409Y-140231155D01*
X88057788Y-140401649D01*
X88030474Y-140442526D01*
X87610526Y-140862474D01*
X87569650Y-140889787D01*
X87424289Y-140949998D01*
X87399155Y-140960409D01*
X87350937Y-140970000D01*
X86412190Y-140970000D01*
X86344069Y-140949998D01*
X86323095Y-140933095D01*
X86269905Y-140879905D01*
X86235879Y-140817593D01*
X86233000Y-140790810D01*
X86233000Y-131572000D01*
X85609052Y-131068042D01*
X83038142Y-128991537D01*
X83038139Y-128991535D01*
X82931000Y-128905000D01*
X74447063Y-128905000D01*
X74398845Y-128895409D01*
X74228350Y-128824787D01*
X74187474Y-128797474D01*
X73767526Y-128377526D01*
X73740212Y-128336649D01*
X73669591Y-128166155D01*
X73660000Y-128117937D01*
X73660000Y-122099190D01*
X73680002Y-122031069D01*
X73696905Y-122010095D01*
X73750095Y-121956905D01*
X73812407Y-121922879D01*
X73839190Y-121920000D01*
X91641810Y-121920000D01*
X91709931Y-121940002D01*
G37*
G04 #@! TD.AperFunction*
G04 #@! TA.AperFunction,Conductor*
G36*
X81041931Y-129179002D02*
G01*
X81062905Y-129195905D01*
X81116095Y-129249095D01*
X81150121Y-129311407D01*
X81153000Y-129338190D01*
X81153000Y-132308937D01*
X81143409Y-132357155D01*
X81072788Y-132527649D01*
X81045474Y-132568526D01*
X80752526Y-132861474D01*
X80711650Y-132888787D01*
X80566289Y-132948998D01*
X80541155Y-132959409D01*
X80492937Y-132969000D01*
X79300190Y-132969000D01*
X79232069Y-132948998D01*
X79211095Y-132932095D01*
X79157905Y-132878905D01*
X79123879Y-132816593D01*
X79121000Y-132789810D01*
X79121000Y-129338190D01*
X79141002Y-129270069D01*
X79157905Y-129249095D01*
X79211095Y-129195905D01*
X79273407Y-129161879D01*
X79300190Y-129159000D01*
X80973810Y-129159000D01*
X81041931Y-129179002D01*
G37*
G04 #@! TD.AperFunction*
G04 #@! TA.AperFunction,Conductor*
G36*
X148732931Y-145816002D02*
G01*
X148753905Y-145832905D01*
X148807095Y-145886095D01*
X148841121Y-145948407D01*
X148844000Y-145975190D01*
X148844000Y-149961937D01*
X148834409Y-150010155D01*
X148763788Y-150180649D01*
X148736474Y-150221526D01*
X147935459Y-151022541D01*
X147894752Y-151049784D01*
X147724050Y-151120782D01*
X147676033Y-151130442D01*
X104139999Y-151257000D01*
X60631298Y-151383479D01*
X60563120Y-151363676D01*
X60541966Y-151346705D01*
X60489034Y-151293927D01*
X60454919Y-151231665D01*
X60452000Y-151204702D01*
X60452000Y-145975190D01*
X60472002Y-145907069D01*
X60488905Y-145886095D01*
X60542095Y-145832905D01*
X60604407Y-145798879D01*
X60631190Y-145796000D01*
X148664810Y-145796000D01*
X148732931Y-145816002D01*
G37*
G04 #@! TD.AperFunction*
G04 #@! TA.AperFunction,Conductor*
G36*
X150637931Y-134219002D02*
G01*
X150658905Y-134235905D01*
X150712095Y-134289095D01*
X150746121Y-134351407D01*
X150749000Y-134378190D01*
X150749000Y-134665668D01*
X150728998Y-134733789D01*
X150724532Y-134740281D01*
X150652264Y-134838580D01*
X150595798Y-134881616D01*
X150588330Y-134884209D01*
X149778056Y-135137420D01*
X148847341Y-135428268D01*
X148828779Y-135432560D01*
X148599449Y-135467558D01*
X148580440Y-135469000D01*
X147880190Y-135469000D01*
X147812069Y-135448998D01*
X147791095Y-135432095D01*
X147737905Y-135378905D01*
X147703879Y-135316593D01*
X147701000Y-135289810D01*
X147701000Y-134378190D01*
X147721002Y-134310069D01*
X147737905Y-134289095D01*
X147791095Y-134235905D01*
X147853407Y-134201879D01*
X147880190Y-134199000D01*
X150569810Y-134199000D01*
X150637931Y-134219002D01*
G37*
G04 #@! TD.AperFunction*
G04 #@! TA.AperFunction,Conductor*
G36*
X78374931Y-136037002D02*
G01*
X78395905Y-136053905D01*
X78449095Y-136107095D01*
X78483121Y-136169407D01*
X78486000Y-136196190D01*
X78486000Y-136997206D01*
X78467182Y-137063448D01*
X78394725Y-137180687D01*
X78341898Y-137228118D01*
X78316496Y-137237073D01*
X78119280Y-137283629D01*
X78090331Y-137287000D01*
X75490190Y-137287000D01*
X75422069Y-137266998D01*
X75401095Y-137250095D01*
X75347905Y-137196905D01*
X75313879Y-137134593D01*
X75311000Y-137107810D01*
X75311000Y-136196190D01*
X75331002Y-136128069D01*
X75347905Y-136107095D01*
X75401095Y-136053905D01*
X75463407Y-136019879D01*
X75490190Y-136017000D01*
X78306810Y-136017000D01*
X78374931Y-136037002D01*
G37*
G04 #@! TD.AperFunction*
G04 #@! TA.AperFunction,Conductor*
G36*
X126507931Y-134259002D02*
G01*
X126528905Y-134275905D01*
X126582095Y-134329095D01*
X126616121Y-134391407D01*
X126619000Y-134418190D01*
X126619000Y-134705668D01*
X126598998Y-134773789D01*
X126594532Y-134780281D01*
X126522264Y-134878580D01*
X126465798Y-134921616D01*
X126458330Y-134924209D01*
X125648056Y-135177420D01*
X124717341Y-135468268D01*
X124698779Y-135472560D01*
X124469449Y-135507558D01*
X124450440Y-135509000D01*
X123750190Y-135509000D01*
X123682069Y-135488998D01*
X123661095Y-135472095D01*
X123607905Y-135418905D01*
X123573879Y-135356593D01*
X123571000Y-135329810D01*
X123571000Y-134418190D01*
X123591002Y-134350069D01*
X123607905Y-134329095D01*
X123661095Y-134275905D01*
X123723407Y-134241879D01*
X123750190Y-134239000D01*
X126439810Y-134239000D01*
X126507931Y-134259002D01*
G37*
G04 #@! TD.AperFunction*
G04 #@! TA.AperFunction,Conductor*
G36*
X130429000Y-135763000D02*
G01*
X133985000Y-135763000D01*
X133985000Y-140970000D01*
X132842000Y-140970000D01*
X127254000Y-137287000D01*
X127254000Y-136017000D01*
X127381000Y-134874000D01*
X127381000Y-134239000D01*
X128905000Y-134239000D01*
X130429000Y-135763000D01*
G37*
G04 #@! TD.AperFunction*
G04 #@! TA.AperFunction,Conductor*
G36*
X102377931Y-134259002D02*
G01*
X102398905Y-134275905D01*
X102452095Y-134329095D01*
X102486121Y-134391407D01*
X102489000Y-134418190D01*
X102489000Y-134705668D01*
X102468998Y-134773789D01*
X102464532Y-134780281D01*
X102392264Y-134878580D01*
X102335798Y-134921616D01*
X102328330Y-134924209D01*
X101518056Y-135177420D01*
X100587341Y-135468268D01*
X100568779Y-135472560D01*
X100339449Y-135507558D01*
X100320440Y-135509000D01*
X99620190Y-135509000D01*
X99552069Y-135488998D01*
X99531095Y-135472095D01*
X99477905Y-135418905D01*
X99443879Y-135356593D01*
X99441000Y-135329810D01*
X99441000Y-134418190D01*
X99461002Y-134350069D01*
X99477905Y-134329095D01*
X99531095Y-134275905D01*
X99593407Y-134241879D01*
X99620190Y-134239000D01*
X102309810Y-134239000D01*
X102377931Y-134259002D01*
G37*
G04 #@! TD.AperFunction*
G04 #@! TA.AperFunction,Conductor*
G36*
X100980931Y-129179002D02*
G01*
X101001905Y-129195905D01*
X101055095Y-129249095D01*
X101089121Y-129311407D01*
X101092000Y-129338190D01*
X101092000Y-130556000D01*
X101174035Y-130652950D01*
X101181195Y-130661411D01*
X101181195Y-130661412D01*
X102392528Y-132092988D01*
X102414653Y-132131038D01*
X102454222Y-132239057D01*
X102481312Y-132313012D01*
X102489000Y-132356351D01*
X102489000Y-132789810D01*
X102468998Y-132857931D01*
X102452095Y-132878905D01*
X102398905Y-132932095D01*
X102336593Y-132966121D01*
X102309810Y-132969000D01*
X101100051Y-132969000D01*
X101084018Y-132967976D01*
X100850096Y-132937966D01*
X100834324Y-132934910D01*
X99403511Y-132561655D01*
X98208496Y-132249912D01*
X98147632Y-132213363D01*
X98140595Y-132205027D01*
X98070292Y-132114031D01*
X98044472Y-132047896D01*
X98044000Y-132036997D01*
X98044000Y-129338190D01*
X98064002Y-129270069D01*
X98080905Y-129249095D01*
X98134095Y-129195905D01*
X98196407Y-129161879D01*
X98223190Y-129159000D01*
X100912810Y-129159000D01*
X100980931Y-129179002D01*
G37*
G04 #@! TD.AperFunction*
G04 #@! TA.AperFunction,Conductor*
G36*
X153431931Y-129139002D02*
G01*
X153452905Y-129155905D01*
X153506095Y-129209095D01*
X153540121Y-129271407D01*
X153543000Y-129298190D01*
X153543000Y-132268937D01*
X153533409Y-132317155D01*
X153462788Y-132487649D01*
X153435474Y-132528526D01*
X153142526Y-132821474D01*
X153101650Y-132848787D01*
X152956289Y-132908998D01*
X152931155Y-132919409D01*
X152882937Y-132929000D01*
X151690190Y-132929000D01*
X151622069Y-132908998D01*
X151601095Y-132892095D01*
X151547905Y-132838905D01*
X151513879Y-132776593D01*
X151511000Y-132749810D01*
X151511000Y-129298190D01*
X151531002Y-129230069D01*
X151547905Y-129209095D01*
X151601095Y-129155905D01*
X151663407Y-129121879D01*
X151690190Y-129119000D01*
X153363810Y-129119000D01*
X153431931Y-129139002D01*
G37*
G04 #@! TD.AperFunction*
G04 #@! TA.AperFunction,Conductor*
G36*
X76850931Y-129179002D02*
G01*
X76871905Y-129195905D01*
X76925095Y-129249095D01*
X76959121Y-129311407D01*
X76962000Y-129338190D01*
X76962000Y-130556000D01*
X77044035Y-130652950D01*
X77051195Y-130661411D01*
X77051195Y-130661412D01*
X78262528Y-132092988D01*
X78284653Y-132131038D01*
X78324222Y-132239057D01*
X78351312Y-132313012D01*
X78359000Y-132356351D01*
X78359000Y-132789810D01*
X78338998Y-132857931D01*
X78322095Y-132878905D01*
X78268905Y-132932095D01*
X78206593Y-132966121D01*
X78179810Y-132969000D01*
X76970051Y-132969000D01*
X76954018Y-132967976D01*
X76720096Y-132937966D01*
X76704324Y-132934910D01*
X75273511Y-132561655D01*
X74078496Y-132249912D01*
X74017632Y-132213363D01*
X74010595Y-132205027D01*
X73940292Y-132114031D01*
X73914472Y-132047896D01*
X73914000Y-132036997D01*
X73914000Y-129338190D01*
X73934002Y-129270069D01*
X73950905Y-129249095D01*
X74004095Y-129195905D01*
X74066407Y-129161879D01*
X74093190Y-129159000D01*
X76782810Y-129159000D01*
X76850931Y-129179002D01*
G37*
G04 #@! TD.AperFunction*
M02*
