G04 #@! TF.GenerationSoftware,KiCad,Pcbnew,(6.0.9)*
G04 #@! TF.CreationDate,2023-02-01T20:08:34-08:00*
G04 #@! TF.ProjectId,regulator_board,72656775-6c61-4746-9f72-5f626f617264,rev?*
G04 #@! TF.SameCoordinates,Original*
G04 #@! TF.FileFunction,Legend,Top*
G04 #@! TF.FilePolarity,Positive*
%FSLAX46Y46*%
G04 Gerber Fmt 4.6, Leading zero omitted, Abs format (unit mm)*
G04 Created by KiCad (PCBNEW (6.0.9)) date 2023-02-01 20:08:34*
%MOMM*%
%LPD*%
G01*
G04 APERTURE LIST*
G04 Aperture macros list*
%AMRoundRect*
0 Rectangle with rounded corners*
0 $1 Rounding radius*
0 $2 $3 $4 $5 $6 $7 $8 $9 X,Y pos of 4 corners*
0 Add a 4 corners polygon primitive as box body*
4,1,4,$2,$3,$4,$5,$6,$7,$8,$9,$2,$3,0*
0 Add four circle primitives for the rounded corners*
1,1,$1+$1,$2,$3*
1,1,$1+$1,$4,$5*
1,1,$1+$1,$6,$7*
1,1,$1+$1,$8,$9*
0 Add four rect primitives between the rounded corners*
20,1,$1+$1,$2,$3,$4,$5,0*
20,1,$1+$1,$4,$5,$6,$7,0*
20,1,$1+$1,$6,$7,$8,$9,0*
20,1,$1+$1,$8,$9,$2,$3,0*%
%AMFreePoly0*
4,1,22,0.500000,-0.750000,0.000000,-0.750000,0.000000,-0.745033,-0.079941,-0.743568,-0.215256,-0.701293,-0.333266,-0.622738,-0.424486,-0.514219,-0.481581,-0.384460,-0.499164,-0.250000,-0.500000,-0.250000,-0.500000,0.250000,-0.499164,0.250000,-0.499963,0.256109,-0.478152,0.396186,-0.417904,0.524511,-0.324060,0.630769,-0.204165,0.706417,-0.067858,0.745374,0.000000,0.744959,0.000000,0.750000,
0.500000,0.750000,0.500000,-0.750000,0.500000,-0.750000,$1*%
%AMFreePoly1*
4,1,20,0.000000,0.744959,0.073905,0.744508,0.209726,0.703889,0.328688,0.626782,0.421226,0.519385,0.479903,0.390333,0.500000,0.250000,0.500000,-0.250000,0.499851,-0.262216,0.476331,-0.402017,0.414519,-0.529596,0.319384,-0.634700,0.198574,-0.708877,0.061801,-0.746166,0.000000,-0.745033,0.000000,-0.750000,-0.500000,-0.750000,-0.500000,0.750000,0.000000,0.750000,0.000000,0.744959,
0.000000,0.744959,$1*%
%AMFreePoly2*
4,1,17,-1.075000,1.162500,-1.059485,1.290712,-1.005777,1.426361,-0.917570,1.542570,-0.801361,1.630777,-0.665712,1.684485,-0.537500,1.700000,1.075000,1.700000,1.075000,-1.700000,-0.537500,-1.700000,-0.665712,-1.684485,-0.801361,-1.630777,-0.917570,-1.542570,-1.005777,-1.426361,-1.059485,-1.290712,-1.075000,-1.162500,-1.075000,1.162500,-1.075000,1.162500,$1*%
%AMFreePoly3*
4,1,17,-1.075000,1.700000,0.537500,1.700000,0.665712,1.684485,0.801361,1.630777,0.917570,1.542570,1.005777,1.426361,1.059485,1.290712,1.075000,1.162500,1.075000,-1.162500,1.059485,-1.290712,1.005777,-1.426361,0.917570,-1.542570,0.801361,-1.630777,0.665712,-1.684485,0.537500,-1.700000,-1.075000,-1.700000,-1.075000,1.700000,-1.075000,1.700000,$1*%
G04 Aperture macros list end*
%ADD10C,0.150000*%
%ADD11C,0.254000*%
%ADD12C,0.120000*%
%ADD13RoundRect,0.237500X0.250000X0.237500X-0.250000X0.237500X-0.250000X-0.237500X0.250000X-0.237500X0*%
%ADD14RoundRect,0.237500X-0.300000X-0.237500X0.300000X-0.237500X0.300000X0.237500X-0.300000X0.237500X0*%
%ADD15RoundRect,1.500000X-1.500000X1.500000X-1.500000X-1.500000X1.500000X-1.500000X1.500000X1.500000X0*%
%ADD16C,6.000000*%
%ADD17RoundRect,0.237500X-0.250000X-0.237500X0.250000X-0.237500X0.250000X0.237500X-0.250000X0.237500X0*%
%ADD18RoundRect,0.237500X0.300000X0.237500X-0.300000X0.237500X-0.300000X-0.237500X0.300000X-0.237500X0*%
%ADD19FreePoly0,90.000000*%
%ADD20FreePoly1,90.000000*%
%ADD21RoundRect,0.150000X-0.512500X-0.150000X0.512500X-0.150000X0.512500X0.150000X-0.512500X0.150000X0*%
%ADD22RoundRect,0.250000X0.750000X-0.600000X0.750000X0.600000X-0.750000X0.600000X-0.750000X-0.600000X0*%
%ADD23O,2.000000X1.700000*%
%ADD24RoundRect,0.237500X0.237500X-0.287500X0.237500X0.287500X-0.237500X0.287500X-0.237500X-0.287500X0*%
%ADD25RoundRect,0.237500X0.287500X0.237500X-0.287500X0.237500X-0.287500X-0.237500X0.287500X-0.237500X0*%
%ADD26C,2.780000*%
%ADD27RoundRect,0.237500X-0.287500X-0.237500X0.287500X-0.237500X0.287500X0.237500X-0.287500X0.237500X0*%
%ADD28C,0.800000*%
%ADD29C,6.400000*%
%ADD30FreePoly2,0.000000*%
%ADD31FreePoly3,0.000000*%
G04 APERTURE END LIST*
D10*
X60763095Y-139814761D02*
X60191666Y-139814761D01*
X60077380Y-139776666D01*
X60001190Y-139700476D01*
X59963095Y-139586190D01*
X59963095Y-139510000D01*
X59963095Y-140576666D02*
X59963095Y-140195714D01*
X60763095Y-140195714D01*
X60039285Y-141300476D02*
X60001190Y-141262380D01*
X59963095Y-141148095D01*
X59963095Y-141071904D01*
X60001190Y-140957619D01*
X60077380Y-140881428D01*
X60153571Y-140843333D01*
X60305952Y-140805238D01*
X60420238Y-140805238D01*
X60572619Y-140843333D01*
X60648809Y-140881428D01*
X60725000Y-140957619D01*
X60763095Y-141071904D01*
X60763095Y-141148095D01*
X60725000Y-141262380D01*
X60686904Y-141300476D01*
X60763095Y-141871904D02*
X60191666Y-141871904D01*
X60077380Y-141833809D01*
X60001190Y-141757619D01*
X59963095Y-141643333D01*
X59963095Y-141567142D01*
X59963095Y-142633809D02*
X59963095Y-142252857D01*
X60763095Y-142252857D01*
X60039285Y-143357619D02*
X60001190Y-143319523D01*
X59963095Y-143205238D01*
X59963095Y-143129047D01*
X60001190Y-143014761D01*
X60077380Y-142938571D01*
X60153571Y-142900476D01*
X60305952Y-142862380D01*
X60420238Y-142862380D01*
X60572619Y-142900476D01*
X60648809Y-142938571D01*
X60725000Y-143014761D01*
X60763095Y-143129047D01*
X60763095Y-143205238D01*
X60725000Y-143319523D01*
X60686904Y-143357619D01*
X60763095Y-143929047D02*
X60191666Y-143929047D01*
X60077380Y-143890952D01*
X60001190Y-143814761D01*
X59963095Y-143700476D01*
X59963095Y-143624285D01*
X59963095Y-144690952D02*
X59963095Y-144310000D01*
X60763095Y-144310000D01*
X60039285Y-145414761D02*
X60001190Y-145376666D01*
X59963095Y-145262380D01*
X59963095Y-145186190D01*
X60001190Y-145071904D01*
X60077380Y-144995714D01*
X60153571Y-144957619D01*
X60305952Y-144919523D01*
X60420238Y-144919523D01*
X60572619Y-144957619D01*
X60648809Y-144995714D01*
X60725000Y-145071904D01*
X60763095Y-145186190D01*
X60763095Y-145262380D01*
X60725000Y-145376666D01*
X60686904Y-145414761D01*
X60763095Y-145986190D02*
X60191666Y-145986190D01*
X60077380Y-145948095D01*
X60001190Y-145871904D01*
X59963095Y-145757619D01*
X59963095Y-145681428D01*
X59963095Y-146748095D02*
X59963095Y-146367142D01*
X60763095Y-146367142D01*
X60039285Y-147471904D02*
X60001190Y-147433809D01*
X59963095Y-147319523D01*
X59963095Y-147243333D01*
X60001190Y-147129047D01*
X60077380Y-147052857D01*
X60153571Y-147014761D01*
X60305952Y-146976666D01*
X60420238Y-146976666D01*
X60572619Y-147014761D01*
X60648809Y-147052857D01*
X60725000Y-147129047D01*
X60763095Y-147243333D01*
X60763095Y-147319523D01*
X60725000Y-147433809D01*
X60686904Y-147471904D01*
X95758000Y-117348000D02*
X118618000Y-117348000D01*
X118618000Y-117348000D02*
X118618000Y-145542000D01*
X118618000Y-145542000D02*
X95758000Y-145542000D01*
X95758000Y-145542000D02*
X95758000Y-117348000D01*
X119888000Y-117348000D02*
X142748000Y-117348000D01*
X142748000Y-117348000D02*
X142748000Y-145542000D01*
X142748000Y-145542000D02*
X119888000Y-145542000D01*
X119888000Y-145542000D02*
X119888000Y-117348000D01*
X71628000Y-117348000D02*
X94488000Y-117348000D01*
X94488000Y-117348000D02*
X94488000Y-145542000D01*
X94488000Y-145542000D02*
X71628000Y-145542000D01*
X71628000Y-145542000D02*
X71628000Y-117348000D01*
X144018000Y-117348000D02*
X166878000Y-117348000D01*
X166878000Y-117348000D02*
X166878000Y-145542000D01*
X166878000Y-145542000D02*
X144018000Y-145542000D01*
X144018000Y-145542000D02*
X144018000Y-117348000D01*
X144668952Y-144978380D02*
X144859428Y-144978380D01*
X144954666Y-144930761D01*
X145002285Y-144883142D01*
X145097523Y-144740285D01*
X145145142Y-144549809D01*
X145145142Y-144168857D01*
X145097523Y-144073619D01*
X145049904Y-144026000D01*
X144954666Y-143978380D01*
X144764190Y-143978380D01*
X144668952Y-144026000D01*
X144621333Y-144073619D01*
X144573714Y-144168857D01*
X144573714Y-144406952D01*
X144621333Y-144502190D01*
X144668952Y-144549809D01*
X144764190Y-144597428D01*
X144954666Y-144597428D01*
X145049904Y-144549809D01*
X145097523Y-144502190D01*
X145145142Y-144406952D01*
X145430857Y-143978380D02*
X145764190Y-144978380D01*
X146097523Y-143978380D01*
X120967523Y-143978380D02*
X120491333Y-143978380D01*
X120443714Y-144454571D01*
X120491333Y-144406952D01*
X120586571Y-144359333D01*
X120824666Y-144359333D01*
X120919904Y-144406952D01*
X120967523Y-144454571D01*
X121015142Y-144549809D01*
X121015142Y-144787904D01*
X120967523Y-144883142D01*
X120919904Y-144930761D01*
X120824666Y-144978380D01*
X120586571Y-144978380D01*
X120491333Y-144930761D01*
X120443714Y-144883142D01*
X121300857Y-143978380D02*
X121634190Y-144978380D01*
X121967523Y-143978380D01*
D11*
X73153814Y-149279428D02*
X72645814Y-148553714D01*
X72282957Y-149279428D02*
X72282957Y-147755428D01*
X72863528Y-147755428D01*
X73008671Y-147828000D01*
X73081242Y-147900571D01*
X73153814Y-148045714D01*
X73153814Y-148263428D01*
X73081242Y-148408571D01*
X73008671Y-148481142D01*
X72863528Y-148553714D01*
X72282957Y-148553714D01*
X74024671Y-149279428D02*
X73879528Y-149206857D01*
X73806957Y-149134285D01*
X73734385Y-148989142D01*
X73734385Y-148553714D01*
X73806957Y-148408571D01*
X73879528Y-148336000D01*
X74024671Y-148263428D01*
X74242385Y-148263428D01*
X74387528Y-148336000D01*
X74460100Y-148408571D01*
X74532671Y-148553714D01*
X74532671Y-148989142D01*
X74460100Y-149134285D01*
X74387528Y-149206857D01*
X74242385Y-149279428D01*
X74024671Y-149279428D01*
X75185814Y-149279428D02*
X75185814Y-147755428D01*
X75185814Y-148336000D02*
X75330957Y-148263428D01*
X75621242Y-148263428D01*
X75766385Y-148336000D01*
X75838957Y-148408571D01*
X75911528Y-148553714D01*
X75911528Y-148989142D01*
X75838957Y-149134285D01*
X75766385Y-149206857D01*
X75621242Y-149279428D01*
X75330957Y-149279428D01*
X75185814Y-149206857D01*
X76782385Y-149279428D02*
X76637242Y-149206857D01*
X76564671Y-149134285D01*
X76492100Y-148989142D01*
X76492100Y-148553714D01*
X76564671Y-148408571D01*
X76637242Y-148336000D01*
X76782385Y-148263428D01*
X77000100Y-148263428D01*
X77145242Y-148336000D01*
X77217814Y-148408571D01*
X77290385Y-148553714D01*
X77290385Y-148989142D01*
X77217814Y-149134285D01*
X77145242Y-149206857D01*
X77000100Y-149279428D01*
X76782385Y-149279428D01*
X77870957Y-149206857D02*
X78088671Y-149279428D01*
X78451528Y-149279428D01*
X78596671Y-149206857D01*
X78669242Y-149134285D01*
X78741814Y-148989142D01*
X78741814Y-148844000D01*
X78669242Y-148698857D01*
X78596671Y-148626285D01*
X78451528Y-148553714D01*
X78161242Y-148481142D01*
X78016100Y-148408571D01*
X77943528Y-148336000D01*
X77870957Y-148190857D01*
X77870957Y-148045714D01*
X77943528Y-147900571D01*
X78016100Y-147828000D01*
X78161242Y-147755428D01*
X78524100Y-147755428D01*
X78741814Y-147828000D01*
X80048100Y-148263428D02*
X80048100Y-149279428D01*
X79394957Y-148263428D02*
X79394957Y-149061714D01*
X79467528Y-149206857D01*
X79612671Y-149279428D01*
X79830385Y-149279428D01*
X79975528Y-149206857D01*
X80048100Y-149134285D01*
X80773814Y-149279428D02*
X80773814Y-147755428D01*
X80773814Y-148336000D02*
X80918957Y-148263428D01*
X81209242Y-148263428D01*
X81354385Y-148336000D01*
X81426957Y-148408571D01*
X81499528Y-148553714D01*
X81499528Y-148989142D01*
X81426957Y-149134285D01*
X81354385Y-149206857D01*
X81209242Y-149279428D01*
X80918957Y-149279428D01*
X80773814Y-149206857D01*
X82878385Y-149279428D02*
X82152671Y-149279428D01*
X82152671Y-147755428D01*
X83313814Y-148844000D02*
X84039528Y-148844000D01*
X83168671Y-149279428D02*
X83676671Y-147755428D01*
X84184671Y-149279428D01*
X86724671Y-149279428D02*
X86216671Y-148553714D01*
X85853814Y-149279428D02*
X85853814Y-147755428D01*
X86434385Y-147755428D01*
X86579528Y-147828000D01*
X86652100Y-147900571D01*
X86724671Y-148045714D01*
X86724671Y-148263428D01*
X86652100Y-148408571D01*
X86579528Y-148481142D01*
X86434385Y-148553714D01*
X85853814Y-148553714D01*
X87958385Y-149206857D02*
X87813242Y-149279428D01*
X87522957Y-149279428D01*
X87377814Y-149206857D01*
X87305242Y-149061714D01*
X87305242Y-148481142D01*
X87377814Y-148336000D01*
X87522957Y-148263428D01*
X87813242Y-148263428D01*
X87958385Y-148336000D01*
X88030957Y-148481142D01*
X88030957Y-148626285D01*
X87305242Y-148771428D01*
X89337242Y-148263428D02*
X89337242Y-149497142D01*
X89264671Y-149642285D01*
X89192100Y-149714857D01*
X89046957Y-149787428D01*
X88829242Y-149787428D01*
X88684100Y-149714857D01*
X89337242Y-149206857D02*
X89192100Y-149279428D01*
X88901814Y-149279428D01*
X88756671Y-149206857D01*
X88684100Y-149134285D01*
X88611528Y-148989142D01*
X88611528Y-148553714D01*
X88684100Y-148408571D01*
X88756671Y-148336000D01*
X88901814Y-148263428D01*
X89192100Y-148263428D01*
X89337242Y-148336000D01*
X90716100Y-148263428D02*
X90716100Y-149279428D01*
X90062957Y-148263428D02*
X90062957Y-149061714D01*
X90135528Y-149206857D01*
X90280671Y-149279428D01*
X90498385Y-149279428D01*
X90643528Y-149206857D01*
X90716100Y-149134285D01*
X91659528Y-149279428D02*
X91514385Y-149206857D01*
X91441814Y-149061714D01*
X91441814Y-147755428D01*
X92893242Y-149279428D02*
X92893242Y-148481142D01*
X92820671Y-148336000D01*
X92675528Y-148263428D01*
X92385242Y-148263428D01*
X92240100Y-148336000D01*
X92893242Y-149206857D02*
X92748100Y-149279428D01*
X92385242Y-149279428D01*
X92240100Y-149206857D01*
X92167528Y-149061714D01*
X92167528Y-148916571D01*
X92240100Y-148771428D01*
X92385242Y-148698857D01*
X92748100Y-148698857D01*
X92893242Y-148626285D01*
X93401242Y-148263428D02*
X93981814Y-148263428D01*
X93618957Y-147755428D02*
X93618957Y-149061714D01*
X93691528Y-149206857D01*
X93836671Y-149279428D01*
X93981814Y-149279428D01*
X94707528Y-149279428D02*
X94562385Y-149206857D01*
X94489814Y-149134285D01*
X94417242Y-148989142D01*
X94417242Y-148553714D01*
X94489814Y-148408571D01*
X94562385Y-148336000D01*
X94707528Y-148263428D01*
X94925242Y-148263428D01*
X95070385Y-148336000D01*
X95142957Y-148408571D01*
X95215528Y-148553714D01*
X95215528Y-148989142D01*
X95142957Y-149134285D01*
X95070385Y-149206857D01*
X94925242Y-149279428D01*
X94707528Y-149279428D01*
X95868671Y-149279428D02*
X95868671Y-148263428D01*
X95868671Y-148553714D02*
X95941242Y-148408571D01*
X96013814Y-148336000D01*
X96158957Y-148263428D01*
X96304099Y-148263428D01*
X98481242Y-148481142D02*
X98698957Y-148553714D01*
X98771528Y-148626285D01*
X98844100Y-148771428D01*
X98844100Y-148989142D01*
X98771528Y-149134285D01*
X98698957Y-149206857D01*
X98553814Y-149279428D01*
X97973242Y-149279428D01*
X97973242Y-147755428D01*
X98481242Y-147755428D01*
X98626385Y-147828000D01*
X98698957Y-147900571D01*
X98771528Y-148045714D01*
X98771528Y-148190857D01*
X98698957Y-148336000D01*
X98626385Y-148408571D01*
X98481242Y-148481142D01*
X97973242Y-148481142D01*
X99714957Y-149279428D02*
X99569814Y-149206857D01*
X99497242Y-149134285D01*
X99424671Y-148989142D01*
X99424671Y-148553714D01*
X99497242Y-148408571D01*
X99569814Y-148336000D01*
X99714957Y-148263428D01*
X99932671Y-148263428D01*
X100077814Y-148336000D01*
X100150385Y-148408571D01*
X100222957Y-148553714D01*
X100222957Y-148989142D01*
X100150385Y-149134285D01*
X100077814Y-149206857D01*
X99932671Y-149279428D01*
X99714957Y-149279428D01*
X101529242Y-149279428D02*
X101529242Y-148481142D01*
X101456671Y-148336000D01*
X101311528Y-148263428D01*
X101021242Y-148263428D01*
X100876099Y-148336000D01*
X101529242Y-149206857D02*
X101384099Y-149279428D01*
X101021242Y-149279428D01*
X100876099Y-149206857D01*
X100803528Y-149061714D01*
X100803528Y-148916571D01*
X100876099Y-148771428D01*
X101021242Y-148698857D01*
X101384099Y-148698857D01*
X101529242Y-148626285D01*
X102254957Y-149279428D02*
X102254957Y-148263428D01*
X102254957Y-148553714D02*
X102327528Y-148408571D01*
X102400099Y-148336000D01*
X102545242Y-148263428D01*
X102690385Y-148263428D01*
X103851528Y-149279428D02*
X103851528Y-147755428D01*
X103851528Y-149206857D02*
X103706385Y-149279428D01*
X103416099Y-149279428D01*
X103270957Y-149206857D01*
X103198385Y-149134285D01*
X103125814Y-148989142D01*
X103125814Y-148553714D01*
X103198385Y-148408571D01*
X103270957Y-148336000D01*
X103416099Y-148263428D01*
X103706385Y-148263428D01*
X103851528Y-148336000D01*
X105665814Y-147900571D02*
X105738385Y-147828000D01*
X105883528Y-147755428D01*
X106246385Y-147755428D01*
X106391528Y-147828000D01*
X106464099Y-147900571D01*
X106536671Y-148045714D01*
X106536671Y-148190857D01*
X106464099Y-148408571D01*
X105593242Y-149279428D01*
X106536671Y-149279428D01*
X107480100Y-147755428D02*
X107625242Y-147755428D01*
X107770385Y-147828000D01*
X107842957Y-147900571D01*
X107915528Y-148045714D01*
X107988100Y-148336000D01*
X107988100Y-148698857D01*
X107915528Y-148989142D01*
X107842957Y-149134285D01*
X107770385Y-149206857D01*
X107625242Y-149279428D01*
X107480100Y-149279428D01*
X107334957Y-149206857D01*
X107262385Y-149134285D01*
X107189814Y-148989142D01*
X107117242Y-148698857D01*
X107117242Y-148336000D01*
X107189814Y-148045714D01*
X107262385Y-147900571D01*
X107334957Y-147828000D01*
X107480100Y-147755428D01*
X108568671Y-147900571D02*
X108641242Y-147828000D01*
X108786385Y-147755428D01*
X109149242Y-147755428D01*
X109294385Y-147828000D01*
X109366957Y-147900571D01*
X109439528Y-148045714D01*
X109439528Y-148190857D01*
X109366957Y-148408571D01*
X108496100Y-149279428D01*
X109439528Y-149279428D01*
X110020100Y-147900571D02*
X110092671Y-147828000D01*
X110237814Y-147755428D01*
X110600671Y-147755428D01*
X110745814Y-147828000D01*
X110818385Y-147900571D01*
X110890957Y-148045714D01*
X110890957Y-148190857D01*
X110818385Y-148408571D01*
X109947528Y-149279428D01*
X110890957Y-149279428D01*
X111544100Y-148698857D02*
X112705242Y-148698857D01*
X113358385Y-147900571D02*
X113430957Y-147828000D01*
X113576100Y-147755428D01*
X113938957Y-147755428D01*
X114084100Y-147828000D01*
X114156671Y-147900571D01*
X114229242Y-148045714D01*
X114229242Y-148190857D01*
X114156671Y-148408571D01*
X113285814Y-149279428D01*
X114229242Y-149279428D01*
X114737242Y-147755428D02*
X115680671Y-147755428D01*
X115172671Y-148336000D01*
X115390385Y-148336000D01*
X115535528Y-148408571D01*
X115608100Y-148481142D01*
X115680671Y-148626285D01*
X115680671Y-148989142D01*
X115608100Y-149134285D01*
X115535528Y-149206857D01*
X115390385Y-149279428D01*
X114954957Y-149279428D01*
X114809814Y-149206857D01*
X114737242Y-149134285D01*
D10*
X72707523Y-143978380D02*
X72231333Y-143978380D01*
X72183714Y-144454571D01*
X72231333Y-144406952D01*
X72326571Y-144359333D01*
X72564666Y-144359333D01*
X72659904Y-144406952D01*
X72707523Y-144454571D01*
X72755142Y-144549809D01*
X72755142Y-144787904D01*
X72707523Y-144883142D01*
X72659904Y-144930761D01*
X72564666Y-144978380D01*
X72326571Y-144978380D01*
X72231333Y-144930761D01*
X72183714Y-144883142D01*
X73040857Y-143978380D02*
X73374190Y-144978380D01*
X73707523Y-143978380D01*
X96837523Y-143978380D02*
X96361333Y-143978380D01*
X96313714Y-144454571D01*
X96361333Y-144406952D01*
X96456571Y-144359333D01*
X96694666Y-144359333D01*
X96789904Y-144406952D01*
X96837523Y-144454571D01*
X96885142Y-144549809D01*
X96885142Y-144787904D01*
X96837523Y-144883142D01*
X96789904Y-144930761D01*
X96694666Y-144978380D01*
X96456571Y-144978380D01*
X96361333Y-144930761D01*
X96313714Y-144883142D01*
X97170857Y-143978380D02*
X97504190Y-144978380D01*
X97837523Y-143978380D01*
X154519333Y-149849130D02*
X154186000Y-149372940D01*
X153947904Y-149849130D02*
X153947904Y-148849130D01*
X154328857Y-148849130D01*
X154424095Y-148896750D01*
X154471714Y-148944369D01*
X154519333Y-149039607D01*
X154519333Y-149182464D01*
X154471714Y-149277702D01*
X154424095Y-149325321D01*
X154328857Y-149372940D01*
X153947904Y-149372940D01*
X154995523Y-149849130D02*
X155186000Y-149849130D01*
X155281238Y-149801511D01*
X155328857Y-149753892D01*
X155424095Y-149611035D01*
X155471714Y-149420559D01*
X155471714Y-149039607D01*
X155424095Y-148944369D01*
X155376476Y-148896750D01*
X155281238Y-148849130D01*
X155090761Y-148849130D01*
X154995523Y-148896750D01*
X154947904Y-148944369D01*
X154900285Y-149039607D01*
X154900285Y-149277702D01*
X154947904Y-149372940D01*
X154995523Y-149420559D01*
X155090761Y-149468178D01*
X155281238Y-149468178D01*
X155376476Y-149420559D01*
X155424095Y-149372940D01*
X155471714Y-149277702D01*
X78573333Y-138533142D02*
X78525714Y-138580761D01*
X78382857Y-138628380D01*
X78287619Y-138628380D01*
X78144761Y-138580761D01*
X78049523Y-138485523D01*
X78001904Y-138390285D01*
X77954285Y-138199809D01*
X77954285Y-138056952D01*
X78001904Y-137866476D01*
X78049523Y-137771238D01*
X78144761Y-137676000D01*
X78287619Y-137628380D01*
X78382857Y-137628380D01*
X78525714Y-137676000D01*
X78573333Y-137723619D01*
X79525714Y-138628380D02*
X78954285Y-138628380D01*
X79240000Y-138628380D02*
X79240000Y-137628380D01*
X79144761Y-137771238D01*
X79049523Y-137866476D01*
X78954285Y-137914095D01*
X69522380Y-126273333D02*
X70236666Y-126273333D01*
X70379523Y-126320952D01*
X70474761Y-126416190D01*
X70522380Y-126559047D01*
X70522380Y-126654285D01*
X70522380Y-125273333D02*
X70522380Y-125844761D01*
X70522380Y-125559047D02*
X69522380Y-125559047D01*
X69665238Y-125654285D01*
X69760476Y-125749523D01*
X69808095Y-125844761D01*
X86987142Y-144597380D02*
X86653809Y-144121190D01*
X86415714Y-144597380D02*
X86415714Y-143597380D01*
X86796666Y-143597380D01*
X86891904Y-143645000D01*
X86939523Y-143692619D01*
X86987142Y-143787857D01*
X86987142Y-143930714D01*
X86939523Y-144025952D01*
X86891904Y-144073571D01*
X86796666Y-144121190D01*
X86415714Y-144121190D01*
X87939523Y-144597380D02*
X87368095Y-144597380D01*
X87653809Y-144597380D02*
X87653809Y-143597380D01*
X87558571Y-143740238D01*
X87463333Y-143835476D01*
X87368095Y-143883095D01*
X88558571Y-143597380D02*
X88653809Y-143597380D01*
X88749047Y-143645000D01*
X88796666Y-143692619D01*
X88844285Y-143787857D01*
X88891904Y-143978333D01*
X88891904Y-144216428D01*
X88844285Y-144406904D01*
X88796666Y-144502142D01*
X88749047Y-144549761D01*
X88653809Y-144597380D01*
X88558571Y-144597380D01*
X88463333Y-144549761D01*
X88415714Y-144502142D01*
X88368095Y-144406904D01*
X88320476Y-144216428D01*
X88320476Y-143978333D01*
X88368095Y-143787857D01*
X88415714Y-143692619D01*
X88463333Y-143645000D01*
X88558571Y-143597380D01*
X136771142Y-140692142D02*
X136723523Y-140739761D01*
X136580666Y-140787380D01*
X136485428Y-140787380D01*
X136342571Y-140739761D01*
X136247333Y-140644523D01*
X136199714Y-140549285D01*
X136152095Y-140358809D01*
X136152095Y-140215952D01*
X136199714Y-140025476D01*
X136247333Y-139930238D01*
X136342571Y-139835000D01*
X136485428Y-139787380D01*
X136580666Y-139787380D01*
X136723523Y-139835000D01*
X136771142Y-139882619D01*
X137723523Y-140787380D02*
X137152095Y-140787380D01*
X137437809Y-140787380D02*
X137437809Y-139787380D01*
X137342571Y-139930238D01*
X137247333Y-140025476D01*
X137152095Y-140073095D01*
X138628285Y-139787380D02*
X138152095Y-139787380D01*
X138104476Y-140263571D01*
X138152095Y-140215952D01*
X138247333Y-140168333D01*
X138485428Y-140168333D01*
X138580666Y-140215952D01*
X138628285Y-140263571D01*
X138675904Y-140358809D01*
X138675904Y-140596904D01*
X138628285Y-140692142D01*
X138580666Y-140739761D01*
X138485428Y-140787380D01*
X138247333Y-140787380D01*
X138152095Y-140739761D01*
X138104476Y-140692142D01*
X81113333Y-128881142D02*
X81065714Y-128928761D01*
X80922857Y-128976380D01*
X80827619Y-128976380D01*
X80684761Y-128928761D01*
X80589523Y-128833523D01*
X80541904Y-128738285D01*
X80494285Y-128547809D01*
X80494285Y-128404952D01*
X80541904Y-128214476D01*
X80589523Y-128119238D01*
X80684761Y-128024000D01*
X80827619Y-127976380D01*
X80922857Y-127976380D01*
X81065714Y-128024000D01*
X81113333Y-128071619D01*
X81494285Y-128071619D02*
X81541904Y-128024000D01*
X81637142Y-127976380D01*
X81875238Y-127976380D01*
X81970476Y-128024000D01*
X82018095Y-128071619D01*
X82065714Y-128166857D01*
X82065714Y-128262095D01*
X82018095Y-128404952D01*
X81446666Y-128976380D01*
X82065714Y-128976380D01*
X159377142Y-144597380D02*
X159043809Y-144121190D01*
X158805714Y-144597380D02*
X158805714Y-143597380D01*
X159186666Y-143597380D01*
X159281904Y-143645000D01*
X159329523Y-143692619D01*
X159377142Y-143787857D01*
X159377142Y-143930714D01*
X159329523Y-144025952D01*
X159281904Y-144073571D01*
X159186666Y-144121190D01*
X158805714Y-144121190D01*
X160329523Y-144597380D02*
X159758095Y-144597380D01*
X160043809Y-144597380D02*
X160043809Y-143597380D01*
X159948571Y-143740238D01*
X159853333Y-143835476D01*
X159758095Y-143883095D01*
X160662857Y-143597380D02*
X161281904Y-143597380D01*
X160948571Y-143978333D01*
X161091428Y-143978333D01*
X161186666Y-144025952D01*
X161234285Y-144073571D01*
X161281904Y-144168809D01*
X161281904Y-144406904D01*
X161234285Y-144502142D01*
X161186666Y-144549761D01*
X161091428Y-144597380D01*
X160805714Y-144597380D01*
X160710476Y-144549761D01*
X160662857Y-144502142D01*
X126238095Y-130656380D02*
X126238095Y-131465904D01*
X126285714Y-131561142D01*
X126333333Y-131608761D01*
X126428571Y-131656380D01*
X126619047Y-131656380D01*
X126714285Y-131608761D01*
X126761904Y-131561142D01*
X126809523Y-131465904D01*
X126809523Y-130656380D01*
X127190476Y-130656380D02*
X127809523Y-130656380D01*
X127476190Y-131037333D01*
X127619047Y-131037333D01*
X127714285Y-131084952D01*
X127761904Y-131132571D01*
X127809523Y-131227809D01*
X127809523Y-131465904D01*
X127761904Y-131561142D01*
X127714285Y-131608761D01*
X127619047Y-131656380D01*
X127333333Y-131656380D01*
X127238095Y-131608761D01*
X127190476Y-131561142D01*
X111117142Y-144597380D02*
X110783809Y-144121190D01*
X110545714Y-144597380D02*
X110545714Y-143597380D01*
X110926666Y-143597380D01*
X111021904Y-143645000D01*
X111069523Y-143692619D01*
X111117142Y-143787857D01*
X111117142Y-143930714D01*
X111069523Y-144025952D01*
X111021904Y-144073571D01*
X110926666Y-144121190D01*
X110545714Y-144121190D01*
X112069523Y-144597380D02*
X111498095Y-144597380D01*
X111783809Y-144597380D02*
X111783809Y-143597380D01*
X111688571Y-143740238D01*
X111593333Y-143835476D01*
X111498095Y-143883095D01*
X113021904Y-144597380D02*
X112450476Y-144597380D01*
X112736190Y-144597380D02*
X112736190Y-143597380D01*
X112640952Y-143740238D01*
X112545714Y-143835476D01*
X112450476Y-143883095D01*
X88606333Y-139041142D02*
X88558714Y-139088761D01*
X88415857Y-139136380D01*
X88320619Y-139136380D01*
X88177761Y-139088761D01*
X88082523Y-138993523D01*
X88034904Y-138898285D01*
X87987285Y-138707809D01*
X87987285Y-138564952D01*
X88034904Y-138374476D01*
X88082523Y-138279238D01*
X88177761Y-138184000D01*
X88320619Y-138136380D01*
X88415857Y-138136380D01*
X88558714Y-138184000D01*
X88606333Y-138231619D01*
X89463476Y-138469714D02*
X89463476Y-139136380D01*
X89225380Y-138088761D02*
X88987285Y-138803047D01*
X89606333Y-138803047D01*
X123872666Y-138358571D02*
X123539333Y-138358571D01*
X123539333Y-138882380D02*
X123539333Y-137882380D01*
X124015523Y-137882380D01*
X124825047Y-138215714D02*
X124825047Y-138882380D01*
X124586952Y-137834761D02*
X124348857Y-138549047D01*
X124967904Y-138549047D01*
X75612666Y-138358571D02*
X75279333Y-138358571D01*
X75279333Y-138882380D02*
X75279333Y-137882380D01*
X75755523Y-137882380D01*
X76088857Y-137977619D02*
X76136476Y-137930000D01*
X76231714Y-137882380D01*
X76469809Y-137882380D01*
X76565047Y-137930000D01*
X76612666Y-137977619D01*
X76660285Y-138072857D01*
X76660285Y-138168095D01*
X76612666Y-138310952D01*
X76041238Y-138882380D01*
X76660285Y-138882380D01*
X160520142Y-139001142D02*
X160472523Y-139048761D01*
X160329666Y-139096380D01*
X160234428Y-139096380D01*
X160091571Y-139048761D01*
X159996333Y-138953523D01*
X159948714Y-138858285D01*
X159901095Y-138667809D01*
X159901095Y-138524952D01*
X159948714Y-138334476D01*
X159996333Y-138239238D01*
X160091571Y-138144000D01*
X160234428Y-138096380D01*
X160329666Y-138096380D01*
X160472523Y-138144000D01*
X160520142Y-138191619D01*
X161472523Y-139096380D02*
X160901095Y-139096380D01*
X161186809Y-139096380D02*
X161186809Y-138096380D01*
X161091571Y-138239238D01*
X160996333Y-138334476D01*
X160901095Y-138382095D01*
X161948714Y-139096380D02*
X162139190Y-139096380D01*
X162234428Y-139048761D01*
X162282047Y-139001142D01*
X162377285Y-138858285D01*
X162424904Y-138667809D01*
X162424904Y-138286857D01*
X162377285Y-138191619D01*
X162329666Y-138144000D01*
X162234428Y-138096380D01*
X162043952Y-138096380D01*
X161948714Y-138144000D01*
X161901095Y-138191619D01*
X161853476Y-138286857D01*
X161853476Y-138524952D01*
X161901095Y-138620190D01*
X161948714Y-138667809D01*
X162043952Y-138715428D01*
X162234428Y-138715428D01*
X162329666Y-138667809D01*
X162377285Y-138620190D01*
X162424904Y-138524952D01*
X97623333Y-133453142D02*
X97575714Y-133500761D01*
X97432857Y-133548380D01*
X97337619Y-133548380D01*
X97194761Y-133500761D01*
X97099523Y-133405523D01*
X97051904Y-133310285D01*
X97004285Y-133119809D01*
X97004285Y-132976952D01*
X97051904Y-132786476D01*
X97099523Y-132691238D01*
X97194761Y-132596000D01*
X97337619Y-132548380D01*
X97432857Y-132548380D01*
X97575714Y-132596000D01*
X97623333Y-132643619D01*
X98194761Y-132976952D02*
X98099523Y-132929333D01*
X98051904Y-132881714D01*
X98004285Y-132786476D01*
X98004285Y-132738857D01*
X98051904Y-132643619D01*
X98099523Y-132596000D01*
X98194761Y-132548380D01*
X98385238Y-132548380D01*
X98480476Y-132596000D01*
X98528095Y-132643619D01*
X98575714Y-132738857D01*
X98575714Y-132786476D01*
X98528095Y-132881714D01*
X98480476Y-132929333D01*
X98385238Y-132976952D01*
X98194761Y-132976952D01*
X98099523Y-133024571D01*
X98051904Y-133072190D01*
X98004285Y-133167428D01*
X98004285Y-133357904D01*
X98051904Y-133453142D01*
X98099523Y-133500761D01*
X98194761Y-133548380D01*
X98385238Y-133548380D01*
X98480476Y-133500761D01*
X98528095Y-133453142D01*
X98575714Y-133357904D01*
X98575714Y-133167428D01*
X98528095Y-133072190D01*
X98480476Y-133024571D01*
X98385238Y-132976952D01*
X153947904Y-148198130D02*
X153947904Y-147198130D01*
X154186000Y-147198130D01*
X154328857Y-147245750D01*
X154424095Y-147340988D01*
X154471714Y-147436226D01*
X154519333Y-147626702D01*
X154519333Y-147769559D01*
X154471714Y-147960035D01*
X154424095Y-148055273D01*
X154328857Y-148150511D01*
X154186000Y-148198130D01*
X153947904Y-148198130D01*
X155471714Y-148198130D02*
X154900285Y-148198130D01*
X155186000Y-148198130D02*
X155186000Y-147198130D01*
X155090761Y-147340988D01*
X154995523Y-147436226D01*
X154900285Y-147483845D01*
X69068571Y-143843333D02*
X69068571Y-144176666D01*
X69592380Y-144176666D02*
X68592380Y-144176666D01*
X68592380Y-143700476D01*
X69592380Y-142795714D02*
X69592380Y-143367142D01*
X69592380Y-143081428D02*
X68592380Y-143081428D01*
X68735238Y-143176666D01*
X68830476Y-143271904D01*
X68878095Y-143367142D01*
X135151904Y-142692380D02*
X135151904Y-141692380D01*
X135390000Y-141692380D01*
X135532857Y-141740000D01*
X135628095Y-141835238D01*
X135675714Y-141930476D01*
X135723333Y-142120952D01*
X135723333Y-142263809D01*
X135675714Y-142454285D01*
X135628095Y-142549523D01*
X135532857Y-142644761D01*
X135390000Y-142692380D01*
X135151904Y-142692380D01*
X136580476Y-142025714D02*
X136580476Y-142692380D01*
X136342380Y-141644761D02*
X136104285Y-142359047D01*
X136723333Y-142359047D01*
X111593333Y-129556380D02*
X111117142Y-129556380D01*
X111117142Y-128556380D01*
X111879047Y-128651619D02*
X111926666Y-128604000D01*
X112021904Y-128556380D01*
X112260000Y-128556380D01*
X112355238Y-128604000D01*
X112402857Y-128651619D01*
X112450476Y-128746857D01*
X112450476Y-128842095D01*
X112402857Y-128984952D01*
X111831428Y-129556380D01*
X112450476Y-129556380D01*
X105243333Y-128881142D02*
X105195714Y-128928761D01*
X105052857Y-128976380D01*
X104957619Y-128976380D01*
X104814761Y-128928761D01*
X104719523Y-128833523D01*
X104671904Y-128738285D01*
X104624285Y-128547809D01*
X104624285Y-128404952D01*
X104671904Y-128214476D01*
X104719523Y-128119238D01*
X104814761Y-128024000D01*
X104957619Y-127976380D01*
X105052857Y-127976380D01*
X105195714Y-128024000D01*
X105243333Y-128071619D01*
X105576666Y-127976380D02*
X106243333Y-127976380D01*
X105814761Y-128976380D01*
X102703333Y-138533142D02*
X102655714Y-138580761D01*
X102512857Y-138628380D01*
X102417619Y-138628380D01*
X102274761Y-138580761D01*
X102179523Y-138485523D01*
X102131904Y-138390285D01*
X102084285Y-138199809D01*
X102084285Y-138056952D01*
X102131904Y-137866476D01*
X102179523Y-137771238D01*
X102274761Y-137676000D01*
X102417619Y-137628380D01*
X102512857Y-137628380D01*
X102655714Y-137676000D01*
X102703333Y-137723619D01*
X103560476Y-137628380D02*
X103370000Y-137628380D01*
X103274761Y-137676000D01*
X103227142Y-137723619D01*
X103131904Y-137866476D01*
X103084285Y-138056952D01*
X103084285Y-138437904D01*
X103131904Y-138533142D01*
X103179523Y-138580761D01*
X103274761Y-138628380D01*
X103465238Y-138628380D01*
X103560476Y-138580761D01*
X103608095Y-138533142D01*
X103655714Y-138437904D01*
X103655714Y-138199809D01*
X103608095Y-138104571D01*
X103560476Y-138056952D01*
X103465238Y-138009333D01*
X103274761Y-138009333D01*
X103179523Y-138056952D01*
X103131904Y-138104571D01*
X103084285Y-138199809D01*
X101179333Y-128943380D02*
X100846000Y-128467190D01*
X100607904Y-128943380D02*
X100607904Y-127943380D01*
X100988857Y-127943380D01*
X101084095Y-127991000D01*
X101131714Y-128038619D01*
X101179333Y-128133857D01*
X101179333Y-128276714D01*
X101131714Y-128371952D01*
X101084095Y-128419571D01*
X100988857Y-128467190D01*
X100607904Y-128467190D01*
X102036476Y-128276714D02*
X102036476Y-128943380D01*
X101798380Y-127895761D02*
X101560285Y-128610047D01*
X102179333Y-128610047D01*
X145407142Y-133453142D02*
X145359523Y-133500761D01*
X145216666Y-133548380D01*
X145121428Y-133548380D01*
X144978571Y-133500761D01*
X144883333Y-133405523D01*
X144835714Y-133310285D01*
X144788095Y-133119809D01*
X144788095Y-132976952D01*
X144835714Y-132786476D01*
X144883333Y-132691238D01*
X144978571Y-132596000D01*
X145121428Y-132548380D01*
X145216666Y-132548380D01*
X145359523Y-132596000D01*
X145407142Y-132643619D01*
X146359523Y-133548380D02*
X145788095Y-133548380D01*
X146073809Y-133548380D02*
X146073809Y-132548380D01*
X145978571Y-132691238D01*
X145883333Y-132786476D01*
X145788095Y-132834095D01*
X146930952Y-132976952D02*
X146835714Y-132929333D01*
X146788095Y-132881714D01*
X146740476Y-132786476D01*
X146740476Y-132738857D01*
X146788095Y-132643619D01*
X146835714Y-132596000D01*
X146930952Y-132548380D01*
X147121428Y-132548380D01*
X147216666Y-132596000D01*
X147264285Y-132643619D01*
X147311904Y-132738857D01*
X147311904Y-132786476D01*
X147264285Y-132881714D01*
X147216666Y-132929333D01*
X147121428Y-132976952D01*
X146930952Y-132976952D01*
X146835714Y-133024571D01*
X146788095Y-133072190D01*
X146740476Y-133167428D01*
X146740476Y-133357904D01*
X146788095Y-133453142D01*
X146835714Y-133500761D01*
X146930952Y-133548380D01*
X147121428Y-133548380D01*
X147216666Y-133500761D01*
X147264285Y-133453142D01*
X147311904Y-133357904D01*
X147311904Y-133167428D01*
X147264285Y-133072190D01*
X147216666Y-133024571D01*
X147121428Y-132976952D01*
X121753333Y-128976380D02*
X121420000Y-128500190D01*
X121181904Y-128976380D02*
X121181904Y-127976380D01*
X121562857Y-127976380D01*
X121658095Y-128024000D01*
X121705714Y-128071619D01*
X121753333Y-128166857D01*
X121753333Y-128309714D01*
X121705714Y-128404952D01*
X121658095Y-128452571D01*
X121562857Y-128500190D01*
X121181904Y-128500190D01*
X122658095Y-127976380D02*
X122181904Y-127976380D01*
X122134285Y-128452571D01*
X122181904Y-128404952D01*
X122277142Y-128357333D01*
X122515238Y-128357333D01*
X122610476Y-128404952D01*
X122658095Y-128452571D01*
X122705714Y-128547809D01*
X122705714Y-128785904D01*
X122658095Y-128881142D01*
X122610476Y-128928761D01*
X122515238Y-128976380D01*
X122277142Y-128976380D01*
X122181904Y-128928761D01*
X122134285Y-128881142D01*
X153027142Y-128841142D02*
X152979523Y-128888761D01*
X152836666Y-128936380D01*
X152741428Y-128936380D01*
X152598571Y-128888761D01*
X152503333Y-128793523D01*
X152455714Y-128698285D01*
X152408095Y-128507809D01*
X152408095Y-128364952D01*
X152455714Y-128174476D01*
X152503333Y-128079238D01*
X152598571Y-127984000D01*
X152741428Y-127936380D01*
X152836666Y-127936380D01*
X152979523Y-127984000D01*
X153027142Y-128031619D01*
X153979523Y-128936380D02*
X153408095Y-128936380D01*
X153693809Y-128936380D02*
X153693809Y-127936380D01*
X153598571Y-128079238D01*
X153503333Y-128174476D01*
X153408095Y-128222095D01*
X154312857Y-127936380D02*
X154979523Y-127936380D01*
X154550952Y-128936380D01*
X73493333Y-133453142D02*
X73445714Y-133500761D01*
X73302857Y-133548380D01*
X73207619Y-133548380D01*
X73064761Y-133500761D01*
X72969523Y-133405523D01*
X72921904Y-133310285D01*
X72874285Y-133119809D01*
X72874285Y-132976952D01*
X72921904Y-132786476D01*
X72969523Y-132691238D01*
X73064761Y-132596000D01*
X73207619Y-132548380D01*
X73302857Y-132548380D01*
X73445714Y-132596000D01*
X73493333Y-132643619D01*
X73826666Y-132548380D02*
X74445714Y-132548380D01*
X74112380Y-132929333D01*
X74255238Y-132929333D01*
X74350476Y-132976952D01*
X74398095Y-133024571D01*
X74445714Y-133119809D01*
X74445714Y-133357904D01*
X74398095Y-133453142D01*
X74350476Y-133500761D01*
X74255238Y-133548380D01*
X73969523Y-133548380D01*
X73874285Y-133500761D01*
X73826666Y-133453142D01*
X150487142Y-138493142D02*
X150439523Y-138540761D01*
X150296666Y-138588380D01*
X150201428Y-138588380D01*
X150058571Y-138540761D01*
X149963333Y-138445523D01*
X149915714Y-138350285D01*
X149868095Y-138159809D01*
X149868095Y-138016952D01*
X149915714Y-137826476D01*
X149963333Y-137731238D01*
X150058571Y-137636000D01*
X150201428Y-137588380D01*
X150296666Y-137588380D01*
X150439523Y-137636000D01*
X150487142Y-137683619D01*
X151439523Y-138588380D02*
X150868095Y-138588380D01*
X151153809Y-138588380D02*
X151153809Y-137588380D01*
X151058571Y-137731238D01*
X150963333Y-137826476D01*
X150868095Y-137874095D01*
X152296666Y-137588380D02*
X152106190Y-137588380D01*
X152010952Y-137636000D01*
X151963333Y-137683619D01*
X151868095Y-137826476D01*
X151820476Y-138016952D01*
X151820476Y-138397904D01*
X151868095Y-138493142D01*
X151915714Y-138540761D01*
X152010952Y-138588380D01*
X152201428Y-138588380D01*
X152296666Y-138540761D01*
X152344285Y-138493142D01*
X152391904Y-138397904D01*
X152391904Y-138159809D01*
X152344285Y-138064571D01*
X152296666Y-138016952D01*
X152201428Y-137969333D01*
X152010952Y-137969333D01*
X151915714Y-138016952D01*
X151868095Y-138064571D01*
X151820476Y-138159809D01*
X160520142Y-140652142D02*
X160472523Y-140699761D01*
X160329666Y-140747380D01*
X160234428Y-140747380D01*
X160091571Y-140699761D01*
X159996333Y-140604523D01*
X159948714Y-140509285D01*
X159901095Y-140318809D01*
X159901095Y-140175952D01*
X159948714Y-139985476D01*
X159996333Y-139890238D01*
X160091571Y-139795000D01*
X160234428Y-139747380D01*
X160329666Y-139747380D01*
X160472523Y-139795000D01*
X160520142Y-139842619D01*
X160901095Y-139842619D02*
X160948714Y-139795000D01*
X161043952Y-139747380D01*
X161282047Y-139747380D01*
X161377285Y-139795000D01*
X161424904Y-139842619D01*
X161472523Y-139937857D01*
X161472523Y-140033095D01*
X161424904Y-140175952D01*
X160853476Y-140747380D01*
X161472523Y-140747380D01*
X162091571Y-139747380D02*
X162186809Y-139747380D01*
X162282047Y-139795000D01*
X162329666Y-139842619D01*
X162377285Y-139937857D01*
X162424904Y-140128333D01*
X162424904Y-140366428D01*
X162377285Y-140556904D01*
X162329666Y-140652142D01*
X162282047Y-140699761D01*
X162186809Y-140747380D01*
X162091571Y-140747380D01*
X161996333Y-140699761D01*
X161948714Y-140652142D01*
X161901095Y-140556904D01*
X161853476Y-140366428D01*
X161853476Y-140128333D01*
X161901095Y-139937857D01*
X161948714Y-139842619D01*
X161996333Y-139795000D01*
X162091571Y-139747380D01*
X87463333Y-129556380D02*
X86987142Y-129556380D01*
X86987142Y-128556380D01*
X88320476Y-129556380D02*
X87749047Y-129556380D01*
X88034761Y-129556380D02*
X88034761Y-128556380D01*
X87939523Y-128699238D01*
X87844285Y-128794476D01*
X87749047Y-128842095D01*
X136771142Y-139041142D02*
X136723523Y-139088761D01*
X136580666Y-139136380D01*
X136485428Y-139136380D01*
X136342571Y-139088761D01*
X136247333Y-138993523D01*
X136199714Y-138898285D01*
X136152095Y-138707809D01*
X136152095Y-138564952D01*
X136199714Y-138374476D01*
X136247333Y-138279238D01*
X136342571Y-138184000D01*
X136485428Y-138136380D01*
X136580666Y-138136380D01*
X136723523Y-138184000D01*
X136771142Y-138231619D01*
X137723523Y-139136380D02*
X137152095Y-139136380D01*
X137437809Y-139136380D02*
X137437809Y-138136380D01*
X137342571Y-138279238D01*
X137247333Y-138374476D01*
X137152095Y-138422095D01*
X138580666Y-138469714D02*
X138580666Y-139136380D01*
X138342571Y-138088761D02*
X138104476Y-138803047D01*
X138723523Y-138803047D01*
X159853333Y-129516380D02*
X159377142Y-129516380D01*
X159377142Y-128516380D01*
X160615238Y-128849714D02*
X160615238Y-129516380D01*
X160377142Y-128468761D02*
X160139047Y-129183047D01*
X160758095Y-129183047D01*
X73493333Y-128976380D02*
X73160000Y-128500190D01*
X72921904Y-128976380D02*
X72921904Y-127976380D01*
X73302857Y-127976380D01*
X73398095Y-128024000D01*
X73445714Y-128071619D01*
X73493333Y-128166857D01*
X73493333Y-128309714D01*
X73445714Y-128404952D01*
X73398095Y-128452571D01*
X73302857Y-128500190D01*
X72921904Y-128500190D01*
X74445714Y-128976380D02*
X73874285Y-128976380D01*
X74160000Y-128976380D02*
X74160000Y-127976380D01*
X74064761Y-128119238D01*
X73969523Y-128214476D01*
X73874285Y-128262095D01*
X125309333Y-128943380D02*
X124976000Y-128467190D01*
X124737904Y-128943380D02*
X124737904Y-127943380D01*
X125118857Y-127943380D01*
X125214095Y-127991000D01*
X125261714Y-128038619D01*
X125309333Y-128133857D01*
X125309333Y-128276714D01*
X125261714Y-128371952D01*
X125214095Y-128419571D01*
X125118857Y-128467190D01*
X124737904Y-128467190D01*
X126166476Y-127943380D02*
X125976000Y-127943380D01*
X125880761Y-127991000D01*
X125833142Y-128038619D01*
X125737904Y-128181476D01*
X125690285Y-128371952D01*
X125690285Y-128752904D01*
X125737904Y-128848142D01*
X125785523Y-128895761D01*
X125880761Y-128943380D01*
X126071238Y-128943380D01*
X126166476Y-128895761D01*
X126214095Y-128848142D01*
X126261714Y-128752904D01*
X126261714Y-128514809D01*
X126214095Y-128419571D01*
X126166476Y-128371952D01*
X126071238Y-128324333D01*
X125880761Y-128324333D01*
X125785523Y-128371952D01*
X125737904Y-128419571D01*
X125690285Y-128514809D01*
X102108095Y-130656380D02*
X102108095Y-131465904D01*
X102155714Y-131561142D01*
X102203333Y-131608761D01*
X102298571Y-131656380D01*
X102489047Y-131656380D01*
X102584285Y-131608761D01*
X102631904Y-131561142D01*
X102679523Y-131465904D01*
X102679523Y-130656380D01*
X103108095Y-130751619D02*
X103155714Y-130704000D01*
X103250952Y-130656380D01*
X103489047Y-130656380D01*
X103584285Y-130704000D01*
X103631904Y-130751619D01*
X103679523Y-130846857D01*
X103679523Y-130942095D01*
X103631904Y-131084952D01*
X103060476Y-131656380D01*
X103679523Y-131656380D01*
X111021904Y-142692380D02*
X111021904Y-141692380D01*
X111260000Y-141692380D01*
X111402857Y-141740000D01*
X111498095Y-141835238D01*
X111545714Y-141930476D01*
X111593333Y-142120952D01*
X111593333Y-142263809D01*
X111545714Y-142454285D01*
X111498095Y-142549523D01*
X111402857Y-142644761D01*
X111260000Y-142692380D01*
X111021904Y-142692380D01*
X111926666Y-141692380D02*
X112545714Y-141692380D01*
X112212380Y-142073333D01*
X112355238Y-142073333D01*
X112450476Y-142120952D01*
X112498095Y-142168571D01*
X112545714Y-142263809D01*
X112545714Y-142501904D01*
X112498095Y-142597142D01*
X112450476Y-142644761D01*
X112355238Y-142692380D01*
X112069523Y-142692380D01*
X111974285Y-142644761D01*
X111926666Y-142597142D01*
X97623333Y-128976380D02*
X97290000Y-128500190D01*
X97051904Y-128976380D02*
X97051904Y-127976380D01*
X97432857Y-127976380D01*
X97528095Y-128024000D01*
X97575714Y-128071619D01*
X97623333Y-128166857D01*
X97623333Y-128309714D01*
X97575714Y-128404952D01*
X97528095Y-128452571D01*
X97432857Y-128500190D01*
X97051904Y-128500190D01*
X97956666Y-127976380D02*
X98575714Y-127976380D01*
X98242380Y-128357333D01*
X98385238Y-128357333D01*
X98480476Y-128404952D01*
X98528095Y-128452571D01*
X98575714Y-128547809D01*
X98575714Y-128785904D01*
X98528095Y-128881142D01*
X98480476Y-128928761D01*
X98385238Y-128976380D01*
X98099523Y-128976380D01*
X98004285Y-128928761D01*
X97956666Y-128881142D01*
X149439333Y-128903380D02*
X149106000Y-128427190D01*
X148867904Y-128903380D02*
X148867904Y-127903380D01*
X149248857Y-127903380D01*
X149344095Y-127951000D01*
X149391714Y-127998619D01*
X149439333Y-128093857D01*
X149439333Y-128236714D01*
X149391714Y-128331952D01*
X149344095Y-128379571D01*
X149248857Y-128427190D01*
X148867904Y-128427190D01*
X150010761Y-128331952D02*
X149915523Y-128284333D01*
X149867904Y-128236714D01*
X149820285Y-128141476D01*
X149820285Y-128093857D01*
X149867904Y-127998619D01*
X149915523Y-127951000D01*
X150010761Y-127903380D01*
X150201238Y-127903380D01*
X150296476Y-127951000D01*
X150344095Y-127998619D01*
X150391714Y-128093857D01*
X150391714Y-128141476D01*
X150344095Y-128236714D01*
X150296476Y-128284333D01*
X150201238Y-128331952D01*
X150010761Y-128331952D01*
X149915523Y-128379571D01*
X149867904Y-128427190D01*
X149820285Y-128522428D01*
X149820285Y-128712904D01*
X149867904Y-128808142D01*
X149915523Y-128855761D01*
X150010761Y-128903380D01*
X150201238Y-128903380D01*
X150296476Y-128855761D01*
X150344095Y-128808142D01*
X150391714Y-128712904D01*
X150391714Y-128522428D01*
X150344095Y-128427190D01*
X150296476Y-128379571D01*
X150201238Y-128331952D01*
X135247142Y-144597380D02*
X134913809Y-144121190D01*
X134675714Y-144597380D02*
X134675714Y-143597380D01*
X135056666Y-143597380D01*
X135151904Y-143645000D01*
X135199523Y-143692619D01*
X135247142Y-143787857D01*
X135247142Y-143930714D01*
X135199523Y-144025952D01*
X135151904Y-144073571D01*
X135056666Y-144121190D01*
X134675714Y-144121190D01*
X136199523Y-144597380D02*
X135628095Y-144597380D01*
X135913809Y-144597380D02*
X135913809Y-143597380D01*
X135818571Y-143740238D01*
X135723333Y-143835476D01*
X135628095Y-143883095D01*
X136580476Y-143692619D02*
X136628095Y-143645000D01*
X136723333Y-143597380D01*
X136961428Y-143597380D01*
X137056666Y-143645000D01*
X137104285Y-143692619D01*
X137151904Y-143787857D01*
X137151904Y-143883095D01*
X137104285Y-144025952D01*
X136532857Y-144597380D01*
X137151904Y-144597380D01*
X77049333Y-128943380D02*
X76716000Y-128467190D01*
X76477904Y-128943380D02*
X76477904Y-127943380D01*
X76858857Y-127943380D01*
X76954095Y-127991000D01*
X77001714Y-128038619D01*
X77049333Y-128133857D01*
X77049333Y-128276714D01*
X77001714Y-128371952D01*
X76954095Y-128419571D01*
X76858857Y-128467190D01*
X76477904Y-128467190D01*
X77430285Y-128038619D02*
X77477904Y-127991000D01*
X77573142Y-127943380D01*
X77811238Y-127943380D01*
X77906476Y-127991000D01*
X77954095Y-128038619D01*
X78001714Y-128133857D01*
X78001714Y-128229095D01*
X77954095Y-128371952D01*
X77382666Y-128943380D01*
X78001714Y-128943380D01*
X88606333Y-140692142D02*
X88558714Y-140739761D01*
X88415857Y-140787380D01*
X88320619Y-140787380D01*
X88177761Y-140739761D01*
X88082523Y-140644523D01*
X88034904Y-140549285D01*
X87987285Y-140358809D01*
X87987285Y-140215952D01*
X88034904Y-140025476D01*
X88082523Y-139930238D01*
X88177761Y-139835000D01*
X88320619Y-139787380D01*
X88415857Y-139787380D01*
X88558714Y-139835000D01*
X88606333Y-139882619D01*
X89511095Y-139787380D02*
X89034904Y-139787380D01*
X88987285Y-140263571D01*
X89034904Y-140215952D01*
X89130142Y-140168333D01*
X89368238Y-140168333D01*
X89463476Y-140215952D01*
X89511095Y-140263571D01*
X89558714Y-140358809D01*
X89558714Y-140596904D01*
X89511095Y-140692142D01*
X89463476Y-140739761D01*
X89368238Y-140787380D01*
X89130142Y-140787380D01*
X89034904Y-140739761D01*
X88987285Y-140692142D01*
X77978095Y-130656380D02*
X77978095Y-131465904D01*
X78025714Y-131561142D01*
X78073333Y-131608761D01*
X78168571Y-131656380D01*
X78359047Y-131656380D01*
X78454285Y-131608761D01*
X78501904Y-131561142D01*
X78549523Y-131465904D01*
X78549523Y-130656380D01*
X79549523Y-131656380D02*
X78978095Y-131656380D01*
X79263809Y-131656380D02*
X79263809Y-130656380D01*
X79168571Y-130799238D01*
X79073333Y-130894476D01*
X78978095Y-130942095D01*
X86891904Y-142692380D02*
X86891904Y-141692380D01*
X87130000Y-141692380D01*
X87272857Y-141740000D01*
X87368095Y-141835238D01*
X87415714Y-141930476D01*
X87463333Y-142120952D01*
X87463333Y-142263809D01*
X87415714Y-142454285D01*
X87368095Y-142549523D01*
X87272857Y-142644761D01*
X87130000Y-142692380D01*
X86891904Y-142692380D01*
X87844285Y-141787619D02*
X87891904Y-141740000D01*
X87987142Y-141692380D01*
X88225238Y-141692380D01*
X88320476Y-141740000D01*
X88368095Y-141787619D01*
X88415714Y-141882857D01*
X88415714Y-141978095D01*
X88368095Y-142120952D01*
X87796666Y-142692380D01*
X88415714Y-142692380D01*
X150368095Y-130616380D02*
X150368095Y-131425904D01*
X150415714Y-131521142D01*
X150463333Y-131568761D01*
X150558571Y-131616380D01*
X150749047Y-131616380D01*
X150844285Y-131568761D01*
X150891904Y-131521142D01*
X150939523Y-131425904D01*
X150939523Y-130616380D01*
X151844285Y-130949714D02*
X151844285Y-131616380D01*
X151606190Y-130568761D02*
X151368095Y-131283047D01*
X151987142Y-131283047D01*
X128897142Y-128881142D02*
X128849523Y-128928761D01*
X128706666Y-128976380D01*
X128611428Y-128976380D01*
X128468571Y-128928761D01*
X128373333Y-128833523D01*
X128325714Y-128738285D01*
X128278095Y-128547809D01*
X128278095Y-128404952D01*
X128325714Y-128214476D01*
X128373333Y-128119238D01*
X128468571Y-128024000D01*
X128611428Y-127976380D01*
X128706666Y-127976380D01*
X128849523Y-128024000D01*
X128897142Y-128071619D01*
X129849523Y-128976380D02*
X129278095Y-128976380D01*
X129563809Y-128976380D02*
X129563809Y-127976380D01*
X129468571Y-128119238D01*
X129373333Y-128214476D01*
X129278095Y-128262095D01*
X130230476Y-128071619D02*
X130278095Y-128024000D01*
X130373333Y-127976380D01*
X130611428Y-127976380D01*
X130706666Y-128024000D01*
X130754285Y-128071619D01*
X130801904Y-128166857D01*
X130801904Y-128262095D01*
X130754285Y-128404952D01*
X130182857Y-128976380D01*
X130801904Y-128976380D01*
X126357142Y-138533142D02*
X126309523Y-138580761D01*
X126166666Y-138628380D01*
X126071428Y-138628380D01*
X125928571Y-138580761D01*
X125833333Y-138485523D01*
X125785714Y-138390285D01*
X125738095Y-138199809D01*
X125738095Y-138056952D01*
X125785714Y-137866476D01*
X125833333Y-137771238D01*
X125928571Y-137676000D01*
X126071428Y-137628380D01*
X126166666Y-137628380D01*
X126309523Y-137676000D01*
X126357142Y-137723619D01*
X127309523Y-138628380D02*
X126738095Y-138628380D01*
X127023809Y-138628380D02*
X127023809Y-137628380D01*
X126928571Y-137771238D01*
X126833333Y-137866476D01*
X126738095Y-137914095D01*
X128261904Y-138628380D02*
X127690476Y-138628380D01*
X127976190Y-138628380D02*
X127976190Y-137628380D01*
X127880952Y-137771238D01*
X127785714Y-137866476D01*
X127690476Y-137914095D01*
X112736333Y-139041142D02*
X112688714Y-139088761D01*
X112545857Y-139136380D01*
X112450619Y-139136380D01*
X112307761Y-139088761D01*
X112212523Y-138993523D01*
X112164904Y-138898285D01*
X112117285Y-138707809D01*
X112117285Y-138564952D01*
X112164904Y-138374476D01*
X112212523Y-138279238D01*
X112307761Y-138184000D01*
X112450619Y-138136380D01*
X112545857Y-138136380D01*
X112688714Y-138184000D01*
X112736333Y-138231619D01*
X113212523Y-139136380D02*
X113403000Y-139136380D01*
X113498238Y-139088761D01*
X113545857Y-139041142D01*
X113641095Y-138898285D01*
X113688714Y-138707809D01*
X113688714Y-138326857D01*
X113641095Y-138231619D01*
X113593476Y-138184000D01*
X113498238Y-138136380D01*
X113307761Y-138136380D01*
X113212523Y-138184000D01*
X113164904Y-138231619D01*
X113117285Y-138326857D01*
X113117285Y-138564952D01*
X113164904Y-138660190D01*
X113212523Y-138707809D01*
X113307761Y-138755428D01*
X113498238Y-138755428D01*
X113593476Y-138707809D01*
X113641095Y-138660190D01*
X113688714Y-138564952D01*
X112641142Y-140692142D02*
X112593523Y-140739761D01*
X112450666Y-140787380D01*
X112355428Y-140787380D01*
X112212571Y-140739761D01*
X112117333Y-140644523D01*
X112069714Y-140549285D01*
X112022095Y-140358809D01*
X112022095Y-140215952D01*
X112069714Y-140025476D01*
X112117333Y-139930238D01*
X112212571Y-139835000D01*
X112355428Y-139787380D01*
X112450666Y-139787380D01*
X112593523Y-139835000D01*
X112641142Y-139882619D01*
X113593523Y-140787380D02*
X113022095Y-140787380D01*
X113307809Y-140787380D02*
X113307809Y-139787380D01*
X113212571Y-139930238D01*
X113117333Y-140025476D01*
X113022095Y-140073095D01*
X114212571Y-139787380D02*
X114307809Y-139787380D01*
X114403047Y-139835000D01*
X114450666Y-139882619D01*
X114498285Y-139977857D01*
X114545904Y-140168333D01*
X114545904Y-140406428D01*
X114498285Y-140596904D01*
X114450666Y-140692142D01*
X114403047Y-140739761D01*
X114307809Y-140787380D01*
X114212571Y-140787380D01*
X114117333Y-140739761D01*
X114069714Y-140692142D01*
X114022095Y-140596904D01*
X113974476Y-140406428D01*
X113974476Y-140168333D01*
X114022095Y-139977857D01*
X114069714Y-139882619D01*
X114117333Y-139835000D01*
X114212571Y-139787380D01*
X99742666Y-138358571D02*
X99409333Y-138358571D01*
X99409333Y-138882380D02*
X99409333Y-137882380D01*
X99885523Y-137882380D01*
X100171238Y-137882380D02*
X100790285Y-137882380D01*
X100456952Y-138263333D01*
X100599809Y-138263333D01*
X100695047Y-138310952D01*
X100742666Y-138358571D01*
X100790285Y-138453809D01*
X100790285Y-138691904D01*
X100742666Y-138787142D01*
X100695047Y-138834761D01*
X100599809Y-138882380D01*
X100314095Y-138882380D01*
X100218857Y-138834761D01*
X100171238Y-138787142D01*
X148002666Y-138104571D02*
X147669333Y-138104571D01*
X147669333Y-138628380D02*
X147669333Y-137628380D01*
X148145523Y-137628380D01*
X149002666Y-137628380D02*
X148526476Y-137628380D01*
X148478857Y-138104571D01*
X148526476Y-138056952D01*
X148621714Y-138009333D01*
X148859809Y-138009333D01*
X148955047Y-138056952D01*
X149002666Y-138104571D01*
X149050285Y-138199809D01*
X149050285Y-138437904D01*
X149002666Y-138533142D01*
X148955047Y-138580761D01*
X148859809Y-138628380D01*
X148621714Y-138628380D01*
X148526476Y-138580761D01*
X148478857Y-138533142D01*
X135723333Y-129556380D02*
X135247142Y-129556380D01*
X135247142Y-128556380D01*
X135961428Y-128556380D02*
X136580476Y-128556380D01*
X136247142Y-128937333D01*
X136390000Y-128937333D01*
X136485238Y-128984952D01*
X136532857Y-129032571D01*
X136580476Y-129127809D01*
X136580476Y-129365904D01*
X136532857Y-129461142D01*
X136485238Y-129508761D01*
X136390000Y-129556380D01*
X136104285Y-129556380D01*
X136009047Y-129508761D01*
X135961428Y-129461142D01*
X121277142Y-133453142D02*
X121229523Y-133500761D01*
X121086666Y-133548380D01*
X120991428Y-133548380D01*
X120848571Y-133500761D01*
X120753333Y-133405523D01*
X120705714Y-133310285D01*
X120658095Y-133119809D01*
X120658095Y-132976952D01*
X120705714Y-132786476D01*
X120753333Y-132691238D01*
X120848571Y-132596000D01*
X120991428Y-132548380D01*
X121086666Y-132548380D01*
X121229523Y-132596000D01*
X121277142Y-132643619D01*
X122229523Y-133548380D02*
X121658095Y-133548380D01*
X121943809Y-133548380D02*
X121943809Y-132548380D01*
X121848571Y-132691238D01*
X121753333Y-132786476D01*
X121658095Y-132834095D01*
X122562857Y-132548380D02*
X123181904Y-132548380D01*
X122848571Y-132929333D01*
X122991428Y-132929333D01*
X123086666Y-132976952D01*
X123134285Y-133024571D01*
X123181904Y-133119809D01*
X123181904Y-133357904D01*
X123134285Y-133453142D01*
X123086666Y-133500761D01*
X122991428Y-133548380D01*
X122705714Y-133548380D01*
X122610476Y-133500761D01*
X122562857Y-133453142D01*
X159281904Y-142692380D02*
X159281904Y-141692380D01*
X159520000Y-141692380D01*
X159662857Y-141740000D01*
X159758095Y-141835238D01*
X159805714Y-141930476D01*
X159853333Y-142120952D01*
X159853333Y-142263809D01*
X159805714Y-142454285D01*
X159758095Y-142549523D01*
X159662857Y-142644761D01*
X159520000Y-142692380D01*
X159281904Y-142692380D01*
X160758095Y-141692380D02*
X160281904Y-141692380D01*
X160234285Y-142168571D01*
X160281904Y-142120952D01*
X160377142Y-142073333D01*
X160615238Y-142073333D01*
X160710476Y-142120952D01*
X160758095Y-142168571D01*
X160805714Y-142263809D01*
X160805714Y-142501904D01*
X160758095Y-142597142D01*
X160710476Y-142644761D01*
X160615238Y-142692380D01*
X160377142Y-142692380D01*
X160281904Y-142644761D01*
X160234285Y-142597142D01*
X145883333Y-128976380D02*
X145550000Y-128500190D01*
X145311904Y-128976380D02*
X145311904Y-127976380D01*
X145692857Y-127976380D01*
X145788095Y-128024000D01*
X145835714Y-128071619D01*
X145883333Y-128166857D01*
X145883333Y-128309714D01*
X145835714Y-128404952D01*
X145788095Y-128452571D01*
X145692857Y-128500190D01*
X145311904Y-128500190D01*
X146216666Y-127976380D02*
X146883333Y-127976380D01*
X146454761Y-128976380D01*
D12*
X152033724Y-148874250D02*
X151524276Y-148874250D01*
X152033724Y-149919250D02*
X151524276Y-149919250D01*
X78593733Y-137162000D02*
X78886267Y-137162000D01*
X78593733Y-136142000D02*
X78886267Y-136142000D01*
X66370000Y-118090000D02*
X63220000Y-118090000D01*
X68920000Y-133790000D02*
X68920000Y-120940000D01*
X63220000Y-118090000D02*
X60620000Y-120940000D01*
X60620000Y-120940000D02*
X60620000Y-133790000D01*
X60620000Y-133790000D02*
X68920000Y-133790000D01*
X68920000Y-120940000D02*
X66370000Y-118090000D01*
X84200276Y-143622500D02*
X84709724Y-143622500D01*
X84200276Y-144667500D02*
X84709724Y-144667500D01*
X134385267Y-140845000D02*
X134092733Y-140845000D01*
X134385267Y-139825000D02*
X134092733Y-139825000D01*
X81426267Y-130304000D02*
X81133733Y-130304000D01*
X81426267Y-129284000D02*
X81133733Y-129284000D01*
X122920000Y-135063000D02*
X122920000Y-136463000D01*
X122220000Y-137163000D02*
X121620000Y-137163000D01*
X121620000Y-134363000D02*
X122220000Y-134363000D01*
X120920000Y-136463000D02*
X120920000Y-135063000D01*
X122920000Y-135063000D02*
G75*
G03*
X122220000Y-134363000I-700000J0D01*
G01*
X120920000Y-136463000D02*
G75*
G03*
X121620000Y-137163000I699999J-1D01*
G01*
X121620000Y-134363000D02*
G75*
G03*
X120920000Y-135063000I0J-700000D01*
G01*
X122220000Y-137163000D02*
G75*
G03*
X122920000Y-136463000I1J699999D01*
G01*
X156590276Y-143622500D02*
X157099724Y-143622500D01*
X156590276Y-144667500D02*
X157099724Y-144667500D01*
X127000000Y-135164000D02*
X126200000Y-135164000D01*
X127000000Y-132044000D02*
X127800000Y-132044000D01*
X127000000Y-132044000D02*
X125200000Y-132044000D01*
X127000000Y-135164000D02*
X127800000Y-135164000D01*
X108330276Y-144667500D02*
X108839724Y-144667500D01*
X108330276Y-143622500D02*
X108839724Y-143622500D01*
X86125267Y-138174000D02*
X85832733Y-138174000D01*
X86125267Y-139194000D02*
X85832733Y-139194000D01*
X98860000Y-125740000D02*
X98860000Y-124990000D01*
X96600000Y-118130000D02*
X96600000Y-125750000D01*
X98860000Y-118890000D02*
X101810000Y-118890000D01*
X97360000Y-121440000D02*
X96610000Y-121440000D01*
X97360000Y-125740000D02*
X97360000Y-123940000D01*
X97360000Y-119940000D02*
X97360000Y-118140000D01*
X98860000Y-124990000D02*
X101810000Y-124990000D01*
X97360000Y-123940000D02*
X96610000Y-123940000D01*
X102570000Y-125750000D02*
X102570000Y-118130000D01*
X97360000Y-122440000D02*
X97360000Y-121440000D01*
X96600000Y-125750000D02*
X102570000Y-125750000D01*
X101810000Y-124990000D02*
X101810000Y-121940000D01*
X96310000Y-126040000D02*
X97560000Y-126040000D01*
X96610000Y-119940000D02*
X97360000Y-119940000D01*
X96610000Y-125740000D02*
X97360000Y-125740000D01*
X96310000Y-124790000D02*
X96310000Y-126040000D01*
X97360000Y-118140000D02*
X96610000Y-118140000D01*
X96610000Y-121440000D02*
X96610000Y-122440000D01*
X102570000Y-118130000D02*
X96600000Y-118130000D01*
X96610000Y-123940000D02*
X96610000Y-125740000D01*
X101810000Y-118890000D02*
X101810000Y-121940000D01*
X96610000Y-118140000D02*
X96610000Y-119940000D01*
X98860000Y-118140000D02*
X98860000Y-118890000D01*
X96610000Y-122440000D02*
X97360000Y-122440000D01*
X123569000Y-135934267D02*
X123569000Y-135591733D01*
X124589000Y-135934267D02*
X124589000Y-135591733D01*
X76329000Y-135934267D02*
X76329000Y-135591733D01*
X75309000Y-135934267D02*
X75309000Y-135591733D01*
X158515267Y-138134000D02*
X158222733Y-138134000D01*
X158515267Y-139154000D02*
X158222733Y-139154000D01*
X166070000Y-125710000D02*
X166070000Y-118090000D01*
X160110000Y-122400000D02*
X160860000Y-122400000D01*
X159810000Y-126000000D02*
X161060000Y-126000000D01*
X162360000Y-124950000D02*
X165310000Y-124950000D01*
X160860000Y-118100000D02*
X160110000Y-118100000D01*
X160110000Y-119900000D02*
X160860000Y-119900000D01*
X162360000Y-118100000D02*
X162360000Y-118850000D01*
X165310000Y-118850000D02*
X165310000Y-121900000D01*
X160110000Y-125700000D02*
X160860000Y-125700000D01*
X162360000Y-118850000D02*
X165310000Y-118850000D01*
X160860000Y-119900000D02*
X160860000Y-118100000D01*
X159810000Y-124750000D02*
X159810000Y-126000000D01*
X160860000Y-122400000D02*
X160860000Y-121400000D01*
X160110000Y-121400000D02*
X160110000Y-122400000D01*
X160860000Y-125700000D02*
X160860000Y-123900000D01*
X160110000Y-123900000D02*
X160110000Y-125700000D01*
X160100000Y-118090000D02*
X160100000Y-125710000D01*
X162360000Y-125700000D02*
X162360000Y-124950000D01*
X166070000Y-118090000D02*
X160100000Y-118090000D01*
X160860000Y-123900000D02*
X160110000Y-123900000D01*
X160110000Y-118100000D02*
X160110000Y-119900000D01*
X160100000Y-125710000D02*
X166070000Y-125710000D01*
X160860000Y-121400000D02*
X160110000Y-121400000D01*
X165310000Y-124950000D02*
X165310000Y-121900000D01*
X112600000Y-125740000D02*
X112600000Y-123940000D01*
X112600000Y-122440000D02*
X112600000Y-121440000D01*
X112600000Y-119940000D02*
X112600000Y-118140000D01*
X112600000Y-118140000D02*
X111850000Y-118140000D01*
X117810000Y-118130000D02*
X111840000Y-118130000D01*
X112600000Y-121440000D02*
X111850000Y-121440000D01*
X112600000Y-123940000D02*
X111850000Y-123940000D01*
X111850000Y-122440000D02*
X112600000Y-122440000D01*
X117050000Y-118890000D02*
X117050000Y-121940000D01*
X114100000Y-118890000D02*
X117050000Y-118890000D01*
X111850000Y-118140000D02*
X111850000Y-119940000D01*
X117050000Y-124990000D02*
X117050000Y-121940000D01*
X111850000Y-125740000D02*
X112600000Y-125740000D01*
X111550000Y-124790000D02*
X111550000Y-126040000D01*
X117810000Y-125750000D02*
X117810000Y-118130000D01*
X111550000Y-126040000D02*
X112800000Y-126040000D01*
X111840000Y-118130000D02*
X111840000Y-125750000D01*
X114100000Y-125740000D02*
X114100000Y-124990000D01*
X114100000Y-124990000D02*
X117050000Y-124990000D01*
X111840000Y-125750000D02*
X117810000Y-125750000D01*
X111850000Y-123940000D02*
X111850000Y-125740000D01*
X114100000Y-118140000D02*
X114100000Y-118890000D01*
X111850000Y-119940000D02*
X112600000Y-119940000D01*
X111850000Y-121440000D02*
X111850000Y-122440000D01*
X97643733Y-132082000D02*
X97936267Y-132082000D01*
X97643733Y-131062000D02*
X97936267Y-131062000D01*
X153439000Y-148480750D02*
X153439000Y-147010750D01*
X150979000Y-148480750D02*
X153439000Y-148480750D01*
X153439000Y-147010750D02*
X150979000Y-147010750D01*
X64770000Y-142760000D02*
X64770000Y-144260000D01*
X66770000Y-141910000D02*
X66770000Y-145110000D01*
X68240000Y-151610000D02*
X68240000Y-135410000D01*
X62770000Y-145110000D02*
X62770000Y-141910000D01*
X68240000Y-135410000D02*
X61300000Y-135410000D01*
X61300000Y-151610000D02*
X68240000Y-151610000D01*
X61300000Y-135410000D02*
X61300000Y-151610000D01*
X131055000Y-142975000D02*
X133515000Y-142975000D01*
X131055000Y-141505000D02*
X131055000Y-142975000D01*
X133515000Y-141505000D02*
X131055000Y-141505000D01*
X104980000Y-123940000D02*
X104230000Y-123940000D01*
X104980000Y-122440000D02*
X104980000Y-121440000D01*
X104220000Y-118130000D02*
X104220000Y-125750000D01*
X109430000Y-124990000D02*
X109430000Y-121940000D01*
X104230000Y-123940000D02*
X104230000Y-125740000D01*
X104230000Y-125740000D02*
X104980000Y-125740000D01*
X110190000Y-118130000D02*
X104220000Y-118130000D01*
X104980000Y-119940000D02*
X104980000Y-118140000D01*
X104230000Y-122440000D02*
X104980000Y-122440000D01*
X103930000Y-124790000D02*
X103930000Y-126040000D01*
X104980000Y-125740000D02*
X104980000Y-123940000D01*
X104980000Y-118140000D02*
X104230000Y-118140000D01*
X104980000Y-121440000D02*
X104230000Y-121440000D01*
X106480000Y-124990000D02*
X109430000Y-124990000D01*
X106480000Y-118890000D02*
X109430000Y-118890000D01*
X106480000Y-125740000D02*
X106480000Y-124990000D01*
X106480000Y-118140000D02*
X106480000Y-118890000D01*
X104230000Y-118140000D02*
X104230000Y-119940000D01*
X104230000Y-121440000D02*
X104230000Y-122440000D01*
X104220000Y-125750000D02*
X110190000Y-125750000D01*
X103930000Y-126040000D02*
X105180000Y-126040000D01*
X104230000Y-119940000D02*
X104980000Y-119940000D01*
X110190000Y-125750000D02*
X110190000Y-118130000D01*
X109430000Y-118890000D02*
X109430000Y-121940000D01*
X96790000Y-136463000D02*
X96790000Y-135063000D01*
X98790000Y-135063000D02*
X98790000Y-136463000D01*
X97490000Y-134363000D02*
X98090000Y-134363000D01*
X98090000Y-137163000D02*
X97490000Y-137163000D01*
X97490000Y-134363000D02*
G75*
G03*
X96790000Y-135063000I0J-700000D01*
G01*
X98090000Y-137163000D02*
G75*
G03*
X98790000Y-136463000I1J699999D01*
G01*
X96790000Y-136463000D02*
G75*
G03*
X97490000Y-137163000I699999J-1D01*
G01*
X98790000Y-135063000D02*
G75*
G03*
X98090000Y-134363000I-700000J0D01*
G01*
X144870000Y-122400000D02*
X145620000Y-122400000D01*
X144570000Y-124750000D02*
X144570000Y-126000000D01*
X145620000Y-118100000D02*
X144870000Y-118100000D01*
X145620000Y-125700000D02*
X145620000Y-123900000D01*
X150070000Y-118850000D02*
X150070000Y-121900000D01*
X147120000Y-125700000D02*
X147120000Y-124950000D01*
X144860000Y-118090000D02*
X144860000Y-125710000D01*
X144870000Y-123900000D02*
X144870000Y-125700000D01*
X144870000Y-119900000D02*
X145620000Y-119900000D01*
X145620000Y-121400000D02*
X144870000Y-121400000D01*
X150830000Y-125710000D02*
X150830000Y-118090000D01*
X144870000Y-125700000D02*
X145620000Y-125700000D01*
X144870000Y-118100000D02*
X144870000Y-119900000D01*
X145620000Y-119900000D02*
X145620000Y-118100000D01*
X144570000Y-126000000D02*
X145820000Y-126000000D01*
X147120000Y-118100000D02*
X147120000Y-118850000D01*
X147120000Y-118850000D02*
X150070000Y-118850000D01*
X144860000Y-125710000D02*
X150830000Y-125710000D01*
X145620000Y-122400000D02*
X145620000Y-121400000D01*
X150830000Y-118090000D02*
X144860000Y-118090000D01*
X144870000Y-121400000D02*
X144870000Y-122400000D01*
X150070000Y-124950000D02*
X150070000Y-121900000D01*
X147120000Y-124950000D02*
X150070000Y-124950000D01*
X145620000Y-123900000D02*
X144870000Y-123900000D01*
X115260000Y-135604000D02*
X115260000Y-136604000D01*
X108760000Y-137104000D02*
X114760000Y-137104000D01*
X108760000Y-130104000D02*
X114760000Y-130104000D01*
X108260000Y-135604000D02*
X108260000Y-136604000D01*
X108260000Y-130604000D02*
X108260000Y-131604000D01*
X115260000Y-131604000D02*
X115260000Y-130604000D01*
X114760000Y-137104000D02*
G75*
G03*
X115260000Y-136604000I0J500000D01*
G01*
X108760000Y-130104000D02*
G75*
G03*
X108260000Y-130604000I1J-500001D01*
G01*
X115260000Y-130604000D02*
G75*
G03*
X114760000Y-130104000I-500000J0D01*
G01*
X108260000Y-136604000D02*
G75*
G03*
X108760000Y-137104000I500001J1D01*
G01*
X135980000Y-125740000D02*
X136730000Y-125740000D01*
X135680000Y-124790000D02*
X135680000Y-126040000D01*
X135980000Y-121440000D02*
X135980000Y-122440000D01*
X135680000Y-126040000D02*
X136930000Y-126040000D01*
X136730000Y-122440000D02*
X136730000Y-121440000D01*
X135980000Y-122440000D02*
X136730000Y-122440000D01*
X138230000Y-125740000D02*
X138230000Y-124990000D01*
X138230000Y-118140000D02*
X138230000Y-118890000D01*
X135970000Y-118130000D02*
X135970000Y-125750000D01*
X136730000Y-121440000D02*
X135980000Y-121440000D01*
X141940000Y-118130000D02*
X135970000Y-118130000D01*
X135980000Y-118140000D02*
X135980000Y-119940000D01*
X141940000Y-125750000D02*
X141940000Y-118130000D01*
X135970000Y-125750000D02*
X141940000Y-125750000D01*
X136730000Y-118140000D02*
X135980000Y-118140000D01*
X136730000Y-119940000D02*
X136730000Y-118140000D01*
X136730000Y-123940000D02*
X135980000Y-123940000D01*
X141180000Y-118890000D02*
X141180000Y-121940000D01*
X138230000Y-124990000D02*
X141180000Y-124990000D01*
X138230000Y-118890000D02*
X141180000Y-118890000D01*
X135980000Y-123940000D02*
X135980000Y-125740000D01*
X136730000Y-125740000D02*
X136730000Y-123940000D01*
X141180000Y-124990000D02*
X141180000Y-121940000D01*
X135980000Y-119940000D02*
X136730000Y-119940000D01*
X152480000Y-125710000D02*
X158450000Y-125710000D01*
X152490000Y-121400000D02*
X152490000Y-122400000D01*
X153240000Y-121400000D02*
X152490000Y-121400000D01*
X153240000Y-119900000D02*
X153240000Y-118100000D01*
X154740000Y-125700000D02*
X154740000Y-124950000D01*
X152490000Y-118100000D02*
X152490000Y-119900000D01*
X154740000Y-124950000D02*
X157690000Y-124950000D01*
X154740000Y-118850000D02*
X157690000Y-118850000D01*
X152490000Y-123900000D02*
X152490000Y-125700000D01*
X158450000Y-125710000D02*
X158450000Y-118090000D01*
X152190000Y-126000000D02*
X153440000Y-126000000D01*
X157690000Y-118850000D02*
X157690000Y-121900000D01*
X153240000Y-123900000D02*
X152490000Y-123900000D01*
X153240000Y-122400000D02*
X153240000Y-121400000D01*
X153240000Y-125700000D02*
X153240000Y-123900000D01*
X152490000Y-122400000D02*
X153240000Y-122400000D01*
X157690000Y-124950000D02*
X157690000Y-121900000D01*
X152490000Y-119900000D02*
X153240000Y-119900000D01*
X158450000Y-118090000D02*
X152480000Y-118090000D01*
X152490000Y-125700000D02*
X153240000Y-125700000D01*
X153240000Y-118100000D02*
X152490000Y-118100000D01*
X154740000Y-118100000D02*
X154740000Y-118850000D01*
X152190000Y-124750000D02*
X152190000Y-126000000D01*
X152480000Y-118090000D02*
X152480000Y-125710000D01*
X105556267Y-129284000D02*
X105263733Y-129284000D01*
X105556267Y-130304000D02*
X105263733Y-130304000D01*
X102723733Y-136142000D02*
X103016267Y-136142000D01*
X102723733Y-137162000D02*
X103016267Y-137162000D01*
X101091276Y-130443500D02*
X101600724Y-130443500D01*
X101091276Y-129398500D02*
X101600724Y-129398500D01*
X145903733Y-132042000D02*
X146196267Y-132042000D01*
X145903733Y-131022000D02*
X146196267Y-131022000D01*
X121715276Y-130443500D02*
X122224724Y-130443500D01*
X121715276Y-129398500D02*
X122224724Y-129398500D01*
X153816267Y-130264000D02*
X153523733Y-130264000D01*
X153816267Y-129244000D02*
X153523733Y-129244000D01*
X73513733Y-131062000D02*
X73806267Y-131062000D01*
X73513733Y-132082000D02*
X73806267Y-132082000D01*
X150983733Y-137122000D02*
X151276267Y-137122000D01*
X150983733Y-136102000D02*
X151276267Y-136102000D01*
X158515267Y-139785000D02*
X158222733Y-139785000D01*
X158515267Y-140805000D02*
X158222733Y-140805000D01*
X84630000Y-137104000D02*
X90630000Y-137104000D01*
X91130000Y-135604000D02*
X91130000Y-136604000D01*
X91130000Y-131604000D02*
X91130000Y-130604000D01*
X84130000Y-130604000D02*
X84130000Y-131604000D01*
X84630000Y-130104000D02*
X90630000Y-130104000D01*
X84130000Y-135604000D02*
X84130000Y-136604000D01*
X90630000Y-137104000D02*
G75*
G03*
X91130000Y-136604000I0J500000D01*
G01*
X84130000Y-136604000D02*
G75*
G03*
X84630000Y-137104000I500001J1D01*
G01*
X91130000Y-130604000D02*
G75*
G03*
X90630000Y-130104000I-500000J0D01*
G01*
X84630000Y-130104000D02*
G75*
G03*
X84130000Y-130604000I1J-500001D01*
G01*
X72660000Y-136463000D02*
X72660000Y-135063000D01*
X74660000Y-135063000D02*
X74660000Y-136463000D01*
X73360000Y-134363000D02*
X73960000Y-134363000D01*
X73960000Y-137163000D02*
X73360000Y-137163000D01*
X74660000Y-135063000D02*
G75*
G03*
X73960000Y-134363000I-700000J0D01*
G01*
X72660000Y-136463000D02*
G75*
G03*
X73360000Y-137163000I699999J-1D01*
G01*
X73960000Y-137163000D02*
G75*
G03*
X74660000Y-136463000I1J699999D01*
G01*
X73360000Y-134363000D02*
G75*
G03*
X72660000Y-135063000I0J-700000D01*
G01*
X134385267Y-138174000D02*
X134092733Y-138174000D01*
X134385267Y-139194000D02*
X134092733Y-139194000D01*
X157020000Y-130064000D02*
X163020000Y-130064000D01*
X163520000Y-131564000D02*
X163520000Y-130564000D01*
X163520000Y-135564000D02*
X163520000Y-136564000D01*
X157020000Y-137064000D02*
X163020000Y-137064000D01*
X156520000Y-130564000D02*
X156520000Y-131564000D01*
X156520000Y-135564000D02*
X156520000Y-136564000D01*
X156520000Y-136564000D02*
G75*
G03*
X157020000Y-137064000I500001J1D01*
G01*
X163520000Y-130564000D02*
G75*
G03*
X163020000Y-130064000I-500000J0D01*
G01*
X163020000Y-137064000D02*
G75*
G03*
X163520000Y-136564000I0J500000D01*
G01*
X157020000Y-130064000D02*
G75*
G03*
X156520000Y-130564000I1J-500001D01*
G01*
X73455276Y-129398500D02*
X73964724Y-129398500D01*
X73455276Y-130443500D02*
X73964724Y-130443500D01*
X125221276Y-129398500D02*
X125730724Y-129398500D01*
X125221276Y-130443500D02*
X125730724Y-130443500D01*
X102870000Y-135164000D02*
X103670000Y-135164000D01*
X102870000Y-135164000D02*
X102070000Y-135164000D01*
X102870000Y-132044000D02*
X103670000Y-132044000D01*
X102870000Y-132044000D02*
X101070000Y-132044000D01*
X106925000Y-141505000D02*
X106925000Y-142975000D01*
X106925000Y-142975000D02*
X109385000Y-142975000D01*
X109385000Y-141505000D02*
X106925000Y-141505000D01*
X97585276Y-129398500D02*
X98094724Y-129398500D01*
X97585276Y-130443500D02*
X98094724Y-130443500D01*
X149351276Y-130403500D02*
X149860724Y-130403500D01*
X149351276Y-129358500D02*
X149860724Y-129358500D01*
X132460276Y-143622500D02*
X132969724Y-143622500D01*
X132460276Y-144667500D02*
X132969724Y-144667500D01*
X76961276Y-130443500D02*
X77470724Y-130443500D01*
X76961276Y-129398500D02*
X77470724Y-129398500D01*
X121490000Y-118140000D02*
X120740000Y-118140000D01*
X126700000Y-125750000D02*
X126700000Y-118130000D01*
X120740000Y-125740000D02*
X121490000Y-125740000D01*
X120740000Y-123940000D02*
X120740000Y-125740000D01*
X121490000Y-119940000D02*
X121490000Y-118140000D01*
X125940000Y-124990000D02*
X125940000Y-121940000D01*
X122990000Y-118140000D02*
X122990000Y-118890000D01*
X120740000Y-119940000D02*
X121490000Y-119940000D01*
X120740000Y-121440000D02*
X120740000Y-122440000D01*
X121490000Y-122440000D02*
X121490000Y-121440000D01*
X121490000Y-123940000D02*
X120740000Y-123940000D01*
X121490000Y-121440000D02*
X120740000Y-121440000D01*
X120740000Y-118140000D02*
X120740000Y-119940000D01*
X120730000Y-118130000D02*
X120730000Y-125750000D01*
X126700000Y-118130000D02*
X120730000Y-118130000D01*
X120440000Y-124790000D02*
X120440000Y-126040000D01*
X121490000Y-125740000D02*
X121490000Y-123940000D01*
X120730000Y-125750000D02*
X126700000Y-125750000D01*
X125940000Y-118890000D02*
X125940000Y-121940000D01*
X120440000Y-126040000D02*
X121690000Y-126040000D01*
X122990000Y-124990000D02*
X125940000Y-124990000D01*
X122990000Y-125740000D02*
X122990000Y-124990000D01*
X122990000Y-118890000D02*
X125940000Y-118890000D01*
X120740000Y-122440000D02*
X121490000Y-122440000D01*
X86125267Y-140845000D02*
X85832733Y-140845000D01*
X86125267Y-139825000D02*
X85832733Y-139825000D01*
X78740000Y-132044000D02*
X79540000Y-132044000D01*
X78740000Y-132044000D02*
X76940000Y-132044000D01*
X78740000Y-135164000D02*
X79540000Y-135164000D01*
X78740000Y-135164000D02*
X77940000Y-135164000D01*
X85255000Y-141505000D02*
X82795000Y-141505000D01*
X82795000Y-142975000D02*
X85255000Y-142975000D01*
X82795000Y-141505000D02*
X82795000Y-142975000D01*
X89970000Y-124990000D02*
X92920000Y-124990000D01*
X88470000Y-125740000D02*
X88470000Y-123940000D01*
X87420000Y-124790000D02*
X87420000Y-126040000D01*
X88470000Y-119940000D02*
X88470000Y-118140000D01*
X92920000Y-118890000D02*
X92920000Y-121940000D01*
X87420000Y-126040000D02*
X88670000Y-126040000D01*
X88470000Y-121440000D02*
X87720000Y-121440000D01*
X87710000Y-118130000D02*
X87710000Y-125750000D01*
X89970000Y-125740000D02*
X89970000Y-124990000D01*
X87720000Y-123940000D02*
X87720000Y-125740000D01*
X88470000Y-123940000D02*
X87720000Y-123940000D01*
X87720000Y-122440000D02*
X88470000Y-122440000D01*
X87720000Y-119940000D02*
X88470000Y-119940000D01*
X93680000Y-125750000D02*
X93680000Y-118130000D01*
X87720000Y-121440000D02*
X87720000Y-122440000D01*
X89970000Y-118890000D02*
X92920000Y-118890000D01*
X89970000Y-118140000D02*
X89970000Y-118890000D01*
X87710000Y-125750000D02*
X93680000Y-125750000D01*
X93680000Y-118130000D02*
X87710000Y-118130000D01*
X92920000Y-124990000D02*
X92920000Y-121940000D01*
X87720000Y-125740000D02*
X88470000Y-125740000D01*
X88470000Y-118140000D02*
X87720000Y-118140000D01*
X88470000Y-122440000D02*
X88470000Y-121440000D01*
X87720000Y-118140000D02*
X87720000Y-119940000D01*
X151130000Y-135124000D02*
X151930000Y-135124000D01*
X151130000Y-132004000D02*
X149330000Y-132004000D01*
X151130000Y-135124000D02*
X150330000Y-135124000D01*
X151130000Y-132004000D02*
X151930000Y-132004000D01*
X129686267Y-130304000D02*
X129393733Y-130304000D01*
X129686267Y-129284000D02*
X129393733Y-129284000D01*
X126853733Y-137162000D02*
X127146267Y-137162000D01*
X126853733Y-136142000D02*
X127146267Y-136142000D01*
X130610000Y-118140000D02*
X130610000Y-118890000D01*
X128360000Y-119940000D02*
X129110000Y-119940000D01*
X128360000Y-122440000D02*
X129110000Y-122440000D01*
X128060000Y-124790000D02*
X128060000Y-126040000D01*
X130610000Y-118890000D02*
X133560000Y-118890000D01*
X129110000Y-123940000D02*
X128360000Y-123940000D01*
X134320000Y-118130000D02*
X128350000Y-118130000D01*
X130610000Y-125740000D02*
X130610000Y-124990000D01*
X129110000Y-119940000D02*
X129110000Y-118140000D01*
X128360000Y-118140000D02*
X128360000Y-119940000D01*
X128350000Y-118130000D02*
X128350000Y-125750000D01*
X129110000Y-125740000D02*
X129110000Y-123940000D01*
X128350000Y-125750000D02*
X134320000Y-125750000D01*
X129110000Y-122440000D02*
X129110000Y-121440000D01*
X130610000Y-124990000D02*
X133560000Y-124990000D01*
X128360000Y-125740000D02*
X129110000Y-125740000D01*
X133560000Y-124990000D02*
X133560000Y-121940000D01*
X129110000Y-121440000D02*
X128360000Y-121440000D01*
X128360000Y-121440000D02*
X128360000Y-122440000D01*
X133560000Y-118890000D02*
X133560000Y-121940000D01*
X129110000Y-118140000D02*
X128360000Y-118140000D01*
X128060000Y-126040000D02*
X129310000Y-126040000D01*
X128360000Y-123940000D02*
X128360000Y-125740000D01*
X134320000Y-125750000D02*
X134320000Y-118130000D01*
X78440000Y-118130000D02*
X72470000Y-118130000D01*
X78440000Y-125750000D02*
X78440000Y-118130000D01*
X77680000Y-118890000D02*
X77680000Y-121940000D01*
X74730000Y-118140000D02*
X74730000Y-118890000D01*
X77680000Y-124990000D02*
X77680000Y-121940000D01*
X72180000Y-126040000D02*
X73430000Y-126040000D01*
X72180000Y-124790000D02*
X72180000Y-126040000D01*
X72470000Y-118130000D02*
X72470000Y-125750000D01*
X73230000Y-118140000D02*
X72480000Y-118140000D01*
X72480000Y-121440000D02*
X72480000Y-122440000D01*
X73230000Y-122440000D02*
X73230000Y-121440000D01*
X73230000Y-119940000D02*
X73230000Y-118140000D01*
X74730000Y-125740000D02*
X74730000Y-124990000D01*
X72480000Y-123940000D02*
X72480000Y-125740000D01*
X72480000Y-118140000D02*
X72480000Y-119940000D01*
X73230000Y-125740000D02*
X73230000Y-123940000D01*
X73230000Y-121440000D02*
X72480000Y-121440000D01*
X72480000Y-119940000D02*
X73230000Y-119940000D01*
X74730000Y-124990000D02*
X77680000Y-124990000D01*
X72480000Y-122440000D02*
X73230000Y-122440000D01*
X72470000Y-125750000D02*
X78440000Y-125750000D01*
X72480000Y-125740000D02*
X73230000Y-125740000D01*
X74730000Y-118890000D02*
X77680000Y-118890000D01*
X73230000Y-123940000D02*
X72480000Y-123940000D01*
X110255267Y-138174000D02*
X109962733Y-138174000D01*
X110255267Y-139194000D02*
X109962733Y-139194000D01*
X79800000Y-124790000D02*
X79800000Y-126040000D01*
X80090000Y-118130000D02*
X80090000Y-125750000D01*
X80850000Y-125740000D02*
X80850000Y-123940000D01*
X80100000Y-118140000D02*
X80100000Y-119940000D01*
X86060000Y-125750000D02*
X86060000Y-118130000D01*
X80100000Y-123940000D02*
X80100000Y-125740000D01*
X80850000Y-121440000D02*
X80100000Y-121440000D01*
X80100000Y-125740000D02*
X80850000Y-125740000D01*
X80850000Y-122440000D02*
X80850000Y-121440000D01*
X85300000Y-124990000D02*
X85300000Y-121940000D01*
X85300000Y-118890000D02*
X85300000Y-121940000D01*
X79800000Y-126040000D02*
X81050000Y-126040000D01*
X82350000Y-125740000D02*
X82350000Y-124990000D01*
X80090000Y-125750000D02*
X86060000Y-125750000D01*
X80850000Y-119940000D02*
X80850000Y-118140000D01*
X82350000Y-124990000D02*
X85300000Y-124990000D01*
X80100000Y-122440000D02*
X80850000Y-122440000D01*
X80100000Y-119940000D02*
X80850000Y-119940000D01*
X80100000Y-121440000D02*
X80100000Y-122440000D01*
X82350000Y-118140000D02*
X82350000Y-118890000D01*
X80850000Y-118140000D02*
X80100000Y-118140000D01*
X82350000Y-118890000D02*
X85300000Y-118890000D01*
X86060000Y-118130000D02*
X80090000Y-118130000D01*
X80850000Y-123940000D02*
X80100000Y-123940000D01*
X110255267Y-140845000D02*
X109962733Y-140845000D01*
X110255267Y-139825000D02*
X109962733Y-139825000D01*
X100459000Y-135934267D02*
X100459000Y-135591733D01*
X99439000Y-135934267D02*
X99439000Y-135591733D01*
X147699000Y-135894267D02*
X147699000Y-135551733D01*
X148719000Y-135894267D02*
X148719000Y-135551733D01*
X132890000Y-130104000D02*
X138890000Y-130104000D01*
X132890000Y-137104000D02*
X138890000Y-137104000D01*
X139390000Y-135604000D02*
X139390000Y-136604000D01*
X132390000Y-135604000D02*
X132390000Y-136604000D01*
X139390000Y-131604000D02*
X139390000Y-130604000D01*
X132390000Y-130604000D02*
X132390000Y-131604000D01*
X132390000Y-136604000D02*
G75*
G03*
X132890000Y-137104000I500001J1D01*
G01*
X138890000Y-137104000D02*
G75*
G03*
X139390000Y-136604000I0J500000D01*
G01*
X139390000Y-130604000D02*
G75*
G03*
X138890000Y-130104000I-500000J0D01*
G01*
X132890000Y-130104000D02*
G75*
G03*
X132390000Y-130604000I1J-500001D01*
G01*
X146350000Y-137123000D02*
X145750000Y-137123000D01*
X145750000Y-134323000D02*
X146350000Y-134323000D01*
X147050000Y-135023000D02*
X147050000Y-136423000D01*
X145050000Y-136423000D02*
X145050000Y-135023000D01*
X147050000Y-135023000D02*
G75*
G03*
X146350000Y-134323000I-700000J0D01*
G01*
X145050000Y-136423000D02*
G75*
G03*
X145750000Y-137123000I699999J-1D01*
G01*
X146350000Y-137123000D02*
G75*
G03*
X147050000Y-136423000I1J699999D01*
G01*
X145750000Y-134323000D02*
G75*
G03*
X145050000Y-135023000I0J-700000D01*
G01*
X121773733Y-131062000D02*
X122066267Y-131062000D01*
X121773733Y-132082000D02*
X122066267Y-132082000D01*
X157645000Y-141505000D02*
X155185000Y-141505000D01*
X155185000Y-142975000D02*
X157645000Y-142975000D01*
X155185000Y-141505000D02*
X155185000Y-142975000D01*
X145845276Y-129358500D02*
X146354724Y-129358500D01*
X145845276Y-130403500D02*
X146354724Y-130403500D01*
%LPC*%
D13*
X152691500Y-149396750D03*
X150866500Y-149396750D03*
D14*
X77877500Y-136652000D03*
X79602500Y-136652000D03*
D15*
X64770000Y-122340000D03*
D16*
X64770000Y-129540000D03*
D17*
X83542500Y-144145000D03*
X85367500Y-144145000D03*
D18*
X135101500Y-140335000D03*
X133376500Y-140335000D03*
X82142500Y-129794000D03*
X80417500Y-129794000D03*
D19*
X121920000Y-136413000D03*
D20*
X121920000Y-135113000D03*
D17*
X155932500Y-144145000D03*
X157757500Y-144145000D03*
D21*
X125862500Y-132654000D03*
X125862500Y-133604000D03*
X125862500Y-134554000D03*
X128137500Y-134554000D03*
X128137500Y-133604000D03*
X128137500Y-132654000D03*
D17*
X107672500Y-144145000D03*
X109497500Y-144145000D03*
D18*
X86841500Y-138684000D03*
X85116500Y-138684000D03*
D22*
X99060000Y-123190000D03*
D23*
X99060000Y-120690000D03*
D24*
X124079000Y-136638000D03*
X124079000Y-134888000D03*
X75819000Y-136638000D03*
X75819000Y-134888000D03*
D18*
X159231500Y-138644000D03*
X157506500Y-138644000D03*
D22*
X162560000Y-123150000D03*
D23*
X162560000Y-120650000D03*
D22*
X114300000Y-123190000D03*
D23*
X114300000Y-120690000D03*
D14*
X96927500Y-131572000D03*
X98652500Y-131572000D03*
D25*
X152654000Y-147745750D03*
X150904000Y-147745750D03*
D26*
X66470000Y-138550000D03*
X63070000Y-138550000D03*
X63070000Y-148470000D03*
X66470000Y-148470000D03*
D27*
X131840000Y-142240000D03*
X133590000Y-142240000D03*
D22*
X106680000Y-123190000D03*
D23*
X106680000Y-120690000D03*
D19*
X97790000Y-136413000D03*
D20*
X97790000Y-135113000D03*
D28*
X173850000Y-147955000D03*
X173147056Y-146257944D03*
X173147056Y-149652056D03*
D29*
X171450000Y-147955000D03*
D28*
X169050000Y-147955000D03*
X171450000Y-150355000D03*
X171450000Y-145555000D03*
X169752944Y-146257944D03*
X169752944Y-149652056D03*
D22*
X147320000Y-123150000D03*
D23*
X147320000Y-120650000D03*
D30*
X108835000Y-133604000D03*
D31*
X114685000Y-133604000D03*
D22*
X138430000Y-123190000D03*
D23*
X138430000Y-120690000D03*
D22*
X154940000Y-123150000D03*
D23*
X154940000Y-120650000D03*
D18*
X106272500Y-129794000D03*
X104547500Y-129794000D03*
D14*
X102007500Y-136652000D03*
X103732500Y-136652000D03*
D17*
X100433500Y-129921000D03*
X102258500Y-129921000D03*
D28*
X52210000Y-147955000D03*
X56307056Y-146257944D03*
X52912944Y-149652056D03*
X56307056Y-149652056D03*
X54610000Y-150355000D03*
X57010000Y-147955000D03*
X52912944Y-146257944D03*
D29*
X54610000Y-147955000D03*
D28*
X54610000Y-145555000D03*
D14*
X145187500Y-131532000D03*
X146912500Y-131532000D03*
D17*
X121057500Y-129921000D03*
X122882500Y-129921000D03*
D18*
X154532500Y-129754000D03*
X152807500Y-129754000D03*
D14*
X72797500Y-131572000D03*
X74522500Y-131572000D03*
X150267500Y-136612000D03*
X151992500Y-136612000D03*
D18*
X159231500Y-140295000D03*
X157506500Y-140295000D03*
D30*
X84705000Y-133604000D03*
D31*
X90555000Y-133604000D03*
D19*
X73660000Y-136413000D03*
D20*
X73660000Y-135113000D03*
D18*
X135101500Y-138684000D03*
X133376500Y-138684000D03*
D30*
X157095000Y-133564000D03*
D31*
X162945000Y-133564000D03*
D17*
X72797500Y-129921000D03*
X74622500Y-129921000D03*
X124563500Y-129921000D03*
X126388500Y-129921000D03*
D21*
X101732500Y-132654000D03*
X101732500Y-133604000D03*
X101732500Y-134554000D03*
X104007500Y-134554000D03*
X104007500Y-133604000D03*
X104007500Y-132654000D03*
D27*
X107710000Y-142240000D03*
X109460000Y-142240000D03*
D17*
X96927500Y-129921000D03*
X98752500Y-129921000D03*
D28*
X54610000Y-123685000D03*
X56307056Y-122982056D03*
X52912944Y-119587944D03*
X56307056Y-119587944D03*
D29*
X54610000Y-121285000D03*
D28*
X57010000Y-121285000D03*
X52210000Y-121285000D03*
X52912944Y-122982056D03*
X54610000Y-118885000D03*
D17*
X148693500Y-129881000D03*
X150518500Y-129881000D03*
D28*
X169752944Y-119587944D03*
X171450000Y-118885000D03*
X173147056Y-119587944D03*
X169050000Y-121285000D03*
D29*
X171450000Y-121285000D03*
D28*
X169752944Y-122982056D03*
X171450000Y-123685000D03*
X173147056Y-122982056D03*
X173850000Y-121285000D03*
D17*
X131802500Y-144145000D03*
X133627500Y-144145000D03*
X76303500Y-129921000D03*
X78128500Y-129921000D03*
D22*
X123190000Y-123190000D03*
D23*
X123190000Y-120690000D03*
D18*
X86841500Y-140335000D03*
X85116500Y-140335000D03*
D21*
X77602500Y-132654000D03*
X77602500Y-133604000D03*
X77602500Y-134554000D03*
X79877500Y-134554000D03*
X79877500Y-133604000D03*
X79877500Y-132654000D03*
D27*
X83580000Y-142240000D03*
X85330000Y-142240000D03*
D22*
X90170000Y-123190000D03*
D23*
X90170000Y-120690000D03*
D21*
X149992500Y-132614000D03*
X149992500Y-133564000D03*
X149992500Y-134514000D03*
X152267500Y-134514000D03*
X152267500Y-133564000D03*
X152267500Y-132614000D03*
D18*
X130402500Y-129794000D03*
X128677500Y-129794000D03*
D14*
X126137500Y-136652000D03*
X127862500Y-136652000D03*
D22*
X130810000Y-123190000D03*
D23*
X130810000Y-120690000D03*
D22*
X74930000Y-123190000D03*
D23*
X74930000Y-120690000D03*
D18*
X110971500Y-138684000D03*
X109246500Y-138684000D03*
D22*
X82550000Y-123190000D03*
D23*
X82550000Y-120690000D03*
D18*
X110971500Y-140335000D03*
X109246500Y-140335000D03*
D24*
X99949000Y-136638000D03*
X99949000Y-134888000D03*
X148209000Y-136598000D03*
X148209000Y-134848000D03*
D30*
X132965000Y-133604000D03*
D31*
X138815000Y-133604000D03*
D19*
X146050000Y-136373000D03*
D20*
X146050000Y-135073000D03*
D14*
X121057500Y-131572000D03*
X122782500Y-131572000D03*
D27*
X155970000Y-142240000D03*
X157720000Y-142240000D03*
D17*
X145187500Y-129881000D03*
X147012500Y-129881000D03*
M02*
