%TF.GenerationSoftware,KiCad,Pcbnew,(6.0.9)*%
%TF.CreationDate,2023-02-01T20:08:36-08:00*%
%TF.ProjectId,regulator_board,72656775-6c61-4746-9f72-5f626f617264,rev?*%
%TF.SameCoordinates,Original*%
%TF.FileFunction,Drillmap*%
%TF.FilePolarity,Positive*%
%FSLAX45Y45*%
G04 Gerber Fmt 4.5, Leading zero omitted, Abs format (unit mm)*
G04 Created by KiCad (PCBNEW (6.0.9)) date 2023-02-01 20:08:36*
%MOMM*%
%LPD*%
G01*
G04 APERTURE LIST*
%ADD10C,0.100000*%
%ADD11C,0.200000*%
%ADD12C,0.025400*%
%ADD13C,0.050000*%
%ADD14C,0.178000*%
%ADD15C,0.320000*%
%ADD16C,0.450000*%
G04 APERTURE END LIST*
D10*
X17145000Y-11684000D02*
X5461000Y-11684000D01*
X17145000Y-12573000D02*
G75*
G03*
X17145000Y-11684000I0J444500D01*
G01*
X5461000Y-15240000D02*
X17145000Y-15240000D01*
X5842000Y-12954000D02*
X5842000Y-13970000D01*
X16764000Y-13970000D02*
X16764000Y-12954000D01*
X5461000Y-14351000D02*
G75*
G03*
X5461000Y-15240000I0J-444500D01*
G01*
X5842000Y-12954000D02*
G75*
G03*
X5461000Y-12573000I-381000J0D01*
G01*
X17145000Y-12573000D02*
G75*
G03*
X16764000Y-12954000I0J-381000D01*
G01*
X17145000Y-15240000D02*
G75*
G03*
X17145000Y-14351000I0J444500D01*
G01*
X16764000Y-13970000D02*
G75*
G03*
X17145000Y-14351000I381000J0D01*
G01*
X5461000Y-14351000D02*
G75*
G03*
X5842000Y-13970000I0J381000D01*
G01*
X5461000Y-11684000D02*
G75*
G03*
X5461000Y-12573000I0J-444500D01*
G01*
D11*
D12*
X7810500Y-13093700D02*
X7835900Y-13119100D01*
X7835900Y-13093700D02*
X7810500Y-13119100D01*
X8064500Y-13550900D02*
X8089900Y-13576300D01*
X8089900Y-13550900D02*
X8064500Y-13576300D01*
X8064500Y-13652500D02*
X8089900Y-13677900D01*
X8089900Y-13652500D02*
X8064500Y-13677900D01*
X8166100Y-13652500D02*
X8191500Y-13677900D01*
X8191500Y-13652500D02*
X8166100Y-13677900D01*
X8166100Y-13754100D02*
X8191500Y-13779500D01*
X8191500Y-13754100D02*
X8166100Y-13779500D01*
X8267700Y-13652500D02*
X8293100Y-13677900D01*
X8293100Y-13652500D02*
X8267700Y-13677900D01*
X8267700Y-13754100D02*
X8293100Y-13779500D01*
X8293100Y-13754100D02*
X8267700Y-13779500D01*
X8369300Y-13652500D02*
X8394700Y-13677900D01*
X8394700Y-13652500D02*
X8369300Y-13677900D01*
X8369300Y-13754100D02*
X8394700Y-13779500D01*
X8394700Y-13754100D02*
X8369300Y-13779500D01*
X8369300Y-13855700D02*
X8394700Y-13881100D01*
X8394700Y-13855700D02*
X8369300Y-13881100D01*
X8470900Y-13652500D02*
X8496300Y-13677900D01*
X8496300Y-13652500D02*
X8470900Y-13677900D01*
X10223500Y-13093700D02*
X10248900Y-13119100D01*
X10248900Y-13093700D02*
X10223500Y-13119100D01*
X10477500Y-13550900D02*
X10502900Y-13576300D01*
X10502900Y-13550900D02*
X10477500Y-13576300D01*
X10477500Y-13652500D02*
X10502900Y-13677900D01*
X10502900Y-13652500D02*
X10477500Y-13677900D01*
X10579100Y-13652500D02*
X10604500Y-13677900D01*
X10604500Y-13652500D02*
X10579100Y-13677900D01*
X10579100Y-13754100D02*
X10604500Y-13779500D01*
X10604500Y-13754100D02*
X10579100Y-13779500D01*
X10680700Y-13652500D02*
X10706100Y-13677900D01*
X10706100Y-13652500D02*
X10680700Y-13677900D01*
X10680700Y-13754100D02*
X10706100Y-13779500D01*
X10706100Y-13754100D02*
X10680700Y-13779500D01*
X10782300Y-13652500D02*
X10807700Y-13677900D01*
X10807700Y-13652500D02*
X10782300Y-13677900D01*
X10782300Y-13754100D02*
X10807700Y-13779500D01*
X10807700Y-13754100D02*
X10782300Y-13779500D01*
X10782300Y-13855700D02*
X10807700Y-13881100D01*
X10807700Y-13855700D02*
X10782300Y-13881100D01*
X10883900Y-13652500D02*
X10909300Y-13677900D01*
X10909300Y-13652500D02*
X10883900Y-13677900D01*
X12636500Y-13093700D02*
X12661900Y-13119100D01*
X12661900Y-13093700D02*
X12636500Y-13119100D01*
X12890500Y-13550900D02*
X12915900Y-13576300D01*
X12915900Y-13550900D02*
X12890500Y-13576300D01*
X12890500Y-13652500D02*
X12915900Y-13677900D01*
X12915900Y-13652500D02*
X12890500Y-13677900D01*
X12992100Y-13652500D02*
X13017500Y-13677900D01*
X13017500Y-13652500D02*
X12992100Y-13677900D01*
X12992100Y-13754100D02*
X13017500Y-13779500D01*
X13017500Y-13754100D02*
X12992100Y-13779500D01*
X13093700Y-13652500D02*
X13119100Y-13677900D01*
X13119100Y-13652500D02*
X13093700Y-13677900D01*
X13093700Y-13754100D02*
X13119100Y-13779500D01*
X13119100Y-13754100D02*
X13093700Y-13779500D01*
X13195300Y-13652500D02*
X13220700Y-13677900D01*
X13220700Y-13652500D02*
X13195300Y-13677900D01*
X13195300Y-13754100D02*
X13220700Y-13779500D01*
X13220700Y-13754100D02*
X13195300Y-13779500D01*
X13195300Y-13855700D02*
X13220700Y-13881100D01*
X13220700Y-13855700D02*
X13195300Y-13881100D01*
X13296900Y-13652500D02*
X13322300Y-13677900D01*
X13322300Y-13652500D02*
X13296900Y-13677900D01*
X15049500Y-13089700D02*
X15074900Y-13115100D01*
X15074900Y-13089700D02*
X15049500Y-13115100D01*
X15303500Y-13546900D02*
X15328900Y-13572300D01*
X15328900Y-13546900D02*
X15303500Y-13572300D01*
X15303500Y-13648500D02*
X15328900Y-13673900D01*
X15328900Y-13648500D02*
X15303500Y-13673900D01*
X15405100Y-13648500D02*
X15430500Y-13673900D01*
X15430500Y-13648500D02*
X15405100Y-13673900D01*
X15405100Y-13750100D02*
X15430500Y-13775500D01*
X15430500Y-13750100D02*
X15405100Y-13775500D01*
X15506700Y-13648500D02*
X15532100Y-13673900D01*
X15532100Y-13648500D02*
X15506700Y-13673900D01*
X15506700Y-13750100D02*
X15532100Y-13775500D01*
X15532100Y-13750100D02*
X15506700Y-13775500D01*
X15608300Y-13648500D02*
X15633700Y-13673900D01*
X15633700Y-13648500D02*
X15608300Y-13673900D01*
X15608300Y-13750100D02*
X15633700Y-13775500D01*
X15633700Y-13750100D02*
X15608300Y-13775500D01*
X15608300Y-13851700D02*
X15633700Y-13877100D01*
X15633700Y-13851700D02*
X15608300Y-13877100D01*
X15709900Y-13648500D02*
X15735300Y-13673900D01*
X15735300Y-13648500D02*
X15709900Y-13673900D01*
X15862300Y-14401800D02*
X15887700Y-14427200D01*
X15887700Y-14401800D02*
X15862300Y-14427200D01*
D13*
X5246000Y-12128500D02*
G75*
G03*
X5246000Y-12128500I-25000J0D01*
G01*
X5246000Y-14795500D02*
G75*
G03*
X5246000Y-14795500I-25000J0D01*
G01*
X5316294Y-11958794D02*
G75*
G03*
X5316294Y-11958794I-25000J0D01*
G01*
X5316294Y-12298206D02*
G75*
G03*
X5316294Y-12298206I-25000J0D01*
G01*
X5316294Y-14625794D02*
G75*
G03*
X5316294Y-14625794I-25000J0D01*
G01*
X5316294Y-14965206D02*
G75*
G03*
X5316294Y-14965206I-25000J0D01*
G01*
X5486000Y-11888500D02*
G75*
G03*
X5486000Y-11888500I-25000J0D01*
G01*
X5486000Y-12368500D02*
G75*
G03*
X5486000Y-12368500I-25000J0D01*
G01*
X5486000Y-14555500D02*
G75*
G03*
X5486000Y-14555500I-25000J0D01*
G01*
X5486000Y-15035500D02*
G75*
G03*
X5486000Y-15035500I-25000J0D01*
G01*
X5655706Y-11958794D02*
G75*
G03*
X5655706Y-11958794I-25000J0D01*
G01*
X5655706Y-12298206D02*
G75*
G03*
X5655706Y-12298206I-25000J0D01*
G01*
X5655706Y-14625794D02*
G75*
G03*
X5655706Y-14625794I-25000J0D01*
G01*
X5655706Y-14965206D02*
G75*
G03*
X5655706Y-14965206I-25000J0D01*
G01*
X5726000Y-12128500D02*
G75*
G03*
X5726000Y-12128500I-25000J0D01*
G01*
X5726000Y-14795500D02*
G75*
G03*
X5726000Y-14795500I-25000J0D01*
G01*
X16930000Y-12128500D02*
G75*
G03*
X16930000Y-12128500I-25000J0D01*
G01*
X16930000Y-14795500D02*
G75*
G03*
X16930000Y-14795500I-25000J0D01*
G01*
X17000294Y-11958794D02*
G75*
G03*
X17000294Y-11958794I-25000J0D01*
G01*
X17000294Y-12298206D02*
G75*
G03*
X17000294Y-12298206I-25000J0D01*
G01*
X17000294Y-14625794D02*
G75*
G03*
X17000294Y-14625794I-25000J0D01*
G01*
X17000294Y-14965206D02*
G75*
G03*
X17000294Y-14965206I-25000J0D01*
G01*
X17170000Y-11888500D02*
G75*
G03*
X17170000Y-11888500I-25000J0D01*
G01*
X17170000Y-12368500D02*
G75*
G03*
X17170000Y-12368500I-25000J0D01*
G01*
X17170000Y-14555500D02*
G75*
G03*
X17170000Y-14555500I-25000J0D01*
G01*
X17170000Y-15035500D02*
G75*
G03*
X17170000Y-15035500I-25000J0D01*
G01*
X17339706Y-11958794D02*
G75*
G03*
X17339706Y-11958794I-25000J0D01*
G01*
X17339706Y-12298206D02*
G75*
G03*
X17339706Y-12298206I-25000J0D01*
G01*
X17339706Y-14625794D02*
G75*
G03*
X17339706Y-14625794I-25000J0D01*
G01*
X17339706Y-14965206D02*
G75*
G03*
X17339706Y-14965206I-25000J0D01*
G01*
X17410000Y-12128500D02*
G75*
G03*
X17410000Y-12128500I-25000J0D01*
G01*
X17410000Y-14795500D02*
G75*
G03*
X17410000Y-14795500I-25000J0D01*
G01*
D10*
X7493000Y-12019000D02*
X7493000Y-12119000D01*
X7443000Y-12069000D02*
X7543000Y-12069000D01*
X7493000Y-12269000D02*
X7493000Y-12369000D01*
X7443000Y-12319000D02*
X7543000Y-12319000D01*
X8255000Y-12019000D02*
X8255000Y-12119000D01*
X8205000Y-12069000D02*
X8305000Y-12069000D01*
X8255000Y-12269000D02*
X8255000Y-12369000D01*
X8205000Y-12319000D02*
X8305000Y-12319000D01*
X9017000Y-12019000D02*
X9017000Y-12119000D01*
X8967000Y-12069000D02*
X9067000Y-12069000D01*
X9017000Y-12269000D02*
X9017000Y-12369000D01*
X8967000Y-12319000D02*
X9067000Y-12319000D01*
X9906000Y-12019000D02*
X9906000Y-12119000D01*
X9856000Y-12069000D02*
X9956000Y-12069000D01*
X9906000Y-12269000D02*
X9906000Y-12369000D01*
X9856000Y-12319000D02*
X9956000Y-12319000D01*
X10668000Y-12019000D02*
X10668000Y-12119000D01*
X10618000Y-12069000D02*
X10718000Y-12069000D01*
X10668000Y-12269000D02*
X10668000Y-12369000D01*
X10618000Y-12319000D02*
X10718000Y-12319000D01*
X11430000Y-12019000D02*
X11430000Y-12119000D01*
X11380000Y-12069000D02*
X11480000Y-12069000D01*
X11430000Y-12269000D02*
X11430000Y-12369000D01*
X11380000Y-12319000D02*
X11480000Y-12319000D01*
X12319000Y-12019000D02*
X12319000Y-12119000D01*
X12269000Y-12069000D02*
X12369000Y-12069000D01*
X12319000Y-12269000D02*
X12319000Y-12369000D01*
X12269000Y-12319000D02*
X12369000Y-12319000D01*
X13081000Y-12019000D02*
X13081000Y-12119000D01*
X13031000Y-12069000D02*
X13131000Y-12069000D01*
X13081000Y-12269000D02*
X13081000Y-12369000D01*
X13031000Y-12319000D02*
X13131000Y-12319000D01*
X13843000Y-12019000D02*
X13843000Y-12119000D01*
X13793000Y-12069000D02*
X13893000Y-12069000D01*
X13843000Y-12269000D02*
X13843000Y-12369000D01*
X13793000Y-12319000D02*
X13893000Y-12319000D01*
X14732000Y-12015000D02*
X14732000Y-12115000D01*
X14682000Y-12065000D02*
X14782000Y-12065000D01*
X14732000Y-12265000D02*
X14732000Y-12365000D01*
X14682000Y-12315000D02*
X14782000Y-12315000D01*
X15494000Y-12015000D02*
X15494000Y-12115000D01*
X15444000Y-12065000D02*
X15544000Y-12065000D01*
X15494000Y-12265000D02*
X15494000Y-12365000D01*
X15444000Y-12315000D02*
X15544000Y-12315000D01*
X16256000Y-12015000D02*
X16256000Y-12115000D01*
X16206000Y-12065000D02*
X16306000Y-12065000D01*
X16256000Y-12265000D02*
X16256000Y-12365000D01*
X16206000Y-12315000D02*
X16306000Y-12315000D01*
D14*
X6369933Y-13917933D02*
X6369933Y-13792067D01*
X6244067Y-13792067D01*
X6244067Y-13917933D01*
X6369933Y-13917933D01*
X6369933Y-14909933D02*
X6369933Y-14784067D01*
X6244067Y-14784067D01*
X6244067Y-14909933D01*
X6369933Y-14909933D01*
X6709933Y-13917933D02*
X6709933Y-13792067D01*
X6584067Y-13792067D01*
X6584067Y-13917933D01*
X6709933Y-13917933D01*
X6709933Y-14909933D02*
X6709933Y-14784067D01*
X6584067Y-14784067D01*
X6584067Y-14909933D01*
X6709933Y-14909933D01*
D15*
X5461000Y-12288500D02*
X5621000Y-12128500D01*
X5461000Y-11968500D01*
X5301000Y-12128500D01*
X5461000Y-12288500D01*
X5461000Y-14955500D02*
X5621000Y-14795500D01*
X5461000Y-14635500D01*
X5301000Y-14795500D01*
X5461000Y-14955500D01*
X17145000Y-12288500D02*
X17305000Y-12128500D01*
X17145000Y-11968500D01*
X16985000Y-12128500D01*
X17145000Y-12288500D01*
X17145000Y-14955500D02*
X17305000Y-14795500D01*
X17145000Y-14635500D01*
X16985000Y-14795500D01*
X17145000Y-14955500D01*
D16*
X6252000Y-12009000D02*
X6702000Y-12459000D01*
X6702000Y-12009000D02*
X6252000Y-12459000D01*
X6702000Y-12234000D02*
G75*
G03*
X6702000Y-12234000I-225000J0D01*
G01*
X6252000Y-12729000D02*
X6702000Y-13179000D01*
X6702000Y-12729000D02*
X6252000Y-13179000D01*
X6702000Y-12954000D02*
G75*
G03*
X6702000Y-12954000I-225000J0D01*
G01*
D11*
X5269119Y-15555476D02*
X5269119Y-15355476D01*
X5316738Y-15355476D01*
X5345310Y-15365000D01*
X5364357Y-15384048D01*
X5373881Y-15403095D01*
X5383405Y-15441190D01*
X5383405Y-15469762D01*
X5373881Y-15507857D01*
X5364357Y-15526905D01*
X5345310Y-15545952D01*
X5316738Y-15555476D01*
X5269119Y-15555476D01*
X5469119Y-15555476D02*
X5469119Y-15422143D01*
X5469119Y-15460238D02*
X5478643Y-15441190D01*
X5488167Y-15431667D01*
X5507214Y-15422143D01*
X5526262Y-15422143D01*
X5592928Y-15555476D02*
X5592928Y-15422143D01*
X5592928Y-15355476D02*
X5583405Y-15365000D01*
X5592928Y-15374524D01*
X5602452Y-15365000D01*
X5592928Y-15355476D01*
X5592928Y-15374524D01*
X5716738Y-15555476D02*
X5697690Y-15545952D01*
X5688167Y-15526905D01*
X5688167Y-15355476D01*
X5821500Y-15555476D02*
X5802452Y-15545952D01*
X5792928Y-15526905D01*
X5792928Y-15355476D01*
X6050071Y-15555476D02*
X6050071Y-15355476D01*
X6116738Y-15498333D01*
X6183405Y-15355476D01*
X6183405Y-15555476D01*
X6364357Y-15555476D02*
X6364357Y-15450714D01*
X6354833Y-15431667D01*
X6335786Y-15422143D01*
X6297690Y-15422143D01*
X6278643Y-15431667D01*
X6364357Y-15545952D02*
X6345309Y-15555476D01*
X6297690Y-15555476D01*
X6278643Y-15545952D01*
X6269119Y-15526905D01*
X6269119Y-15507857D01*
X6278643Y-15488809D01*
X6297690Y-15479286D01*
X6345309Y-15479286D01*
X6364357Y-15469762D01*
X6459595Y-15422143D02*
X6459595Y-15622143D01*
X6459595Y-15431667D02*
X6478643Y-15422143D01*
X6516738Y-15422143D01*
X6535786Y-15431667D01*
X6545309Y-15441190D01*
X6554833Y-15460238D01*
X6554833Y-15517381D01*
X6545309Y-15536428D01*
X6535786Y-15545952D01*
X6516738Y-15555476D01*
X6478643Y-15555476D01*
X6459595Y-15545952D01*
X6640548Y-15536428D02*
X6650071Y-15545952D01*
X6640548Y-15555476D01*
X6631024Y-15545952D01*
X6640548Y-15536428D01*
X6640548Y-15555476D01*
X6640548Y-15431667D02*
X6650071Y-15441190D01*
X6640548Y-15450714D01*
X6631024Y-15441190D01*
X6640548Y-15431667D01*
X6640548Y-15450714D01*
D12*
X4986100Y-15872300D02*
X5011500Y-15897700D01*
X5011500Y-15872300D02*
X4986100Y-15897700D01*
D11*
X5307214Y-15775476D02*
X5326262Y-15775476D01*
X5345310Y-15785000D01*
X5354833Y-15794524D01*
X5364357Y-15813571D01*
X5373881Y-15851667D01*
X5373881Y-15899286D01*
X5364357Y-15937381D01*
X5354833Y-15956428D01*
X5345310Y-15965952D01*
X5326262Y-15975476D01*
X5307214Y-15975476D01*
X5288167Y-15965952D01*
X5278643Y-15956428D01*
X5269119Y-15937381D01*
X5259595Y-15899286D01*
X5259595Y-15851667D01*
X5269119Y-15813571D01*
X5278643Y-15794524D01*
X5288167Y-15785000D01*
X5307214Y-15775476D01*
X5459595Y-15956428D02*
X5469119Y-15965952D01*
X5459595Y-15975476D01*
X5450071Y-15965952D01*
X5459595Y-15956428D01*
X5459595Y-15975476D01*
X5545310Y-15794524D02*
X5554833Y-15785000D01*
X5573881Y-15775476D01*
X5621500Y-15775476D01*
X5640548Y-15785000D01*
X5650071Y-15794524D01*
X5659595Y-15813571D01*
X5659595Y-15832619D01*
X5650071Y-15861190D01*
X5535786Y-15975476D01*
X5659595Y-15975476D01*
X5840548Y-15775476D02*
X5745309Y-15775476D01*
X5735786Y-15870714D01*
X5745309Y-15861190D01*
X5764357Y-15851667D01*
X5811976Y-15851667D01*
X5831024Y-15861190D01*
X5840548Y-15870714D01*
X5850071Y-15889762D01*
X5850071Y-15937381D01*
X5840548Y-15956428D01*
X5831024Y-15965952D01*
X5811976Y-15975476D01*
X5764357Y-15975476D01*
X5745309Y-15965952D01*
X5735786Y-15956428D01*
X6021500Y-15842143D02*
X6021500Y-15975476D01*
X5973881Y-15765952D02*
X5926262Y-15908809D01*
X6050071Y-15908809D01*
X6126262Y-15975476D02*
X6126262Y-15842143D01*
X6126262Y-15861190D02*
X6135786Y-15851667D01*
X6154833Y-15842143D01*
X6183405Y-15842143D01*
X6202452Y-15851667D01*
X6211976Y-15870714D01*
X6211976Y-15975476D01*
X6211976Y-15870714D02*
X6221500Y-15851667D01*
X6240548Y-15842143D01*
X6269119Y-15842143D01*
X6288167Y-15851667D01*
X6297690Y-15870714D01*
X6297690Y-15975476D01*
X6392928Y-15975476D02*
X6392928Y-15842143D01*
X6392928Y-15861190D02*
X6402452Y-15851667D01*
X6421500Y-15842143D01*
X6450071Y-15842143D01*
X6469119Y-15851667D01*
X6478643Y-15870714D01*
X6478643Y-15975476D01*
X6478643Y-15870714D02*
X6488167Y-15851667D01*
X6507214Y-15842143D01*
X6535786Y-15842143D01*
X6554833Y-15851667D01*
X6564357Y-15870714D01*
X6564357Y-15975476D01*
X6954833Y-15765952D02*
X6783405Y-16023095D01*
X7211976Y-15775476D02*
X7231024Y-15775476D01*
X7250071Y-15785000D01*
X7259595Y-15794524D01*
X7269119Y-15813571D01*
X7278643Y-15851667D01*
X7278643Y-15899286D01*
X7269119Y-15937381D01*
X7259595Y-15956428D01*
X7250071Y-15965952D01*
X7231024Y-15975476D01*
X7211976Y-15975476D01*
X7192928Y-15965952D01*
X7183405Y-15956428D01*
X7173881Y-15937381D01*
X7164357Y-15899286D01*
X7164357Y-15851667D01*
X7173881Y-15813571D01*
X7183405Y-15794524D01*
X7192928Y-15785000D01*
X7211976Y-15775476D01*
X7364357Y-15956428D02*
X7373881Y-15965952D01*
X7364357Y-15975476D01*
X7354833Y-15965952D01*
X7364357Y-15956428D01*
X7364357Y-15975476D01*
X7497690Y-15775476D02*
X7516738Y-15775476D01*
X7535786Y-15785000D01*
X7545309Y-15794524D01*
X7554833Y-15813571D01*
X7564357Y-15851667D01*
X7564357Y-15899286D01*
X7554833Y-15937381D01*
X7545309Y-15956428D01*
X7535786Y-15965952D01*
X7516738Y-15975476D01*
X7497690Y-15975476D01*
X7478643Y-15965952D01*
X7469119Y-15956428D01*
X7459595Y-15937381D01*
X7450071Y-15899286D01*
X7450071Y-15851667D01*
X7459595Y-15813571D01*
X7469119Y-15794524D01*
X7478643Y-15785000D01*
X7497690Y-15775476D01*
X7754833Y-15975476D02*
X7640548Y-15975476D01*
X7697690Y-15975476D02*
X7697690Y-15775476D01*
X7678643Y-15804048D01*
X7659595Y-15823095D01*
X7640548Y-15832619D01*
X7878643Y-15775476D02*
X7897690Y-15775476D01*
X7916738Y-15785000D01*
X7926262Y-15794524D01*
X7935786Y-15813571D01*
X7945309Y-15851667D01*
X7945309Y-15899286D01*
X7935786Y-15937381D01*
X7926262Y-15956428D01*
X7916738Y-15965952D01*
X7897690Y-15975476D01*
X7878643Y-15975476D01*
X7859595Y-15965952D01*
X7850071Y-15956428D01*
X7840548Y-15937381D01*
X7831024Y-15899286D01*
X7831024Y-15851667D01*
X7840548Y-15813571D01*
X7850071Y-15794524D01*
X7859595Y-15785000D01*
X7878643Y-15775476D01*
X8069119Y-15775476D02*
X8088167Y-15775476D01*
X8107214Y-15785000D01*
X8116738Y-15794524D01*
X8126262Y-15813571D01*
X8135786Y-15851667D01*
X8135786Y-15899286D01*
X8126262Y-15937381D01*
X8116738Y-15956428D01*
X8107214Y-15965952D01*
X8088167Y-15975476D01*
X8069119Y-15975476D01*
X8050071Y-15965952D01*
X8040548Y-15956428D01*
X8031024Y-15937381D01*
X8021500Y-15899286D01*
X8021500Y-15851667D01*
X8031024Y-15813571D01*
X8040548Y-15794524D01*
X8050071Y-15785000D01*
X8069119Y-15775476D01*
X8211976Y-15775476D02*
X8211976Y-15813571D01*
X8288167Y-15775476D02*
X8288167Y-15813571D01*
X8583405Y-16051667D02*
X8573881Y-16042143D01*
X8554833Y-16013571D01*
X8545310Y-15994524D01*
X8535786Y-15965952D01*
X8526262Y-15918333D01*
X8526262Y-15880238D01*
X8535786Y-15832619D01*
X8545310Y-15804048D01*
X8554833Y-15785000D01*
X8573881Y-15756428D01*
X8583405Y-15746905D01*
X8745310Y-15842143D02*
X8745310Y-15975476D01*
X8697690Y-15765952D02*
X8650071Y-15908809D01*
X8773881Y-15908809D01*
X8945310Y-15775476D02*
X8850071Y-15775476D01*
X8840548Y-15870714D01*
X8850071Y-15861190D01*
X8869119Y-15851667D01*
X8916738Y-15851667D01*
X8935786Y-15861190D01*
X8945310Y-15870714D01*
X8954833Y-15889762D01*
X8954833Y-15937381D01*
X8945310Y-15956428D01*
X8935786Y-15965952D01*
X8916738Y-15975476D01*
X8869119Y-15975476D01*
X8850071Y-15965952D01*
X8840548Y-15956428D01*
X9192929Y-15975476D02*
X9192929Y-15775476D01*
X9278643Y-15975476D02*
X9278643Y-15870714D01*
X9269119Y-15851667D01*
X9250071Y-15842143D01*
X9221500Y-15842143D01*
X9202452Y-15851667D01*
X9192929Y-15861190D01*
X9402452Y-15975476D02*
X9383405Y-15965952D01*
X9373881Y-15956428D01*
X9364357Y-15937381D01*
X9364357Y-15880238D01*
X9373881Y-15861190D01*
X9383405Y-15851667D01*
X9402452Y-15842143D01*
X9431024Y-15842143D01*
X9450071Y-15851667D01*
X9459595Y-15861190D01*
X9469119Y-15880238D01*
X9469119Y-15937381D01*
X9459595Y-15956428D01*
X9450071Y-15965952D01*
X9431024Y-15975476D01*
X9402452Y-15975476D01*
X9583405Y-15975476D02*
X9564357Y-15965952D01*
X9554833Y-15946905D01*
X9554833Y-15775476D01*
X9735786Y-15965952D02*
X9716738Y-15975476D01*
X9678643Y-15975476D01*
X9659595Y-15965952D01*
X9650071Y-15946905D01*
X9650071Y-15870714D01*
X9659595Y-15851667D01*
X9678643Y-15842143D01*
X9716738Y-15842143D01*
X9735786Y-15851667D01*
X9745310Y-15870714D01*
X9745310Y-15889762D01*
X9650071Y-15908809D01*
X9821500Y-15965952D02*
X9840548Y-15975476D01*
X9878643Y-15975476D01*
X9897690Y-15965952D01*
X9907214Y-15946905D01*
X9907214Y-15937381D01*
X9897690Y-15918333D01*
X9878643Y-15908809D01*
X9850071Y-15908809D01*
X9831024Y-15899286D01*
X9821500Y-15880238D01*
X9821500Y-15870714D01*
X9831024Y-15851667D01*
X9850071Y-15842143D01*
X9878643Y-15842143D01*
X9897690Y-15851667D01*
X9973881Y-16051667D02*
X9983405Y-16042143D01*
X10002452Y-16013571D01*
X10011976Y-15994524D01*
X10021500Y-15965952D01*
X10031024Y-15918333D01*
X10031024Y-15880238D01*
X10021500Y-15832619D01*
X10011976Y-15804048D01*
X10002452Y-15785000D01*
X9983405Y-15756428D01*
X9973881Y-15746905D01*
D13*
X5011500Y-16149000D02*
G75*
G03*
X5011500Y-16149000I-25000J0D01*
G01*
D11*
X5307214Y-16039476D02*
X5326262Y-16039476D01*
X5345310Y-16049000D01*
X5354833Y-16058524D01*
X5364357Y-16077571D01*
X5373881Y-16115667D01*
X5373881Y-16163286D01*
X5364357Y-16201381D01*
X5354833Y-16220428D01*
X5345310Y-16229952D01*
X5326262Y-16239476D01*
X5307214Y-16239476D01*
X5288167Y-16229952D01*
X5278643Y-16220428D01*
X5269119Y-16201381D01*
X5259595Y-16163286D01*
X5259595Y-16115667D01*
X5269119Y-16077571D01*
X5278643Y-16058524D01*
X5288167Y-16049000D01*
X5307214Y-16039476D01*
X5459595Y-16220428D02*
X5469119Y-16229952D01*
X5459595Y-16239476D01*
X5450071Y-16229952D01*
X5459595Y-16220428D01*
X5459595Y-16239476D01*
X5650071Y-16039476D02*
X5554833Y-16039476D01*
X5545310Y-16134714D01*
X5554833Y-16125190D01*
X5573881Y-16115667D01*
X5621500Y-16115667D01*
X5640548Y-16125190D01*
X5650071Y-16134714D01*
X5659595Y-16153762D01*
X5659595Y-16201381D01*
X5650071Y-16220428D01*
X5640548Y-16229952D01*
X5621500Y-16239476D01*
X5573881Y-16239476D01*
X5554833Y-16229952D01*
X5545310Y-16220428D01*
X5783405Y-16039476D02*
X5802452Y-16039476D01*
X5821500Y-16049000D01*
X5831024Y-16058524D01*
X5840548Y-16077571D01*
X5850071Y-16115667D01*
X5850071Y-16163286D01*
X5840548Y-16201381D01*
X5831024Y-16220428D01*
X5821500Y-16229952D01*
X5802452Y-16239476D01*
X5783405Y-16239476D01*
X5764357Y-16229952D01*
X5754833Y-16220428D01*
X5745309Y-16201381D01*
X5735786Y-16163286D01*
X5735786Y-16115667D01*
X5745309Y-16077571D01*
X5754833Y-16058524D01*
X5764357Y-16049000D01*
X5783405Y-16039476D01*
X5973881Y-16039476D02*
X5992928Y-16039476D01*
X6011976Y-16049000D01*
X6021500Y-16058524D01*
X6031024Y-16077571D01*
X6040548Y-16115667D01*
X6040548Y-16163286D01*
X6031024Y-16201381D01*
X6021500Y-16220428D01*
X6011976Y-16229952D01*
X5992928Y-16239476D01*
X5973881Y-16239476D01*
X5954833Y-16229952D01*
X5945309Y-16220428D01*
X5935786Y-16201381D01*
X5926262Y-16163286D01*
X5926262Y-16115667D01*
X5935786Y-16077571D01*
X5945309Y-16058524D01*
X5954833Y-16049000D01*
X5973881Y-16039476D01*
X6126262Y-16239476D02*
X6126262Y-16106143D01*
X6126262Y-16125190D02*
X6135786Y-16115667D01*
X6154833Y-16106143D01*
X6183405Y-16106143D01*
X6202452Y-16115667D01*
X6211976Y-16134714D01*
X6211976Y-16239476D01*
X6211976Y-16134714D02*
X6221500Y-16115667D01*
X6240548Y-16106143D01*
X6269119Y-16106143D01*
X6288167Y-16115667D01*
X6297690Y-16134714D01*
X6297690Y-16239476D01*
X6392928Y-16239476D02*
X6392928Y-16106143D01*
X6392928Y-16125190D02*
X6402452Y-16115667D01*
X6421500Y-16106143D01*
X6450071Y-16106143D01*
X6469119Y-16115667D01*
X6478643Y-16134714D01*
X6478643Y-16239476D01*
X6478643Y-16134714D02*
X6488167Y-16115667D01*
X6507214Y-16106143D01*
X6535786Y-16106143D01*
X6554833Y-16115667D01*
X6564357Y-16134714D01*
X6564357Y-16239476D01*
X6954833Y-16029952D02*
X6783405Y-16287095D01*
X7211976Y-16039476D02*
X7231024Y-16039476D01*
X7250071Y-16049000D01*
X7259595Y-16058524D01*
X7269119Y-16077571D01*
X7278643Y-16115667D01*
X7278643Y-16163286D01*
X7269119Y-16201381D01*
X7259595Y-16220428D01*
X7250071Y-16229952D01*
X7231024Y-16239476D01*
X7211976Y-16239476D01*
X7192928Y-16229952D01*
X7183405Y-16220428D01*
X7173881Y-16201381D01*
X7164357Y-16163286D01*
X7164357Y-16115667D01*
X7173881Y-16077571D01*
X7183405Y-16058524D01*
X7192928Y-16049000D01*
X7211976Y-16039476D01*
X7364357Y-16220428D02*
X7373881Y-16229952D01*
X7364357Y-16239476D01*
X7354833Y-16229952D01*
X7364357Y-16220428D01*
X7364357Y-16239476D01*
X7497690Y-16039476D02*
X7516738Y-16039476D01*
X7535786Y-16049000D01*
X7545309Y-16058524D01*
X7554833Y-16077571D01*
X7564357Y-16115667D01*
X7564357Y-16163286D01*
X7554833Y-16201381D01*
X7545309Y-16220428D01*
X7535786Y-16229952D01*
X7516738Y-16239476D01*
X7497690Y-16239476D01*
X7478643Y-16229952D01*
X7469119Y-16220428D01*
X7459595Y-16201381D01*
X7450071Y-16163286D01*
X7450071Y-16115667D01*
X7459595Y-16077571D01*
X7469119Y-16058524D01*
X7478643Y-16049000D01*
X7497690Y-16039476D01*
X7754833Y-16239476D02*
X7640548Y-16239476D01*
X7697690Y-16239476D02*
X7697690Y-16039476D01*
X7678643Y-16068048D01*
X7659595Y-16087095D01*
X7640548Y-16096619D01*
X7850071Y-16239476D02*
X7888167Y-16239476D01*
X7907214Y-16229952D01*
X7916738Y-16220428D01*
X7935786Y-16191857D01*
X7945309Y-16153762D01*
X7945309Y-16077571D01*
X7935786Y-16058524D01*
X7926262Y-16049000D01*
X7907214Y-16039476D01*
X7869119Y-16039476D01*
X7850071Y-16049000D01*
X7840548Y-16058524D01*
X7831024Y-16077571D01*
X7831024Y-16125190D01*
X7840548Y-16144238D01*
X7850071Y-16153762D01*
X7869119Y-16163286D01*
X7907214Y-16163286D01*
X7926262Y-16153762D01*
X7935786Y-16144238D01*
X7945309Y-16125190D01*
X8011976Y-16039476D02*
X8145309Y-16039476D01*
X8059595Y-16239476D01*
X8211976Y-16039476D02*
X8211976Y-16077571D01*
X8288167Y-16039476D02*
X8288167Y-16077571D01*
X8583405Y-16315667D02*
X8573881Y-16306143D01*
X8554833Y-16277571D01*
X8545310Y-16258524D01*
X8535786Y-16229952D01*
X8526262Y-16182333D01*
X8526262Y-16144238D01*
X8535786Y-16096619D01*
X8545310Y-16068048D01*
X8554833Y-16049000D01*
X8573881Y-16020428D01*
X8583405Y-16010905D01*
X8640548Y-16039476D02*
X8764357Y-16039476D01*
X8697690Y-16115667D01*
X8726262Y-16115667D01*
X8745310Y-16125190D01*
X8754833Y-16134714D01*
X8764357Y-16153762D01*
X8764357Y-16201381D01*
X8754833Y-16220428D01*
X8745310Y-16229952D01*
X8726262Y-16239476D01*
X8669119Y-16239476D01*
X8650071Y-16229952D01*
X8640548Y-16220428D01*
X8840548Y-16058524D02*
X8850071Y-16049000D01*
X8869119Y-16039476D01*
X8916738Y-16039476D01*
X8935786Y-16049000D01*
X8945310Y-16058524D01*
X8954833Y-16077571D01*
X8954833Y-16096619D01*
X8945310Y-16125190D01*
X8831024Y-16239476D01*
X8954833Y-16239476D01*
X9192929Y-16239476D02*
X9192929Y-16039476D01*
X9278643Y-16239476D02*
X9278643Y-16134714D01*
X9269119Y-16115667D01*
X9250071Y-16106143D01*
X9221500Y-16106143D01*
X9202452Y-16115667D01*
X9192929Y-16125190D01*
X9402452Y-16239476D02*
X9383405Y-16229952D01*
X9373881Y-16220428D01*
X9364357Y-16201381D01*
X9364357Y-16144238D01*
X9373881Y-16125190D01*
X9383405Y-16115667D01*
X9402452Y-16106143D01*
X9431024Y-16106143D01*
X9450071Y-16115667D01*
X9459595Y-16125190D01*
X9469119Y-16144238D01*
X9469119Y-16201381D01*
X9459595Y-16220428D01*
X9450071Y-16229952D01*
X9431024Y-16239476D01*
X9402452Y-16239476D01*
X9583405Y-16239476D02*
X9564357Y-16229952D01*
X9554833Y-16210905D01*
X9554833Y-16039476D01*
X9735786Y-16229952D02*
X9716738Y-16239476D01*
X9678643Y-16239476D01*
X9659595Y-16229952D01*
X9650071Y-16210905D01*
X9650071Y-16134714D01*
X9659595Y-16115667D01*
X9678643Y-16106143D01*
X9716738Y-16106143D01*
X9735786Y-16115667D01*
X9745310Y-16134714D01*
X9745310Y-16153762D01*
X9650071Y-16172809D01*
X9821500Y-16229952D02*
X9840548Y-16239476D01*
X9878643Y-16239476D01*
X9897690Y-16229952D01*
X9907214Y-16210905D01*
X9907214Y-16201381D01*
X9897690Y-16182333D01*
X9878643Y-16172809D01*
X9850071Y-16172809D01*
X9831024Y-16163286D01*
X9821500Y-16144238D01*
X9821500Y-16134714D01*
X9831024Y-16115667D01*
X9850071Y-16106143D01*
X9878643Y-16106143D01*
X9897690Y-16115667D01*
X9973881Y-16315667D02*
X9983405Y-16306143D01*
X10002452Y-16277571D01*
X10011976Y-16258524D01*
X10021500Y-16229952D01*
X10031024Y-16182333D01*
X10031024Y-16144238D01*
X10021500Y-16096619D01*
X10011976Y-16068048D01*
X10002452Y-16049000D01*
X9983405Y-16020428D01*
X9973881Y-16010905D01*
D10*
X4961500Y-16363000D02*
X4961500Y-16463000D01*
X4911500Y-16413000D02*
X5011500Y-16413000D01*
D11*
X5373881Y-16503476D02*
X5259595Y-16503476D01*
X5316738Y-16503476D02*
X5316738Y-16303476D01*
X5297690Y-16332048D01*
X5278643Y-16351095D01*
X5259595Y-16360619D01*
X5459595Y-16484428D02*
X5469119Y-16493952D01*
X5459595Y-16503476D01*
X5450071Y-16493952D01*
X5459595Y-16484428D01*
X5459595Y-16503476D01*
X5592928Y-16303476D02*
X5611976Y-16303476D01*
X5631024Y-16313000D01*
X5640548Y-16322524D01*
X5650071Y-16341571D01*
X5659595Y-16379667D01*
X5659595Y-16427286D01*
X5650071Y-16465381D01*
X5640548Y-16484428D01*
X5631024Y-16493952D01*
X5611976Y-16503476D01*
X5592928Y-16503476D01*
X5573881Y-16493952D01*
X5564357Y-16484428D01*
X5554833Y-16465381D01*
X5545310Y-16427286D01*
X5545310Y-16379667D01*
X5554833Y-16341571D01*
X5564357Y-16322524D01*
X5573881Y-16313000D01*
X5592928Y-16303476D01*
X5783405Y-16303476D02*
X5802452Y-16303476D01*
X5821500Y-16313000D01*
X5831024Y-16322524D01*
X5840548Y-16341571D01*
X5850071Y-16379667D01*
X5850071Y-16427286D01*
X5840548Y-16465381D01*
X5831024Y-16484428D01*
X5821500Y-16493952D01*
X5802452Y-16503476D01*
X5783405Y-16503476D01*
X5764357Y-16493952D01*
X5754833Y-16484428D01*
X5745309Y-16465381D01*
X5735786Y-16427286D01*
X5735786Y-16379667D01*
X5745309Y-16341571D01*
X5754833Y-16322524D01*
X5764357Y-16313000D01*
X5783405Y-16303476D01*
X5973881Y-16303476D02*
X5992928Y-16303476D01*
X6011976Y-16313000D01*
X6021500Y-16322524D01*
X6031024Y-16341571D01*
X6040548Y-16379667D01*
X6040548Y-16427286D01*
X6031024Y-16465381D01*
X6021500Y-16484428D01*
X6011976Y-16493952D01*
X5992928Y-16503476D01*
X5973881Y-16503476D01*
X5954833Y-16493952D01*
X5945309Y-16484428D01*
X5935786Y-16465381D01*
X5926262Y-16427286D01*
X5926262Y-16379667D01*
X5935786Y-16341571D01*
X5945309Y-16322524D01*
X5954833Y-16313000D01*
X5973881Y-16303476D01*
X6126262Y-16503476D02*
X6126262Y-16370143D01*
X6126262Y-16389190D02*
X6135786Y-16379667D01*
X6154833Y-16370143D01*
X6183405Y-16370143D01*
X6202452Y-16379667D01*
X6211976Y-16398714D01*
X6211976Y-16503476D01*
X6211976Y-16398714D02*
X6221500Y-16379667D01*
X6240548Y-16370143D01*
X6269119Y-16370143D01*
X6288167Y-16379667D01*
X6297690Y-16398714D01*
X6297690Y-16503476D01*
X6392928Y-16503476D02*
X6392928Y-16370143D01*
X6392928Y-16389190D02*
X6402452Y-16379667D01*
X6421500Y-16370143D01*
X6450071Y-16370143D01*
X6469119Y-16379667D01*
X6478643Y-16398714D01*
X6478643Y-16503476D01*
X6478643Y-16398714D02*
X6488167Y-16379667D01*
X6507214Y-16370143D01*
X6535786Y-16370143D01*
X6554833Y-16379667D01*
X6564357Y-16398714D01*
X6564357Y-16503476D01*
X6954833Y-16293952D02*
X6783405Y-16551095D01*
X7211976Y-16303476D02*
X7231024Y-16303476D01*
X7250071Y-16313000D01*
X7259595Y-16322524D01*
X7269119Y-16341571D01*
X7278643Y-16379667D01*
X7278643Y-16427286D01*
X7269119Y-16465381D01*
X7259595Y-16484428D01*
X7250071Y-16493952D01*
X7231024Y-16503476D01*
X7211976Y-16503476D01*
X7192928Y-16493952D01*
X7183405Y-16484428D01*
X7173881Y-16465381D01*
X7164357Y-16427286D01*
X7164357Y-16379667D01*
X7173881Y-16341571D01*
X7183405Y-16322524D01*
X7192928Y-16313000D01*
X7211976Y-16303476D01*
X7364357Y-16484428D02*
X7373881Y-16493952D01*
X7364357Y-16503476D01*
X7354833Y-16493952D01*
X7364357Y-16484428D01*
X7364357Y-16503476D01*
X7497690Y-16303476D02*
X7516738Y-16303476D01*
X7535786Y-16313000D01*
X7545309Y-16322524D01*
X7554833Y-16341571D01*
X7564357Y-16379667D01*
X7564357Y-16427286D01*
X7554833Y-16465381D01*
X7545309Y-16484428D01*
X7535786Y-16493952D01*
X7516738Y-16503476D01*
X7497690Y-16503476D01*
X7478643Y-16493952D01*
X7469119Y-16484428D01*
X7459595Y-16465381D01*
X7450071Y-16427286D01*
X7450071Y-16379667D01*
X7459595Y-16341571D01*
X7469119Y-16322524D01*
X7478643Y-16313000D01*
X7497690Y-16303476D01*
X7631024Y-16303476D02*
X7754833Y-16303476D01*
X7688167Y-16379667D01*
X7716738Y-16379667D01*
X7735786Y-16389190D01*
X7745309Y-16398714D01*
X7754833Y-16417762D01*
X7754833Y-16465381D01*
X7745309Y-16484428D01*
X7735786Y-16493952D01*
X7716738Y-16503476D01*
X7659595Y-16503476D01*
X7640548Y-16493952D01*
X7631024Y-16484428D01*
X7850071Y-16503476D02*
X7888167Y-16503476D01*
X7907214Y-16493952D01*
X7916738Y-16484428D01*
X7935786Y-16455857D01*
X7945309Y-16417762D01*
X7945309Y-16341571D01*
X7935786Y-16322524D01*
X7926262Y-16313000D01*
X7907214Y-16303476D01*
X7869119Y-16303476D01*
X7850071Y-16313000D01*
X7840548Y-16322524D01*
X7831024Y-16341571D01*
X7831024Y-16389190D01*
X7840548Y-16408238D01*
X7850071Y-16417762D01*
X7869119Y-16427286D01*
X7907214Y-16427286D01*
X7926262Y-16417762D01*
X7935786Y-16408238D01*
X7945309Y-16389190D01*
X8116738Y-16370143D02*
X8116738Y-16503476D01*
X8069119Y-16293952D02*
X8021500Y-16436809D01*
X8145309Y-16436809D01*
X8211976Y-16303476D02*
X8211976Y-16341571D01*
X8288167Y-16303476D02*
X8288167Y-16341571D01*
X8583405Y-16579667D02*
X8573881Y-16570143D01*
X8554833Y-16541571D01*
X8545310Y-16522524D01*
X8535786Y-16493952D01*
X8526262Y-16446333D01*
X8526262Y-16408238D01*
X8535786Y-16360619D01*
X8545310Y-16332048D01*
X8554833Y-16313000D01*
X8573881Y-16284428D01*
X8583405Y-16274905D01*
X8650071Y-16322524D02*
X8659595Y-16313000D01*
X8678643Y-16303476D01*
X8726262Y-16303476D01*
X8745310Y-16313000D01*
X8754833Y-16322524D01*
X8764357Y-16341571D01*
X8764357Y-16360619D01*
X8754833Y-16389190D01*
X8640548Y-16503476D01*
X8764357Y-16503476D01*
X8935786Y-16370143D02*
X8935786Y-16503476D01*
X8888167Y-16293952D02*
X8840548Y-16436809D01*
X8964357Y-16436809D01*
X9192929Y-16503476D02*
X9192929Y-16303476D01*
X9278643Y-16503476D02*
X9278643Y-16398714D01*
X9269119Y-16379667D01*
X9250071Y-16370143D01*
X9221500Y-16370143D01*
X9202452Y-16379667D01*
X9192929Y-16389190D01*
X9402452Y-16503476D02*
X9383405Y-16493952D01*
X9373881Y-16484428D01*
X9364357Y-16465381D01*
X9364357Y-16408238D01*
X9373881Y-16389190D01*
X9383405Y-16379667D01*
X9402452Y-16370143D01*
X9431024Y-16370143D01*
X9450071Y-16379667D01*
X9459595Y-16389190D01*
X9469119Y-16408238D01*
X9469119Y-16465381D01*
X9459595Y-16484428D01*
X9450071Y-16493952D01*
X9431024Y-16503476D01*
X9402452Y-16503476D01*
X9583405Y-16503476D02*
X9564357Y-16493952D01*
X9554833Y-16474905D01*
X9554833Y-16303476D01*
X9735786Y-16493952D02*
X9716738Y-16503476D01*
X9678643Y-16503476D01*
X9659595Y-16493952D01*
X9650071Y-16474905D01*
X9650071Y-16398714D01*
X9659595Y-16379667D01*
X9678643Y-16370143D01*
X9716738Y-16370143D01*
X9735786Y-16379667D01*
X9745310Y-16398714D01*
X9745310Y-16417762D01*
X9650071Y-16436809D01*
X9821500Y-16493952D02*
X9840548Y-16503476D01*
X9878643Y-16503476D01*
X9897690Y-16493952D01*
X9907214Y-16474905D01*
X9907214Y-16465381D01*
X9897690Y-16446333D01*
X9878643Y-16436809D01*
X9850071Y-16436809D01*
X9831024Y-16427286D01*
X9821500Y-16408238D01*
X9821500Y-16398714D01*
X9831024Y-16379667D01*
X9850071Y-16370143D01*
X9878643Y-16370143D01*
X9897690Y-16379667D01*
X9973881Y-16579667D02*
X9983405Y-16570143D01*
X10002452Y-16541571D01*
X10011976Y-16522524D01*
X10021500Y-16493952D01*
X10031024Y-16446333D01*
X10031024Y-16408238D01*
X10021500Y-16360619D01*
X10011976Y-16332048D01*
X10002452Y-16313000D01*
X9983405Y-16284428D01*
X9973881Y-16274905D01*
D14*
X4985433Y-16739933D02*
X4985433Y-16614067D01*
X4859567Y-16614067D01*
X4859567Y-16739933D01*
X4985433Y-16739933D01*
D11*
X5373881Y-16767476D02*
X5259595Y-16767476D01*
X5316738Y-16767476D02*
X5316738Y-16567476D01*
X5297690Y-16596048D01*
X5278643Y-16615095D01*
X5259595Y-16624619D01*
X5459595Y-16748428D02*
X5469119Y-16757952D01*
X5459595Y-16767476D01*
X5450071Y-16757952D01*
X5459595Y-16748428D01*
X5459595Y-16767476D01*
X5535786Y-16567476D02*
X5669119Y-16567476D01*
X5583405Y-16767476D01*
X5773881Y-16653190D02*
X5754833Y-16643667D01*
X5745309Y-16634143D01*
X5735786Y-16615095D01*
X5735786Y-16605571D01*
X5745309Y-16586524D01*
X5754833Y-16577000D01*
X5773881Y-16567476D01*
X5811976Y-16567476D01*
X5831024Y-16577000D01*
X5840548Y-16586524D01*
X5850071Y-16605571D01*
X5850071Y-16615095D01*
X5840548Y-16634143D01*
X5831024Y-16643667D01*
X5811976Y-16653190D01*
X5773881Y-16653190D01*
X5754833Y-16662714D01*
X5745309Y-16672238D01*
X5735786Y-16691286D01*
X5735786Y-16729381D01*
X5745309Y-16748428D01*
X5754833Y-16757952D01*
X5773881Y-16767476D01*
X5811976Y-16767476D01*
X5831024Y-16757952D01*
X5840548Y-16748428D01*
X5850071Y-16729381D01*
X5850071Y-16691286D01*
X5840548Y-16672238D01*
X5831024Y-16662714D01*
X5811976Y-16653190D01*
X5973881Y-16567476D02*
X5992928Y-16567476D01*
X6011976Y-16577000D01*
X6021500Y-16586524D01*
X6031024Y-16605571D01*
X6040548Y-16643667D01*
X6040548Y-16691286D01*
X6031024Y-16729381D01*
X6021500Y-16748428D01*
X6011976Y-16757952D01*
X5992928Y-16767476D01*
X5973881Y-16767476D01*
X5954833Y-16757952D01*
X5945309Y-16748428D01*
X5935786Y-16729381D01*
X5926262Y-16691286D01*
X5926262Y-16643667D01*
X5935786Y-16605571D01*
X5945309Y-16586524D01*
X5954833Y-16577000D01*
X5973881Y-16567476D01*
X6126262Y-16767476D02*
X6126262Y-16634143D01*
X6126262Y-16653190D02*
X6135786Y-16643667D01*
X6154833Y-16634143D01*
X6183405Y-16634143D01*
X6202452Y-16643667D01*
X6211976Y-16662714D01*
X6211976Y-16767476D01*
X6211976Y-16662714D02*
X6221500Y-16643667D01*
X6240548Y-16634143D01*
X6269119Y-16634143D01*
X6288167Y-16643667D01*
X6297690Y-16662714D01*
X6297690Y-16767476D01*
X6392928Y-16767476D02*
X6392928Y-16634143D01*
X6392928Y-16653190D02*
X6402452Y-16643667D01*
X6421500Y-16634143D01*
X6450071Y-16634143D01*
X6469119Y-16643667D01*
X6478643Y-16662714D01*
X6478643Y-16767476D01*
X6478643Y-16662714D02*
X6488167Y-16643667D01*
X6507214Y-16634143D01*
X6535786Y-16634143D01*
X6554833Y-16643667D01*
X6564357Y-16662714D01*
X6564357Y-16767476D01*
X6954833Y-16557952D02*
X6783405Y-16815095D01*
X7211976Y-16567476D02*
X7231024Y-16567476D01*
X7250071Y-16577000D01*
X7259595Y-16586524D01*
X7269119Y-16605571D01*
X7278643Y-16643667D01*
X7278643Y-16691286D01*
X7269119Y-16729381D01*
X7259595Y-16748428D01*
X7250071Y-16757952D01*
X7231024Y-16767476D01*
X7211976Y-16767476D01*
X7192928Y-16757952D01*
X7183405Y-16748428D01*
X7173881Y-16729381D01*
X7164357Y-16691286D01*
X7164357Y-16643667D01*
X7173881Y-16605571D01*
X7183405Y-16586524D01*
X7192928Y-16577000D01*
X7211976Y-16567476D01*
X7364357Y-16748428D02*
X7373881Y-16757952D01*
X7364357Y-16767476D01*
X7354833Y-16757952D01*
X7364357Y-16748428D01*
X7364357Y-16767476D01*
X7497690Y-16567476D02*
X7516738Y-16567476D01*
X7535786Y-16577000D01*
X7545309Y-16586524D01*
X7554833Y-16605571D01*
X7564357Y-16643667D01*
X7564357Y-16691286D01*
X7554833Y-16729381D01*
X7545309Y-16748428D01*
X7535786Y-16757952D01*
X7516738Y-16767476D01*
X7497690Y-16767476D01*
X7478643Y-16757952D01*
X7469119Y-16748428D01*
X7459595Y-16729381D01*
X7450071Y-16691286D01*
X7450071Y-16643667D01*
X7459595Y-16605571D01*
X7469119Y-16586524D01*
X7478643Y-16577000D01*
X7497690Y-16567476D01*
X7631024Y-16567476D02*
X7764357Y-16567476D01*
X7678643Y-16767476D01*
X7878643Y-16567476D02*
X7897690Y-16567476D01*
X7916738Y-16577000D01*
X7926262Y-16586524D01*
X7935786Y-16605571D01*
X7945309Y-16643667D01*
X7945309Y-16691286D01*
X7935786Y-16729381D01*
X7926262Y-16748428D01*
X7916738Y-16757952D01*
X7897690Y-16767476D01*
X7878643Y-16767476D01*
X7859595Y-16757952D01*
X7850071Y-16748428D01*
X7840548Y-16729381D01*
X7831024Y-16691286D01*
X7831024Y-16643667D01*
X7840548Y-16605571D01*
X7850071Y-16586524D01*
X7859595Y-16577000D01*
X7878643Y-16567476D01*
X8135786Y-16767476D02*
X8021500Y-16767476D01*
X8078643Y-16767476D02*
X8078643Y-16567476D01*
X8059595Y-16596048D01*
X8040548Y-16615095D01*
X8021500Y-16624619D01*
X8211976Y-16567476D02*
X8211976Y-16605571D01*
X8288167Y-16567476D02*
X8288167Y-16605571D01*
X8583405Y-16843667D02*
X8573881Y-16834143D01*
X8554833Y-16805571D01*
X8545310Y-16786524D01*
X8535786Y-16757952D01*
X8526262Y-16710333D01*
X8526262Y-16672238D01*
X8535786Y-16624619D01*
X8545310Y-16596048D01*
X8554833Y-16577000D01*
X8573881Y-16548428D01*
X8583405Y-16538905D01*
X8745310Y-16634143D02*
X8745310Y-16767476D01*
X8697690Y-16557952D02*
X8650071Y-16700809D01*
X8773881Y-16700809D01*
X9002452Y-16767476D02*
X9002452Y-16567476D01*
X9088167Y-16767476D02*
X9088167Y-16662714D01*
X9078643Y-16643667D01*
X9059595Y-16634143D01*
X9031024Y-16634143D01*
X9011976Y-16643667D01*
X9002452Y-16653190D01*
X9211976Y-16767476D02*
X9192929Y-16757952D01*
X9183405Y-16748428D01*
X9173881Y-16729381D01*
X9173881Y-16672238D01*
X9183405Y-16653190D01*
X9192929Y-16643667D01*
X9211976Y-16634143D01*
X9240548Y-16634143D01*
X9259595Y-16643667D01*
X9269119Y-16653190D01*
X9278643Y-16672238D01*
X9278643Y-16729381D01*
X9269119Y-16748428D01*
X9259595Y-16757952D01*
X9240548Y-16767476D01*
X9211976Y-16767476D01*
X9392929Y-16767476D02*
X9373881Y-16757952D01*
X9364357Y-16738905D01*
X9364357Y-16567476D01*
X9545310Y-16757952D02*
X9526262Y-16767476D01*
X9488167Y-16767476D01*
X9469119Y-16757952D01*
X9459595Y-16738905D01*
X9459595Y-16662714D01*
X9469119Y-16643667D01*
X9488167Y-16634143D01*
X9526262Y-16634143D01*
X9545310Y-16643667D01*
X9554833Y-16662714D01*
X9554833Y-16681762D01*
X9459595Y-16700809D01*
X9631024Y-16757952D02*
X9650071Y-16767476D01*
X9688167Y-16767476D01*
X9707214Y-16757952D01*
X9716738Y-16738905D01*
X9716738Y-16729381D01*
X9707214Y-16710333D01*
X9688167Y-16700809D01*
X9659595Y-16700809D01*
X9640548Y-16691286D01*
X9631024Y-16672238D01*
X9631024Y-16662714D01*
X9640548Y-16643667D01*
X9659595Y-16634143D01*
X9688167Y-16634143D01*
X9707214Y-16643667D01*
X9783405Y-16843667D02*
X9792929Y-16834143D01*
X9811976Y-16805571D01*
X9821500Y-16786524D01*
X9831024Y-16757952D01*
X9840548Y-16710333D01*
X9840548Y-16672238D01*
X9831024Y-16624619D01*
X9821500Y-16596048D01*
X9811976Y-16577000D01*
X9792929Y-16548428D01*
X9783405Y-16538905D01*
X4911500Y-17075000D02*
X5011500Y-16975000D01*
X4911500Y-16875000D01*
X4811500Y-16975000D01*
X4911500Y-17075000D01*
X5250071Y-16865476D02*
X5373881Y-16865476D01*
X5307214Y-16941667D01*
X5335786Y-16941667D01*
X5354833Y-16951190D01*
X5364357Y-16960714D01*
X5373881Y-16979762D01*
X5373881Y-17027381D01*
X5364357Y-17046429D01*
X5354833Y-17055952D01*
X5335786Y-17065476D01*
X5278643Y-17065476D01*
X5259595Y-17055952D01*
X5250071Y-17046429D01*
X5459595Y-17046429D02*
X5469119Y-17055952D01*
X5459595Y-17065476D01*
X5450071Y-17055952D01*
X5459595Y-17046429D01*
X5459595Y-17065476D01*
X5545310Y-16884524D02*
X5554833Y-16875000D01*
X5573881Y-16865476D01*
X5621500Y-16865476D01*
X5640548Y-16875000D01*
X5650071Y-16884524D01*
X5659595Y-16903571D01*
X5659595Y-16922619D01*
X5650071Y-16951190D01*
X5535786Y-17065476D01*
X5659595Y-17065476D01*
X5783405Y-16865476D02*
X5802452Y-16865476D01*
X5821500Y-16875000D01*
X5831024Y-16884524D01*
X5840548Y-16903571D01*
X5850071Y-16941667D01*
X5850071Y-16989286D01*
X5840548Y-17027381D01*
X5831024Y-17046429D01*
X5821500Y-17055952D01*
X5802452Y-17065476D01*
X5783405Y-17065476D01*
X5764357Y-17055952D01*
X5754833Y-17046429D01*
X5745309Y-17027381D01*
X5735786Y-16989286D01*
X5735786Y-16941667D01*
X5745309Y-16903571D01*
X5754833Y-16884524D01*
X5764357Y-16875000D01*
X5783405Y-16865476D01*
X5973881Y-16865476D02*
X5992928Y-16865476D01*
X6011976Y-16875000D01*
X6021500Y-16884524D01*
X6031024Y-16903571D01*
X6040548Y-16941667D01*
X6040548Y-16989286D01*
X6031024Y-17027381D01*
X6021500Y-17046429D01*
X6011976Y-17055952D01*
X5992928Y-17065476D01*
X5973881Y-17065476D01*
X5954833Y-17055952D01*
X5945309Y-17046429D01*
X5935786Y-17027381D01*
X5926262Y-16989286D01*
X5926262Y-16941667D01*
X5935786Y-16903571D01*
X5945309Y-16884524D01*
X5954833Y-16875000D01*
X5973881Y-16865476D01*
X6126262Y-17065476D02*
X6126262Y-16932143D01*
X6126262Y-16951190D02*
X6135786Y-16941667D01*
X6154833Y-16932143D01*
X6183405Y-16932143D01*
X6202452Y-16941667D01*
X6211976Y-16960714D01*
X6211976Y-17065476D01*
X6211976Y-16960714D02*
X6221500Y-16941667D01*
X6240548Y-16932143D01*
X6269119Y-16932143D01*
X6288167Y-16941667D01*
X6297690Y-16960714D01*
X6297690Y-17065476D01*
X6392928Y-17065476D02*
X6392928Y-16932143D01*
X6392928Y-16951190D02*
X6402452Y-16941667D01*
X6421500Y-16932143D01*
X6450071Y-16932143D01*
X6469119Y-16941667D01*
X6478643Y-16960714D01*
X6478643Y-17065476D01*
X6478643Y-16960714D02*
X6488167Y-16941667D01*
X6507214Y-16932143D01*
X6535786Y-16932143D01*
X6554833Y-16941667D01*
X6564357Y-16960714D01*
X6564357Y-17065476D01*
X6954833Y-16855952D02*
X6783405Y-17113095D01*
X7211976Y-16865476D02*
X7231024Y-16865476D01*
X7250071Y-16875000D01*
X7259595Y-16884524D01*
X7269119Y-16903571D01*
X7278643Y-16941667D01*
X7278643Y-16989286D01*
X7269119Y-17027381D01*
X7259595Y-17046429D01*
X7250071Y-17055952D01*
X7231024Y-17065476D01*
X7211976Y-17065476D01*
X7192928Y-17055952D01*
X7183405Y-17046429D01*
X7173881Y-17027381D01*
X7164357Y-16989286D01*
X7164357Y-16941667D01*
X7173881Y-16903571D01*
X7183405Y-16884524D01*
X7192928Y-16875000D01*
X7211976Y-16865476D01*
X7364357Y-17046429D02*
X7373881Y-17055952D01*
X7364357Y-17065476D01*
X7354833Y-17055952D01*
X7364357Y-17046429D01*
X7364357Y-17065476D01*
X7564357Y-17065476D02*
X7450071Y-17065476D01*
X7507214Y-17065476D02*
X7507214Y-16865476D01*
X7488167Y-16894048D01*
X7469119Y-16913095D01*
X7450071Y-16922619D01*
X7640548Y-16884524D02*
X7650071Y-16875000D01*
X7669119Y-16865476D01*
X7716738Y-16865476D01*
X7735786Y-16875000D01*
X7745309Y-16884524D01*
X7754833Y-16903571D01*
X7754833Y-16922619D01*
X7745309Y-16951190D01*
X7631024Y-17065476D01*
X7754833Y-17065476D01*
X7926262Y-16865476D02*
X7888167Y-16865476D01*
X7869119Y-16875000D01*
X7859595Y-16884524D01*
X7840548Y-16913095D01*
X7831024Y-16951190D01*
X7831024Y-17027381D01*
X7840548Y-17046429D01*
X7850071Y-17055952D01*
X7869119Y-17065476D01*
X7907214Y-17065476D01*
X7926262Y-17055952D01*
X7935786Y-17046429D01*
X7945309Y-17027381D01*
X7945309Y-16979762D01*
X7935786Y-16960714D01*
X7926262Y-16951190D01*
X7907214Y-16941667D01*
X7869119Y-16941667D01*
X7850071Y-16951190D01*
X7840548Y-16960714D01*
X7831024Y-16979762D01*
X8069119Y-16865476D02*
X8088167Y-16865476D01*
X8107214Y-16875000D01*
X8116738Y-16884524D01*
X8126262Y-16903571D01*
X8135786Y-16941667D01*
X8135786Y-16989286D01*
X8126262Y-17027381D01*
X8116738Y-17046429D01*
X8107214Y-17055952D01*
X8088167Y-17065476D01*
X8069119Y-17065476D01*
X8050071Y-17055952D01*
X8040548Y-17046429D01*
X8031024Y-17027381D01*
X8021500Y-16989286D01*
X8021500Y-16941667D01*
X8031024Y-16903571D01*
X8040548Y-16884524D01*
X8050071Y-16875000D01*
X8069119Y-16865476D01*
X8211976Y-16865476D02*
X8211976Y-16903571D01*
X8288167Y-16865476D02*
X8288167Y-16903571D01*
X8583405Y-17141667D02*
X8573881Y-17132143D01*
X8554833Y-17103571D01*
X8545310Y-17084524D01*
X8535786Y-17055952D01*
X8526262Y-17008333D01*
X8526262Y-16970238D01*
X8535786Y-16922619D01*
X8545310Y-16894048D01*
X8554833Y-16875000D01*
X8573881Y-16846429D01*
X8583405Y-16836905D01*
X8745310Y-16932143D02*
X8745310Y-17065476D01*
X8697690Y-16855952D02*
X8650071Y-16998810D01*
X8773881Y-16998810D01*
X9002452Y-17065476D02*
X9002452Y-16865476D01*
X9088167Y-17065476D02*
X9088167Y-16960714D01*
X9078643Y-16941667D01*
X9059595Y-16932143D01*
X9031024Y-16932143D01*
X9011976Y-16941667D01*
X9002452Y-16951190D01*
X9211976Y-17065476D02*
X9192929Y-17055952D01*
X9183405Y-17046429D01*
X9173881Y-17027381D01*
X9173881Y-16970238D01*
X9183405Y-16951190D01*
X9192929Y-16941667D01*
X9211976Y-16932143D01*
X9240548Y-16932143D01*
X9259595Y-16941667D01*
X9269119Y-16951190D01*
X9278643Y-16970238D01*
X9278643Y-17027381D01*
X9269119Y-17046429D01*
X9259595Y-17055952D01*
X9240548Y-17065476D01*
X9211976Y-17065476D01*
X9392929Y-17065476D02*
X9373881Y-17055952D01*
X9364357Y-17036905D01*
X9364357Y-16865476D01*
X9545310Y-17055952D02*
X9526262Y-17065476D01*
X9488167Y-17065476D01*
X9469119Y-17055952D01*
X9459595Y-17036905D01*
X9459595Y-16960714D01*
X9469119Y-16941667D01*
X9488167Y-16932143D01*
X9526262Y-16932143D01*
X9545310Y-16941667D01*
X9554833Y-16960714D01*
X9554833Y-16979762D01*
X9459595Y-16998810D01*
X9631024Y-17055952D02*
X9650071Y-17065476D01*
X9688167Y-17065476D01*
X9707214Y-17055952D01*
X9716738Y-17036905D01*
X9716738Y-17027381D01*
X9707214Y-17008333D01*
X9688167Y-16998810D01*
X9659595Y-16998810D01*
X9640548Y-16989286D01*
X9631024Y-16970238D01*
X9631024Y-16960714D01*
X9640548Y-16941667D01*
X9659595Y-16932143D01*
X9688167Y-16932143D01*
X9707214Y-16941667D01*
X9783405Y-17141667D02*
X9792929Y-17132143D01*
X9811976Y-17103571D01*
X9821500Y-17084524D01*
X9831024Y-17055952D01*
X9840548Y-17008333D01*
X9840548Y-16970238D01*
X9831024Y-16922619D01*
X9821500Y-16894048D01*
X9811976Y-16875000D01*
X9792929Y-16846429D01*
X9783405Y-16836905D01*
X4811500Y-17195000D02*
X5011500Y-17395000D01*
X5011500Y-17195000D02*
X4811500Y-17395000D01*
X5011500Y-17295000D02*
G75*
G03*
X5011500Y-17295000I-100000J0D01*
G01*
X5354833Y-17252143D02*
X5354833Y-17385476D01*
X5307214Y-17175952D02*
X5259595Y-17318810D01*
X5383405Y-17318810D01*
X5459595Y-17366429D02*
X5469119Y-17375952D01*
X5459595Y-17385476D01*
X5450071Y-17375952D01*
X5459595Y-17366429D01*
X5459595Y-17385476D01*
X5650071Y-17185476D02*
X5554833Y-17185476D01*
X5545310Y-17280714D01*
X5554833Y-17271190D01*
X5573881Y-17261667D01*
X5621500Y-17261667D01*
X5640548Y-17271190D01*
X5650071Y-17280714D01*
X5659595Y-17299762D01*
X5659595Y-17347381D01*
X5650071Y-17366429D01*
X5640548Y-17375952D01*
X5621500Y-17385476D01*
X5573881Y-17385476D01*
X5554833Y-17375952D01*
X5545310Y-17366429D01*
X5783405Y-17185476D02*
X5802452Y-17185476D01*
X5821500Y-17195000D01*
X5831024Y-17204524D01*
X5840548Y-17223571D01*
X5850071Y-17261667D01*
X5850071Y-17309286D01*
X5840548Y-17347381D01*
X5831024Y-17366429D01*
X5821500Y-17375952D01*
X5802452Y-17385476D01*
X5783405Y-17385476D01*
X5764357Y-17375952D01*
X5754833Y-17366429D01*
X5745309Y-17347381D01*
X5735786Y-17309286D01*
X5735786Y-17261667D01*
X5745309Y-17223571D01*
X5754833Y-17204524D01*
X5764357Y-17195000D01*
X5783405Y-17185476D01*
X5973881Y-17185476D02*
X5992928Y-17185476D01*
X6011976Y-17195000D01*
X6021500Y-17204524D01*
X6031024Y-17223571D01*
X6040548Y-17261667D01*
X6040548Y-17309286D01*
X6031024Y-17347381D01*
X6021500Y-17366429D01*
X6011976Y-17375952D01*
X5992928Y-17385476D01*
X5973881Y-17385476D01*
X5954833Y-17375952D01*
X5945309Y-17366429D01*
X5935786Y-17347381D01*
X5926262Y-17309286D01*
X5926262Y-17261667D01*
X5935786Y-17223571D01*
X5945309Y-17204524D01*
X5954833Y-17195000D01*
X5973881Y-17185476D01*
X6126262Y-17385476D02*
X6126262Y-17252143D01*
X6126262Y-17271190D02*
X6135786Y-17261667D01*
X6154833Y-17252143D01*
X6183405Y-17252143D01*
X6202452Y-17261667D01*
X6211976Y-17280714D01*
X6211976Y-17385476D01*
X6211976Y-17280714D02*
X6221500Y-17261667D01*
X6240548Y-17252143D01*
X6269119Y-17252143D01*
X6288167Y-17261667D01*
X6297690Y-17280714D01*
X6297690Y-17385476D01*
X6392928Y-17385476D02*
X6392928Y-17252143D01*
X6392928Y-17271190D02*
X6402452Y-17261667D01*
X6421500Y-17252143D01*
X6450071Y-17252143D01*
X6469119Y-17261667D01*
X6478643Y-17280714D01*
X6478643Y-17385476D01*
X6478643Y-17280714D02*
X6488167Y-17261667D01*
X6507214Y-17252143D01*
X6535786Y-17252143D01*
X6554833Y-17261667D01*
X6564357Y-17280714D01*
X6564357Y-17385476D01*
X6954833Y-17175952D02*
X6783405Y-17433095D01*
X7211976Y-17185476D02*
X7231024Y-17185476D01*
X7250071Y-17195000D01*
X7259595Y-17204524D01*
X7269119Y-17223571D01*
X7278643Y-17261667D01*
X7278643Y-17309286D01*
X7269119Y-17347381D01*
X7259595Y-17366429D01*
X7250071Y-17375952D01*
X7231024Y-17385476D01*
X7211976Y-17385476D01*
X7192928Y-17375952D01*
X7183405Y-17366429D01*
X7173881Y-17347381D01*
X7164357Y-17309286D01*
X7164357Y-17261667D01*
X7173881Y-17223571D01*
X7183405Y-17204524D01*
X7192928Y-17195000D01*
X7211976Y-17185476D01*
X7364357Y-17366429D02*
X7373881Y-17375952D01*
X7364357Y-17385476D01*
X7354833Y-17375952D01*
X7364357Y-17366429D01*
X7364357Y-17385476D01*
X7564357Y-17385476D02*
X7450071Y-17385476D01*
X7507214Y-17385476D02*
X7507214Y-17185476D01*
X7488167Y-17214048D01*
X7469119Y-17233095D01*
X7450071Y-17242619D01*
X7631024Y-17185476D02*
X7764357Y-17185476D01*
X7678643Y-17385476D01*
X7821500Y-17185476D02*
X7954833Y-17185476D01*
X7869119Y-17385476D01*
X8021500Y-17204524D02*
X8031024Y-17195000D01*
X8050071Y-17185476D01*
X8097690Y-17185476D01*
X8116738Y-17195000D01*
X8126262Y-17204524D01*
X8135786Y-17223571D01*
X8135786Y-17242619D01*
X8126262Y-17271190D01*
X8011976Y-17385476D01*
X8135786Y-17385476D01*
X8211976Y-17185476D02*
X8211976Y-17223571D01*
X8288167Y-17185476D02*
X8288167Y-17223571D01*
X8583405Y-17461667D02*
X8573881Y-17452143D01*
X8554833Y-17423571D01*
X8545310Y-17404524D01*
X8535786Y-17375952D01*
X8526262Y-17328333D01*
X8526262Y-17290238D01*
X8535786Y-17242619D01*
X8545310Y-17214048D01*
X8554833Y-17195000D01*
X8573881Y-17166429D01*
X8583405Y-17156905D01*
X8650071Y-17204524D02*
X8659595Y-17195000D01*
X8678643Y-17185476D01*
X8726262Y-17185476D01*
X8745310Y-17195000D01*
X8754833Y-17204524D01*
X8764357Y-17223571D01*
X8764357Y-17242619D01*
X8754833Y-17271190D01*
X8640548Y-17385476D01*
X8764357Y-17385476D01*
X9002452Y-17385476D02*
X9002452Y-17185476D01*
X9088167Y-17385476D02*
X9088167Y-17280714D01*
X9078643Y-17261667D01*
X9059595Y-17252143D01*
X9031024Y-17252143D01*
X9011976Y-17261667D01*
X9002452Y-17271190D01*
X9211976Y-17385476D02*
X9192929Y-17375952D01*
X9183405Y-17366429D01*
X9173881Y-17347381D01*
X9173881Y-17290238D01*
X9183405Y-17271190D01*
X9192929Y-17261667D01*
X9211976Y-17252143D01*
X9240548Y-17252143D01*
X9259595Y-17261667D01*
X9269119Y-17271190D01*
X9278643Y-17290238D01*
X9278643Y-17347381D01*
X9269119Y-17366429D01*
X9259595Y-17375952D01*
X9240548Y-17385476D01*
X9211976Y-17385476D01*
X9392929Y-17385476D02*
X9373881Y-17375952D01*
X9364357Y-17356905D01*
X9364357Y-17185476D01*
X9545310Y-17375952D02*
X9526262Y-17385476D01*
X9488167Y-17385476D01*
X9469119Y-17375952D01*
X9459595Y-17356905D01*
X9459595Y-17280714D01*
X9469119Y-17261667D01*
X9488167Y-17252143D01*
X9526262Y-17252143D01*
X9545310Y-17261667D01*
X9554833Y-17280714D01*
X9554833Y-17299762D01*
X9459595Y-17318810D01*
X9631024Y-17375952D02*
X9650071Y-17385476D01*
X9688167Y-17385476D01*
X9707214Y-17375952D01*
X9716738Y-17356905D01*
X9716738Y-17347381D01*
X9707214Y-17328333D01*
X9688167Y-17318810D01*
X9659595Y-17318810D01*
X9640548Y-17309286D01*
X9631024Y-17290238D01*
X9631024Y-17280714D01*
X9640548Y-17261667D01*
X9659595Y-17252143D01*
X9688167Y-17252143D01*
X9707214Y-17261667D01*
X9783405Y-17461667D02*
X9792929Y-17452143D01*
X9811976Y-17423571D01*
X9821500Y-17404524D01*
X9831024Y-17375952D01*
X9840548Y-17328333D01*
X9840548Y-17290238D01*
X9831024Y-17242619D01*
X9821500Y-17214048D01*
X9811976Y-17195000D01*
X9792929Y-17166429D01*
X9783405Y-17156905D01*
M02*
