M48
; DRILL file {KiCad (6.0.9)} date Wed Feb  1 20:08:36 2023
; FORMAT={-:-/ absolute / metric / decimal}
; #@! TF.CreationDate,2023-02-01T20:08:36-08:00
; #@! TF.GenerationSoftware,Kicad,Pcbnew,(6.0.9)
; #@! TF.FileFunction,Plated,1,2,PTH
FMAT,2
METRIC
; #@! TA.AperFunction,Plated,PTH,ViaDrill
T1C0.254
; #@! TA.AperFunction,Plated,PTH,ComponentDrill
T2C0.500
; #@! TA.AperFunction,Plated,PTH,ComponentDrill
T3C1.000
; #@! TA.AperFunction,Plated,PTH,ComponentDrill
T4C1.780
; #@! TA.AperFunction,Plated,PTH,ComponentDrill
T5C3.200
; #@! TA.AperFunction,Plated,PTH,ComponentDrill
T6C4.500
%
G90
G05
T1
X78.232Y-131.064
X80.772Y-135.636
X80.772Y-136.652
X81.788Y-136.652
X81.788Y-137.668
X82.804Y-136.652
X82.804Y-137.668
X83.82Y-136.652
X83.82Y-137.668
X83.82Y-138.684
X84.836Y-136.652
X102.362Y-131.064
X104.902Y-135.636
X104.902Y-136.652
X105.918Y-136.652
X105.918Y-137.668
X106.934Y-136.652
X106.934Y-137.668
X107.95Y-136.652
X107.95Y-137.668
X107.95Y-138.684
X108.966Y-136.652
X126.492Y-131.064
X129.032Y-135.636
X129.032Y-136.652
X130.048Y-136.652
X130.048Y-137.668
X131.064Y-136.652
X131.064Y-137.668
X132.08Y-136.652
X132.08Y-137.668
X132.08Y-138.684
X133.096Y-136.652
X150.622Y-131.024
X153.162Y-135.596
X153.162Y-136.612
X154.178Y-136.612
X154.178Y-137.628
X155.194Y-136.612
X155.194Y-137.628
X156.21Y-136.612
X156.21Y-137.628
X156.21Y-138.644
X157.226Y-136.612
X158.75Y-144.145
T2
X52.21Y-121.285
X52.21Y-147.955
X52.913Y-119.588
X52.913Y-122.982
X52.913Y-146.258
X52.913Y-149.652
X54.61Y-118.885
X54.61Y-123.685
X54.61Y-145.555
X54.61Y-150.355
X56.307Y-119.588
X56.307Y-122.982
X56.307Y-146.258
X56.307Y-149.652
X57.01Y-121.285
X57.01Y-147.955
X169.05Y-121.285
X169.05Y-147.955
X169.753Y-119.588
X169.753Y-122.982
X169.753Y-146.258
X169.753Y-149.652
X171.45Y-118.885
X171.45Y-123.685
X171.45Y-145.555
X171.45Y-150.355
X173.147Y-119.588
X173.147Y-122.982
X173.147Y-146.258
X173.147Y-149.652
X173.85Y-121.285
X173.85Y-147.955
T3
X74.93Y-120.69
X74.93Y-123.19
X82.55Y-120.69
X82.55Y-123.19
X90.17Y-120.69
X90.17Y-123.19
X99.06Y-120.69
X99.06Y-123.19
X106.68Y-120.69
X106.68Y-123.19
X114.3Y-120.69
X114.3Y-123.19
X123.19Y-120.69
X123.19Y-123.19
X130.81Y-120.69
X130.81Y-123.19
X138.43Y-120.69
X138.43Y-123.19
X147.32Y-120.65
X147.32Y-123.15
X154.94Y-120.65
X154.94Y-123.15
X162.56Y-120.65
X162.56Y-123.15
T4
X63.07Y-138.55
X63.07Y-148.47
X66.47Y-138.55
X66.47Y-148.47
T5
X54.61Y-121.285
X54.61Y-147.955
X171.45Y-121.285
X171.45Y-147.955
T6
X64.77Y-122.34
X64.77Y-129.54
T0
M30
